<svg xmlns="http://www.w3.org/2000/svg" width="554.633" height="246.305" viewBox="0 0 554.633 246.305">
  <g id="Group_3468" data-name="Group 3468" transform="translate(2 0.505)">
    <rect id="Rectangle_291" data-name="Rectangle 291" width="16.411" height="56.808" transform="translate(474.493 98.795)" fill="#f2f2f2"/>
    <path id="Path_861" data-name="Path 861" d="M780.794,226.537l-39.915-47.485-80.12.732-48.6,47.34.982.631h-.351v98.467h167.9V227.756Z" transform="translate(-279.052 -81.621)" fill="#f2f2f2"/>
    <path id="Path_862" data-name="Path 862" d="M807.019,179.238,757.154,237.7v88.609h89.631v-99.73Z" transform="translate(-345.15 -81.706)" fill="#e6e6e6"/>
    <path id="Path_863" data-name="Path 863" d="M949.061,193.065l-75.03-5L920.019,48.954Z" transform="translate(-398.428 -22.316)" fill="#649aae" stroke="#649aae" stroke-linecap="round" stroke-linejoin="round" stroke-width="4"/>
    <rect id="Rectangle_292" data-name="Rectangle 292" width="18.305" height="16.179" transform="translate(447.983 195.6)" fill="#3f3d56"/>
    <rect id="Rectangle_293" data-name="Rectangle 293" width="18.305" height="15.923" transform="translate(447.983 167.595)" fill="#3f3d56"/>
    <rect id="Rectangle_294" data-name="Rectangle 294" width="18.305" height="16.179" transform="translate(447.983 195.6)" fill="#fff"/>
    <rect id="Rectangle_295" data-name="Rectangle 295" width="18.305" height="15.923" transform="translate(447.983 167.595)" fill="#fff"/>
    <rect id="Rectangle_296" data-name="Rectangle 296" width="18.305" height="16.179" transform="translate(366.635 191.307)" fill="#fff"/>
    <rect id="Rectangle_297" data-name="Rectangle 297" width="18.305" height="15.923" transform="translate(366.635 163.302)" fill="#fff"/>
    <rect id="Rectangle_298" data-name="Rectangle 298" width="16.411" height="56.808" transform="translate(344.986 98.795)" fill="#f2f2f2"/>
    <path id="Path_864" data-name="Path 864" d="M542.794,226.537l-39.915-47.485-80.12.732-48.6,47.34.982.631h-.351v98.467h167.9V227.756Z" transform="translate(-170.56 -81.621)" fill="#f2f2f2"/>
    <path id="Path_865" data-name="Path 865" d="M569.019,179.238,519.154,237.7v88.609h89.631v-99.73Z" transform="translate(-236.657 -81.706)" fill="#e6e6e6"/>
    <rect id="Rectangle_299" data-name="Rectangle 299" width="18.305" height="16.179" transform="translate(318.475 195.6)" fill="#3f3d56"/>
    <rect id="Rectangle_300" data-name="Rectangle 300" width="18.305" height="15.923" transform="translate(318.475 167.595)" fill="#3f3d56"/>
    <rect id="Rectangle_301" data-name="Rectangle 301" width="18.305" height="16.179" transform="translate(318.475 195.6)" fill="#fff"/>
    <rect id="Rectangle_302" data-name="Rectangle 302" width="18.305" height="15.923" transform="translate(318.475 167.595)" fill="#fff"/>
    <rect id="Rectangle_303" data-name="Rectangle 303" width="18.305" height="16.179" transform="translate(237.127 191.307)" fill="#fff"/>
    <rect id="Rectangle_304" data-name="Rectangle 304" width="18.305" height="15.923" transform="translate(237.127 163.302)" fill="#fff"/>
    <rect id="Rectangle_305" data-name="Rectangle 305" width="21.929" height="75.909" transform="translate(206.86 49.768)" fill="#f2f2f2"/>
    <path id="Path_866" data-name="Path 866" d="M258.292,151.563,204.956,88.112,97.9,89.09,32.951,152.348l1.312.843h-.469V284.768H258.149V153.192Z" transform="translate(-15.021 -40.166)" fill="#f2f2f2"/>
    <path id="Path_867" data-name="Path 867" d="M293.334,88.36,226.7,166.479v118.4H346.47V151.618Z" transform="translate(-103.342 -40.279)" fill="#e6e6e6"/>
    <rect id="Rectangle_306" data-name="Rectangle 306" width="24.46" height="21.62" transform="translate(171.436 179.124)" fill="#3f3d56"/>
    <rect id="Rectangle_307" data-name="Rectangle 307" width="24.46" height="21.277" transform="translate(171.436 141.703)" fill="#3f3d56"/>
    <rect id="Rectangle_308" data-name="Rectangle 308" width="24.46" height="21.62" transform="translate(171.436 179.124)" fill="#fff"/>
    <rect id="Rectangle_309" data-name="Rectangle 309" width="24.46" height="21.277" transform="translate(171.436 141.703)" fill="#fff"/>
    <rect id="Rectangle_310" data-name="Rectangle 310" width="24.46" height="21.62" transform="translate(62.735 173.387)" fill="#fff"/>
    <rect id="Rectangle_311" data-name="Rectangle 311" width="24.46" height="21.277" transform="translate(62.735 135.966)" fill="#fff"/>
    <rect id="Rectangle_312" data-name="Rectangle 312" width="524.532" height="1.088" transform="translate(0 244.116)" fill="#3f3d56"/>
    <path id="Path_868" data-name="Path 868" d="M935.961,334.672c9.747-69.1.1-137.944,0-138.631l-.971.194c.1.686,9.718,69.346,0,138.246Z" transform="translate(-426.216 -89.366)" fill="#3f3d56"/>
    <path id="Path_869" data-name="Path 869" d="M918.572,238l.261-1.1,12.371,14.98-.261,1.1Z" transform="translate(-418.732 -107.992)" fill="#3f3d56"/>
    <path id="Path_870" data-name="Path 870" d="M943.559,263l18-17.744.38,1.306-18,17.744Z" transform="translate(-430.123 -111.799)" fill="#3f3d56"/>
    <path id="Path_871" data-name="Path 871" d="M583.333,98.063l5.009-4.007c-3.891-.429-5.49,1.693-6.145,3.373-3.04-1.262-6.35.392-6.35.392l10.023,3.639A7.579,7.579,0,0,0,583.333,98.063Z" transform="translate(-262.501 -42.85)" fill="#284758" stroke="#284758" stroke-linecap="round" stroke-linejoin="round" stroke-width="1"/>
    <path id="Path_872" data-name="Path 872" d="M358.333,33.063l5.009-4.007c-3.891-.429-5.49,1.693-6.145,3.373-3.04-1.262-6.35.392-6.35.392l10.023,3.639A7.58,7.58,0,0,0,358.333,33.063Z" transform="translate(-159.935 -13.22)" fill="#284758" stroke="#284758" stroke-linecap="round" stroke-linejoin="round" stroke-width="1"/>
    <path id="Path_873" data-name="Path 873" d="M725.333,4.063,730.343.056c-3.891-.429-5.49,1.693-6.145,3.373-3.04-1.262-6.35.392-6.35.392L727.871,7.46A7.58,7.58,0,0,0,725.333,4.063Z" transform="translate(-327.232 0)" fill="#284758" stroke="#284758" stroke-linecap="round" stroke-linejoin="round" stroke-width="1"/>
    <path id="Path_874" data-name="Path 874" d="M735.6,436.14a7.578,7.578,0,0,0-3.793,1.018,8.152,8.152,0,0,0-13.62,6.056h25A7.612,7.612,0,0,0,735.6,436.14Z" transform="translate(-327.388 -198.319)" fill="#284758" stroke="#284758" stroke-linecap="round" stroke-linejoin="round" stroke-width="1"/>
    <path id="Path_875" data-name="Path 875" d="M268.6,436.14a7.578,7.578,0,0,0-3.793,1.018,8.152,8.152,0,0,0-13.62,6.056h25A7.612,7.612,0,0,0,268.6,436.14Z" transform="translate(-114.506 -198.319)" fill="#284758" stroke="#284758" stroke-linecap="round" stroke-linejoin="round" stroke-width="1"/>
    <path id="Path_876" data-name="Path 876" d="M507.6,436.14a7.577,7.577,0,0,0-3.793,1.018,8.152,8.152,0,0,0-13.62,6.056h25A7.612,7.612,0,0,0,507.6,436.14Z" transform="translate(-223.454 -198.319)" fill="#284758" stroke="#284758" stroke-linecap="round" stroke-linejoin="round" stroke-width="1"/>
    <path id="Path_877" data-name="Path 877" d="M411.328,404.228H339.191v2.327h11.25v22.107h2.327V406.555h43.819v22.107h2.327V406.555h12.414Z" transform="translate(-154.621 -184.268)" fill="#284758" stroke="#284758" stroke-linecap="round" stroke-linejoin="round" stroke-width="1"/>
    <rect id="Rectangle_313" data-name="Rectangle 313" width="72.137" height="2.327" transform="translate(184.712 212.998)" fill="#284758" stroke="#284758" stroke-linecap="round" stroke-linejoin="round" stroke-width="1"/>
    <rect id="Rectangle_314" data-name="Rectangle 314" width="72.137" height="2.327" transform="translate(184.712 207.181)" fill="#284758" stroke="#284758" stroke-linecap="round" stroke-linejoin="round" stroke-width="1"/>
    <rect id="Rectangle_315" data-name="Rectangle 315" width="72.137" height="2.327" transform="translate(184.712 201.363)" fill="#284758" stroke="#284758" stroke-linecap="round" stroke-linejoin="round" stroke-width="1"/>
    <path id="Path_878" data-name="Path 878" d="M618.328,404.228H546.191v2.327h11.25v22.107h2.327V406.555h43.819v22.107h2.327V406.555h12.414Z" transform="translate(-248.982 -184.268)" fill="#284758" stroke="#284758" stroke-linecap="round" stroke-linejoin="round" stroke-width="1"/>
    <rect id="Rectangle_316" data-name="Rectangle 316" width="72.137" height="2.327" transform="translate(297.351 212.998)" fill="#284758" stroke="#284758" stroke-linecap="round" stroke-linejoin="round" stroke-width="1"/>
    <rect id="Rectangle_317" data-name="Rectangle 317" width="72.137" height="2.327" transform="translate(297.351 207.181)" fill="#284758" stroke="#284758" stroke-linecap="round" stroke-linejoin="round" stroke-width="1"/>
    <rect id="Rectangle_318" data-name="Rectangle 318" width="72.137" height="2.327" transform="translate(297.351 201.363)" fill="#284758" stroke="#284758" stroke-linecap="round" stroke-linejoin="round" stroke-width="1"/>
    <path id="Path_879" data-name="Path 879" d="M111.29,163.492,173.349,13.709l59.919,149.783Z" transform="translate(-50.732 -6.249)" fill="#facfcb" stroke="#facfcb" stroke-linecap="round" stroke-linejoin="round" stroke-width="6"/>
    <path id="Path_880" data-name="Path 880" d="M689.706,163.492,751.765,13.709l59.919,149.783Z" transform="translate(-314.404 -6.249)" fill="#ebd96c" stroke="#ebd96c" stroke-linecap="round" stroke-linejoin="round" stroke-width="2"/>
    <path id="Path_881" data-name="Path 881" d="M65.021,201.668,0,206.09,45.988,66.981Z" transform="translate(0 -30.534)" fill="#649aae" stroke="#649aae" stroke-linecap="round" stroke-linejoin="round" stroke-width="4"/>
    <path id="Path_882" data-name="Path 882" d="M120.659,280.928l30.161,56.449-70.5.4Z" transform="translate(-36.613 -128.061)" fill="#ebd96c" stroke="#ebd96c" stroke-linecap="round" stroke-linejoin="round" stroke-width="2"/>
    <path id="Path_883" data-name="Path 883" d="M850.524,312.861l21.436,42.367-52.292,1.467Z" transform="translate(-373.646 -142.618)" fill="#facfcb" stroke="#facfcb" stroke-linecap="round" stroke-linejoin="round" stroke-width="6"/>
    <path id="Path_884" data-name="Path 884" d="M225.232,291.133c-14.764-94.232-.149-188.121,0-189.058l1.075.194c-.149.935-14.733,94.639,0,188.674Z" transform="translate(-99.666 -46.531)" fill="#284758" stroke="#284758" stroke-linecap="round" stroke-linejoin="round" stroke-width="1"/>
    <path id="Path_885" data-name="Path 885" d="M222.006,197.614l33.393-19,.514,1.023-33.393,19Z" transform="translate(-101.202 -81.421)" fill="#284758" stroke="#284758" stroke-linecap="round" stroke-linejoin="round" stroke-width="1"/>
    <path id="Path_886" data-name="Path 886" d="M157.241,197.128l.515-1.023,33.388,19.009-.515,1.023Z" transform="translate(-71.678 -89.395)" fill="#284758" stroke="#284758" stroke-linecap="round" stroke-linejoin="round" stroke-width="1"/>
    <path id="Path_887" data-name="Path 887" d="M152.186,385.705c-6.341-38.05-.064-75.962,0-76.34l1.234.209c-.064.377-6.306,38.09,0,75.926Z" transform="translate(-68.083 -141.025)" fill="#284758" stroke="#284758" stroke-linecap="round" stroke-linejoin="bevel" stroke-width="1"/>
    <rect id="Rectangle_319" data-name="Rectangle 319" width="16.238" height="1.251" transform="translate(82.263 192.509) rotate(-28.142)" fill="#284758" stroke="#284758" stroke-linecap="round" stroke-linejoin="bevel" stroke-width="1"/>
    <rect id="Rectangle_320" data-name="Rectangle 320" width="1.251" height="16.239" transform="matrix(0.472, -0.882, 0.882, 0.472, 67.151, 189.79)" fill="#284758" stroke="#284758" stroke-linecap="round" stroke-linejoin="bevel" stroke-width="1"/>
    <path id="Path_888" data-name="Path 888" d="M69.236,355.305c-9.47-56.822-.1-113.436,0-114l.943.16c-.1.564-9.443,57.026,0,113.685Z" transform="translate(-29.633 -109.999)" fill="#284758" stroke="#284758" stroke-linecap="round" stroke-linejoin="bevel" stroke-width="1"/>
    <path id="Path_889" data-name="Path 889" d="M71.115,249.917l14-17,.3,1.252-14,17Z" transform="translate(-32.418 -106.176)" fill="#284758" stroke="#284758" stroke-linecap="round" stroke-linejoin="bevel" stroke-width="1"/>
    <path id="Path_890" data-name="Path 890" d="M43.07,251.794l.3-1.1,14,14.988-.3,1.1Z" transform="translate(-19.633 -114.278)" fill="#284758" stroke="#284758" stroke-linecap="round" stroke-linejoin="bevel" stroke-width="1"/>
    <path id="Path_891" data-name="Path 891" d="M800.841,301.82c6.921-87.343.07-174.367,0-175.236l-.5.18c.07.867,6.906,87.72,0,174.88Z" transform="translate(-364.835 -57.704)" fill="#3f3d56" stroke="#3f3d56" stroke-miterlimit="10" stroke-width="1"/>
    <rect id="Rectangle_321" data-name="Rectangle 321" width="31.722" height="0.913" transform="translate(438.494 124.142) rotate(-28.157)" fill="#3f3d56"/>
    <path id="Path_892" data-name="Path 892" d="M748.664,206.658l.482-1.1,31.315,20.5-.482,1.1Z" transform="translate(-341.28 -93.702)" fill="#3f3d56"/>
    <path id="Path_893" data-name="Path 893" d="M874.387,397.5c5.429-31.607.055-63.1,0-63.414l-1.056.174c.055.312,5.4,31.64,0,63.07Z" transform="translate(-398.109 -152.292)" fill="#3f3d56"/>
    <rect id="Rectangle_322" data-name="Rectangle 322" width="1.251" height="16.238" transform="matrix(0.472, -0.882, 0.882, 0.472, 463.792, 197.925)" fill="#3f3d56"/>
    <path id="Path_894" data-name="Path 894" d="M877.5,376.307l10.005-6.551.413.943-10.005,6.551Z" transform="translate(-400.009 -168.554)" fill="#3f3d56"/>
  </g>
</svg>
