<svg xmlns="http://www.w3.org/2000/svg" width="21.863" height="27.488" viewBox="0 0 21.863 27.488">
  <g id="Group_1205" data-name="Group 1205" transform="translate(-1693.501 -625.5)">
    <g id="Group_865" data-name="Group 865" transform="translate(1694 626)">
      <path id="Path_1205" data-name="Path 1205" d="M80.785,439.394l-2.39,4.013a1.889,1.889,0,0,0-.265.967v18.82c.1,1.334-.479,1.856,1.743,1.827H97.251a1.786,1.786,0,0,0,1.743-1.827V440.361a1.786,1.786,0,0,0-1.743-1.827H82.265A1.728,1.728,0,0,0,80.785,439.394Z" transform="translate(-78.13 -438.534)" fill="none" stroke="#fff" stroke-linecap="round" stroke-miterlimit="10" stroke-width="1"/>
      <path id="Path_1206" data-name="Path 1206" d="M78.129,445.2" transform="translate(-78.129 -440.866)" fill="none" stroke="#fff" stroke-linecap="round" stroke-linejoin="round" stroke-width="1"/>
      <path id="Path_1207" data-name="Path 1207" d="M78.47,444.12h4.507L81.7,438.761" transform="translate(-78.248 -438.614)" fill="none" stroke="#fff" stroke-linecap="round" stroke-linejoin="round" stroke-width="1"/>
    </g>
    <line id="Line_97" data-name="Line 97" x2="8.617" transform="translate(1703.261 636.648)" fill="none" stroke="#fff" stroke-linecap="round" stroke-linejoin="round" stroke-width="1"/>
    <line id="Line_98" data-name="Line 98" x2="8.617" transform="translate(1703.261 640.415)" fill="none" stroke="#fff" stroke-linecap="round" stroke-linejoin="round" stroke-width="1"/>
    <line id="Line_99" data-name="Line 99" x2="8.649" transform="translate(1703.229 644.171)" fill="none" stroke="#fff" stroke-linecap="round" stroke-linejoin="round" stroke-width="1"/>
    <g id="Group_866" data-name="Group 866" transform="translate(1697.125 634.921)">
      <path id="Path_1208" data-name="Path 1208" d="M81.936,453l1.735,1.954,2.637-2.7" transform="translate(-81.936 -452.253)" fill="none" stroke="#fff" stroke-linecap="round" stroke-linejoin="round" stroke-width="1"/>
      <path id="Path_1209" data-name="Path 1209" d="M81.936,459.372l1.735,1.954,2.637-2.7" transform="translate(-81.936 -454.483)" fill="none" stroke="#fff" stroke-linecap="round" stroke-linejoin="round" stroke-width="1"/>
      <path id="Path_1210" data-name="Path 1210" d="M81.936,465.747l1.735,1.954,2.637-2.7" transform="translate(-81.936 -456.712)" fill="none" stroke="#fff" stroke-linecap="round" stroke-linejoin="round" stroke-width="1"/>
    </g>
  </g>
</svg>
