<svg xmlns="http://www.w3.org/2000/svg" width="24" height="24" viewBox="0 0 24 24">
  <g id="Group_1202" data-name="Group 1202" transform="translate(-404.045 337.863)">
    <path id="Path_2857" data-name="Path 2857" d="M422.849-328.24a7.2,7.2,0,0,0-5.6-7.016,1.773,1.773,0,0,0,.2-.806,1.8,1.8,0,0,0-1.8-1.8,1.8,1.8,0,0,0-1.8,1.8,1.774,1.774,0,0,0,.2.808,7.2,7.2,0,0,0-5.594,7.015v7.2l-2.4,2.4v1.2h7.516a2.374,2.374,0,0,0-.32,1.177,2.4,2.4,0,0,0,2.4,2.4,2.4,2.4,0,0,0,2.4-2.4,2.374,2.374,0,0,0-.32-1.177h7.525v-1.2l-2.4-2.4Z" transform="translate(0.401 0)" fill="#e25348"/>
    <path id="Path_2858" data-name="Path 2858" d="M422.617-328.313h2.4a11.98,11.98,0,0,0-4.285-9.187l-1.544,1.837A9.585,9.585,0,0,1,422.617-328.313Z" transform="translate(3.028 0.073)" fill="#e25348"/>
    <path id="Path_2859" data-name="Path 2859" d="M409.879-335.667l-1.544-1.837a11.983,11.983,0,0,0-4.29,9.192h2.4A9.586,9.586,0,0,1,409.879-335.667Z" transform="translate(0 0.072)" fill="#e25348"/>
  </g>
</svg>
