<svg xmlns="http://www.w3.org/2000/svg" width="22" height="22" viewBox="0 0 22 22">
  <g id="Group_1005" data-name="Group 1005" transform="translate(-1365.507 -529)">
    <g id="Path_931" data-name="Path 931" transform="translate(1365.507 529)" fill="none">
      <path d="M11,0A11,11,0,1,1,0,11,11,11,0,0,1,11,0Z" stroke="none"/>
      <path d="M 10.99999904632568 1.999998092651367 C 6.037379264831543 1.999998092651367 1.999998092651367 6.037379264831543 1.999998092651367 10.99999904632568 C 1.999998092651367 15.96261882781982 6.037379264831543 20 10.99999904632568 20 C 15.96261882781982 20 20 15.96261882781982 20 10.99999904632568 C 20 6.037379264831543 15.96261882781982 1.999998092651367 10.99999904632568 1.999998092651367 M 10.99999904632568 -1.9073486328125e-06 C 17.07512855529785 -1.9073486328125e-06 22 4.924869537353516 22 10.99999904632568 C 22 17.07512855529785 17.07512855529785 22 10.99999904632568 22 C 4.924869537353516 22 -1.9073486328125e-06 17.07512855529785 -1.9073486328125e-06 10.99999904632568 C -1.9073486328125e-06 4.924869537353516 4.924869537353516 -1.9073486328125e-06 10.99999904632568 -1.9073486328125e-06 Z" stroke="none" fill="#e25348"/>
    </g>
    <text id="i" transform="translate(1367 529)" fill="#e25348" font-size="16" font-family="SegoeUI, Segoe UI" letter-spacing="-0.02em"><tspan x="7.563" y="17">i</tspan></text>
  </g>
</svg>
