<svg id="ic_menu_cta-on" xmlns="http://www.w3.org/2000/svg" width="24" height="24" viewBox="0 0 24 24">
  <path id="Path_3026" data-name="Path 3026" d="M234.2-13.281l0-6.186a7.556,7.556,0,0,0-4.955-7.123c0-.016,0-.032,0-.048a2.654,2.654,0,0,0-2.649-2.65,2.655,2.655,0,0,0-2.651,2.658c0,.014,0,.028,0,.043a7.557,7.557,0,0,0-4.945,7.12v6.186l-1.907,1.907a1,1,0,0,0-.293.707v1.1a1,1,0,0,0,1,1h5.6c0,.026,0,.053,0,.079a3.2,3.2,0,0,0,3.2,3.2,3.205,3.205,0,0,0,3.2-3.208c0-.024,0-.047,0-.071H235.4a1,1,0,0,0,1-1v-1.1a1,1,0,0,0-.293-.707Zm-5.7,2.714a1,1,0,0,0-.866.5,1,1,0,0,0,0,1,1.194,1.194,0,0,1,.16.579,1.2,1.2,0,0,1-1.2,1.2,1.2,1.2,0,0,1-1.2-1.194,1.161,1.161,0,0,1,.159-.583,1,1,0,0,0,0-1,1,1,0,0,0-.866-.5h-5.575L220.7-12.16a1,1,0,0,0,.293-.707v-6.6a5.573,5.573,0,0,1,4.351-5.457,1,1,0,0,0,.685-.556,1,1,0,0,0-.021-.881.63.63,0,0,1-.071-.278.651.651,0,0,1,.65-.65.65.65,0,0,1,.65.646.61.61,0,0,1-.071.284,1,1,0,0,0-.019.88,1,1,0,0,0,.686.554,5.573,5.573,0,0,1,4.358,5.458l0,6.6a1,1,0,0,0,.293.706l1.593,1.593Zm10.094-8.9a1,1,0,0,1-1,1,1,1,0,0,1-1-1,9.957,9.957,0,0,0-3.573-7.655,1,1,0,0,1-.125-1.409,1,1,0,0,1,1.408-.124A11.949,11.949,0,0,1,238.59-19.466Zm-22,0a1,1,0,0,1-1,1,1,1,0,0,1-1-1,11.961,11.961,0,0,1,4.289-9.194,1,1,0,0,1,1.409.125,1,1,0,0,1-.124,1.409A9.961,9.961,0,0,0,216.59-19.467Z" transform="translate(-214.59 29.288)" fill="#294658"/>
</svg>
