<svg xmlns="http://www.w3.org/2000/svg" width="97.612" height="114.856" viewBox="0 0 97.612 114.856">
  <g id="Group_2565" data-name="Group 2565" transform="translate(0)">
    <path id="Path_622" data-name="Path 622" d="M173.984,310.747l10.149,51.017,48.739,18.185a52.022,52.022,0,0,0-58.887-69.2Z" transform="translate(-149.961 -266.971)" fill="#f2f2f2"/>
    <path id="Path_623" data-name="Path 623" d="M136.792,760.066a10.425,10.425,0,0,0,4.979,4.227A8.976,8.976,0,0,0,136,753.583,10.425,10.425,0,0,0,136.792,760.066Z" transform="translate(-117.046 -649.533)" fill="#2f2e41"/>
    <path id="Path_624" data-name="Path 624" d="M110.755,785.919a10.425,10.425,0,0,1,3.988,5.173,8.976,8.976,0,0,1-10.426-6.273A10.425,10.425,0,0,1,110.755,785.919Z" transform="translate(-89.913 -676.359)" fill="#294658"/>
    <path id="Path_625" data-name="Path 625" d="M172.014,506.231c4.511-11.865,5.163-27.217,4.215-44.017q-.021-.4-.046-.8-.213-3.633-.519-7.347h9.846q-.2,3.856-.286,7.638c0,.167-.007.333-.011.5-.315,16.144,1.131,31.144,5.839,44.026Z" transform="translate(-148.263 -391.375)" fill="#2f2e41"/>
    <path id="Path_626" data-name="Path 626" d="M337.286,691.648q-4.614-.782-8.876-1.343l1.123-2.177c-.379-.132-2.042,1.115-2.042,1.115l1.474-6.32c-1.9.23-2.873,6.683-2.873,6.683l-2.128-2.182,1.03,2.453a196.424,196.424,0,0,0-22.519-1.417l.961-1.864c-.379-.132-2.042,1.115-2.042,1.115l1.474-6.32c-1.9.23-2.873,6.683-2.873,6.683l-2.128-2.182,1.091,2.6a126.514,126.514,0,0,0-12.945.879c.972-2.9,4.275-5.664,4.275-5.664a7.392,7.392,0,0,0-4.537,3.179,50.905,50.905,0,0,1,2.942-17.588s-5.213,11.344-4.548,18.959l.08,1.352c-4.42.633-6.158,2.12-6.158,2.12Z" transform="translate(-239.674 -576.885)" fill="#3f3d56"/>
    <path id="Path_627" data-name="Path 627" d="M64.349,43.681C64.006,63.5,49.482,70.175,31.715,69.868q-.619-.011-1.232-.033-1.235-.043-2.443-.134C12.021,68.5-.312,61,.006,42.569.336,23.491,31.429,1.742,33.695,0,33.7,0,64.692,23.86,64.349,43.681Z" transform="translate(0)" fill="#294658"/>
    <circle id="Ellipse_70" data-name="Ellipse 70" cx="3.954" cy="3.954" r="3.954" transform="translate(49.365 82.308)" fill="#2f2e41"/>
    <circle id="Ellipse_71" data-name="Ellipse 71" cx="3.954" cy="3.954" r="3.954" transform="translate(45.082 77.102)" fill="#2f2e41"/>
    <path id="Path_628" data-name="Path 628" d="M319.379,587.679a3.954,3.954,0,0,0,6.106-2.076,3.954,3.954,0,1,1-7.713-1.622A3.952,3.952,0,0,0,319.379,587.679Z" transform="translate(-273.754 -503.349)" fill="#2f2e41"/>
    <circle id="Ellipse_72" data-name="Ellipse 72" cx="3.229" cy="3.229" r="3.229" transform="translate(51.112 84.581)" fill="#fde5e5"/>
    <path id="Path_629" data-name="Path 629" d="M359.715,647.655s-1.318,1.977-1.12,2.834c0,0,.857.4.857.527a12.922,12.922,0,0,0,.791,1.384l.922,1.252.4,1.647h-1.911l-2.109-1.647-2.043-2.241s-1.384-.659-2.109-.132l-.4.33a13.482,13.482,0,0,1,2.043-2.241,4.74,4.74,0,0,0,1.054-2.9Z" transform="translate(-304.254 -557.209)" fill="#fde5e5"/>
    <path id="Path_630" data-name="Path 630" d="M394.977,675.1a4.51,4.51,0,0,1,1.845,2.109c.527,1.384,2.9,6,2.9,6a23.763,23.763,0,0,1,.066,3.1c-.132.132-1.647-1.318-1.911-1.713s-1.318-5.14-1.318-5.14l-1.713-2.768-.329-1.581Z" transform="translate(-340.044 -581.891)" fill="#fde5e5"/>
    <path id="Path_631" data-name="Path 631" d="M427.924,694.983l.593-.2s3.624-2.24,3.822-3.229,3.1-4.283,3.163-2.5-2.109,3.756-2.109,3.756-4.745,6.656-5.008,4.745Z" transform="translate(-368.839 -593.465)" fill="#fde5e5"/>
    <path id="Path_632" data-name="Path 632" d="M265.195,682.468s-.066,1.845-2.636,2.5c0,0-2.636,3.559-2.9,5.14s-7.183,9.687-7.183,9.687-6.392.791-6.392,0,5.338-1.45,5.338-1.45,5.6-8.3,5.865-9.423,2.768-9.424,3.954-9.358c0,0,1.12-.527,1.779-.132A14.962,14.962,0,0,1,265.195,682.468Z" transform="translate(-212.106 -585.498)" fill="#fde5e5"/>
    <path id="Path_633" data-name="Path 633" d="M433.751,712.841s4.613-6.195,5.6-6.59,2.241-.659,2.966.264,9.292,11.73,9.292,11.73,3.031,3.1,4.547,2.5c0,0,.791.659-1.054.791a10.994,10.994,0,0,1-3.558-.4s-1.12.2-1.911.4-1.779.264-1.713-.264l.264-2.109s-6.788-5.6-6.985-7.974c0,0,.132-1.12,0-.989a28.3,28.3,0,0,1-4.152,3.756,35.4,35.4,0,0,1-4.349,1.582Z" transform="translate(-372.953 -608.424)" fill="#fde5e5"/>
    <path id="Path_634" data-name="Path 634" d="M433.751,712.841s4.613-6.195,5.6-6.59,2.241-.659,2.966.264,9.292,11.73,9.292,11.73,3.031,3.1,4.547,2.5c0,0,.791.659-1.054.791a10.994,10.994,0,0,1-3.558-.4s-1.12.2-1.911.4-1.779.264-1.713-.264l.264-2.109s-6.788-5.6-6.985-7.974c0,0,.132-1.12,0-.989a28.3,28.3,0,0,1-4.152,3.756,35.4,35.4,0,0,1-4.349,1.582Z" transform="translate(-372.953 -608.424)" opacity="0.1" style="isolation: isolate"/>
    <path id="Path_635" data-name="Path 635" d="M430.558,738.905s6.063-2.306,6.854-2.834,3.624-1.582,5.074-.4,8.5,6.656,10.873,7.183,6.458,1.779,6.458,1.779,2.636.2-.2,1.318c0,0-3.493.329-4.086.857s-2.57,1.186-2.7.329-.527-1.977-1.252-2.109-9.423-2.5-10.741-5.074a24.354,24.354,0,0,0-4.811,3.559c-1.845,1.911-6.195,2.965-6.195,2.965Z" transform="translate(-370.484 -633.632)" fill="#fde5e5"/>
    <path id="Path_636" data-name="Path 636" d="M378.447,747.172s2.889.768,3.125.483,1.488,1.3.3,4.46-.923,4.613-1.582,5.074-3.756-.264-4.679.066-2.109.593-2.5-1.318-1.384-5.272-1.186-5.733a8.834,8.834,0,0,1,1.252-1.516l2.175-1.12Z" transform="translate(-320.547 -644.007)" fill="#2f2e41"/>
    <path id="Path_637" data-name="Path 637" d="M346.41,677.436s.459-1.285,1.31-1.526a2.169,2.169,0,0,0,.213-.07,1.623,1.623,0,0,1,2,.574c.857,1.186,1.647,2.57.988,3.361a5.288,5.288,0,0,1-1.977,1.252l-.988,1.252s1.977,3.558,1.977,5.206c0,0,.066.659,1.186-.527s5.7-2.006,5.7-2.006-.96-1.289-.235-1.882,1.389-2.956-.327-3.883l-2.935-4.321-.527.066s.692.626.758.956,2.7,2.636,1.647,3.031-2.768-.461-3.493-1.45a7.165,7.165,0,0,0-1.664-1.758,2.464,2.464,0,0,0-2.464-.132l-.221.111h0a2.823,2.823,0,0,0-.976,1.2l-.079.183Z" transform="translate(-298.494 -581.685)" fill="#2f2e41"/>
    <circle id="Ellipse_73" data-name="Ellipse 73" cx="2.9" cy="2.9" r="2.9" transform="translate(49.365 84.021)" fill="#2f2e41"/>
    <ellipse id="Ellipse_74" data-name="Ellipse 74" cx="2.57" cy="2.01" rx="2.57" ry="2.01" transform="translate(52.133 83.824)" fill="#2f2e41"/>
    <ellipse id="Ellipse_75" data-name="Ellipse 75" cx="0.428" cy="0.758" rx="0.428" ry="0.758" transform="translate(53.319 88.239)" fill="#a0616a"/>
    <path id="Path_638" data-name="Path 638" d="M384.016,594.083v5.248h1.516v-5.248a.353.353,0,0,0-.353-.353h-.809A.353.353,0,0,0,384.016,594.083Z" transform="translate(-330.993 -511.752)" fill="#f5e897"/>
    <circle id="Ellipse_76" data-name="Ellipse 76" cx="1.647" cy="1.647" r="1.647" transform="translate(52.133 86.987)" fill="#3f3d56"/>
    <circle id="Ellipse_77" data-name="Ellipse 77" cx="0.725" cy="0.725" r="0.725" transform="translate(53.056 87.909)" fill="#f2f2f2"/>
    <circle id="Ellipse_78" data-name="Ellipse 78" cx="0.198" cy="0.198" r="0.198" transform="translate(53.583 88.436)" fill="#f5e897"/>
    <path id="Path_639" data-name="Path 639" d="M384.016,594.083v.24h1.516v-.24a.353.353,0,0,0-.353-.353h-.809A.353.353,0,0,0,384.016,594.083Z" transform="translate(-330.993 -511.752)" opacity="0.1" style="isolation: isolate"/>
    <path id="Path_640" data-name="Path 640" d="M457.793,664.9l-3.88-3.88a.724.724,0,0,0-1.024,0l-3.491,3.491a.724.724,0,0,0,0,1.023l3.625,3.625a.724.724,0,0,0,.985.036l3.745-3.236a.724.724,0,0,0,.075-1.021C457.817,664.927,457.805,664.914,457.793,664.9Z" transform="translate(-387.166 -569.569)" fill="#2f2e41"/>
    <path id="Path_641" data-name="Path 641" d="M464.9,673.726l-3.394-3.394-2.8,2.8,3.262,3.262Z" transform="translate(-395.372 -577.777)" fill="#f2f2f2"/>
    <circle id="Ellipse_79" data-name="Ellipse 79" cx="1.622" cy="1.622" r="1.622" transform="translate(64.745 93.932)" fill="#2f2e41"/>
    <path id="Path_642" data-name="Path 642" d="M475.577,683.306a1.622,1.622,0,0,0-1.652-2.711,1.622,1.622,0,1,1,1.472,2.857A1.627,1.627,0,0,0,475.577,683.306Z" transform="translate(-408.488 -586.37)" opacity="0.1" style="isolation: isolate"/>
    <path id="Path_643" data-name="Path 643" d="M474.022,689.408a1.011,1.011,0,0,0,.092,1.15.732.732,0,0,0,.978-.012c.193-.182.018-.332-.277-.646S474.215,689.226,474.022,689.408Z" transform="translate(-408.452 -594.176)" fill="#f2f2f2"/>
    <circle id="Ellipse_80" data-name="Ellipse 80" cx="0.481" cy="0.481" r="0.481" transform="translate(66.736 95.099)" fill="#2f2e41"/>
    <circle id="Ellipse_81" data-name="Ellipse 81" cx="0.481" cy="0.481" r="0.481" transform="translate(65.872 94.18)" fill="#2f2e41"/>
    <circle id="Ellipse_82" data-name="Ellipse 82" cx="0.12" cy="0.12" r="0.12" transform="translate(67.096 95.46)" fill="#f2f2f2"/>
    <circle id="Ellipse_83" data-name="Ellipse 83" cx="0.06" cy="0.06" r="0.06" transform="translate(67.208 95.224)" fill="#f2f2f2"/>
    <circle id="Ellipse_84" data-name="Ellipse 84" cx="0.06" cy="0.06" r="0.06" transform="translate(66.344 94.305)" fill="#f2f2f2"/>
    <circle id="Ellipse_85" data-name="Ellipse 85" cx="0.12" cy="0.12" r="0.12" transform="translate(66.232 94.541)" fill="#f2f2f2"/>
    <path id="Path_644" data-name="Path 644" d="M177.321,70.333l-.229-2.4L175.965,62.7l-2.483-11.543,11-20.127L173.524,48.6l.119-7.314,7.583-14.563-7.551,12.625.214-13.156L182.007,14.6l-8.084,9.524L174.056.1V0l0,.1-.8,30.462L165.03,17.984l8.123,15.163-.769,14.694-.023-.389-9.516-13.3,9.487,14.676-.1,1.836-.018.029.008.151L169.79,62.7l-1.511,7.347q.025.4.046.8c1.385.03,8.079-.019,8.984-.01Z" transform="translate(-140.359)" fill="#2f2e41"/>
  </g>
</svg>
