<svg xmlns="http://www.w3.org/2000/svg" width="355" height="182" viewBox="0 0 355 182">
  <g id="Group_2272" data-name="Group 2272" transform="translate(-54 -666)">
    <rect id="Rectangle_335" data-name="Rectangle 335" width="11" height="11" rx="5.5" transform="translate(81 836)" fill="#facdc9"/>
    <rect id="Rectangle_342" data-name="Rectangle 342" width="12" height="12" rx="6" transform="translate(218 836)" fill="#e4e4e4"/>
    <rect id="Rectangle_340" data-name="Rectangle 340" width="12" height="11" rx="5.5" transform="translate(148 836)" fill="#f5e897"/>
    <rect id="Rectangle_341" data-name="Rectangle 341" width="12" height="11" rx="5.5" transform="translate(293 836)" fill="#b7b7b7"/>
    <text id="_20_Chat_" data-name="20 Chat " transform="translate(97 845)" fill="#294658" font-size="11" font-family="FuturaPT-Book, Futura PT" letter-spacing="0.004em"><tspan x="0" y="0">20 Chat </tspan></text>
    <text id="_30_Notes" data-name="30 Notes" transform="translate(235 845)" fill="#294658" font-size="11" font-family="FuturaPT-Book, Futura PT" letter-spacing="0.004em"><tspan x="0" y="0">30 Notes</tspan></text>
    <text id="_50_Files" data-name="50 Files" transform="translate(166 845)" fill="#294658" font-size="11" font-family="FuturaPT-Book, Futura PT" letter-spacing="0.004em"><tspan x="0" y="0">50 Files</tspan></text>
    <text id="_56_Task_Comments" data-name="56 Task Comments" transform="translate(312 845)" fill="#294658" font-size="11" font-family="FuturaPT-Book, Futura PT" letter-spacing="0.004em"><tspan x="0" y="0">56 Task Comments</tspan></text>
    <g id="Group_1360" data-name="Group 1360" transform="translate(144.484 807.213)">
      <g id="Group_1336" data-name="Group 1336" transform="translate(105.148 0)">
        <rect id="Rectangle_1001" data-name="Rectangle 1001" width="11" height="5" rx="2.5" transform="translate(0.368 5.787)" fill="#9cb5be" opacity="0.622"/>
        <text id="Task_Added" data-name="Task Added" transform="translate(15.194 11)" fill="#284558" font-size="11" font-family="FuturaPT-Book, Futura PT" letter-spacing="0.004em"><tspan x="0" y="0">Task Added</tspan></text>
      </g>
      <g id="Group_1335" data-name="Group 1335" transform="translate(0 0)">
        <rect id="Rectangle_1000" data-name="Rectangle 1000" width="13" height="5" rx="2.5" transform="translate(-0.484 5.787)" fill="#294658"/>
        <text id="Task_Completed" data-name="Task Completed" transform="translate(16.522 11)" fill="#4a6272" font-size="11" font-family="FuturaPT-Book, Futura PT" letter-spacing="0.004em"><tspan x="0" y="0">Task Completed</tspan></text>
      </g>
    </g>
    <path id="Path_2897" data-name="Path 2897" d="M1478.61-1254.164h354.3" transform="translate(-1423.905 2043.609)" fill="none" stroke="#707070" stroke-width="0.5" opacity="0.259"/>
    <rect id="Rectangle_1082" data-name="Rectangle 1082" width="10" height="44" transform="translate(153 746)" fill="#facdc9" opacity="0.76"/>
    <rect id="Rectangle_1099" data-name="Rectangle 1099" width="10" height="8" transform="translate(153 761)" fill="#f5e897" opacity="0.76"/>
    <rect id="Rectangle_1100" data-name="Rectangle 1100" width="10" height="22" transform="translate(153 768)" fill="#c8d9df" opacity="0.76"/>
    <rect id="Rectangle_1101" data-name="Rectangle 1101" width="10" height="15" transform="translate(153 775)" fill="#294658" opacity="0.76"/>
    <rect id="Rectangle_1083" data-name="Rectangle 1083" width="10" height="38" transform="translate(170 752)" fill="#facdc9" opacity="0.76"/>
    <rect id="Rectangle_1085" data-name="Rectangle 1085" width="11" height="15" transform="translate(184 775)" fill="#facdc9" opacity="0.76"/>
    <rect id="Rectangle_1105" data-name="Rectangle 1105" width="11" height="8" transform="translate(184 782)" fill="#294658"/>
    <rect id="Rectangle_1102" data-name="Rectangle 1102" width="10" height="32" transform="translate(170 758)" fill="#c8d9df" opacity="0.76"/>
    <rect id="Rectangle_1098" data-name="Rectangle 1098" width="11" height="15" transform="translate(72 775)" fill="#c8d9df"/>
    <rect id="Rectangle_1087" data-name="Rectangle 1087" width="10" height="49" transform="translate(231 741)" fill="#facdc9" opacity="0.76"/>
    <rect id="Rectangle_1084" data-name="Rectangle 1084" width="12" height="81" transform="translate(200 709)" fill="#facdc9" opacity="0.76"/>
    <rect id="Rectangle_1086" data-name="Rectangle 1086" width="10" height="63" transform="translate(216 727)" fill="#e4e4e4" opacity="0.76"/>
    <rect id="Rectangle_1088" data-name="Rectangle 1088" width="10" height="36" transform="translate(247 754)" fill="#facdc9" opacity="0.76"/>
    <rect id="Rectangle_1089" data-name="Rectangle 1089" width="11" height="59" transform="translate(262 731)" fill="#e4e4e4" opacity="0.76"/>
    <rect id="Rectangle_1090" data-name="Rectangle 1090" width="12" height="7" transform="translate(277 775)" fill="#f5e897" opacity="0.76"/>
    <rect id="Rectangle_1116" data-name="Rectangle 1116" width="11" height="22" transform="translate(262 768)" fill="#b7b7b7" opacity="0.76"/>
    <rect id="Rectangle_1115" data-name="Rectangle 1115" width="10" height="8" transform="translate(247 782)" fill="#294658"/>
    <rect id="Rectangle_1118" data-name="Rectangle 1118" width="12" height="8" transform="translate(277 782)" fill="#294658" opacity="0.76"/>
    <rect id="Rectangle_1091" data-name="Rectangle 1091" width="10" height="22" transform="translate(293 768)" fill="#facdc9" opacity="0.76"/>
    <rect id="Rectangle_1093" data-name="Rectangle 1093" width="10" height="49" transform="translate(325 741)" fill="#b7b7b7" opacity="0.76"/>
    <rect id="Rectangle_1094" data-name="Rectangle 1094" width="11" height="22" transform="translate(347 768)" fill="#facdc9" opacity="0.76"/>
    <rect id="Rectangle_1097" data-name="Rectangle 1097" width="11" height="15" transform="translate(388 775)" fill="#294658" opacity="0.76"/>
    <rect id="Rectangle_1096" data-name="Rectangle 1096" width="11" height="36" transform="translate(375 754)" fill="#facdc9" opacity="0.76"/>
    <rect id="Rectangle_1095" data-name="Rectangle 1095" width="12" height="49" transform="translate(360 741)" fill="#e4e4e4" opacity="0.76"/>
    <rect id="Rectangle_1092" data-name="Rectangle 1092" width="10" height="78" transform="translate(308 712)" fill="#e4e4e4" opacity="0.76"/>
    <rect id="Rectangle_1103" data-name="Rectangle 1103" width="10" height="18" transform="translate(170 772)" fill="#294658" opacity="0.76"/>
    <rect id="Rectangle_1104" data-name="Rectangle 1104" width="12" height="8" transform="translate(200 749)" fill="#f5e897" opacity="0.76"/>
    <rect id="Rectangle_1106" data-name="Rectangle 1106" width="12" height="34" transform="translate(200 756)" fill="#c8d9df" opacity="0.76"/>
    <rect id="Rectangle_1107" data-name="Rectangle 1107" width="12" height="23" transform="translate(200 767)" fill="#294658" opacity="0.76"/>
    <rect id="Rectangle_1108" data-name="Rectangle 1108" width="10" height="26" transform="translate(216 764)" fill="#b7b7b7" opacity="0.76"/>
    <rect id="Rectangle_1109" data-name="Rectangle 1109" width="10" height="17" transform="translate(216 773)" fill="#294658" opacity="0.76"/>
    <rect id="Rectangle_1110" data-name="Rectangle 1110" width="10" height="33" transform="translate(231 757)" fill="#e4e4e4" opacity="0.76"/>
    <rect id="Rectangle_1111" data-name="Rectangle 1111" width="10" height="25" transform="translate(231 765)" fill="#b7b7b7" opacity="0.76"/>
    <rect id="Rectangle_1112" data-name="Rectangle 1112" width="10" height="18" transform="translate(231 772)" fill="#294658" opacity="0.76"/>
    <rect id="Rectangle_1113" data-name="Rectangle 1113" width="10" height="25" transform="translate(247 765)" fill="#c8d9df" opacity="0.76"/>
    <rect id="Rectangle_1114" data-name="Rectangle 1114" width="10" height="17" transform="translate(247 773)" fill="#294658" opacity="0.76"/>
    <rect id="Rectangle_1117" data-name="Rectangle 1117" width="11" height="17" transform="translate(262 773)" fill="#294658" opacity="0.76"/>
    <rect id="Rectangle_1119" data-name="Rectangle 1119" width="10" height="12" transform="translate(293 778)" fill="#294658" opacity="0.76"/>
    <rect id="Rectangle_1120" data-name="Rectangle 1120" width="10" height="52" transform="translate(308 738)" fill="#b7b7b7" opacity="0.76"/>
    <rect id="Rectangle_1121" data-name="Rectangle 1121" width="10" height="15" transform="translate(308 750)" fill="#f5e897" opacity="0.76"/>
    <rect id="Rectangle_1122" data-name="Rectangle 1122" width="10" height="25" transform="translate(308 765)" fill="#294658" opacity="0.76"/>
    <rect id="Rectangle_1123" data-name="Rectangle 1123" width="10" height="8" transform="translate(325 757)" fill="#f5e897" opacity="0.76"/>
    <rect id="Rectangle_1124" data-name="Rectangle 1124" width="10" height="25" transform="translate(325 765)" fill="#c8d9df" opacity="0.76"/>
    <rect id="Rectangle_1125" data-name="Rectangle 1125" width="10" height="18" transform="translate(325 772)" fill="#294658" opacity="0.76"/>
    <rect id="Rectangle_1126" data-name="Rectangle 1126" width="11" height="13" transform="translate(347 777)" fill="#294658" opacity="0.76"/>
    <rect id="Rectangle_1128" data-name="Rectangle 1128" width="12" height="7" transform="translate(360 765)" fill="#f5e897" opacity="0.76"/>
    <rect id="Rectangle_1129" data-name="Rectangle 1129" width="12" height="18" transform="translate(360 772)" fill="#294658" opacity="0.76"/>
    <rect id="Rectangle_1130" data-name="Rectangle 1130" width="11" height="25" transform="translate(375 765)" fill="#e4e4e4" opacity="0.76"/>
    <rect id="Rectangle_1131" data-name="Rectangle 1131" width="11" height="17" transform="translate(375 773)" fill="#b7b7b7" opacity="0.76"/>
    <rect id="Rectangle_1132" data-name="Rectangle 1132" width="11" height="8" transform="translate(375 782)" fill="#294658" opacity="0.76"/>
    <rect id="Rectangle_1133" data-name="Rectangle 1133" width="83" height="124" transform="translate(54 666)" fill="#e4e4e4" opacity="0.155"/>
    <text id="_12pm" data-name="12pm" transform="translate(59 683)" fill="rgba(0,0,0,0.5)" font-size="10" font-family="FuturaPT-Light, Futura PT" font-weight="300" letter-spacing="0.004em"><tspan x="0" y="0">12pm</tspan></text>
    <text id="_1pm" data-name="1pm" transform="translate(138 683)" fill="rgba(0,0,0,0.5)" font-size="10" font-family="FuturaPT-Light, Futura PT" font-weight="300" letter-spacing="0.004em"><tspan x="0" y="0">1pm</tspan></text>
    <text id="_2pm" data-name="2pm" transform="translate(216 683)" fill="rgba(0,0,0,0.5)" font-size="10" font-family="FuturaPT-Light, Futura PT" font-weight="300" letter-spacing="0.004em"><tspan x="0" y="0">2pm</tspan></text>
    <text id="_3pm" data-name="3pm" transform="translate(290 683)" fill="rgba(0,0,0,0.5)" font-size="10" font-family="FuturaPT-Light, Futura PT" font-weight="300" letter-spacing="0.004em"><tspan x="0" y="0">3pm</tspan></text>
  </g>
</svg>
