<svg xmlns="http://www.w3.org/2000/svg" width="46" height="46" viewBox="0 0 46 46">
  <g id="Group_971" data-name="Group 971" transform="translate(-39 -324)">
    <g id="Group_747" data-name="Group 747" transform="translate(39 324)">
      <rect id="Rectangle_125" data-name="Rectangle 125" width="46" height="46" rx="8" fill="#284558"/>
    </g>
    <g id="icn_camera_inactive" transform="translate(53.219 338.93)">
      <path id="Path_80" data-name="Path 80" d="M9.4,15.93h6.345A2.071,2.071,0,0,0,17.8,13.877V4.546a2.071,2.071,0,0,0-2.053-2.053H13.41A2.321,2.321,0,0,0,11.171,1H7.625A2.321,2.321,0,0,0,5.386,2.493H3.053A2.012,2.012,0,0,0,1,4.546V13.97a1.993,1.993,0,0,0,2.053,1.96H9.4" transform="translate(-1 -1)" fill="none" stroke="#fff" stroke-linecap="round" stroke-linejoin="round" stroke-miterlimit="10" stroke-width="1.5"/>
      <circle id="Ellipse_28" data-name="Ellipse 28" cx="4.012" cy="4.012" r="4.012" transform="translate(4.386 4.012)" fill="none" stroke="#fff" stroke-linecap="round" stroke-linejoin="round" stroke-miterlimit="10" stroke-width="1.5"/>
    </g>
  </g>
</svg>
