<svg xmlns="http://www.w3.org/2000/svg" width="64" height="64" viewBox="0 0 64 64">
  <g id="Group_1206" data-name="Group 1206" transform="translate(-567.5 -448)">
    <rect id="Rectangle_125" data-name="Rectangle 125" width="64" height="64" rx="8" transform="translate(567.5 448)" fill="#284558"/>
    <path id="Path_80" data-name="Path 80" d="M12.812,22h8.925a2.913,2.913,0,0,0,2.888-2.887V5.987A2.913,2.913,0,0,0,21.737,3.1H18.456A3.265,3.265,0,0,0,15.306,1H10.319a3.265,3.265,0,0,0-3.15,2.1H3.888A2.83,2.83,0,0,0,1,5.987V19.244A2.8,2.8,0,0,0,3.888,22h8.925" transform="translate(586.5 468)" fill="none" stroke="#fff" stroke-linecap="round" stroke-linejoin="round" stroke-miterlimit="10" stroke-width="2"/>
    <circle id="Ellipse_28" data-name="Ellipse 28" cx="5.644" cy="5.644" r="5.644" transform="translate(593.669 474.644)" stroke-width="2" stroke="#fff" stroke-linecap="round" stroke-linejoin="round" stroke-miterlimit="10" fill="none"/>
  </g>
</svg>
