<svg xmlns="http://www.w3.org/2000/svg" width="24" height="24" viewBox="0 0 24 24">
  <g id="ic_menu_cta-off" transform="translate(0 0)">
    <path id="Path_3027" data-name="Path 3027" d="M268.3-14.868a1,1,0,0,1-1-1l-.005-4.779a5.573,5.573,0,0,0-4.357-5.457,1,1,0,0,1-.685-.556,1,1,0,0,1,.021-.882.629.629,0,0,0,.071-.284.65.65,0,0,0-.651-.642.65.65,0,0,0-.649.65.627.627,0,0,0,.071.282,1,1,0,0,1,.019.88,1,1,0,0,1-.685.553,5.6,5.6,0,0,0-1.851.809,1,1,0,0,1-1.388-.276,1,1,0,0,1,.276-1.387,7.713,7.713,0,0,1,1.559-.805c0-.017,0-.035,0-.052a2.653,2.653,0,0,1,2.649-2.654,2.653,2.653,0,0,1,2.651,2.65c0,.016,0,.033,0,.049a7.557,7.557,0,0,1,4.951,7.121l.005,4.778a1,1,0,0,1-1,1Zm-3.4,5.2c0-.025,0-.049,0-.074h.526a1,1,0,0,0,1-1,1,1,0,0,0-1-1H263.6a1,1,0,0,0-.867.5,1,1,0,0,0,0,1,1.172,1.172,0,0,1,.159.578,1.2,1.2,0,0,1-1.2,1.2,1.2,1.2,0,0,1-1.2-1.192,1.2,1.2,0,0,1,.158-.584,1,1,0,0,0,0-1,1,1,0,0,0-.867-.5h-5.575l1.593-1.593a1,1,0,0,0,.293-.707v-6.6a1.078,1.078,0,0,1,.01-.113c.009-.071.017-.142.021-.215a1,1,0,0,0-.939-1.058,1,1,0,0,0-1.057.938l-.011.1a2.817,2.817,0,0,0-.024.345v6.186l-1.908,1.907a1,1,0,0,0-.293.707v1.1a1,1,0,0,0,1,1h5.6c0,.027,0,.053,0,.079a3.2,3.2,0,0,0,3.2,3.2A3.2,3.2,0,0,0,264.9-9.672Zm8.51,2.912a1,1,0,0,0,0-1.414l-22-22a1,1,0,0,0-1.414,0,1,1,0,0,0,0,1.414l22,22a.993.993,0,0,0,.707.293A.993.993,0,0,0,273.406-6.76Z" transform="translate(-249.699 30.467)" fill="#294658"/>
  </g>
</svg>
