<svg xmlns="http://www.w3.org/2000/svg" width="53.774" height="42.379" viewBox="0 0 53.774 42.379">
  <g id="Group_965" data-name="Group 965" transform="translate(-34.702 -505.621)">
    <g id="Group_941" data-name="Group 941" transform="translate(34.702 505.621)">
      <path id="Path_360" data-name="Path 360" d="M66.272,47.8a17.428,17.428,0,0,1-1.3,6.619l-.005.014h0A17.528,17.528,0,0,1,62.7,58.381q-.267.353-.549.691c-.069.082-.139.165-.21.245q-.544.623-1.143,1.193-.14.134-.282.264l-.067.061a17.818,17.818,0,0,1-1.466,1.195q-.512.374-1.051.711-.119.075-.238.147-.208.126-.42.245-.276.157-.559.3c-.076.04-.153.079-.23.117-.11.058-.22.108-.338.166l-.058.028-.22.108a17.863,17.863,0,0,1-3.041,1.066h-.017l-.205.05-.155.036h-.02c-.11.025-.213.048-.32.069l-.181.037-.11.022-.137.026-.077.014-.174.03-.3.048-.22.031-.255.034-.07.009-.09.011-.183.021-.094.01-.181.017-.234.02-.286.02-.185.011c-.158.009-.315.014-.475.018h-.478a18.161,18.161,0,0,1-2.4-.158q-.879-.116-1.726-.315l-.068-.016-.17-.041-.15-.039a17.876,17.876,0,0,1-3.735-1.421l-.018-.01-.1-.053-.22-.118q-.631-.343-1.229-.732-.154-.1-.3-.2l-.1-.066-.1-.069-.26-.186q-.536-.388-1.039-.816a17.831,17.831,0,0,1-3.131-3.442q-.465-.668-.867-1.379a17.552,17.552,0,0,1,6.9-24.035,18,18,0,0,1,24.334,6.818,17.5,17.5,0,0,1,2.267,8.615Z" transform="translate(-30.498 -30.112)" fill="#e4e4e4"/>
      <path id="Path_361" data-name="Path 361" d="M387.486,237.911l.17-.041.15-.039c0-.108.007-.217.01-.343.031-.97.11-2.531.278-4.413q.014-.151.029-.3c.062-.638.134-1.308.22-2a.494.494,0,0,1,.009-.068q.106-.845.241-1.736.094-.618.2-1.251l.015-.088c.021-.122.043-.243.065-.366q.093-.51.2-1.025c.244-1.2.535-2.415.879-3.594a28.562,28.562,0,0,1,1.3-3.58,17.648,17.648,0,0,1,1.415-2.6l.024-.036a10.038,10.038,0,0,1,2.4-2.57l-.188-.254a10.317,10.317,0,0,0-2.394,2.514l-.011.015a17.06,17.06,0,0,0-1.428,2.523,27.333,27.333,0,0,0-1.359,3.625q-.521,1.726-.934,3.74-.145.71-.277,1.454l-.044.255h0c-.023.13-.044.262-.067.394q-.082.5-.156.991-.11.76-.2,1.489-.03.242-.058.48-.04.335-.075.662-.051.455-.091.89l-.008.08-.013.138C387.574,235.132,387.507,236.982,387.486,237.911Z" transform="translate(-366.72 -203.053)" opacity="0.11" style="isolation: isolate"/>
      <path id="Path_362" data-name="Path 362" d="M457.225,464.776l.018-.01c.11-.056.22-.109.329-.171.035-.417.083-.876.146-1.357.013-.1.026-.2.042-.3.008-.054.015-.108.023-.165.063-.424.136-.863.225-1.3a10.669,10.669,0,0,1,1.958-4.764c.054-.061.11-.119.165-.177a3.567,3.567,0,0,1,.456-.394l-.188-.254a4.052,4.052,0,0,0-.624.564q-.1.108-.193.227a11.057,11.057,0,0,0-1.847,4.5c-.093.434-.171.868-.238,1.294q-.025.166-.048.326C457.339,463.51,457.27,464.189,457.225,464.776Z" transform="translate(-432.403 -431.418)" opacity="0.11" style="isolation: isolate"/>
      <ellipse id="Ellipse_41" data-name="Ellipse 41" cx="1.592" cy="1.572" rx="1.592" ry="1.572" transform="translate(28.56 7.643)" opacity="0.11" style="isolation: isolate"/>
      <ellipse id="Ellipse_42" data-name="Ellipse 42" cx="1.592" cy="1.572" rx="1.592" ry="1.572" transform="translate(28.047 21.179)" opacity="0.11" style="isolation: isolate"/>
      <path id="Path_363" data-name="Path 363" d="M405.593,183.458a6.906,6.906,0,0,1-.408,3.58,6.306,6.306,0,0,1-1.223-6.813A6.955,6.955,0,0,1,405.593,183.458Z" transform="translate(-381.762 -171.601)" opacity="0.11" style="isolation: isolate"/>
      <path id="Path_364" data-name="Path 364" d="M472.179,276.53a7.19,7.19,0,0,1-3.643.235,6.524,6.524,0,0,1,6.579-2.376A7.1,7.1,0,0,1,472.179,276.53Z" transform="translate(-443.056 -260.209)" opacity="0.11" style="isolation: isolate"/>
      <path id="Path_365" data-name="Path 365" d="M495.094,496.28a5.016,5.016,0,0,1-2.555.16,4.547,4.547,0,0,1,4.614-1.666A4.954,4.954,0,0,1,495.094,496.28Z" transform="translate(-465.663 -467.971)" opacity="0.11" style="isolation: isolate"/>
      <path id="Path_366" data-name="Path 366" d="M430.806,518.237l.065.033C430.864,518.338,430.85,518.378,430.806,518.237Z" transform="translate(-407.521 -490.192)" fill="#2f2e41"/>
      <path id="Path_367" data-name="Path 367" d="M431.925,516.631v.023l-.023-.012v-.022C431.911,516.529,431.9,516.422,431.925,516.631Z" transform="translate(-408.553 -488.564)" fill="#2f2e41"/>
      <ellipse id="Ellipse_43" data-name="Ellipse 43" cx="8.689" cy="8.582" rx="8.689" ry="8.582" transform="translate(9.031 7.829)" fill="#999"/>
      <path id="Path_1197" data-name="Path 1197" d="M130.878,506.471s12.366-8.43,23.344.659a18.049,18.049,0,0,1-15,3.637A18.345,18.345,0,0,1,130.878,506.471Z" transform="translate(-125.039 -475.747)" fill="#999"/>
    </g>
    <g id="Group_856" data-name="Group 856" transform="translate(52.702 512.621)">
      <path id="Path_360-2" data-name="Path 360" d="M66.272,47.8a17.428,17.428,0,0,1-1.3,6.619l-.005.014h0A17.528,17.528,0,0,1,62.7,58.381q-.267.353-.549.691c-.069.082-.139.165-.21.245q-.544.623-1.143,1.193-.14.134-.282.264l-.067.061a17.818,17.818,0,0,1-1.466,1.195q-.512.374-1.051.711-.119.075-.238.147-.208.126-.42.245-.276.157-.559.3c-.076.04-.153.079-.23.117-.11.058-.22.108-.338.166l-.058.028-.22.108a17.863,17.863,0,0,1-3.041,1.066h-.017l-.205.05-.155.036h-.02c-.11.025-.213.048-.32.069l-.181.037-.11.022-.137.026-.077.014-.174.03-.3.048-.22.031-.255.034-.07.009-.09.011-.183.021-.094.01-.181.017-.234.02-.286.02-.185.011c-.158.009-.315.014-.475.018h-.478a18.161,18.161,0,0,1-2.4-.158q-.879-.116-1.726-.315l-.068-.016-.17-.041-.15-.039a17.876,17.876,0,0,1-3.735-1.421l-.018-.01-.1-.053-.22-.118q-.631-.343-1.229-.732-.154-.1-.3-.2l-.1-.066-.1-.069-.26-.186q-.536-.388-1.039-.816a17.831,17.831,0,0,1-3.131-3.442q-.465-.668-.867-1.379a17.552,17.552,0,0,1,6.9-24.035,18,18,0,0,1,24.334,6.818,17.5,17.5,0,0,1,2.267,8.615Z" transform="translate(-30.498 -30.112)" fill="#e4e4e4"/>
      <path id="Path_361-2" data-name="Path 361" d="M387.486,237.911l.17-.041.15-.039c0-.108.007-.217.01-.343.031-.97.11-2.531.278-4.413q.014-.151.029-.3c.062-.638.134-1.308.22-2a.494.494,0,0,1,.009-.068q.106-.845.241-1.736.094-.618.2-1.251l.015-.088c.021-.122.043-.243.065-.366q.093-.51.2-1.025c.244-1.2.535-2.415.879-3.594a28.562,28.562,0,0,1,1.3-3.58,17.648,17.648,0,0,1,1.415-2.6l.024-.036a10.038,10.038,0,0,1,2.4-2.57l-.188-.254a10.317,10.317,0,0,0-2.394,2.514l-.011.015a17.06,17.06,0,0,0-1.428,2.523,27.333,27.333,0,0,0-1.359,3.625q-.521,1.726-.934,3.74-.145.71-.277,1.454l-.044.255h0c-.023.13-.044.262-.067.394q-.082.5-.156.991-.11.76-.2,1.489-.03.242-.058.48-.04.335-.075.662-.051.455-.091.89l-.008.08-.013.138C387.574,235.132,387.507,236.982,387.486,237.911Z" transform="translate(-366.72 -203.053)" opacity="0.11" style="isolation: isolate"/>
      <path id="Path_362-2" data-name="Path 362" d="M457.225,464.776l.018-.01c.11-.056.22-.109.329-.171.035-.417.083-.876.146-1.357.013-.1.026-.2.042-.3.008-.054.015-.108.023-.165.063-.424.136-.863.225-1.3a10.669,10.669,0,0,1,1.958-4.764c.054-.061.11-.119.165-.177a3.567,3.567,0,0,1,.456-.394l-.188-.254a4.052,4.052,0,0,0-.624.564q-.1.108-.193.227a11.057,11.057,0,0,0-1.847,4.5c-.093.434-.171.868-.238,1.294q-.025.166-.048.326C457.339,463.51,457.27,464.189,457.225,464.776Z" transform="translate(-432.403 -431.418)" opacity="0.11" style="isolation: isolate"/>
      <ellipse id="Ellipse_41-2" data-name="Ellipse 41" cx="1.592" cy="1.572" rx="1.592" ry="1.572" transform="translate(28.56 7.643)" opacity="0.11" style="isolation: isolate"/>
      <ellipse id="Ellipse_42-2" data-name="Ellipse 42" cx="1.592" cy="1.572" rx="1.592" ry="1.572" transform="translate(28.047 21.179)" opacity="0.11" style="isolation: isolate"/>
      <path id="Path_363-2" data-name="Path 363" d="M405.593,183.458a6.906,6.906,0,0,1-.408,3.58,6.306,6.306,0,0,1-1.223-6.813A6.955,6.955,0,0,1,405.593,183.458Z" transform="translate(-381.762 -171.601)" opacity="0.11" style="isolation: isolate"/>
      <path id="Path_364-2" data-name="Path 364" d="M472.179,276.53a7.19,7.19,0,0,1-3.643.235,6.524,6.524,0,0,1,6.579-2.376A7.1,7.1,0,0,1,472.179,276.53Z" transform="translate(-443.056 -260.209)" opacity="0.11" style="isolation: isolate"/>
      <path id="Path_365-2" data-name="Path 365" d="M495.094,496.28a5.016,5.016,0,0,1-2.555.16,4.547,4.547,0,0,1,4.614-1.666A4.954,4.954,0,0,1,495.094,496.28Z" transform="translate(-465.663 -467.971)" opacity="0.11" style="isolation: isolate"/>
      <path id="Path_366-2" data-name="Path 366" d="M430.806,518.237l.065.033C430.864,518.338,430.85,518.378,430.806,518.237Z" transform="translate(-407.521 -490.192)" fill="#2f2e41"/>
      <path id="Path_367-2" data-name="Path 367" d="M431.925,516.631v.023l-.023-.012v-.022C431.911,516.529,431.9,516.422,431.925,516.631Z" transform="translate(-408.553 -488.564)" fill="#2f2e41"/>
      <ellipse id="Ellipse_43-2" data-name="Ellipse 43" cx="8.689" cy="8.582" rx="8.689" ry="8.582" transform="translate(9.031 7.829)" fill="#999"/>
      <path id="Path_1197-2" data-name="Path 1197" d="M130.878,506.471s12.366-8.43,23.344.659a18.049,18.049,0,0,1-15,3.637A18.345,18.345,0,0,1,130.878,506.471Z" transform="translate(-125.039 -475.747)" fill="#999"/>
    </g>
  </g>
</svg>
