<svg xmlns="http://www.w3.org/2000/svg" xmlns:xlink="http://www.w3.org/1999/xlink" width="76" height="74" viewBox="0 0 76 74">
  <defs>
    <filter id="Ellipse_468" x="0" y="0" width="76" height="74" filterUnits="userSpaceOnUse">
      <feOffset dy="3" input="SourceAlpha"/>
      <feGaussianBlur stdDeviation="3" result="blur"/>
      <feFlood flood-opacity="0.161"/>
      <feComposite operator="in" in2="blur"/>
      <feComposite in="SourceGraphic"/>
    </filter>
  </defs>
  <g id="Group_3191" data-name="Group 3191" transform="translate(9.09 4.994)">
    <g transform="matrix(1, 0, 0, 1, -9.09, -4.99)" filter="url(#Ellipse_468)">
      <ellipse id="Ellipse_468-2" data-name="Ellipse 468" cx="29" cy="28" rx="29" ry="28" transform="translate(9 6)" fill="#294658"/>
    </g>
    <g id="Group_3072" data-name="Group 3072" transform="translate(16.969 18.666)">
      <g id="Component_82_65" data-name="Component 82 – 65" transform="translate(0 0)">
        <g id="Union_15" data-name="Union 15" transform="translate(-0.059 0.34)" fill="none">
          <path d="M0,8.925V8.4H.015A8.925,8.925,0,0,1,8.925,0h7.15a8.925,8.925,0,0,1,8.91,8.4H25l-.015.007q.015.257.015.518a8.925,8.925,0,0,1-8.925,8.924H8.925a8.948,8.948,0,0,1-2.155-.262L0,21Z" stroke="none"/>
          <path d="M 8.925300598144531 2 C 5.2606201171875 2 2.223880767822266 4.861980438232422 2.011869430541992 8.515560150146484 L 2 8.720122337341309 L 2 8.925300598144531 L 2 17.7520580291748 L 5.869770050048828 15.80171012878418 L 6.531700134277344 15.46809959411621 L 7.25115966796875 15.64647006988525 C 7.795120239257812 15.78132057189941 8.358390808105469 15.84970092773438 8.925300598144531 15.84970092773438 L 16.07489967346191 15.84970092773438 C 19.89352035522461 15.84970092773438 23.00020027160645 12.74343013763428 23.00020027160645 8.925300598144531 C 23.00020027160645 8.794966697692871 22.99654197692871 8.663078308105469 22.98932838439941 8.533121109008789 L 22.98830986022949 8.515560150146484 C 22.77630996704102 4.861970901489258 19.73958015441895 2 16.07489967346191 2 L 8.925300598144531 2 M 8.925300598144531 0 L 16.07489967346191 0 C 20.82789993286133 0 24.71310997009277 3.714860916137695 24.98495101928711 8.399700164794922 L 25.00020027160645 8.399700164794922 L 24.98539924621582 8.407159805297852 C 24.99521064758301 8.57859992980957 25.00020027160645 8.751399993896484 25.00020027160645 8.925300598144531 C 25.00020027160645 13.85460090637207 21.00419998168945 17.84970092773438 16.07489967346191 17.84970092773438 L 8.925300598144531 17.84970092773438 C 8.182170867919922 17.84970092773438 7.460100173950195 17.75881004333496 6.769899368286133 17.58769989013672 L 0 20.99970054626465 L 0 8.925300598144531 L 0 8.399700164794922 L 0.01523017883300781 8.399700164794922 C 0.2870807647705078 3.714860916137695 4.172300338745117 0 8.925300598144531 0 Z" stroke="none" fill="#fff"/>
        </g>
      </g>
      <ellipse id="Ellipse_469" data-name="Ellipse 469" cx="1" cy="1.5" rx="1" ry="1.5" transform="translate(7.941 8.34)" fill="#fff"/>
      <ellipse id="Ellipse_470" data-name="Ellipse 470" cx="1" cy="1.5" rx="1" ry="1.5" transform="translate(11.941 8.34)" fill="#fff"/>
      <circle id="Ellipse_471" data-name="Ellipse 471" cx="1.5" cy="1.5" r="1.5" transform="translate(15.941 8.34)" fill="#fff"/>
    </g>
  </g>
</svg>
