<svg xmlns="http://www.w3.org/2000/svg" width="27.643" height="23.772" viewBox="0 0 27.643 23.772">
  <g id="Group_833" data-name="Group 833" transform="translate(-392.141 -321.132)">
    <path id="Path_922" data-name="Path 922" d="M425.023,356.336" transform="translate(-11.639 -12.472)" fill="#294658" stroke="#fff" stroke-linecap="round" stroke-linejoin="round" stroke-width="1"/>
    <path id="Path_923" data-name="Path 923" d="M419.284,331.879a10.331,10.331,0,0,1-10.329,10.411h-6.382l-1.239.047a.952.952,0,0,0-.2.029l-8.092,2.038-.372-9.65h0c-.072-.979,0-1.836,0-2.794A10.33,10.33,0,0,1,403,321.632h5.691A10.5,10.5,0,0,1,419.284,331.879Z" fill="#294658" stroke="#fff" stroke-linecap="round" stroke-linejoin="round" stroke-width="1"/>
    <circle id="Ellipse_166" data-name="Ellipse 166" cx="1.492" cy="1.492" r="1.492" transform="translate(399.406 331.622)" fill="#294658" stroke="#fff" stroke-miterlimit="10" stroke-width="1"/>
    <circle id="Ellipse_167" data-name="Ellipse 167" cx="1.492" cy="1.492" r="1.492" transform="translate(404.715 331.622)" fill="#294658" stroke="#fff" stroke-miterlimit="10" stroke-width="1"/>
    <circle id="Ellipse_168" data-name="Ellipse 168" cx="1.492" cy="1.492" r="1.492" transform="translate(410.023 331.622)" fill="#294658" stroke="#fff" stroke-miterlimit="10" stroke-width="1"/>
  </g>
</svg>
