<svg xmlns="http://www.w3.org/2000/svg" width="53.034" height="41.886" viewBox="0 0 53.034 41.886">
  <g id="Group_963" data-name="Group 963" transform="translate(-65.75 -403.077)">
    <g id="Group_697" data-name="Group 697" transform="translate(65.75 403.077)">
      <path id="Path_360" data-name="Path 360" d="M35.034,17.517a17.47,17.47,0,0,1-1.272,6.566l-.006.013h0a17.439,17.439,0,0,1-2.218,3.92q-.262.35-.541.685c-.068.082-.137.163-.206.244q-.533.618-1.12,1.184-.137.132-.277.261l-.065.06A17.5,17.5,0,0,1,27.9,31.628q-.5.371-1.029.7-.116.074-.233.145-.2.124-.411.243-.271.155-.548.3c-.075.04-.15.078-.225.117-.11.056-.22.111-.332.164l-.058.027c-.073.035-.146.069-.22.1a17.356,17.356,0,0,1-2.978,1.057l-.017,0-.2.05-.152.036-.019,0c-.1.024-.208.048-.314.069l-.177.037-.108.021-.135.026-.075.013-.171.031c-.1.017-.194.033-.291.047l-.211.031-.249.033-.068.009-.089.011-.179.02-.093.01-.177.017-.229.02-.28.02-.181.01c-.154.008-.309.014-.464.018l-.233,0h0l-.233,0a17.568,17.568,0,0,1-2.355-.158q-.859-.115-1.691-.312l-.066-.016-.167-.041-.147-.038A17.376,17.376,0,0,1,9.431,33.06l-.018-.009L9.314,33,9.1,32.881q-.618-.34-1.2-.727-.151-.1-.3-.2L7.5,31.888l-.1-.068q-.128-.091-.255-.184-.525-.386-1.018-.809a17.607,17.607,0,0,1-3.066-3.413q-.455-.662-.849-1.367a17.518,17.518,0,1,1,32.821-8.53Z" transform="translate(0)" fill="#a7c2cc"/>
      <path id="Path_361" data-name="Path 361" d="M392.35,225.463l.167-.041.147-.038c0-.1.006-.217.01-.339.031-.962.1-2.51.273-4.376q.014-.15.028-.3c.061-.632.132-1.3.217-1.987,0-.023.006-.045.008-.068.069-.559.147-1.132.235-1.717q.093-.613.2-1.24l.016-.088c.021-.121.042-.241.064-.362q.091-.506.193-1.016c.239-1.194.523-2.4.863-3.564a28.564,28.564,0,0,1,1.271-3.556,17.564,17.564,0,0,1,1.386-2.582l.023-.035a9.909,9.909,0,0,1,2.35-2.549l-.184-.252a10.177,10.177,0,0,0-2.345,2.493l-.01.015a16.977,16.977,0,0,0-1.4,2.5,27.323,27.323,0,0,0-1.331,3.6q-.51,1.712-.915,3.709-.142.7-.271,1.442-.022.126-.044.252s0,0,0,0c-.022.13-.044.259-.065.39q-.081.5-.152.983-.11.751-.2,1.476-.03.239-.057.475-.039.333-.074.657-.049.451-.09.883l-.008.079-.012.136C392.437,222.709,392.371,224.542,392.35,225.463Z" transform="translate(-372.016 -190.915)" opacity="0.2" style="isolation: isolate"/>
      <path id="Path_362" data-name="Path 362" d="M469.01,476.521l.018-.009q.16-.083.318-.17c.035-.414.081-.868.143-1.346.013-.1.026-.2.04-.3.007-.054.015-.108.023-.163.061-.421.134-.855.221-1.292a10.646,10.646,0,0,1,1.918-4.724c.052-.061.106-.119.161-.175a3.518,3.518,0,0,1,.446-.391l-.184-.251a3.99,3.99,0,0,0-.612.559q-.1.108-.19.225a11.041,11.041,0,0,0-1.808,4.461c-.091.432-.168.864-.233,1.284q-.025.165-.048.327C469.121,475.268,469.055,475.94,469.01,476.521Z" transform="translate(-444.703 -443.461)" opacity="0.2" style="isolation: isolate"/>
      <ellipse id="Ellipse_41" data-name="Ellipse 41" cx="1.559" cy="1.559" rx="1.559" ry="1.559" transform="translate(27.968 7.561)" opacity="0.2" style="isolation: isolate"/>
      <ellipse id="Ellipse_42" data-name="Ellipse 42" cx="1.559" cy="1.559" rx="1.559" ry="1.559" transform="translate(27.465 20.984)" opacity="0.2" style="isolation: isolate"/>
      <path id="Path_363" data-name="Path 363" d="M412.194,167.957a6.927,6.927,0,0,1-.4,3.555,6.312,6.312,0,0,1-1.2-6.756A6.927,6.927,0,0,1,412.194,167.957Z" transform="translate(-388.858 -156.217)" opacity="0.2" style="isolation: isolate"/>
      <path id="Path_364" data-name="Path 364" d="M485.013,270.713a6.961,6.961,0,0,1-3.567.233,6.351,6.351,0,0,1,6.444-2.356A6.961,6.961,0,0,1,485.013,270.713Z" transform="translate(-456.495 -254.545)" opacity="0.2" style="isolation: isolate"/>
      <path id="Path_365" data-name="Path 365" d="M510.324,512.274a4.856,4.856,0,0,1-2.5.159,4.424,4.424,0,0,1,4.517-1.652A4.856,4.856,0,0,1,510.324,512.274Z" transform="translate(-481.504 -484.219)" opacity="0.2" style="isolation: isolate"/>
      <path id="Path_366" data-name="Path 366" d="M439.96,536.27l.063.033C440.017,536.37,440,536.412,439.96,536.27Z" transform="translate(-417.159 -508.478)" fill="#2f2e41"/>
      <path id="Path_367" data-name="Path 367" d="M441.2,534.493c0,.007,0,.015,0,.022l-.022-.011c0-.007,0-.014,0-.021C441.187,534.391,441.181,534.284,441.2,534.493Z" transform="translate(-418.316 -506.678)" fill="#2f2e41"/>
      <ellipse id="Ellipse_43" data-name="Ellipse 43" cx="8.51" cy="8.51" rx="8.51" ry="8.51" transform="translate(7.643 8.314)" fill="#353535"/>
      <ellipse id="Ellipse_44" data-name="Ellipse 44" cx="5.154" cy="5.154" rx="5.154" ry="5.154" transform="translate(11.7 14.68)" fill="#fff9f5"/>
      <path id="Path_368" data-name="Path 368" d="M159.375,447.592h-.006l-1.2.288-2.5.6-.34.082-3.8.911-.322.078-9.209,2.21a17.263,17.263,0,0,1-1.822-.82l-.018-.009-.1-.053-.218-.117q-.618-.34-1.2-.727-.151-.1-.3-.2l-.094-.065-.1-.068q-.128-.091-.255-.184c.895-1.626,3.025-2.706,5.155-3.3,1.608-.447,1.961-1.915,1.931-3.221a7.624,7.624,0,0,0-.076-.89,8.681,8.681,0,0,0-.309-1.386l5.154.172.532,1.225a2.767,2.767,0,0,0-.014.405A2.446,2.446,0,0,0,151.7,444.6c.1.054.2.105.305.152a8.076,8.076,0,0,0,2.733.609,5.264,5.264,0,0,1,1.352.025q.163.025.317.06a4.566,4.566,0,0,1,1.664.745,4.734,4.734,0,0,1,.54.447A4.283,4.283,0,0,1,159.375,447.592Z" transform="translate(-130.753 -417.88)" fill="#fff9f5"/>
      <path id="Path_369" data-name="Path 369" d="M483.893,567.7l-.065.06a17.471,17.471,0,0,1-1.433,1.177q-.5.371-1.029.7-.116.074-.233.145-.2.125-.411.243-.271.155-.548.3c-.075.04-.15.078-.225.117-.11.057-.22.111-.332.164l-.058.028-.219-.182,2.575-3.147.518-.633a1.44,1.44,0,0,1,.681.345,6.775,6.775,0,0,1,.741.639Z" transform="translate(-454.498 -537.312)" fill="#fff9f5"/>
      <path id="Path_370" data-name="Path 370" d="M199.765,555.1a.589.589,0,0,1-.029.1,17.537,17.537,0,0,1-1.433,1.177,6.118,6.118,0,0,1-1.337.318s.039.2.074.532q-.2.124-.411.243-.271.155-.548.3c-.075.04-.15.078-.225.117-.11.057-.22.111-.332.164l-.058.027c-.073.035-.146.069-.22.1a17.342,17.342,0,0,1-2.978,1.057l-.017,0-.2.05-.152.036-.019,0c-.1.024-.208.048-.314.069l-.177.037-.108.021-.135.026-.075.013-.17.031c-.1.016-.194.033-.291.047l-.211.031-.249.033-.068.009-.089.011-.179.02-.093.01-.177.017-.229.02-.28.02-.181.01c-.154.008-.309.014-.464.018l-.233,0h-.234a17.544,17.544,0,0,1-2.355-.157q-.859-.115-1.691-.312l-.066-.016-.167-.041-.147-.038a17.381,17.381,0,0,1-3.659-1.409l-.018-.009-.1-.053c2.845-.663,7.34-1.708,11.241-2.6l.326-.075c1.441-.331,2.79-.638,3.932-.9l.347-.078c1.227-.276,2.179-.485,2.7-.59a4.275,4.275,0,0,1,.422-.074l1.079,1.671Z" transform="translate(-170.406 -524.748)" fill="#353535"/>
      <ellipse id="Ellipse_45" data-name="Ellipse 45" cx="2.535" cy="2.535" rx="2.535" ry="2.535" transform="translate(5.832 8.133)" fill="#353535"/>
      <ellipse id="Ellipse_46" data-name="Ellipse 46" cx="2.535" cy="2.535" rx="2.535" ry="2.535" transform="translate(21.404 7.409)" fill="#353535"/>
      <path id="Path_371" data-name="Path 371" d="M399.5,124.531a2.535,2.535,0,0,1,2.263-2.52,2.535,2.535,0,1,0,0,5.04A2.535,2.535,0,0,1,399.5,124.531Z" transform="translate(-378.277 -115.673)" fill="#353535"/>
      <path id="Path_372" data-name="Path 372" d="M86.4,183.5a2.535,2.535,0,0,1-.147-3.384,2.535,2.535,0,1,0,3.527,3.6A2.535,2.535,0,0,1,86.4,183.5Z" transform="translate(-80.862 -170.785)" fill="#353535"/>
      <path id="Path_373" data-name="Path 373" d="M212.3,247.777c-3,0-5.432,1.419-5.432,3.169a2.577,2.577,0,0,0,1.3,2.052l1.046-.758-.284,1.187c.118.055.239.108.364.157l1.562-1.823V254a9.1,9.1,0,0,0,1.449.115c3,0,5.432-1.419,5.432-3.169S215.3,247.777,212.3,247.777Z" transform="translate(-196.148 -234.936)" fill="#353535"/>
      <path id="Path_374" data-name="Path 374" d="M412.58,191.876s-.394,1.811,2.067,2.535Z" transform="translate(-391.176 -181.932)" fill="#353535"/>
      <path id="Path_375" data-name="Path 375" d="M173.742,198.235s.905,2.024-1.811,2.93Z" transform="translate(-163.021 -187.961)" fill="#353535"/>
      <ellipse id="Ellipse_47" data-name="Ellipse 47" cx="0.429" cy="1.031" rx="0.429" ry="1.031" transform="matrix(0.963, -0.27, 0.27, 0.963, 11.094, 19.988)" fill="#fff9f5"/>
      <ellipse id="Ellipse_48" data-name="Ellipse 48" cx="1.031" cy="0.429" rx="1.031" ry="0.429" transform="translate(21.601 21.008) rotate(-86.476)" fill="#fff9f5"/>
    </g>
    <g id="Group_698" data-name="Group 698" transform="translate(83.75 409.929)">
      <path id="Path_360-2" data-name="Path 360" d="M35.034,17.517a17.47,17.47,0,0,1-1.272,6.566l-.006.013h0a17.439,17.439,0,0,1-2.218,3.92q-.262.35-.541.685c-.068.082-.137.163-.206.244q-.533.618-1.12,1.184-.137.132-.277.261l-.065.06A17.5,17.5,0,0,1,27.9,31.628q-.5.371-1.029.7-.116.074-.233.145-.2.124-.411.243-.271.155-.548.3c-.075.04-.15.078-.225.117-.11.056-.22.111-.332.164l-.058.027c-.073.035-.146.069-.22.1a17.356,17.356,0,0,1-2.978,1.057l-.017,0-.2.05-.152.036-.019,0c-.1.024-.208.048-.314.069l-.177.037-.108.021-.135.026-.075.013-.171.031c-.1.017-.194.033-.291.047l-.211.031-.249.033-.068.009-.089.011-.179.02-.093.01-.177.017-.229.02-.28.02-.181.01c-.154.008-.309.014-.464.018l-.233,0h0l-.233,0a17.568,17.568,0,0,1-2.355-.158q-.859-.115-1.691-.312l-.066-.016-.167-.041-.147-.038A17.376,17.376,0,0,1,9.431,33.06l-.018-.009L9.314,33,9.1,32.881q-.618-.34-1.2-.727-.151-.1-.3-.2L7.5,31.888l-.1-.068q-.128-.091-.255-.184-.525-.386-1.018-.809a17.607,17.607,0,0,1-3.066-3.413q-.455-.662-.849-1.367a17.518,17.518,0,1,1,32.821-8.53Z" transform="translate(0)" fill="#f5e897"/>
      <path id="Path_361-2" data-name="Path 361" d="M392.35,225.463l.167-.041.147-.038c0-.1.006-.217.01-.339.031-.962.1-2.51.273-4.376q.014-.15.028-.3c.061-.632.132-1.3.217-1.987,0-.023.006-.045.008-.068.069-.559.147-1.132.235-1.717q.093-.613.2-1.24l.016-.088c.021-.121.042-.241.064-.362q.091-.506.193-1.016c.239-1.194.523-2.4.863-3.564a28.564,28.564,0,0,1,1.271-3.556,17.564,17.564,0,0,1,1.386-2.582l.023-.035a9.909,9.909,0,0,1,2.35-2.549l-.184-.252a10.177,10.177,0,0,0-2.345,2.493l-.01.015a16.977,16.977,0,0,0-1.4,2.5,27.323,27.323,0,0,0-1.331,3.6q-.51,1.712-.915,3.709-.142.7-.271,1.442-.022.126-.044.252s0,0,0,0c-.022.13-.044.259-.065.39q-.081.5-.152.983-.11.751-.2,1.476-.03.239-.057.475-.039.333-.074.657-.049.451-.09.883l-.008.079-.012.136C392.437,222.709,392.371,224.542,392.35,225.463Z" transform="translate(-372.016 -190.915)" opacity="0.2" style="isolation: isolate"/>
      <path id="Path_362-2" data-name="Path 362" d="M469.01,476.521l.018-.009q.16-.083.318-.17c.035-.414.081-.868.143-1.346.013-.1.026-.2.04-.3.007-.054.015-.108.023-.163.061-.421.134-.855.221-1.292a10.646,10.646,0,0,1,1.918-4.724c.052-.061.106-.119.161-.175a3.518,3.518,0,0,1,.446-.391l-.184-.251a3.99,3.99,0,0,0-.612.559q-.1.108-.19.225a11.041,11.041,0,0,0-1.808,4.461c-.091.432-.168.864-.233,1.284q-.025.165-.048.327C469.121,475.268,469.055,475.94,469.01,476.521Z" transform="translate(-444.703 -443.461)" opacity="0.2" style="isolation: isolate"/>
      <ellipse id="Ellipse_41-2" data-name="Ellipse 41" cx="1.559" cy="1.559" rx="1.559" ry="1.559" transform="translate(27.968 7.561)" opacity="0.2" style="isolation: isolate"/>
      <ellipse id="Ellipse_42-2" data-name="Ellipse 42" cx="1.559" cy="1.559" rx="1.559" ry="1.559" transform="translate(27.465 20.984)" opacity="0.2" style="isolation: isolate"/>
      <path id="Path_363-2" data-name="Path 363" d="M412.194,167.957a6.927,6.927,0,0,1-.4,3.555,6.312,6.312,0,0,1-1.2-6.756A6.927,6.927,0,0,1,412.194,167.957Z" transform="translate(-388.858 -156.217)" opacity="0.2" style="isolation: isolate"/>
      <path id="Path_364-2" data-name="Path 364" d="M485.013,270.713a6.961,6.961,0,0,1-3.567.233,6.351,6.351,0,0,1,6.444-2.356A6.961,6.961,0,0,1,485.013,270.713Z" transform="translate(-456.495 -254.545)" opacity="0.2" style="isolation: isolate"/>
      <path id="Path_365-2" data-name="Path 365" d="M510.324,512.274a4.856,4.856,0,0,1-2.5.159,4.424,4.424,0,0,1,4.517-1.652A4.856,4.856,0,0,1,510.324,512.274Z" transform="translate(-481.504 -484.219)" opacity="0.2" style="isolation: isolate"/>
      <path id="Path_366-2" data-name="Path 366" d="M439.96,536.27l.063.033C440.017,536.37,440,536.412,439.96,536.27Z" transform="translate(-417.159 -508.478)" fill="#2f2e41"/>
      <path id="Path_367-2" data-name="Path 367" d="M441.2,534.493c0,.007,0,.015,0,.022l-.022-.011c0-.007,0-.014,0-.021C441.187,534.391,441.181,534.284,441.2,534.493Z" transform="translate(-418.316 -506.678)" fill="#2f2e41"/>
      <ellipse id="Ellipse_43-2" data-name="Ellipse 43" cx="8.51" cy="8.51" rx="8.51" ry="8.51" transform="translate(7.643 8.314)" fill="#353535"/>
      <ellipse id="Ellipse_44-2" data-name="Ellipse 44" cx="5.154" cy="5.154" rx="5.154" ry="5.154" transform="translate(11.7 14.68)" fill="#fff9f5"/>
      <path id="Path_368-2" data-name="Path 368" d="M159.375,447.592h-.006l-1.2.288-2.5.6-.34.082-3.8.911-.322.078-9.209,2.21a17.263,17.263,0,0,1-1.822-.82l-.018-.009-.1-.053-.218-.117q-.618-.34-1.2-.727-.151-.1-.3-.2l-.094-.065-.1-.068q-.128-.091-.255-.184c.895-1.626,3.025-2.706,5.155-3.3,1.608-.447,1.961-1.915,1.931-3.221a7.624,7.624,0,0,0-.076-.89,8.681,8.681,0,0,0-.309-1.386l5.154.172.532,1.225a2.767,2.767,0,0,0-.014.405A2.446,2.446,0,0,0,151.7,444.6c.1.054.2.105.305.152a8.076,8.076,0,0,0,2.733.609,5.264,5.264,0,0,1,1.352.025q.163.025.317.06a4.566,4.566,0,0,1,1.664.745,4.734,4.734,0,0,1,.54.447A4.283,4.283,0,0,1,159.375,447.592Z" transform="translate(-130.753 -417.88)" fill="#fff9f5"/>
      <path id="Path_369-2" data-name="Path 369" d="M483.893,567.7l-.065.06a17.471,17.471,0,0,1-1.433,1.177q-.5.371-1.029.7-.116.074-.233.145-.2.125-.411.243-.271.155-.548.3c-.075.04-.15.078-.225.117-.11.057-.22.111-.332.164l-.058.028-.219-.182,2.575-3.147.518-.633a1.44,1.44,0,0,1,.681.345,6.775,6.775,0,0,1,.741.639Z" transform="translate(-454.498 -537.312)" fill="#fff9f5"/>
      <path id="Path_370-2" data-name="Path 370" d="M199.765,555.1a.589.589,0,0,1-.029.1,17.537,17.537,0,0,1-1.433,1.177,6.118,6.118,0,0,1-1.337.318s.039.2.074.532q-.2.124-.411.243-.271.155-.548.3c-.075.04-.15.078-.225.117-.11.057-.22.111-.332.164l-.058.027c-.073.035-.146.069-.22.1a17.342,17.342,0,0,1-2.978,1.057l-.017,0-.2.05-.152.036-.019,0c-.1.024-.208.048-.314.069l-.177.037-.108.021-.135.026-.075.013-.17.031c-.1.016-.194.033-.291.047l-.211.031-.249.033-.068.009-.089.011-.179.02-.093.01-.177.017-.229.02-.28.02-.181.01c-.154.008-.309.014-.464.018l-.233,0h-.234a17.544,17.544,0,0,1-2.355-.157q-.859-.115-1.691-.312l-.066-.016-.167-.041-.147-.038a17.381,17.381,0,0,1-3.659-1.409l-.018-.009-.1-.053c2.845-.663,7.34-1.708,11.241-2.6l.326-.075c1.441-.331,2.79-.638,3.932-.9l.347-.078c1.227-.276,2.179-.485,2.7-.59a4.275,4.275,0,0,1,.422-.074l1.079,1.671Z" transform="translate(-170.406 -524.748)" fill="#353535"/>
      <ellipse id="Ellipse_45-2" data-name="Ellipse 45" cx="2.535" cy="2.535" rx="2.535" ry="2.535" transform="translate(5.832 8.133)" fill="#353535"/>
      <ellipse id="Ellipse_46-2" data-name="Ellipse 46" cx="2.535" cy="2.535" rx="2.535" ry="2.535" transform="translate(21.404 7.409)" fill="#353535"/>
      <path id="Path_371-2" data-name="Path 371" d="M399.5,124.531a2.535,2.535,0,0,1,2.263-2.52,2.535,2.535,0,1,0,0,5.04A2.535,2.535,0,0,1,399.5,124.531Z" transform="translate(-378.277 -115.673)" fill="#353535"/>
      <path id="Path_372-2" data-name="Path 372" d="M86.4,183.5a2.535,2.535,0,0,1-.147-3.384,2.535,2.535,0,1,0,3.527,3.6A2.535,2.535,0,0,1,86.4,183.5Z" transform="translate(-80.862 -170.785)" fill="#353535"/>
      <path id="Path_373-2" data-name="Path 373" d="M212.3,247.777c-3,0-5.432,1.419-5.432,3.169a2.577,2.577,0,0,0,1.3,2.052l1.046-.758-.284,1.187c.118.055.239.108.364.157l1.562-1.823V254a9.1,9.1,0,0,0,1.449.115c3,0,5.432-1.419,5.432-3.169S215.3,247.777,212.3,247.777Z" transform="translate(-196.148 -234.936)" fill="#353535"/>
      <path id="Path_374-2" data-name="Path 374" d="M412.58,191.876s-.394,1.811,2.067,2.535Z" transform="translate(-391.176 -181.932)" fill="#353535"/>
      <path id="Path_375-2" data-name="Path 375" d="M173.742,198.235s.905,2.024-1.811,2.93Z" transform="translate(-163.021 -187.961)" fill="#353535"/>
      <ellipse id="Ellipse_47-2" data-name="Ellipse 47" cx="0.429" cy="1.031" rx="0.429" ry="1.031" transform="matrix(0.963, -0.27, 0.27, 0.963, 11.094, 19.988)" fill="#fff9f5"/>
      <ellipse id="Ellipse_48-2" data-name="Ellipse 48" cx="1.031" cy="0.429" rx="1.031" ry="0.429" transform="translate(21.601 21.008) rotate(-86.476)" fill="#fff9f5"/>
    </g>
  </g>
</svg>
