<svg xmlns="http://www.w3.org/2000/svg" width="90.443" height="81.288" viewBox="0 0 90.443 81.288">
  <g id="Group_2563" data-name="Group 2563" transform="translate(-2111 -7240)">
    <path id="Path_621" data-name="Path 621" d="M107.271,44.568c-5.8-.206-11.32-2.078-16.59-4.121s-10.5-4.317-16.155-5.4c-3.64-.7-7.8-.8-10.735,1.155-2.823,1.881-3.735,5.12-4.225,8.128-.369,2.263-.586,4.644.425,6.763A49.739,49.739,0,0,0,62.8,55.208c3,4.9.879,10.948-2.37,15.734a59.794,59.794,0,0,0-4.469,6.778c-1.176,2.388-1.72,5.129-.691,7.568,1.02,2.419,3.45,4.232,6.083,5.509C66.7,93.389,73,94.132,79.146,94.552c13.6.931,27.276.528,40.914.125A120.129,120.129,0,0,0,135.142,93.6c2.758-.434,5.6-1.122,7.606-2.782a6.37,6.37,0,0,0,1.467-8.321c-2.856-4.434-10.751-5.535-12.749-10.294-1.1-2.619.03-5.537,1.627-7.965,3.426-5.21,9.168-9.782,9.469-15.739.208-4.091-2.552-8.187-6.82-10.123-4.473-2.029-10.677-1.774-13.976,1.585C118.363,43.411,112.391,44.741,107.271,44.568Z" transform="translate(2056.274 7226.168)" fill="#fff" style="isolation: isolate"/>
    <g id="Group_664" data-name="Group 664" transform="translate(2113.147 7240)">
      <ellipse id="Ellipse_50" data-name="Ellipse 50" cx="8.05" cy="1.548" rx="8.05" ry="1.548" transform="translate(10.779 77.386)" fill="#2f2e41"/>
      <ellipse id="Ellipse_51" data-name="Ellipse 51" cx="0.937" cy="1.227" rx="0.937" ry="1.227" transform="translate(17.757 77.05)" fill="#3f3d56"/>
      <ellipse id="Ellipse_52" data-name="Ellipse 52" cx="0.937" cy="1.227" rx="0.937" ry="1.227" transform="translate(17.757 75.55)" fill="#3f3d56"/>
      <ellipse id="Ellipse_53" data-name="Ellipse 53" cx="0.937" cy="1.227" rx="0.937" ry="1.227" transform="translate(17.757 74.05)" fill="#3f3d56"/>
      <ellipse id="Ellipse_54" data-name="Ellipse 54" cx="0.937" cy="1.227" rx="0.937" ry="1.227" transform="translate(17.757 72.552)" fill="#3f3d56"/>
      <ellipse id="Ellipse_55" data-name="Ellipse 55" cx="0.937" cy="1.227" rx="0.937" ry="1.227" transform="translate(17.757 71.052)" fill="#3f3d56"/>
      <ellipse id="Ellipse_56" data-name="Ellipse 56" cx="0.937" cy="1.227" rx="0.937" ry="1.227" transform="translate(17.757 69.552)" fill="#3f3d56"/>
      <ellipse id="Ellipse_57" data-name="Ellipse 57" cx="0.937" cy="1.227" rx="0.937" ry="1.227" transform="translate(17.757 68.052)" fill="#3f3d56"/>
      <path id="Path_380" data-name="Path 380" d="M137.063,478a4.453,4.453,0,0,0,.35-.514l-2.463-.4,2.663.02a4.493,4.493,0,0,0,.086-3.557l-3.572,1.854,3.3-2.419a4.489,4.489,0,1,0-7.415,5.024,4.532,4.532,0,0,0-.512.819l3.2,1.66-3.408-1.144a4.487,4.487,0,0,0,.723,4.216,4.489,4.489,0,1,0,7.057,0,4.489,4.489,0,0,0,0-5.552Z" transform="translate(-114.861 -418.985)" fill="#2f2e41"/>
      <path id="Path_381" data-name="Path 381" d="M129.058,561.457a21.7,21.7,0,0,1,1.714,9.079,4.489,4.489,0,0,0,6.3-6.3C137.674,563.47,129.058,560.955,129.058,561.457Z" transform="translate(-114.869 -499.666)" opacity="0.1" style="isolation: isolate"/>
      <path id="Path_382" data-name="Path 382" d="M525.845,520.23a3.116,3.116,0,0,0,1.119,2.309,1.793,1.793,0,0,0,2.39-.188,2.674,2.674,0,0,0,.4-.863,7.158,7.158,0,0,0,.282-4.47c-1.134-.074-2.448-.607-3.3.33A3.908,3.908,0,0,0,525.845,520.23Z" transform="translate(-468.018 -459.978)" fill="#3f3d56"/>
      <path id="Path_383" data-name="Path 383" d="M526.694,434.2a28.068,28.068,0,0,0-.38,3.84c.01.5.063.99.064,1.489a7.34,7.34,0,0,1-.99,3.691,1.241,1.241,0,0,1-.27.35.868.868,0,0,1-.945.032,1.86,1.86,0,0,1-.672-.729c-.819-1.4-.842-3.108-1.167-4.7-.248-1.217-.684-2.4-.841-3.628-.1-.793-.087-1.6-.25-2.384-.05-.236-.188-.591-.279-.94a1.414,1.414,0,0,1-.044-.827c.175-.43.748-.263,1.12-.236a25.8,25.8,0,0,0,3.943-.01.457.457,0,0,1,.368.077.452.452,0,0,1,.088.159,5.336,5.336,0,0,1,.239.88A9.772,9.772,0,0,1,526.694,434.2Z" transform="translate(-463.604 -382.809)" fill="#fde5e5"/>
      <g id="Group_659" data-name="Group 659" transform="translate(57.271 47.29)" opacity="0.1">
        <path id="Path_384" data-name="Path 384" d="M552.281,430.457a.973.973,0,0,0-.2,0c-.629.051-1.259.076-1.888.079Q551.236,430.538,552.281,430.457Z" transform="translate(-546.969 -430.413)"/>
        <path id="Path_385" data-name="Path 385" d="M524.411,443.6a1.861,1.861,0,0,1-.672-.729c-.819-1.4-.842-3.108-1.167-4.7-.248-1.217-.684-2.4-.841-3.628-.1-.793-.087-1.6-.25-2.384-.049-.236-.188-.592-.279-.94a1.415,1.415,0,0,1-.044-.827.469.469,0,0,1,.44-.286c-.278-.019-.55.014-.66.286a1.414,1.414,0,0,0,.044.827c.091.349.23.7.279.94.163.783.147,1.591.25,2.384.157,1.233.593,2.412.841,3.628.324,1.591.347,3.3,1.167,4.7a1.858,1.858,0,0,0,.672.729.976.976,0,0,0,.576.117A1.015,1.015,0,0,1,524.411,443.6Z" transform="translate(-520.893 -430.101)"/>
      </g>
      <path id="Path_386" data-name="Path 386" d="M577.37,423.414a7.413,7.413,0,0,0-.55,3.189c.11,4.4-1.649,13.634-1.649,13.634h-1.539s-.22-10.225,0-11.105-.11-3.958-.44-8.246a22.016,22.016,0,0,1,.781-7.346c.123-.44.209-.681.209-.681s2.529-3.738,3.958-1.979a4.378,4.378,0,0,1,.565,2.277A34.556,34.556,0,0,1,577.37,423.414Z" transform="translate(-510.123 -365.284)" fill="#fde5e5"/>
      <path id="Path_387" data-name="Path 387" d="M592.484,413.163a4.354,4.354,0,0,0-.565-2.277,1.133,1.133,0,0,0-1.08-.458,1.172,1.172,0,0,1,.75.458,4.379,4.379,0,0,1,.565,2.277,34.563,34.563,0,0,1-1.335,10.257,7.413,7.413,0,0,0-.55,3.189c.11,4.4-1.649,13.634-1.649,13.634h.33s1.759-9.236,1.649-13.634a7.414,7.414,0,0,1,.55-3.189A34.559,34.559,0,0,0,592.484,413.163Z" transform="translate(-523.902 -365.29)" opacity="0.1" style="isolation: isolate"/>
      <path id="Path_388" data-name="Path 388" d="M567.262,668.176a1.43,1.43,0,0,0-.314.343c-.2.372.083.816.381,1.112s.66.612.66,1.034a1.03,1.03,0,0,1-.543.809c-.154.1-.347.22-.316.4a.382.382,0,0,0,.058.129,1.7,1.7,0,0,0,1.125.682,5.073,5.073,0,0,0,1.348.011.272.272,0,0,0,.185-.064.25.25,0,0,0,.05-.152,1.977,1.977,0,0,1,.11-.689c.143-.287.472-.433.66-.69a1.536,1.536,0,0,0,.128-1.269,5.233,5.233,0,0,0-1.444-2.639C568.5,666.453,567.83,667.64,567.262,668.176Z" transform="translate(-504.554 -593.624)" fill="#3f3d56"/>
      <path id="Path_389" data-name="Path 389" d="M327.534,129.739a2.846,2.846,0,0,0-.173-3.112,5.317,5.317,0,0,0-2.673-1.857,7.524,7.524,0,0,0-4.385-.295,21.537,21.537,0,0,0-3.255,1.4,14,14,0,0,1-6.078,1.209c-2.321-.065-4.864-.66-6.812.609-3.565,2.319-1.979,8.63-5.351,11.215a20.862,20.862,0,0,1-3.065,1.539,3.194,3.194,0,0,0-1.946,2.619,3.049,3.049,0,0,0,.55,1.539,7.124,7.124,0,0,0,6,3.222,7.635,7.635,0,0,0,6.042-3.219,4.719,4.719,0,0,1,1.139-1.348c.99-.649,2.293-.195,3.474-.1a5.634,5.634,0,0,0,5.782-4.349c.22-1.105.181-2.426,1.071-3.119a4.991,4.991,0,0,1,2.639-.535,5.4,5.4,0,0,0,3.882-2.564c.414-.621.463-1.363,1.028-1.853C326.009,130.208,326.951,130.605,327.534,129.739Z" transform="translate(-261.494 -110.608)" fill="#2f2e41"/>
      <g id="Group_660" data-name="Group 660" transform="translate(38.348 13.661)" opacity="0.1">
        <path id="Path_390" data-name="Path 390" d="M402.551,148.456a13.941,13.941,0,0,0,2.877-.22c-.262.008-.526.008-.788,0-1.822-.051-3.78-.427-5.48.026C400.282,148.273,401.442,148.425,402.551,148.456Z" transform="translate(-393.622 -145.425)"/>
        <path id="Path_391" data-name="Path 391" d="M354.269,296.212a4.719,4.719,0,0,0-1.139,1.348,7.724,7.724,0,0,1-4.34,2.992c.129.005.257.009.387.008a7.631,7.631,0,0,0,6.042-3.219,4.721,4.721,0,0,1,1.139-1.348l.086-.053A3.083,3.083,0,0,0,354.269,296.212Z" transform="translate(-348.79 -276.999)"/>
        <path id="Path_392" data-name="Path 392" d="M530.933,126.6a5.339,5.339,0,0,0-2.673-1.857,7.523,7.523,0,0,0-4.385-.295c-.033.008-.065.018-.1.026a8.415,8.415,0,0,1,2.393.488,5.339,5.339,0,0,1,2.673,1.857,2.848,2.848,0,0,1,.173,3.112c-.583.87-1.525.473-2.142,1.008-.565.489-.613,1.231-1.028,1.853a5.654,5.654,0,0,1-3.206,2.441c.463-.055.951-.048,1.413-.1a5.4,5.4,0,0,0,3.882-2.564c.414-.621.463-1.363,1.028-1.853.617-.535,1.559-.139,2.142-1.008A2.841,2.841,0,0,0,530.933,126.6Z" transform="translate(-503.525 -124.242)"/>
        <path id="Path_393" data-name="Path 393" d="M455.585,225.193a5,5,0,0,0-2.639.535c-.89.694-.847,2.014-1.071,3.119a5.645,5.645,0,0,1-3.815,4.118l.131.012a5.634,5.634,0,0,0,5.782-4.349c.22-1.1.181-2.425,1.071-3.119a1.985,1.985,0,0,1,.683-.33C455.677,225.181,455.632,225.189,455.585,225.193Z" transform="translate(-437.145 -214.082)"/>
      </g>
      <path id="Path_394" data-name="Path 394" d="M432.314,72.267s-2.639,5.278-3.518,7.257-8.906,4.948-10.006,5.058a1.416,1.416,0,0,0-.785.378,4.324,4.324,0,0,0-.974,1.491,34.013,34.013,0,0,1-.11,7.916c-.011.1-.021.191-.03.284-.479,4.708.524,5.819.524,5.819s-10.665,4.068-10.335-1.209a23.909,23.909,0,0,0-.014-3.89,16.337,16.337,0,0,0-.631-3.063c-.261-.912-.572-1.911-.894-3.272a14.36,14.36,0,0,0-.611-2c-.008-.02-.015-.04-.022-.058-.55-1.364-1.1-1.805-1.414-1.948a4.755,4.755,0,0,1-.844-.475,44.412,44.412,0,0,1-5.138-4.319c-2.639-2.639-5.278-8.906-5.278-8.906a10.255,10.255,0,0,1,.99-6.6c1.759-2.969.99,5.827.99,5.827a43.176,43.176,0,0,1,3.958,6.267,3.307,3.307,0,0,0,1.539,1.81,18.256,18.256,0,0,1,2.434,1.522,14.2,14.2,0,0,0,1.637,1.069,14.051,14.051,0,0,0,3.929,1.6,3.708,3.708,0,0,0,.579.049.6.6,0,0,0,.484-.22,2.868,2.868,0,0,0,.246-1.911,9.71,9.71,0,0,0-.18-1.059s3.573-2.254,3.464.495a3.071,3.071,0,0,0,.084.9,1.566,1.566,0,0,0,1.065,1.165,2.638,2.638,0,0,0,1.319.043,1.289,1.289,0,0,0,.389-.133,26.609,26.609,0,0,1,4.618-1.319c.99-.11,5.937-2.529,5.937-2.529l5.388-7.477s-.11-4.4,2.089-6.157S432.314,72.267,432.314,72.267Z" transform="translate(-348.959 -57.073)" fill="#fde5e5"/>
      <g id="Group_661" data-name="Group 661" transform="translate(43.105 7.86)" opacity="0.1">
        <path id="Path_395" data-name="Path 395" d="M616.811,297.525a21.865,21.865,0,0,0-.126,2.661c.011-.581.049-1.244.126-2,.009-.092.019-.188.03-.284a43.143,43.143,0,0,0,.275-5.1,44.219,44.219,0,0,1-.275,4.441C616.834,297.337,616.819,297.432,616.811,297.525Z" transform="translate(-591.984 -268.466)"/>
        <path id="Path_396" data-name="Path 396" d="M544.77,205.06c-.074.043-.11.069-.11.069a9.413,9.413,0,0,1,.211,1.429A6.746,6.746,0,0,0,544.77,205.06Z" transform="translate(-527.88 -190.373)"/>
        <path id="Path_397" data-name="Path 397" d="M411.686,89.927c.054-.77.134-2.15.119-3.377-.019,1.64-.165,3.314-.165,3.314Z" transform="translate(-409.486 -84.893)"/>
        <path id="Path_398" data-name="Path 398" d="M528.567,382.52a.722.722,0,0,1-.008.129c-.33,5.278,10.336,1.21,10.336,1.21a1.786,1.786,0,0,1-.278-.559C537.01,383.871,528.937,386.53,528.567,382.52Z" transform="translate(-513.543 -348.321)"/>
        <path id="Path_399" data-name="Path 399" d="M634.4,78.155s-2.639,5.278-3.518,7.257-8.906,4.948-10.006,5.058a1.417,1.417,0,0,0-.785.378,4.326,4.326,0,0,0-.974,1.491s.026.179.058.52a4.089,4.089,0,0,1,.916-1.351,1.417,1.417,0,0,1,.785-.378c1.1-.11,9.126-3.079,10.006-5.058s3.518-7.257,3.518-7.257,1.859-5.646,1.655-7.335A41.906,41.906,0,0,1,634.4,78.155Z" transform="translate(-594.153 -71.48)"/>
        <path id="Path_400" data-name="Path 400" d="M407.051,134.751a16.34,16.34,0,0,0-.631-3.063c-.261-.911-.572-1.911-.894-3.272a14.361,14.361,0,0,0-.611-2c-.008-.02-.015-.04-.022-.058-.55-1.364-1.1-1.805-1.414-1.948a4.752,4.752,0,0,1-.844-.475,44.415,44.415,0,0,1-5.138-4.319c-2.639-2.639-5.278-8.906-5.278-8.906a9.947,9.947,0,0,1-.163-1.6,10.606,10.606,0,0,0,.163,2.263s2.639,6.267,5.278,8.906a44.41,44.41,0,0,0,5.138,4.319,4.754,4.754,0,0,0,.851.475c.313.143.862.584,1.414,1.948.007.019.014.038.022.058a14.363,14.363,0,0,1,.608,2c.322,1.361.633,2.361.894,3.272a16.332,16.332,0,0,1,.631,3.063c.046.46.074.96.081,1.523A19.159,19.159,0,0,0,407.051,134.751Z" transform="translate(-392.05 -104.973)"/>
      </g>
      <path id="Path_401" data-name="Path 401" d="M521.729,236.771a6.541,6.541,0,0,0-.44.866,5.232,5.232,0,0,0-.2,1.454,11.67,11.67,0,0,1-.312,2.036,2.272,2.272,0,0,1-.11.361.955.955,0,0,1-.129.22.935.935,0,0,1-.2.186,2.4,2.4,0,0,1-.373.2,8.761,8.761,0,0,1-4.87,1.1,7.088,7.088,0,0,1-2.026-.682,2.5,2.5,0,0,0-1.915-.4h0a.966.966,0,0,1-.307.1.3.3,0,0,1-.062-.005c-.207-.04-.207-.737-.254-.942-.18-.789-.208-1.429-.316-2.115a6.936,6.936,0,0,0-.265-1.118,13.2,13.2,0,0,1-.573-4.143c0-.069-.495,0-.66-.007-.042,0-.065-.007-.055-.021a.226.226,0,0,1,.033-.037.5.5,0,0,1,.2-.1l.13-.038a4.44,4.44,0,0,0,1.937-.751,2.59,2.59,0,0,0,.637-2,11.9,11.9,0,0,1-.1-1.262,3.706,3.706,0,0,0,.579.049.6.6,0,0,0,.484-.22,8.688,8.688,0,0,1,.475,1.1,7.608,7.608,0,0,0,.6,1.359,2.3,2.3,0,0,0,2.058,1.054,1.912,1.912,0,0,0,1.7-1.484,16.787,16.787,0,0,0-.161-2.429,2.638,2.638,0,0,0,1.32.043,1.191,1.191,0,0,1,.047.137c.247.849.577,1.823,1.407,2.124.537.194,1.171.048,1.667.33a1.093,1.093,0,0,1,.11.073,1.218,1.218,0,0,1,.291.309,2.482,2.482,0,0,1,.353,1.108A6.148,6.148,0,0,1,521.729,236.771Z" transform="translate(-452.733 -203.91)" fill="#2f2e41"/>
      <path id="Path_402" data-name="Path 402" d="M548.167,200.047a3.747,3.747,0,0,1-3.367-.34,9.726,9.726,0,0,0-.18-1.059s3.573-2.254,3.463.495A3.077,3.077,0,0,0,548.167,200.047Z" transform="translate(-484.74 -176.033)" opacity="0.1" style="isolation: isolate"/>
      <ellipse id="Ellipse_58" data-name="Ellipse 58" cx="3.738" cy="3.738" rx="3.738" ry="3.738" transform="translate(58.34 16.569)" fill="#fde5e5"/>
      <path id="Path_405" data-name="Path 405" d="M507.12,255.368s3.376-4.686,14.189.335,16.985,1,16.985,1l.053,4.8s-12.027,2.789-16.668,0-11.2-4.733-13.511-.414Z" transform="translate(-451.363 -225.522)" fill="#294658" stroke="#294658" stroke-width="1"/>
      <path id="Path_406" data-name="Path 406" d="M68.227,273.388s-7.257,4.618-29.8-.33-21.44-.99-21.44-.99V266.9s11.105-2.749,20.781,0,23.449,4.334,28.273.078Z" transform="translate(-15.115 -236.467)" fill="#f86d70"/>
      <path id="Path_407" data-name="Path 407" d="M68.227,273.388s-7.257,4.618-29.8-.33-21.44-.99-21.44-.99V266.9s11.105-2.749,20.781,0,23.449,4.334,28.273.078Z" transform="translate(-15.115 -236.467)" opacity="0.1" style="isolation: isolate"/>
      <path id="Path_408" data-name="Path 408" d="M68.967,274.948s-7.037,4.618-29.577-.33-21.221-.99-21.221-.99l-.11-4.728s10.885-2.749,20.561,0,23.339,4.664,28.163.408Z" transform="translate(-16.076 -238.247)" fill="#294658" stroke="#284558" stroke-width="1"/>
      <path id="Path_409" data-name="Path 409" d="M506.955,141.505c-.11-.686-.279-1.55.295-1.943a1.22,1.22,0,0,1,.681-.176c1.189-.012,2.324.816,3.49.574a1.967,1.967,0,0,0,.77-3.5,3.951,3.951,0,0,0-1.6-.579,9.835,9.835,0,0,0-4.469-.22,3.362,3.362,0,0,0-2.67,3.189,4.5,4.5,0,0,0,.8,1.979c.29.464,1.421,2.639,1.969,2.672C507,143.542,507.031,141.954,506.955,141.505Z" transform="translate(-448.092 -120.579)" fill="#2f2e41"/>
      <path id="Path_410" data-name="Path 410" d="M531.005,377.69s-7.586,1.869-10.115,0c0,0-1.1,4.288-.77,6.487,0,0,5.388.33,5.937.66,0,0,.11-.88.66-.44,0,0,1.869-2.2,5.278-.22C531.995,384.177,532.655,379.009,531.005,377.69Z" transform="translate(-462.879 -336.162)" fill="#2f2e41"/>
      <path id="Path_411" data-name="Path 411" d="M530.14,143.154a2.165,2.165,0,0,0-.245-.154,1.963,1.963,0,0,1-1.076,3.218c-1.166.242-2.3-.586-3.49-.574a1.221,1.221,0,0,0-.68.176c-.574.393-.406,1.257-.3,1.943.072.449.043,2.036-.729,1.993h-.013c.212.258.41.433.563.44.77.043.8-1.539.729-1.993-.11-.686-.278-1.55.3-1.943a1.22,1.22,0,0,1,.681-.176c1.189-.012,2.324.816,3.49.574a1.967,1.967,0,0,0,.77-3.5Z" transform="translate(-466.04 -127.277)" opacity="0.1" style="isolation: isolate"/>
      <g id="Group_662" data-name="Group 662" transform="translate(0 9.699)" opacity="0.1">
        <path id="Path_412" data-name="Path 412" d="M9.507,89.162S1.286,85.706.208,91.94a1.516,1.516,0,0,0,.22,1.774s.168-.43.963.015a4.136,4.136,0,0,0,.9.364,2.019,2.019,0,0,0,1.278-.068h0s2.7-.146,4.977-3.683c0,0,.974-.6,1.024-.828l-1.629.11a2.711,2.711,0,0,1-.55,1.909s.6-1.85.311-1.9c-.058-.011-.861.1-.861.1a4.428,4.428,0,0,1-.88,3.147s1.009-2.11.57-3.109l-1.2.232a4.659,4.659,0,0,1-.86,3.451s.977-2.243.6-3.383l-1.152.387s.278,2.135-.717,3.189c0,0,.869-2.706.46-3.079a6.022,6.022,0,0,0-1.258.66s.165,1.539-.468,2.089c0,0,.389-1.869.2-1.946a6.277,6.277,0,0,0-1.57,1.688A4.564,4.564,0,0,1,1.976,91.18a2.531,2.531,0,0,0-1.429.2s.417-.793,1.721-.417a5.716,5.716,0,0,1,1.16-.66A5.561,5.561,0,0,0,1.3,89.822a2.435,2.435,0,0,1,2.428.369l1.148-.416a7.815,7.815,0,0,0-2.393-.814s1.062-.41,2.692.733l1.175-.241a9.355,9.355,0,0,0-2.209-1,3.7,3.7,0,0,1,2.549.941l.8-.068s-.974-.573-1.269-.712-.281-.231-.281-.231a3.837,3.837,0,0,1,1.888.908A9.281,9.281,0,0,0,9.507,89.162Z" transform="translate(-0.013 -88.207)" fill="#262f67"/>
      </g>
      <g id="Group_663" data-name="Group 663" transform="translate(1.205 0)" opacity="0.1">
        <path id="Path_413" data-name="Path 413" d="M18.955,4.454S16.037-2.283,11.849.807a1.247,1.247,0,0,0-.88,1.176s.345-.159.563.557a3.45,3.45,0,0,0,.33.728,1.649,1.649,0,0,0,.791.685h0s1.689,1.454,5.058.648c0,0,.922.2,1.081.091l-1.03-.864a2.217,2.217,0,0,1-1.416.818s1.411-.759,1.269-.954c-.029-.04-.565-.433-.565-.433A3.658,3.658,0,0,1,14.74,4.63s1.8-.679,2.11-1.523L16,2.557a3.843,3.843,0,0,1-2.477,1.56s1.858-.77,2.284-1.667l-.9-.427s-1.051,1.429-2.24,1.483c0,0,2.057-1.113,2.025-1.567a4.778,4.778,0,0,0-1.125-.321S12.789,2.626,12.1,2.6c0,0,1.3-.89,1.225-1.045a5.149,5.149,0,0,0-1.894.11,3.752,3.752,0,0,1,1.908-.3,2.061,2.061,0,0,0-.961-.693s.7-.234,1.26.732a4.768,4.768,0,0,1,1.065.267,4.5,4.5,0,0,0-.99-1.5s.88.22,1.231,1.6l.918.408A6.312,6.312,0,0,0,14.895.335S15.76.7,16.077,2.3l.835.527A7.665,7.665,0,0,0,16.167.985,3.045,3.045,0,0,1,17.146,3l.517.418s-.253-.9-.349-1.146-.035-.3-.035-.3a3.167,3.167,0,0,1,.6,1.615A7.783,7.783,0,0,0,18.955,4.454Z" transform="translate(-10.97 0.004)" fill="#262f67"/>
      </g>
    </g>
  </g>
</svg>
