<svg xmlns="http://www.w3.org/2000/svg" width="24" height="24" viewBox="0 0 24 24">
  <g id="ic_menu_edit" transform="translate(0 0)">
    <path id="Path_3021" data-name="Path 3021" d="M287.509-646.642H270.4a2.226,2.226,0,0,1-2.221-2.226V-666a2.226,2.226,0,0,1,2.221-2.225h6.112a1,1,0,0,1,1,1,1,1,0,0,1-1,1H270.4a.222.222,0,0,0-.221.222v17.135a.222.222,0,0,0,.221.223h17.112a.222.222,0,0,0,.221-.223v-6.119a1,1,0,0,1,1-1,1,1,0,0,1,1,1v6.119A2.226,2.226,0,0,1,287.509-646.642Zm-10.681-7.486,4.321-.866a.987.987,0,0,0,.511-.273l9.506-9.519a3.434,3.434,0,0,0,1.01-2.439,3.434,3.434,0,0,0-1.01-2.439,3.526,3.526,0,0,0-4.87,0l-9.507,9.52a1,1,0,0,0-.273.512l-.865,4.327a1,1,0,0,0,.274.9,1,1,0,0,0,.707.293A1,1,0,0,0,276.828-654.128Zm4.125-1.848h0Zm6.757-12.273a1.475,1.475,0,0,1,2.042,0,1.437,1.437,0,0,1,.424,1.022,1.44,1.44,0,0,1-.424,1.023l-9.292,9.3-2.554.511.511-2.556Z" transform="translate(-268.176 670.642)" fill="#294658"/>
  </g>
</svg>
