<svg xmlns="http://www.w3.org/2000/svg" width="97.677" height="73.132" viewBox="0 0 97.677 73.132">
  <g id="Group_2289" data-name="Group 2289" transform="translate(-65.75 -403.077)">
    <g id="Group_697" data-name="Group 697" transform="translate(65.75 403.077)">
      <path id="Path_360" data-name="Path 360" d="M61.168,30.584a30.5,30.5,0,0,1-2.221,11.465l-.01.024h0a30.449,30.449,0,0,1-3.872,6.844q-.457.611-.944,1.2c-.119.143-.239.285-.359.425q-.93,1.079-1.956,2.068-.239.231-.483.456l-.114.1a30.561,30.561,0,0,1-2.5,2.054q-.875.647-1.8,1.23-.2.129-.407.253-.356.217-.718.424-.472.271-.956.526c-.13.07-.262.137-.393.2-.192.1-.385.194-.579.287l-.1.048c-.127.062-.255.121-.384.181a30.3,30.3,0,0,1-5.2,1.845l-.029.007c-.117.03-.234.059-.352.087-.088.022-.176.043-.265.062l-.033.008c-.182.043-.364.083-.547.12l-.309.064c-.062.014-.126.025-.188.037l-.235.045c-.043.009-.087.016-.131.024l-.3.053c-.168.029-.338.057-.508.082l-.368.054c-.145.021-.29.04-.435.058-.04.006-.08.011-.119.015l-.155.019-.313.035-.162.017-.309.03c-.133.013-.266.024-.4.034-.163.013-.325.024-.489.034l-.316.018c-.27.014-.539.024-.811.032l-.406.008h0l-.406,0a30.674,30.674,0,0,1-4.113-.275q-1.5-.2-2.952-.545L23.4,60.32c-.1-.023-.195-.047-.291-.071l-.257-.067a30.338,30.338,0,0,1-6.388-2.46l-.031-.016c-.059-.031-.117-.061-.175-.092q-.191-.1-.381-.2-1.079-.593-2.1-1.269-.263-.172-.521-.35l-.164-.114-.17-.119q-.224-.159-.445-.321-.916-.673-1.778-1.412a30.741,30.741,0,0,1-5.353-5.958q-.794-1.156-1.482-2.387a30.587,30.587,0,1,1,57.3-14.893Z" transform="translate(0)" fill="#a7c2cc"/>
      <path id="Path_361" data-name="Path 361" d="M392.35,243.451c.1-.023.194-.047.291-.071l.257-.067c0-.18.011-.378.017-.593.053-1.679.179-4.383.476-7.641q.025-.262.049-.527c.106-1.1.23-2.265.378-3.468,0-.04.01-.079.014-.118.12-.975.257-1.977.411-3q.162-1.071.349-2.165l.027-.153c.036-.211.073-.421.111-.632q.159-.884.338-1.775c.417-2.085.914-4.182,1.507-6.223a49.873,49.873,0,0,1,2.22-6.208,30.667,30.667,0,0,1,2.419-4.509l.041-.061a17.3,17.3,0,0,1,4.1-4.451l-.322-.44a17.768,17.768,0,0,0-4.094,4.352l-.018.026a29.648,29.648,0,0,0-2.436,4.367,47.708,47.708,0,0,0-2.324,6.277q-.89,2.989-1.6,6.476-.248,1.228-.474,2.517c-.025.147-.051.293-.076.441,0,0,0,0,0,.006-.039.226-.076.452-.114.681q-.141.865-.266,1.716-.193,1.311-.348,2.577-.052.418-.1.83-.068.581-.128,1.146-.086.787-.157,1.541l-.014.138c-.007.08-.015.159-.022.238C392.5,238.643,392.386,241.843,392.35,243.451Z" transform="translate(-356.848 -183.131)" opacity="0.2" style="isolation: isolate"/>
      <path id="Path_362" data-name="Path 362" d="M469.01,483.1l.031-.016q.28-.145.556-.3c.06-.722.142-1.516.249-2.35.022-.172.045-.347.07-.522.013-.094.026-.189.04-.285.107-.735.234-1.493.386-2.255.618-3.109,1.644-6.287,3.348-8.248.091-.106.184-.207.281-.306a6.136,6.136,0,0,1,.779-.683l-.322-.439a6.964,6.964,0,0,0-1.068.977q-.17.189-.331.393a19.277,19.277,0,0,0-3.157,7.788c-.159.754-.293,1.508-.407,2.242q-.044.288-.083.57C469.2,480.913,469.088,482.087,469.01,483.1Z" transform="translate(-426.571 -425.38)" opacity="0.2" style="isolation: isolate"/>
      <ellipse id="Ellipse_41" data-name="Ellipse 41" cx="2.723" cy="2.723" rx="2.723" ry="2.723" transform="translate(48.831 13.201)" opacity="0.2" style="isolation: isolate"/>
      <ellipse id="Ellipse_42" data-name="Ellipse 42" cx="2.723" cy="2.723" rx="2.723" ry="2.723" transform="translate(47.954 36.638)" opacity="0.2" style="isolation: isolate"/>
      <path id="Path_363" data-name="Path 363" d="M413.747,170.345a12.1,12.1,0,0,1-.7,6.207,11.021,11.021,0,0,1-2.091-11.8A12.093,12.093,0,0,1,413.747,170.345Z" transform="translate(-373.003 -149.848)" opacity="0.2" style="isolation: isolate"/>
      <path id="Path_364" data-name="Path 364" d="M487.674,272.395a12.154,12.154,0,0,1-6.229.407,11.089,11.089,0,0,1,11.251-4.114A12.153,12.153,0,0,1,487.674,272.395Z" transform="translate(-437.882 -244.166)" opacity="0.2" style="isolation: isolate"/>
      <path id="Path_365" data-name="Path 365" d="M512.191,513.458a8.478,8.478,0,0,1-4.369.277,7.725,7.725,0,0,1,7.886-2.884A8.477,8.477,0,0,1,512.191,513.458Z" transform="translate(-461.871 -464.476)" opacity="0.2" style="isolation: isolate"/>
      <path id="Path_366" data-name="Path 366" d="M439.96,536.27l.11.057C440.06,536.445,440.033,536.517,439.96,536.27Z" transform="translate(-400.15 -487.746)" fill="#2f2e41"/>
      <path id="Path_367" data-name="Path 367" d="M441.216,534.582c0,.013,0,.026,0,.039l-.039-.02c0-.012,0-.024,0-.037C441.193,534.405,441.182,534.219,441.216,534.582Z" transform="translate(-401.259 -486.019)" fill="#2f2e41"/>
      <ellipse id="Ellipse_43" data-name="Ellipse 43" cx="14.859" cy="14.859" rx="14.859" ry="14.859" transform="translate(13.344 14.517)" fill="#353535"/>
      <ellipse id="Ellipse_44" data-name="Ellipse 44" cx="8.998" cy="8.998" rx="8.998" ry="8.998" transform="translate(20.428 25.632)" fill="#fff9f5"/>
      <path id="Path_368" data-name="Path 368" d="M175.395,452.718l-.011,0-2.093.5-4.358,1.046-.595.143L161.711,456l-.563.135L145.07,460a30.13,30.13,0,0,1-3.181-1.433l-.031-.016c-.059-.031-.117-.06-.175-.092q-.191-.1-.381-.2-1.079-.593-2.1-1.269-.263-.172-.521-.35l-.164-.114-.17-.119q-.224-.159-.445-.321c1.562-2.838,5.281-4.725,9-5.758,2.807-.78,3.424-3.343,3.371-5.624a13.31,13.31,0,0,0-.132-1.555,15.157,15.157,0,0,0-.539-2.42l9,.3.928,2.139a4.834,4.834,0,0,0-.025.708,4.271,4.271,0,0,0,2.49,3.621c.174.095.352.184.533.266a14.1,14.1,0,0,0,4.771,1.064,9.185,9.185,0,0,1,2.361.044q.285.043.554.1a7.972,7.972,0,0,1,2.905,1.3,8.272,8.272,0,0,1,.942.781A7.479,7.479,0,0,1,175.395,452.718Z" transform="translate(-125.422 -400.841)" fill="#fff9f5"/>
      <path id="Path_369" data-name="Path 369" d="M487.289,568.466l-.114.1a30.524,30.524,0,0,1-2.5,2.054q-.876.647-1.8,1.23-.2.129-.407.253-.356.218-.717.424-.473.272-.957.526c-.13.07-.262.136-.393.2-.192.1-.384.193-.579.286l-.1.048-.383-.318,4.5-5.494.9-1.1a2.515,2.515,0,0,1,1.189.6,11.822,11.822,0,0,1,1.294,1.116Z" transform="translate(-435.966 -515.404)" fill="#fff9f5"/>
      <path id="Path_370" data-name="Path 370" d="M214.717,556.354a1.031,1.031,0,0,1-.051.166,30.631,30.631,0,0,1-2.5,2.054,10.687,10.687,0,0,1-2.334.554s.068.34.129.928q-.356.217-.718.425-.472.271-.956.525c-.13.07-.262.137-.393.2-.192.1-.385.194-.579.287l-.1.048c-.127.062-.255.121-.384.181a30.264,30.264,0,0,1-5.2,1.845l-.029.007-.352.087-.265.063-.033.008c-.182.042-.364.083-.547.12l-.309.064c-.062.013-.126.025-.188.037l-.235.045c-.043.009-.087.016-.131.023l-.3.054c-.168.029-.338.057-.508.082l-.368.054c-.145.021-.29.04-.435.058-.04.006-.08.011-.119.015l-.155.019c-.1.013-.208.024-.313.035l-.162.017-.309.03c-.133.013-.266.023-.4.034-.163.013-.325.025-.489.035l-.316.018c-.27.015-.539.025-.811.032-.135,0-.271.007-.406.008h0l-.406,0a30.648,30.648,0,0,1-4.113-.275q-1.5-.2-2.952-.545l-.116-.028c-.1-.023-.195-.048-.291-.072l-.257-.067a30.348,30.348,0,0,1-6.388-2.46l-.031-.016-.175-.092c4.967-1.157,12.816-2.982,19.626-4.546l.569-.13c2.516-.577,4.872-1.115,6.865-1.564l.606-.136c2.142-.481,3.8-.847,4.707-1.03a7.436,7.436,0,0,1,.737-.129l1.883,2.918Z" transform="translate(-163.458 -503.353)" fill="#353535"/>
      <ellipse id="Ellipse_45" data-name="Ellipse 45" cx="4.426" cy="4.426" rx="4.426" ry="4.426" transform="translate(10.183 14.201)" fill="#353535"/>
      <ellipse id="Ellipse_46" data-name="Ellipse 46" cx="4.426" cy="4.426" rx="4.426" ry="4.426" transform="translate(37.371 12.936)" fill="#353535"/>
      <path id="Path_371" data-name="Path 371" d="M399.909,126.422a4.426,4.426,0,0,1,3.952-4.4,4.426,4.426,0,1,0,0,8.8A4.426,4.426,0,0,1,399.909,126.422Z" transform="translate(-362.854 -110.957)" fill="#353535"/>
      <path id="Path_372" data-name="Path 372" d="M87.228,186.028a4.426,4.426,0,0,1-.257-5.908,4.426,4.426,0,1,0,6.159,6.285A4.426,4.426,0,0,1,87.228,186.028Z" transform="translate(-77.564 -163.822)" fill="#353535"/>
      <path id="Path_373" data-name="Path 373" d="M216.353,247.777c-5.238,0-9.484,2.477-9.484,5.532a4.5,4.5,0,0,0,2.262,3.582l1.826-1.323-.5,2.072c.206.1.416.188.636.273l2.728-3.182v3.909a15.9,15.9,0,0,0,2.529.2c5.238,0,9.484-2.477,9.484-5.532S221.591,247.777,216.353,247.777Z" transform="translate(-188.15 -225.357)" fill="#353535"/>
      <path id="Path_374" data-name="Path 374" d="M412.6,191.876s-.687,3.161,3.608,4.426Z" transform="translate(-375.226 -174.514)" fill="#353535"/>
      <path id="Path_375" data-name="Path 375" d="M175.092,198.235s1.581,3.534-3.161,5.115Z" transform="translate(-156.374 -180.298)" fill="#353535"/>
      <ellipse id="Ellipse_47" data-name="Ellipse 47" cx="0.75" cy="1.8" rx="0.75" ry="1.8" transform="matrix(0.963, -0.27, 0.27, 0.963, 19.371, 34.899)" fill="#fff9f5"/>
      <ellipse id="Ellipse_48" data-name="Ellipse 48" cx="1.8" cy="0.75" rx="1.8" ry="0.75" transform="translate(37.715 36.68) rotate(-86.476)" fill="#fff9f5"/>
    </g>
    <g id="Group_698" data-name="Group 698" transform="translate(102.258 415.041)">
      <path id="Path_360-2" data-name="Path 360" d="M61.168,30.584a30.5,30.5,0,0,1-2.221,11.465l-.01.024h0a30.449,30.449,0,0,1-3.872,6.844q-.457.611-.944,1.2c-.119.143-.239.285-.359.425q-.93,1.079-1.956,2.068-.239.231-.483.456l-.114.1a30.561,30.561,0,0,1-2.5,2.054q-.875.647-1.8,1.23-.2.129-.407.253-.356.217-.718.424-.472.271-.956.526c-.13.07-.262.137-.393.2-.192.1-.385.194-.579.287l-.1.048c-.127.062-.255.121-.384.181a30.3,30.3,0,0,1-5.2,1.845l-.029.007c-.117.03-.234.059-.352.087-.088.022-.176.043-.265.062l-.033.008c-.182.043-.364.083-.547.12l-.309.064c-.062.014-.126.025-.188.037l-.235.045c-.043.009-.087.016-.131.024l-.3.053c-.168.029-.338.057-.508.082l-.368.054c-.145.021-.29.04-.435.058-.04.006-.08.011-.119.015l-.155.019-.313.035-.162.017-.309.03c-.133.013-.266.024-.4.034-.163.013-.325.024-.489.034l-.316.018c-.27.014-.539.024-.811.032l-.406.008h0l-.406,0a30.674,30.674,0,0,1-4.113-.275q-1.5-.2-2.952-.545L23.4,60.32c-.1-.023-.195-.047-.291-.071l-.257-.067a30.338,30.338,0,0,1-6.388-2.46l-.031-.016c-.059-.031-.117-.061-.175-.092q-.191-.1-.381-.2-1.079-.593-2.1-1.269-.263-.172-.521-.35l-.164-.114-.17-.119q-.224-.159-.445-.321-.916-.673-1.778-1.412a30.741,30.741,0,0,1-5.353-5.958q-.794-1.156-1.482-2.387a30.587,30.587,0,1,1,57.3-14.893Z" transform="translate(0)" fill="#f5e897"/>
      <path id="Path_361-2" data-name="Path 361" d="M392.35,243.451c.1-.023.194-.047.291-.071l.257-.067c0-.18.011-.378.017-.593.053-1.679.179-4.383.476-7.641q.025-.262.049-.527c.106-1.1.23-2.265.378-3.468,0-.04.01-.079.014-.118.12-.975.257-1.977.411-3q.162-1.071.349-2.165l.027-.153c.036-.211.073-.421.111-.632q.159-.884.338-1.775c.417-2.085.914-4.182,1.507-6.223a49.873,49.873,0,0,1,2.22-6.208,30.667,30.667,0,0,1,2.419-4.509l.041-.061a17.3,17.3,0,0,1,4.1-4.451l-.322-.44a17.768,17.768,0,0,0-4.094,4.352l-.018.026a29.648,29.648,0,0,0-2.436,4.367,47.708,47.708,0,0,0-2.324,6.277q-.89,2.989-1.6,6.476-.248,1.228-.474,2.517c-.025.147-.051.293-.076.441,0,0,0,0,0,.006-.039.226-.076.452-.114.681q-.141.865-.266,1.716-.193,1.311-.348,2.577-.052.418-.1.83-.068.581-.128,1.146-.086.787-.157,1.541l-.014.138c-.007.08-.015.159-.022.238C392.5,238.643,392.386,241.843,392.35,243.451Z" transform="translate(-356.848 -183.131)" opacity="0.2" style="isolation: isolate"/>
      <path id="Path_362-2" data-name="Path 362" d="M469.01,483.1l.031-.016q.28-.145.556-.3c.06-.722.142-1.516.249-2.35.022-.172.045-.347.07-.522.013-.094.026-.189.04-.285.107-.735.234-1.493.386-2.255.618-3.109,1.644-6.287,3.348-8.248.091-.106.184-.207.281-.306a6.136,6.136,0,0,1,.779-.683l-.322-.439a6.964,6.964,0,0,0-1.068.977q-.17.189-.331.393a19.277,19.277,0,0,0-3.157,7.788c-.159.754-.293,1.508-.407,2.242q-.044.288-.083.57C469.2,480.913,469.088,482.087,469.01,483.1Z" transform="translate(-426.571 -425.38)" opacity="0.2" style="isolation: isolate"/>
      <ellipse id="Ellipse_41-2" data-name="Ellipse 41" cx="2.723" cy="2.723" rx="2.723" ry="2.723" transform="translate(48.831 13.201)" opacity="0.2" style="isolation: isolate"/>
      <ellipse id="Ellipse_42-2" data-name="Ellipse 42" cx="2.723" cy="2.723" rx="2.723" ry="2.723" transform="translate(47.954 36.638)" opacity="0.2" style="isolation: isolate"/>
      <path id="Path_363-2" data-name="Path 363" d="M413.747,170.345a12.1,12.1,0,0,1-.7,6.207,11.021,11.021,0,0,1-2.091-11.8A12.093,12.093,0,0,1,413.747,170.345Z" transform="translate(-373.003 -149.848)" opacity="0.2" style="isolation: isolate"/>
      <path id="Path_364-2" data-name="Path 364" d="M487.674,272.395a12.154,12.154,0,0,1-6.229.407,11.089,11.089,0,0,1,11.251-4.114A12.153,12.153,0,0,1,487.674,272.395Z" transform="translate(-437.882 -244.166)" opacity="0.2" style="isolation: isolate"/>
      <path id="Path_365-2" data-name="Path 365" d="M512.191,513.458a8.478,8.478,0,0,1-4.369.277,7.725,7.725,0,0,1,7.886-2.884A8.477,8.477,0,0,1,512.191,513.458Z" transform="translate(-461.871 -464.476)" opacity="0.2" style="isolation: isolate"/>
      <path id="Path_366-2" data-name="Path 366" d="M439.96,536.27l.11.057C440.06,536.445,440.033,536.517,439.96,536.27Z" transform="translate(-400.15 -487.746)" fill="#2f2e41"/>
      <path id="Path_367-2" data-name="Path 367" d="M441.216,534.582c0,.013,0,.026,0,.039l-.039-.02c0-.012,0-.024,0-.037C441.193,534.405,441.182,534.219,441.216,534.582Z" transform="translate(-401.259 -486.019)" fill="#2f2e41"/>
      <ellipse id="Ellipse_43-2" data-name="Ellipse 43" cx="14.859" cy="14.859" rx="14.859" ry="14.859" transform="translate(13.344 14.517)" fill="#353535"/>
      <ellipse id="Ellipse_44-2" data-name="Ellipse 44" cx="8.998" cy="8.998" rx="8.998" ry="8.998" transform="translate(20.428 25.632)" fill="#fff9f5"/>
      <path id="Path_368-2" data-name="Path 368" d="M175.395,452.718l-.011,0-2.093.5-4.358,1.046-.595.143L161.711,456l-.563.135L145.07,460a30.13,30.13,0,0,1-3.181-1.433l-.031-.016c-.059-.031-.117-.06-.175-.092q-.191-.1-.381-.2-1.079-.593-2.1-1.269-.263-.172-.521-.35l-.164-.114-.17-.119q-.224-.159-.445-.321c1.562-2.838,5.281-4.725,9-5.758,2.807-.78,3.424-3.343,3.371-5.624a13.31,13.31,0,0,0-.132-1.555,15.157,15.157,0,0,0-.539-2.42l9,.3.928,2.139a4.834,4.834,0,0,0-.025.708,4.271,4.271,0,0,0,2.49,3.621c.174.095.352.184.533.266a14.1,14.1,0,0,0,4.771,1.064,9.185,9.185,0,0,1,2.361.044q.285.043.554.1a7.972,7.972,0,0,1,2.905,1.3,8.272,8.272,0,0,1,.942.781A7.479,7.479,0,0,1,175.395,452.718Z" transform="translate(-125.422 -400.841)" fill="#fff9f5"/>
      <path id="Path_369-2" data-name="Path 369" d="M487.289,568.466l-.114.1a30.524,30.524,0,0,1-2.5,2.054q-.876.647-1.8,1.23-.2.129-.407.253-.356.218-.717.424-.473.272-.957.526c-.13.07-.262.136-.393.2-.192.1-.384.193-.579.286l-.1.048-.383-.318,4.5-5.494.9-1.1a2.515,2.515,0,0,1,1.189.6,11.822,11.822,0,0,1,1.294,1.116Z" transform="translate(-435.966 -515.404)" fill="#fff9f5"/>
      <path id="Path_370-2" data-name="Path 370" d="M214.717,556.354a1.031,1.031,0,0,1-.051.166,30.631,30.631,0,0,1-2.5,2.054,10.687,10.687,0,0,1-2.334.554s.068.34.129.928q-.356.217-.718.425-.472.271-.956.525c-.13.07-.262.137-.393.2-.192.1-.385.194-.579.287l-.1.048c-.127.062-.255.121-.384.181a30.264,30.264,0,0,1-5.2,1.845l-.029.007-.352.087-.265.063-.033.008c-.182.042-.364.083-.547.12l-.309.064c-.062.013-.126.025-.188.037l-.235.045c-.043.009-.087.016-.131.023l-.3.054c-.168.029-.338.057-.508.082l-.368.054c-.145.021-.29.04-.435.058-.04.006-.08.011-.119.015l-.155.019c-.1.013-.208.024-.313.035l-.162.017-.309.03c-.133.013-.266.023-.4.034-.163.013-.325.025-.489.035l-.316.018c-.27.015-.539.025-.811.032-.135,0-.271.007-.406.008h0l-.406,0a30.648,30.648,0,0,1-4.113-.275q-1.5-.2-2.952-.545l-.116-.028c-.1-.023-.195-.048-.291-.072l-.257-.067a30.348,30.348,0,0,1-6.388-2.46l-.031-.016-.175-.092c4.967-1.157,12.816-2.982,19.626-4.546l.569-.13c2.516-.577,4.872-1.115,6.865-1.564l.606-.136c2.142-.481,3.8-.847,4.707-1.03a7.436,7.436,0,0,1,.737-.129l1.883,2.918Z" transform="translate(-163.458 -503.353)" fill="#353535"/>
      <ellipse id="Ellipse_45-2" data-name="Ellipse 45" cx="4.426" cy="4.426" rx="4.426" ry="4.426" transform="translate(10.183 14.201)" fill="#353535"/>
      <ellipse id="Ellipse_46-2" data-name="Ellipse 46" cx="4.426" cy="4.426" rx="4.426" ry="4.426" transform="translate(37.371 12.936)" fill="#353535"/>
      <path id="Path_371-2" data-name="Path 371" d="M399.909,126.422a4.426,4.426,0,0,1,3.952-4.4,4.426,4.426,0,1,0,0,8.8A4.426,4.426,0,0,1,399.909,126.422Z" transform="translate(-362.854 -110.957)" fill="#353535"/>
      <path id="Path_372-2" data-name="Path 372" d="M87.228,186.028a4.426,4.426,0,0,1-.257-5.908,4.426,4.426,0,1,0,6.159,6.285A4.426,4.426,0,0,1,87.228,186.028Z" transform="translate(-77.564 -163.822)" fill="#353535"/>
      <path id="Path_373-2" data-name="Path 373" d="M216.353,247.777c-5.238,0-9.484,2.477-9.484,5.532a4.5,4.5,0,0,0,2.262,3.582l1.826-1.323-.5,2.072c.206.1.416.188.636.273l2.728-3.182v3.909a15.9,15.9,0,0,0,2.529.2c5.238,0,9.484-2.477,9.484-5.532S221.591,247.777,216.353,247.777Z" transform="translate(-188.15 -225.357)" fill="#353535"/>
      <path id="Path_374-2" data-name="Path 374" d="M412.6,191.876s-.687,3.161,3.608,4.426Z" transform="translate(-375.226 -174.514)" fill="#353535"/>
      <path id="Path_375-2" data-name="Path 375" d="M175.092,198.235s1.581,3.534-3.161,5.115Z" transform="translate(-156.374 -180.298)" fill="#353535"/>
      <ellipse id="Ellipse_47-2" data-name="Ellipse 47" cx="0.75" cy="1.8" rx="0.75" ry="1.8" transform="matrix(0.963, -0.27, 0.27, 0.963, 19.371, 34.899)" fill="#fff9f5"/>
      <ellipse id="Ellipse_48-2" data-name="Ellipse 48" cx="1.8" cy="0.75" rx="1.8" ry="0.75" transform="translate(37.715 36.68) rotate(-86.476)" fill="#fff9f5"/>
    </g>
  </g>
</svg>
