<svg xmlns="http://www.w3.org/2000/svg" width="199" height="164" viewBox="0 0 199 164">
  <g id="img_edittask" transform="translate(-0.143)">
    <rect id="Rectangle_672" data-name="Rectangle 672" width="199" height="164" transform="translate(0.143)" fill="#fff" opacity="0"/>
    <g id="Group_864" data-name="Group 864" transform="translate(6.539 0)">
      <g id="Path_744" data-name="Path 744" transform="translate(130.085 5.248)">
        <path id="Path_2392" data-name="Path 2392" d="M146.349,29.162V17.448A26.943,26.943,0,0,1,129,4.48h0a5.178,5.178,0,0,1-3.069,1.007h-9.3A38.435,38.435,0,0,0,146.349,29.162Z" transform="translate(-116.63 -4.48)" fill="#e6e6e6"/>
      </g>
      <g id="Path_745" data-name="Path 745" transform="translate(142.994)">
        <path id="Path_2393" data-name="Path 2393" d="M144.46,17.571V6.267A6.267,6.267,0,0,0,138.24,0h-9.008V1.089a5.143,5.143,0,0,1-1.581,3.725,26.275,26.275,0,0,0,16.81,12.757Z" transform="translate(-127.65 0)" fill="#e6e6e6"/>
      </g>
      <g id="Path_746" data-name="Path 746" transform="translate(90.69 0)">
        <path id="Path_2394" data-name="Path 2394" d="M108.771,6.255h-5.857a5.166,5.166,0,0,1-5.178-5.166V0H89.255A6.279,6.279,0,0,0,83,6.267h0V145.855a6.267,6.267,0,0,0,6.244,6.267h56.662a5.709,5.709,0,0,0,.773,0,6.279,6.279,0,0,0,5.494-6.22V43.1a51.543,51.543,0,0,1-43.4-36.841Z" transform="translate(-83)" fill="#e6e6e6"/>
      </g>
      <g id="Path_747" data-name="Path 747" transform="translate(117.047 6.255)">
        <path id="Path_2395" data-name="Path 2395" d="M117.8,5.34H105.5a50.9,50.9,0,0,0,42.757,36.185V29.682A39.114,39.114,0,0,1,117.8,5.34Z" transform="translate(-105.5 -5.34)" fill="#e6e6e6"/>
      </g>
      <g id="Path_748" data-name="Path 748" transform="translate(95.282 52.07)">
        <path id="Path_2396" data-name="Path 2396" d="M87.775,44.45a.867.867,0,0,0-.855.867v14.42a.855.855,0,0,0,.855.855h58.1a.867.867,0,0,0,.867-.855V45.317a.867.867,0,0,0-.867-.867Z" transform="translate(-86.92 -44.45)" fill="#fff"/>
      </g>
      <g id="Ellipse_122" data-name="Ellipse 122" transform="translate(99.148 55.619)">
        <circle id="Ellipse_334" data-name="Ellipse 334" cx="4.522" cy="4.522" r="4.522" fill="#294658"/>
      </g>
      <g id="Path_749" data-name="Path 749" transform="translate(113.451 57.131)">
        <path id="Path_2397" data-name="Path 2397" d="M103.1,48.77a.761.761,0,0,0,0,1.511h35.518a.761.761,0,0,0,0-1.511Z" transform="translate(-102.43 -48.77)" fill="#e6e6e6"/>
      </g>
      <g id="Path_750" data-name="Path 750" transform="translate(113.451 61.652)">
        <path id="Path_2398" data-name="Path 2398" d="M103.1,52.63a.761.761,0,0,0,0,1.511h35.518a.761.761,0,0,0,0-1.511Z" transform="translate(-102.43 -52.63)" fill="#e6e6e6"/>
      </g>
      <g id="Path_751" data-name="Path 751" transform="translate(95.282 76.834)">
        <path id="Path_2399" data-name="Path 2399" d="M87.775,65.59a.867.867,0,0,0-.855.867v14.42a.855.855,0,0,0,.855.855h58.1a.867.867,0,0,0,.867-.855V66.457a.867.867,0,0,0-.867-.867Z" transform="translate(-86.92 -65.59)" fill="#fff"/>
      </g>
      <g id="Ellipse_123" data-name="Ellipse 123" transform="translate(99.148 80.383)">
        <circle id="Ellipse_335" data-name="Ellipse 335" cx="4.522" cy="4.522" r="4.522" fill="#294658"/>
      </g>
      <g id="Path_752" data-name="Path 752" transform="translate(113.451 81.895)">
        <path id="Path_2400" data-name="Path 2400" d="M103.1,69.91a.761.761,0,0,0,0,1.511h35.518a.761.761,0,0,0,0-1.511Z" transform="translate(-102.43 -69.91)" fill="#e6e6e6"/>
      </g>
      <g id="Path_753" data-name="Path 753" transform="translate(113.451 86.416)">
        <path id="Path_2401" data-name="Path 2401" d="M103.1,73.77a.761.761,0,0,0,0,1.511h35.518a.761.761,0,0,0,0-1.511Z" transform="translate(-102.43 -73.77)" fill="#e6e6e6"/>
      </g>
      <g id="Path_754" data-name="Path 754" transform="translate(95.282 101.598)">
        <path id="Path_2402" data-name="Path 2402" d="M87.775,86.73a.867.867,0,0,0-.855.867v14.42a.855.855,0,0,0,.855.855h58.1a.867.867,0,0,0,.867-.855V87.6a.867.867,0,0,0-.867-.867Z" transform="translate(-86.92 -86.73)" fill="#fff"/>
      </g>
      <g id="Ellipse_124" data-name="Ellipse 124" transform="translate(99.148 105.147)">
        <circle id="Ellipse_336" data-name="Ellipse 336" cx="4.522" cy="4.522" r="4.522" fill="#294658"/>
      </g>
      <g id="Path_755" data-name="Path 755" transform="translate(113.451 106.659)">
        <path id="Path_2403" data-name="Path 2403" d="M103.1,91.05a.761.761,0,0,0,0,1.511h35.518a.761.761,0,0,0,0-1.511Z" transform="translate(-102.43 -91.05)" fill="#e6e6e6"/>
      </g>
      <g id="Path_756" data-name="Path 756" transform="translate(113.451 111.18)">
        <path id="Path_2404" data-name="Path 2404" d="M103.1,94.91a.761.761,0,0,0,0,1.511h35.518a.761.761,0,0,0,0-1.511Z" transform="translate(-102.43 -94.91)" fill="#e6e6e6"/>
      </g>
      <g id="Path_758" data-name="Path 758" transform="translate(14.64 139.505)">
        <path id="Path_2405" data-name="Path 2405" d="M26.725,119.16l.351,2.542s8.751,2.987,7.029,4.358-15.533,1.429-15.826.656-.351-4.159.433-4.44,2.214-3.186,2.214-3.186Z" transform="translate(-18.079 -119.09)" fill="#2f2e41"/>
      </g>
      <g id="Path_759" data-name="Path 759" transform="translate(15.883 87.588)">
        <path id="Path_2406" data-name="Path 2406" d="M35.376,74.77l-5.482,34.112-2.554,20.2-8.2-.4,2.753-33.526,7.029-19.012Z" transform="translate(-19.14 -74.77)" fill="#2f2e41"/>
      </g>
      <g id="Path_760" data-name="Path 760" transform="translate(35.035 87.588)">
        <path id="Path_2407" data-name="Path 2407" d="M38.43,74.77l.773,3.139s2.94,8.2.4,7.837-3.725-7.45-3.725-7.45l-.387-2.542Z" transform="translate(-35.49 -74.77)" fill="#fde3e3"/>
      </g>
      <g id="Path_761" data-name="Path 761" transform="translate(12.521 77.584)">
        <path id="Path_2408" data-name="Path 2408" d="M16.27,75.063l6.08,26.849,7.439,31.629,7.029-2.554-5.072-25.537s.785-5.494,0-8.2-.773-14.7-.773-14.7l5.857-5.107V67.612L21.366,66.23Z" transform="translate(-16.27 -66.23)" fill="#2f2e41"/>
      </g>
      <g id="Path_762" data-name="Path 762" transform="translate(24.546 141.649)">
        <path id="Path_2409" data-name="Path 2409" d="M35.1,120.92l.375,2.53s8.786,2.87,7.1,4.264-15.51,1.652-15.814.879-.41-4.147.375-4.451,2.179-3.21,2.179-3.21Z" transform="translate(-26.536 -120.92)" fill="#2f2e41"/>
      </g>
      <g id="Ellipse_126" data-name="Ellipse 126" transform="translate(30.443 36.127)">
        <circle id="Ellipse_337" data-name="Ellipse 337" cx="5.881" cy="5.881" r="5.881" fill="#fde3e3"/>
      </g>
      <g id="Path_763" data-name="Path 763" transform="translate(25.746 41.223)">
        <path id="Path_2410" data-name="Path 2410" d="M34.225,35.19,27.56,38.7l2.554,8.2h2.741l1.558-1.956-.586-1.171,4.686-3.514Z" transform="translate(-27.56 -35.19)" fill="#fde3e3"/>
      </g>
      <g id="Path_764" data-name="Path 764" transform="translate(17.417 43.835)">
        <path id="Path_2411" data-name="Path 2411" d="M33.289,45.784l-.105-3.233L30.466,37.42,20.45,41.614,23.964,73.57l12.148.785-.4-13.53,1.968-14.713-.691-4.205Z" transform="translate(-20.45 -37.42)" fill="#294658"/>
      </g>
      <g id="Path_765" data-name="Path 765" transform="translate(11.33 44.374)">
        <path id="Path_2412" data-name="Path 2412" d="M34.965,61.449,30.279,37.88s-10.754,2.2-11.714,3.772-2.437,33.269-2.437,33.269-1.968,6.267,0,6.267,9.793-5.681,10.18-3.514.785,3.339,3.514,2.741,4.51-5.283,4.51-5.283-.586,9.371.6,9.371,2.929.586,2.929-.4V63.159L42.544,46.1l-4.686-4.276-2,1.523Z" transform="translate(-15.253 -37.88)" fill="#2f2e41"/>
      </g>
      <g id="Path_766" data-name="Path 766" transform="translate(33.091 52.714)">
        <path id="Path_2413" data-name="Path 2413" d="M38.141,45.375,39.511,45s.4,2.741.4,3.339-1.195,12.124-1.195,12.124l.984,19.8-4.5,1.968L33.83,59.877Z" transform="translate(-33.83 -45)" fill="#2f2e41"/>
      </g>
      <g id="Path_767" data-name="Path 767" transform="translate(29.926 33.784)">
        <path id="Path_2414" data-name="Path 2414" d="M31.646,37.649s-2.343-6.665,2.94-8.2,7.649.2,8.434,1.171,4.686,6.08,2.343,7.251-3.421-.293-3.421-.879-3.514,0-5.1.586a2.343,2.343,0,0,1-2.542-.492s-.4-1.863-1.581-.879S31.646,37.649,31.646,37.649Z" transform="translate(-31.128 -28.84)" fill="#2f2e41"/>
      </g>
      <g id="Path_768" data-name="Path 768" transform="translate(33.762 92.07)">
        <path id="Path_2415" data-name="Path 2415" d="M48.937,79.069a.867.867,0,0,0-1.171-.375L34.88,85.254a.855.855,0,0,0-.375,1.171L60.944,138.2a.855.855,0,0,0,1.171.375L75,132.018a.867.867,0,0,0,.375-1.171Z" transform="translate(-34.403 -78.597)" fill="#e6e6e6"/>
      </g>
      <g id="Ellipse_127" data-name="Ellipse 127" transform="translate(40.026 98.4)">
        <circle id="Ellipse_338" data-name="Ellipse 338" cx="4.522" cy="4.522" r="4.522" fill="#294658"/>
      </g>
      <g id="Path_769" data-name="Path 769" transform="translate(50.604 110.434)">
        <path id="Path_2416" data-name="Path 2416" d="M50.209,94.679a.773.773,0,0,0-1.019-.328.761.761,0,0,0-.328,1.019L65.016,127a.757.757,0,1,0,1.347-.691h0Z" transform="translate(-48.78 -94.273)" fill="#fff"/>
      </g>
      <g id="Path_770" data-name="Path 770" transform="translate(46.484 112.414)">
        <path id="Path_2417" data-name="Path 2417" d="M46.735,96.451a.761.761,0,1,0-1.347.691h0l16.154,31.629a.754.754,0,1,0,1.347-.679Z" transform="translate(-45.263 -95.963)" fill="#fff"/>
      </g>
      <g id="Path_771" data-name="Path 771" transform="translate(18.483 114.8)" opacity="0.2" style="isolation: isolate">
        <path id="Path_2418" data-name="Path 2418" d="M21.36,98l5.6,25.619.469-2.2Z" transform="translate(-21.36 -98)"/>
      </g>
      <g id="Path_772" data-name="Path 772" transform="translate(0 88.305)">
        <path id="Path_2419" data-name="Path 2419" d="M30.672,78.648a.867.867,0,0,0-.715-.984L15.689,75.391a.867.867,0,0,0-.984.726L5.591,133.506a.867.867,0,0,0,.715.984l14.245,2.261a.867.867,0,0,0,.984-.715Z" transform="translate(-5.582 -75.382)" fill="#e6e6e6"/>
      </g>
      <g id="Ellipse_128" data-name="Ellipse 128" transform="translate(11.384 93.222)">
        <circle id="Ellipse_339" data-name="Ellipse 339" cx="4.522" cy="4.522" r="4.522" fill="#294658"/>
      </g>
      <g id="Path_773" data-name="Path 773" transform="translate(10.131 107.626)">
        <path id="Path_2420" data-name="Path 2420" d="M21.352,92.783a.778.778,0,0,0-1.535-.258h0l-5.576,35.143a.755.755,0,0,0,1.488.258h0Z" transform="translate(-14.23 -91.876)" fill="#fff"/>
      </g>
      <g id="Path_774" data-name="Path 774" transform="translate(5.692 106.906)">
        <path id="Path_2421" data-name="Path 2421" d="M17.527,92.127a.738.738,0,0,0-.621-.855.75.75,0,0,0-.867.621l-5.564,35.143a.761.761,0,1,0,1.488.269h0Z" transform="translate(-10.441 -91.261)" fill="#fff"/>
      </g>
      <g id="Path_775" data-name="Path 775" transform="translate(15.894 82.633)">
        <path id="Path_2422" data-name="Path 2422" d="M22.09,70.54l.785,3.139s2.94,8.2.4,7.837-3.725-7.45-3.725-7.45l-.4-2.542Z" transform="translate(-19.15 -70.54)" fill="#fde3e3"/>
      </g>
      <g id="Path_776" data-name="Path 776" transform="translate(6.64 48.181)">
        <path id="Path_2423" data-name="Path 2423" d="M22.027,41.353l-2.741-.223L11.25,64.067l9.207,15.885,6.466-4.908L20.071,63.867l5.295-14.3Z" transform="translate(-11.25 -41.13)" fill="#2f2e41"/>
      </g>
      <path id="Path_2424" data-name="Path 2424" d="M76.972,23.011a2.343,2.343,0,0,0-2.05-1.253l-6.794-.117a2.343,2.343,0,0,0-2.343,2.729l1.335,8.305a2.343,2.343,0,0,0,4.287.937l5.459-8.2A2.343,2.343,0,0,0,76.972,23.011Z" transform="translate(4.733 3.71)" fill="#fac4c0"/>
      <path id="Path_2425" data-name="Path 2425" d="M73.654,18.262,71.381,4.779a2.4,2.4,0,0,0-3.866-1.441L58.039,11a2.355,2.355,0,0,0,.433,3.948L70.28,20.8a2.364,2.364,0,0,0,3.374-2.542Z" transform="translate(3.26 0.481)" fill="#649bb0"/>
      <path id="Path_2426" data-name="Path 2426" d="M165.573,127.359a2.343,2.343,0,0,0-1.382-1.546l-3.772-1.535a2.343,2.343,0,0,0-2.753,3.62l2.483,3.245a2.343,2.343,0,0,0,1.863.925h0a2.343,2.343,0,0,0,1.874-.949l1.289-1.71A2.343,2.343,0,0,0,165.573,127.359Z" transform="translate(20.401 21.272)" fill="#294658"/>
      <path id="Path_2427" data-name="Path 2427" d="M158.541,140.017,154.9,124.789a2.343,2.343,0,0,0-4.287-.715l-8.376,13.3a2.343,2.343,0,0,0,1.617,3.585l12.031,1.968h.375a2.343,2.343,0,0,0,2.284-2.905Z" transform="translate(17.781 21.077)" fill="#ecda6c"/>
    </g>
    <g id="Ellipse_121" data-name="Ellipse 121" transform="translate(121.196 124.312)">
      <ellipse id="Ellipse_340" data-name="Ellipse 340" cx="10.601" cy="10.695" rx="10.601" ry="10.695" fill="#294658"/>
    </g>
    <g id="Path_743" data-name="Path 743" transform="translate(126.702 129.853)">
      <path id="Path_2428" data-name="Path 2428" d="M108.839,115.3a.726.726,0,0,0-.679.738.715.715,0,0,0,.679.679h3.725v3.749a.691.691,0,0,0,.691.7.7.7,0,0,0,.7-.7v-3.749h3.725a.726.726,0,0,0,.679-.738.715.715,0,0,0-.679-.679h-3.725v-3.749a.7.7,0,0,0-.7-.7.691.691,0,0,0-.691.7V115.3Z" transform="translate(-108.16 -110.85)" fill="#fff"/>
    </g>
  </g>
</svg>
