<svg xmlns="http://www.w3.org/2000/svg" width="703.253" height="459.441" viewBox="0 0 703.253 459.441">
  <g id="Group_746" data-name="Group 746" transform="translate(-85 -264.334)">
    <g id="Group_745" data-name="Group 745" transform="translate(85 265)">
      <path id="Path_782" data-name="Path 782" d="M746.975,129.252a39.946,39.946,0,0,1,39.891-37.859c1.215,0,2.413.063,3.6.169a53.073,53.073,0,0,1,91.745-.043c1-.075,2.008-.126,3.029-.126a39.945,39.945,0,0,1,39.891,37.859" transform="translate(-254.95 -22.555)" fill="#f2f2f2"/>
      <path id="Path_783" data-name="Path 783" d="M759.606,124.587A39.946,39.946,0,0,1,799.5,86.728c1.214,0,2.413.063,3.6.169a53.073,53.073,0,0,1,91.745-.043c1-.075,2.008-.126,3.029-.126a39.946,39.946,0,0,1,39.891,37.859" transform="translate(-259.261 -20.962)" fill="none" stroke="#3f3d56" stroke-miterlimit="10" stroke-width="1"/>
      <path id="Path_784" data-name="Path 784" d="M71.025,394.294a132.214,132.214,0,0,1,132.031-125.3c4.018,0,7.986.21,11.913.561a175.662,175.662,0,0,1,303.656-.144c3.313-.249,6.648-.417,10.025-.417a132.214,132.214,0,0,1,132.031,125.3" transform="translate(-24.242 -62.482)" fill="#f2f2f2"/>
      <path id="Path_785" data-name="Path 785" d="M112.831,378.854a132.215,132.215,0,0,1,132.031-125.3c4.018,0,7.986.21,11.913.561a175.662,175.662,0,0,1,303.656-.144c3.313-.249,6.648-.417,10.025-.417a132.214,132.214,0,0,1,132.031,125.3" transform="translate(-38.51 -57.212)" fill="none" stroke="#3f3d56" stroke-miterlimit="10" stroke-width="1"/>
      <path id="Path_786" data-name="Path 786" d="M0,93.526A54.049,54.049,0,0,1,53.975,42.3c1.643,0,3.264.086,4.87.229a71.812,71.812,0,0,1,124.136-.059c1.354-.1,2.718-.17,4.1-.17a54.049,54.049,0,0,1,53.975,51.225" transform="translate(0 -2.636)" fill="#f2f2f2"/>
      <path id="Path_787" data-name="Path 787" d="M17.091,87.214A54.049,54.049,0,0,1,71.065,35.989c1.643,0,3.265.086,4.87.229a71.811,71.811,0,0,1,124.136-.059c1.354-.1,2.718-.17,4.1-.17a54.05,54.05,0,0,1,53.975,51.225" transform="translate(-5.833 -0.482)" fill="none" stroke="#3f3d56" stroke-miterlimit="10" stroke-width="1"/>
      <path id="Path_788" data-name="Path 788" d="M408.636,235.66s9.222,22.4-4.611,27.665c0,0,19.761,8.563,24.371,6.587s7.9-6.587,7.9-7.9-4.611-1.976-4.611-1.976-8.563.659-1.976-21.078Z" transform="translate(-137.898 -80.751)" fill="#f8dbdb"/>
      <circle id="Ellipse_133" data-name="Ellipse 133" cx="16.467" cy="16.467" r="16.467" transform="translate(264.81 133.831)" fill="#f8dbdb"/>
      <ellipse id="Ellipse_134" data-name="Ellipse 134" cx="14.491" cy="20.419" rx="14.491" ry="20.419" transform="translate(255.918 126.256)" fill="#3f3d56"/>
      <ellipse id="Ellipse_135" data-name="Ellipse 135" cx="14.491" cy="20.419" rx="14.491" ry="20.419" transform="translate(245.379 119.669)" fill="#3f3d56"/>
      <ellipse id="Ellipse_136" data-name="Ellipse 136" cx="7.246" cy="10.21" rx="7.246" ry="10.21" transform="translate(238.133 115.059)" fill="#3f3d56"/>
      <path id="Path_789" data-name="Path 789" d="M452.025,227.819s3.952-7.9,18.443-11.856,42.815-51.378,42.815-51.378-1.317-28.324,5.27-19.761,1.317,25.689,1.317,25.689l-17,29.358A63.956,63.956,0,0,1,491.1,214.644c-10.509,9.781-29.285,27.008-31.172,27.008C457.294,241.652,452.025,227.819,452.025,227.819Z" transform="translate(-154.281 -49.197)" fill="#f8dbdb"/>
      <path id="Path_790" data-name="Path 790" d="M417.025,442.66s4.611,55.989,3.294,61.258-5.27,15.809,1.317,46.767-1.317,28.982-1.317,28.982l21.078,9.222s-7.246-35.569-5.928-45.45.659-30.3,4.611-44.132,4.611-52.7,4.611-52.7Z" transform="translate(-142.335 -151.402)" fill="#f8dbdb"/>
      <path id="Path_791" data-name="Path 791" d="M417.025,442.66s4.611,55.989,3.294,61.258-5.27,15.809,1.317,46.767-1.317,28.982-1.317,28.982l21.078,9.222s-7.246-35.569-5.928-45.45.659-30.3,4.611-44.132,4.611-52.7,4.611-52.7Z" transform="translate(-142.335 -151.402)" opacity="0.1" style="isolation: isolate"/>
      <path id="Path_792" data-name="Path 792" d="M440.215,649.191c-1.633,1.134-5.828,2.285-13.671-6.047,0,0-4.611-6.587-8.563,0s-1.318,7.246,1.317,10.539c2.544,3.18,22.888,24.772,31.406,23.9a4.078,4.078,0,0,0,.87-.183c7.9-2.635-3.294-11.2-3.294-11.2s-7.341-11.294-7.383-16.628a.439.439,0,0,0-.682-.379Z" transform="translate(-141.973 -218.829)" fill="#3f3d56"/>
      <path id="Path_793" data-name="Path 793" d="M345.755,432.66s-11.2,25.689-15.809,38.863c-2.421,6.916-9.743,9.112-16.153,9.638a55.241,55.241,0,0,0-22.573,6.8c-9.219,5.175-21.8,11.047-29.777,9.907-13.833-1.976-2.635,19.761-2.635,19.761s20.419-12.515,39.521-13.832,39.521-3.294,48.743-15.15,31.617-49.4,31.617-49.4Z" transform="translate(-86.873 -147.989)" fill="#f8dbdb"/>
      <path id="Path_794" data-name="Path 794" d="M250.853,544.254s-6.587-4.611-1.317-9.222a31.86,31.86,0,0,0,7.246-8.563s-9.222-9.88-12.515-4.611-17.785,28.982-14.491,36.228,6.587,9.222,10.539,1.318,13.919-14.128,13.919-14.128Z" transform="translate(-78.259 -177.905)" fill="#3f3d56"/>
      <path id="Path_795" data-name="Path 795" d="M428.4,274.254s-2.19,4.379-22.539.163a12.5,12.5,0,0,0-13.772,6.424c-2.552,5.1-2.882,12.515,6.01,21.737,0,0,15.809,17.785,7.9,25.03S443.549,323,443.549,323s-5.928-3.952-.659-15.809c4.141-9.316,3.808-14.565.6-18.624a20.345,20.345,0,0,1-3.845-8.595c-.9-4.409-3.122-9.935-8.61-10.327,0,0-5.769-.338-6.178,1.148S429.716,273.6,428.4,274.254Z" transform="translate(-133.289 -92.338)" fill="#294658"/>
      <path id="Path_796" data-name="Path 796" d="M368.847,291.4c-.136-.929-.3-1.852-.42-2.783-.4-3.18-1.91-10.885-7.14-9.559-6.562,1.663-13.807,18.13-13.807,18.13s-5.928,18.443-14.491,23.054-32.276,28.324-32.276,28.324-19.761,5.27-12.515,10.539,16.467-3.293,16.467-3.293l23.3-13.978a66.693,66.693,0,0,0,20.549-19.32c4.853-7.03,10.931-15.153,14.782-17.837a12.7,12.7,0,0,0,4.978-6.507A15.109,15.109,0,0,0,368.847,291.4Z" transform="translate(-97.82 -95.51)" fill="#f8dbdb"/>
      <path id="Path_797" data-name="Path 797" d="M380.725,352.17s-30.3-3.952-47.426,16.467-29.641,14.491-28.324,17.785,64.552,42.156,101.438,37.545c22.457-2.807,34.415-5.37,40.336-6.946a11.493,11.493,0,0,0,6.35-4.259,11.668,11.668,0,0,1,3.211-2.916,5.7,5.7,0,0,0,1.635-7.9c-.033-.05-.067-.1-.1-.149-10.446-15.114-38.807-55.151-46.818-56.219C401.145,344.266,380.725,352.17,380.725,352.17Z" transform="translate(-104.059 -118.218)" fill="#294658"/>
      <ellipse id="Ellipse_137" data-name="Ellipse 137" cx="10.539" cy="7.575" rx="10.539" ry="7.575" transform="translate(271.068 124.939)" fill="#3f3d56"/>
      <path id="Path_798" data-name="Path 798" d="M734.529,81.792a74.683,74.683,0,0,1,2.747-10.245c1.191-3.256,2.7-6.033,4.375-6.033,4.069,0-14.243-17.3-14.243-17.3s-1.15,2.136-3.052,5.015A70.745,70.745,0,0,1,719.8,59.44a34.015,34.015,0,0,1-7.651,7.091C704.008,71.618,734.529,81.792,734.529,81.792Z" transform="translate(-242.592 -16.775)" fill="#a0616a"/>
      <path id="Path_799" data-name="Path 799" d="M825.961,201.572s40.8,25.777,28.227,30.013-33.4-26.047-33.4-26.047Z" transform="translate(-280.144 -69.116)" fill="#a0616a"/>
      <path id="Path_800" data-name="Path 800" d="M734.717,112.33s19.54,14.248,25.25,25.087,35.4,34.924,35.4,34.924-6.13,12.111-9.093,11.38-64.058-46.181-70.485-49.862S719.156,107.446,734.717,112.33Z" transform="translate(-243.623 -38.423)" fill="#6c63ff"/>
      <path id="Path_801" data-name="Path 801" d="M734.717,112.33s19.54,14.248,25.25,25.087,35.4,34.924,35.4,34.924-6.13,12.111-9.093,11.38-64.058-46.181-70.485-49.862S719.156,107.446,734.717,112.33Z" transform="translate(-243.623 -38.423)" fill="#294658" style="isolation: isolate"/>
      <path id="Path_802" data-name="Path 802" d="M831.228,151.7s45.782,15.261,34.59,22.382-38.66-17.3-38.66-17.3Z" transform="translate(-282.317 -52.095)" fill="#a0616a"/>
      <path id="Path_803" data-name="Path 803" d="M780.638,466.956s19.33-8.139,17.3,4.07-11.191,23.4-11.191,29.5-17.3,19.331-20.347,16.278,5.087-15.261,3.052-22.382-4.069-23.4-4.069-23.4Z" transform="translate(-261.231 -158.787)" fill="#55536e"/>
      <path id="Path_804" data-name="Path 804" d="M780.638,466.956s19.33-8.139,17.3,4.07-11.191,23.4-11.191,29.5-17.3,19.331-20.347,16.278,5.087-15.261,3.052-22.382-4.069-23.4-4.069-23.4Z" transform="translate(-261.231 -158.787)" opacity="0.1" style="isolation: isolate"/>
      <path id="Path_805" data-name="Path 805" d="M771.37,480.856s19.331-8.139,17.3,4.07-11.191,23.4-11.191,29.5-17.3,19.33-20.347,16.278,5.087-15.261,3.052-22.382-4.069-23.4-4.069-23.4Z" transform="translate(-258.068 -163.532)" fill="#55536e"/>
      <path id="Path_806" data-name="Path 806" d="M711.242,369.482s60.024,56.973,57.99,62.06-15.261,16.278-15.261,16.278S708.19,387.795,711.242,369.482Z" transform="translate(-242.704 -126.425)" fill="#3f3d56"/>
      <path id="Path_807" data-name="Path 807" d="M711.242,369.482s60.024,56.973,57.99,62.06-15.261,16.278-15.261,16.278S708.19,387.795,711.242,369.482Z" transform="translate(-242.704 -126.425)" opacity="0.1" style="isolation: isolate"/>
      <path id="Path_808" data-name="Path 808" d="M667.973,212.313s15.261,15.26,11.191,44.764,3.053,57.99,11.191,67.146,41.712,62.06,41.712,62.06-14.243,23.4-25.434,11.191-44.764-62.06-44.764-62.06-30.521-60.025-33.573-76.3-4.069-41.712,4.069-46.8S667.973,212.313,667.973,212.313Z" transform="translate(-213.678 -72.01)" fill="#3f3d56"/>
      <path id="Path_809" data-name="Path 809" d="M728,54.868c11.883,2.462,10.7,2.94,18.007,5.5.041-.122.082-.224.122-.325,1.119-2.666,1.821.834,3.439.834,4.07,0-14.243-17.3-14.243-17.3s-.692,1.282-1.882,3.2c-.356.56-.743,1.17-1.17,1.811-.356.539-.743,1.109-1.149,1.7Z" transform="translate(-248.473 -15.194)" opacity="0.1" style="isolation: isolate"/>
      <circle id="Ellipse_138" data-name="Ellipse 138" cx="19.33" cy="19.33" r="19.33" transform="translate(481.764 15.166)" fill="#a0616a"/>
      <path id="Path_810" data-name="Path 810" d="M680.326,74.476s29.5,3.052,35.608,16.278-37.643,77.32-40.695,78.338-45.782,6.1-45.782,6.1,2.035-65.112,41.712-89.529C671.169,85.667,680.326,81.6,680.326,74.476Z" transform="translate(-214.84 -25.737)" fill="#294658"/>
      <path id="Path_811" data-name="Path 811" d="M722.8,85.271s22.382,9.156,30.521,18.313,42.73,25.435,42.73,25.435-3.052,13.226-6.1,13.226-73.25-29.5-80.372-31.539S706.521,84.254,722.8,85.271Z" transform="translate(-241.035 -29.411)" fill="#294658"/>
      <path id="Path_812" data-name="Path 812" d="M755.263,42.143s5.087-5.087-5.087-9.156c0,0,10.174-4.069,12.209-10.174s9.156-16.278,15.261,0,17.3,37.643-19.33,37.643c0,0-9.157,2.035-9.157-6.1A15.26,15.26,0,0,1,755.263,42.143Z" transform="translate(-255.695 -5.104)" fill="#3f3d56"/>
    </g>
    <path id="Path_815" data-name="Path 815" d="M0,0,7.129,39.906,32.787,0Z" transform="translate(731.025 426.832) rotate(30)" fill="#fac4c0" stroke="#fac4c0" stroke-linecap="round" stroke-linejoin="round" stroke-width="4"/>
    <path id="Path_292" data-name="Path 292" d="M0,56.811,68.275,0,61.368,88.08Z" transform="matrix(0.966, 0.259, -0.259, 0.966, 140.689, 519.585)" fill="#ecda6c" stroke="#ecda6c" stroke-linecap="round" stroke-linejoin="round" stroke-width="4"/>
    <path id="Path_290" data-name="Path 290" d="M0,17.056,23.044,0,13.488,26.939Z" transform="translate(112.265 507.181) rotate(-31)" fill="#649bb0" stroke="#649bb0" stroke-linecap="round" stroke-linejoin="round" stroke-width="4"/>
    <path id="Path_814" data-name="Path 814" d="M0,31.745V0L20.036,20.036Z" transform="matrix(0.921, -0.391, 0.391, 0.921, 642.701, 637.481)" fill="none" stroke="#294658" stroke-linecap="round" stroke-linejoin="round" stroke-width="1"/>
    <path id="Path_813" data-name="Path 813" d="M0,0,15.357,9.666l-13.789,9.9Z" transform="matrix(-0.966, 0.259, -0.259, -0.966, 785.803, 409.706)" fill="#294658" stroke="#294658" stroke-linecap="round" stroke-linejoin="round" stroke-width="4"/>
  </g>
</svg>
