<?xml version="1.0" encoding="UTF-8"?>
<svg xmlns="http://www.w3.org/2000/svg" xmlns:xlink="http://www.w3.org/1999/xlink" width="64pt" height="64pt" viewBox="0 0 64 64" version="1.1">
<g id="surface1">
<path style=" stroke:none;fill-rule:nonzero;fill:rgb(65.490196%,76.078431%,80%);fill-opacity:1;" d="M 9 0 L 55 0 C 60 0 64 4 64 9 L 64 55 C 64 60 60 64 55 64 L 9 64 C 4 64 0 60 0 55 L 0 9 C 0 4 4 0 9 0 Z M 9 0 "/>
<path style=" stroke:none;fill-rule:nonzero;fill:rgb(100%,100%,100%);fill-opacity:1;" d="M 46.5 22.800781 C 46.898438 23.199219 47.199219 23.699219 47.398438 24.199219 C 47.601562 24.699219 47.699219 25.199219 47.800781 25.800781 L 47.800781 46.398438 C 47.800781 47.300781 47 48.101562 46.101562 48.101562 L 22 48.101562 C 21.101562 48.101562 20.300781 47.300781 20.300781 46.398438 L 20.300781 17.699219 C 20.300781 16.800781 21.101562 16 22 16 L 38 16 C 38.5 16 39.101562 16.101562 39.601562 16.398438 C 40.101562 16.601562 40.601562 16.898438 41 17.300781 Z M 38.601562 18.398438 L 38.601562 25.101562 L 45.300781 25.101562 C 45.199219 24.800781 45.101562 24.601562 44.898438 24.398438 L 39.300781 18.800781 C 39.101562 18.601562 38.800781 18.5 38.601562 18.398438 Z M 45.398438 45.699219 L 45.398438 27.398438 L 38 27.398438 C 37.101562 27.398438 36.300781 26.601562 36.300781 25.699219 L 36.300781 18.300781 L 22.601562 18.300781 L 22.601562 45.699219 Z M 36.300781 35.101562 C 36.800781 35.5 37.300781 35.800781 37.800781 36.101562 C 38.5 36 39.199219 36 39.898438 36 C 41.699219 36 42.699219 36.300781 43.101562 36.898438 C 43.300781 37.199219 43.300781 37.5 43.101562 37.800781 C 43 38.300781 42.601562 38.5 41.800781 38.5 C 41.101562 38.5 40.398438 38.398438 39.699219 38.101562 C 38.898438 37.898438 38.101562 37.5 37.398438 37.199219 C 35 37.398438 32.699219 37.898438 30.398438 38.699219 C 28.601562 41.800781 27.101562 43.398438 26.101562 43.398438 C 25.898438 43.398438 25.800781 43.398438 25.601562 43.300781 L 25.199219 43.101562 C 25.199219 43.101562 25.199219 43.101562 25.101562 43 C 25 42.800781 24.898438 42.601562 25 42.398438 C 25.199219 41.800781 25.5 41.199219 26 40.800781 C 26.699219 40.101562 27.5 39.5 28.398438 39.101562 C 28.5 39 28.699219 39 28.800781 39.101562 C 28.800781 39.101562 28.800781 39.101562 28.800781 39.199219 C 28.800781 39.199219 28.800781 39.199219 28.800781 39.300781 C 29.398438 38.300781 30.101562 37.101562 30.699219 35.800781 C 31.5 34.300781 32.101562 32.699219 32.601562 31.101562 C 32.300781 30.199219 32.101562 29.199219 32.101562 28.300781 C 32 27.5 32.101562 26.800781 32.199219 26 C 32.300781 25.5 32.601562 25.300781 33 25.300781 L 33.398438 25.300781 C 33.601562 25.300781 33.898438 25.398438 34 25.601562 C 34.199219 26 34.300781 26.398438 34.199219 26.800781 C 34.199219 26.898438 34.199219 26.898438 34.101562 26.898438 C 34.101562 26.898438 34.101562 27 34.101562 27 L 34.101562 27.5 C 34.101562 28.601562 34 29.800781 33.800781 30.898438 C 34.101562 32.5 35 34 36.300781 35.101562 Z M 26 42.5 C 27 41.800781 27.898438 40.800781 28.398438 39.699219 C 27.800781 40.101562 27.300781 40.601562 26.800781 41.199219 C 26.5 41.5 26.199219 42 26 42.5 Z M 33.101562 26 C 32.898438 26.800781 32.898438 27.601562 33.101562 28.398438 C 33.101562 28.300781 33.199219 28.101562 33.199219 27.601562 C 33.199219 27.601562 33.199219 27.300781 33.300781 26.800781 C 33.300781 26.699219 33.300781 26.699219 33.398438 26.699219 C 33.300781 26.398438 33.199219 26.101562 33.101562 26 Z M 30.898438 37.800781 C 32.5 37.101562 34.199219 36.699219 36 36.398438 C 35.898438 36.300781 35.800781 36.300781 35.800781 36.199219 C 35.699219 36.101562 35.601562 36 35.5 36 C 34.5 35.101562 33.800781 34 33.199219 32.898438 C 32.800781 34.101562 32.300781 35.300781 31.699219 36.398438 C 31.300781 37 31 37.5 30.898438 37.800781 Z M 42.398438 37.601562 C 41.601562 37.199219 40.800781 37.101562 39.898438 37.199219 C 40.601562 37.5 41.398438 37.699219 42.101562 37.699219 C 42.199219 37.601562 42.300781 37.601562 42.398438 37.601562 Z M 42.398438 37.601562 "/>
</g>
</svg>
