<svg xmlns="http://www.w3.org/2000/svg" width="20.68" height="25.876" viewBox="0 0 20.68 25.876">
  <g id="Group_832" data-name="Group 832" transform="translate(-239.637 -318.271)">
    <g id="Group_825" data-name="Group 825" transform="translate(241.58 320.495)">
      <path id="Path_916" data-name="Path 916" d="M245,321.522l-2.089,3.507a1.653,1.653,0,0,0-.231.846v16.45c.088,1.166-.418,1.623,1.524,1.6h15.188a1.562,1.562,0,0,0,1.524-1.6V322.368a1.561,1.561,0,0,0-1.524-1.6h-13.1A1.509,1.509,0,0,0,245,321.522Z" transform="translate(-242.678 -320.771)" fill="#294658" stroke="#fff" stroke-linecap="round" stroke-miterlimit="10" stroke-width="1"/>
      <path id="Path_917" data-name="Path 917" d="M242.677,327.44" transform="translate(-242.677 -323.65)" fill="#294658" stroke="#fff" stroke-linecap="round" stroke-linejoin="round" stroke-width="1"/>
      <path id="Path_918" data-name="Path 918" d="M243.019,325.681h3.94L245.841,321" transform="translate(-242.824 -320.869)" fill="#294658" stroke="#fff" stroke-linecap="round" stroke-linejoin="round" stroke-width="1"/>
    </g>
    <g id="Group_826" data-name="Group 826" transform="translate(240.135 318.771)">
      <path id="Path_919" data-name="Path 919" d="M242.458,319.522l-2.089,3.507a1.658,1.658,0,0,0-.231.846v16.45c.088,1.166-.419,1.623,1.524,1.6h15.187a1.562,1.562,0,0,0,1.524-1.6V320.367a1.562,1.562,0,0,0-1.524-1.6h-13.1A1.508,1.508,0,0,0,242.458,319.522Z" transform="translate(-240.136 -318.771)" fill="#294658" stroke="#fff" stroke-linecap="round" stroke-miterlimit="10" stroke-width="1"/>
      <path id="Path_920" data-name="Path 920" d="M240.135,325.44" transform="translate(-240.135 -321.65)" fill="#294658" stroke="#fff" stroke-linecap="round" stroke-linejoin="round" stroke-width="1"/>
      <path id="Path_921" data-name="Path 921" d="M240.476,323.681h3.94L243.3,319" transform="translate(-240.282 -318.869)" fill="#294658" stroke="#fff" stroke-linecap="round" stroke-linejoin="round" stroke-width="1"/>
    </g>
  </g>
</svg>
