<svg xmlns="http://www.w3.org/2000/svg" width="64" height="64" viewBox="0 0 64 64">
  <g id="Group_1205" data-name="Group 1205" transform="translate(-567.5 -352)">
    <rect id="Rectangle_125" data-name="Rectangle 125" width="64" height="64" rx="8" transform="translate(567.5 352)" fill="#284558"/>
    <path id="Icon_metro-file-pdf" data-name="Icon metro-file-pdf" d="M28.642,8.867a4.155,4.155,0,0,1,.857,1.357,4.121,4.121,0,0,1,.357,1.571V32.367a1.707,1.707,0,0,1-1.714,1.714h-24a1.707,1.707,0,0,1-1.714-1.714V3.8A1.707,1.707,0,0,1,4.142,2.081h16a4.122,4.122,0,0,1,1.571.357,4.155,4.155,0,0,1,1.357.857ZM20.714,4.51v6.714h6.714a1.951,1.951,0,0,0-.393-.732L21.446,4.9a1.95,1.95,0,0,0-.732-.393ZM27.571,31.8V13.51H20.142A1.707,1.707,0,0,1,18.428,11.8V4.367H4.714V31.8H27.571ZM18.392,21.206a13.587,13.587,0,0,0,1.5,1,17.72,17.72,0,0,1,2.089-.125q2.625,0,3.161.875a.863.863,0,0,1,.036.929.052.052,0,0,1-.018.036l-.036.036v.018q-.107.679-1.268.679A7.366,7.366,0,0,1,21.8,24.3a13.021,13.021,0,0,1-2.321-.946,32.155,32.155,0,0,0-7,1.482Q9.749,29.51,8.16,29.51a1.039,1.039,0,0,1-.5-.125l-.429-.214q-.018-.018-.107-.089a.738.738,0,0,1-.107-.643,3.878,3.878,0,0,1,1-1.634,8.63,8.63,0,0,1,2.357-1.723.261.261,0,0,1,.411.107.1.1,0,0,1,.036.071q.929-1.518,1.911-3.518a27.255,27.255,0,0,0,1.857-4.679,14.435,14.435,0,0,1-.545-2.848,6.943,6.943,0,0,1,.116-2.277q.2-.714.75-.714H15.3a.753.753,0,0,1,.625.268,1.426,1.426,0,0,1,.161,1.214.387.387,0,0,1-.071.143.465.465,0,0,1,.018.143v.536a23.384,23.384,0,0,1-.25,3.429,9.034,9.034,0,0,0,2.607,4.25ZM8.106,28.545a7.885,7.885,0,0,0,2.446-2.821,10.18,10.18,0,0,0-1.562,1.5A5.935,5.935,0,0,0,8.106,28.545Zm7.107-16.429a5.31,5.31,0,0,0-.036,2.357q.018-.125.125-.786,0-.054.125-.768a.4.4,0,0,1,.071-.143.051.051,0,0,1-.018-.036.036.036,0,0,0-.009-.027.036.036,0,0,1-.009-.027,1.028,1.028,0,0,0-.232-.643.052.052,0,0,1-.018.036v.036ZM13,23.92a26.193,26.193,0,0,1,5.071-1.446,2.694,2.694,0,0,1-.232-.17,3.2,3.2,0,0,1-.286-.241,9.459,9.459,0,0,1-2.268-3.143A23.863,23.863,0,0,1,13.8,22.438q-.536,1-.8,1.482Zm11.536-.286a4.273,4.273,0,0,0-2.5-.429,6.754,6.754,0,0,0,2.214.5,1.732,1.732,0,0,0,.321-.018q0-.018-.036-.054Z" transform="translate(583.072 365.919)" fill="#fff"/>
  </g>
</svg>
