<svg xmlns="http://www.w3.org/2000/svg" width="61.456" height="70.236" viewBox="0 0 61.456 70.236">
  <path id="Icon_metro-file-empty" data-name="Icon metro-file-empty" d="M63.061,17.64a62.2,62.2,0,0,0-5.98-6.839,62.208,62.208,0,0,0-6.839-5.979c-3.537-2.594-5.253-2.894-6.236-2.894H9.986A5.493,5.493,0,0,0,4.5,7.415V66.677a5.493,5.493,0,0,0,5.487,5.487H60.468a5.493,5.493,0,0,0,5.487-5.487v-42.8c0-.983-.3-2.7-2.894-6.236Zm-9.084-3.735a59.868,59.868,0,0,1,4.978,5.581H48.4V8.928a59.806,59.806,0,0,1,5.581,4.978Zm7.588,52.771a1.112,1.112,0,0,1-1.1,1.1H9.986a1.112,1.112,0,0,1-1.1-1.1V7.415a1.112,1.112,0,0,1,1.1-1.1h34.02V21.682A2.195,2.195,0,0,0,46.2,23.877H61.565Z" transform="translate(-4.499 -1.928)" fill="#a7c2cc"/>
</svg>
