<svg id="ic-file-download" xmlns="http://www.w3.org/2000/svg" width="32.013" height="32.013" viewBox="0 0 32.013 32.013">
  <path id="Path_437" data-name="Path 437" d="M0,0H32.013V32.013H0Z" fill="none"/>
  <path id="Path_438" data-name="Path 438" d="M14,3V8.335a1.334,1.334,0,0,0,1.334,1.334h5.335" transform="translate(4.674 1.002)" fill="none" stroke="#294658" stroke-linecap="round" stroke-linejoin="round" stroke-width="2"/>
  <path id="Path_439" data-name="Path 439" d="M21.006,27.01H7.668A2.668,2.668,0,0,1,5,24.342V5.668A2.668,2.668,0,0,1,7.668,3H17l6.669,6.669V24.342A2.668,2.668,0,0,1,21.006,27.01Z" transform="translate(1.669 1.002)" fill="none" stroke="#294658" stroke-linecap="round" stroke-linejoin="round" stroke-width="2"/>
  <line id="Line_29" data-name="Line 29" y2="7" transform="translate(16 15)" fill="none" stroke="#294658" stroke-linecap="round" stroke-linejoin="round" stroke-width="2"/>
  <path id="Path_440" data-name="Path 440" d="M9,14l4,4,4-4" transform="translate(3.005 4.674)" fill="none" stroke="#294658" stroke-linecap="round" stroke-linejoin="round" stroke-width="2"/>
</svg>
