<svg id="ic-file-download" xmlns="http://www.w3.org/2000/svg" width="111.781" height="111.781" viewBox="0 0 111.781 111.781">
  <path id="Path_437" data-name="Path 437" d="M0,0H111.781V111.781H0Z" fill="none"/>
  <path id="Path_438" data-name="Path 438" d="M14,3V21.63a4.658,4.658,0,0,0,4.658,4.658h18.63" transform="translate(51.206 10.973)" fill="none" stroke="#a7c2cc" stroke-linecap="round" stroke-linejoin="round" stroke-width="3"/>
  <path id="Path_439" data-name="Path 439" d="M60.891,86.836H14.315A9.315,9.315,0,0,1,5,77.521V12.315A9.315,9.315,0,0,1,14.315,3h32.6L70.206,26.288V77.521A9.315,9.315,0,0,1,60.891,86.836Z" transform="translate(18.288 10.973)" fill="none" stroke="#a7c2cc" stroke-linecap="round" stroke-linejoin="round" stroke-width="3"/>
  <line id="Line_29" data-name="Line 29" y2="25" transform="translate(55.781 79.179) rotate(180)" fill="none" stroke="#a7c2cc" stroke-linecap="round" stroke-linejoin="round" stroke-width="3"/>
  <path id="Path_440" data-name="Path 440" d="M9,14,22.973,27.973,36.945,14" transform="translate(78.863 79.972) rotate(180)" fill="none" stroke="#a7c2cc" stroke-linecap="round" stroke-linejoin="round" stroke-width="3"/>
</svg>
