<svg xmlns="http://www.w3.org/2000/svg" width="150" height="60" viewBox="0 0 150 60">
  <g id="Group_3944" data-name="Group 3944" transform="translate(-1274 -707)">
    <g id="Rectangle_1667" data-name="Rectangle 1667" transform="translate(1274 707)" fill="none" stroke="#284558" stroke-width="2">
      <rect width="150" height="60" rx="30" stroke="none"/>
      <rect x="1" y="1" width="148" height="58" rx="29" fill="none"/>
    </g>
    <g id="Group_3442" data-name="Group 3442" transform="translate(1289.478 722.023)">
      <rect id="Rectangle_1672" data-name="Rectangle 1672" width="29.815" height="30" transform="translate(-0.478 -0.024)" fill="none"/>
      <path id="Icon_awesome-google" data-name="Icon awesome-google" d="M553.625-120.88c0,8.547-5.814,14.628-14.4,14.628a14.927,14.927,0,0,1-14.875-14.978,14.927,14.927,0,0,1,14.875-14.978,14.251,14.251,0,0,1,9.976,3.917l-4.049,3.92c-5.3-5.142-15.145-1.278-15.145,7.143a9.352,9.352,0,0,0,9.219,9.457c5.891,0,8.1-4.252,8.447-6.457h-8.447v-5.151H553.39A13.29,13.29,0,0,1,553.625-120.88Z" transform="translate(-524.104 136.21)" fill="#294658"/>
    </g>
    <g id="Group_3939" data-name="Group 3939" transform="translate(1272 705.547)">
      <text id="Google" transform="translate(97 44.453)" fill="#294658" font-size="23" font-family="SegoeUI, Segoe UI"><tspan x="-36.937" y="0">Google</tspan></text>
      <text id="Continue_with" data-name="Continue with" transform="translate(97 22.453)" fill="#294658" font-size="11" font-family="SegoeUI, Segoe UI"><tspan x="-33.827" y="0">Continue with</tspan></text>
    </g>
  </g>
</svg>
