<svg id="Icon_feather-bookmark" data-name="Icon feather-bookmark" xmlns="http://www.w3.org/2000/svg" width="16" height="20" viewBox="0 0 16 20">
  <g id="Icon_feather-bookmark-2" data-name="Icon feather-bookmark" transform="translate(-7.5 -4.5)" fill="none" stroke-linecap="round" stroke-linejoin="round">
    <path d="M23.5,24.5l-8-5.556L7.5,24.5V6.722A2.255,2.255,0,0,1,9.786,4.5H21.214A2.255,2.255,0,0,1,23.5,6.722Z" stroke="none"/>
    <path d="M 21.5 20.6761531829834 L 21.5 6.722218990325928 C 21.5 6.614899158477783 21.38519096374512 6.499999046325684 21.21429061889648 6.499999046325684 L 9.785711288452148 6.499999046325684 C 9.614810943603516 6.499999046325684 9.500000953674316 6.614899158477783 9.500000953674316 6.722218990325928 L 9.500000953674316 20.6761531829834 L 14.35921096801758 17.30169868469238 C 14.70218086242676 17.06352424621582 15.1010913848877 16.94443702697754 15.50000095367432 16.94443702697754 C 15.89891052246094 16.94443702697754 16.29782104492188 17.06352424621582 16.64079093933105 17.30169868469238 L 21.5 20.6761531829834 M 23.5 24.5 L 15.50000095367432 18.94443893432617 L 7.500000953674316 24.5 L 7.500000953674316 6.722218990325928 C 7.500000953674316 5.494918823242188 8.523350715637207 4.499999046325684 9.785711288452148 4.499999046325684 L 21.21429061889648 4.499999046325684 C 22.47665023803711 4.499999046325684 23.5 5.494918823242188 23.5 6.722218990325928 L 23.5 24.5 Z" stroke="none" fill="#a7c2cc"/>
  </g>
</svg>
