<svg xmlns="http://www.w3.org/2000/svg" width="32" height="32" viewBox="0 0 32 32">
  <g id="Icon_ionic-logo-instagram" data-name="Icon ionic-logo-instagram" transform="translate(-4.5 -4.5)">
    <path id="Path_2922" data-name="Path 2922" d="M27.167,7.167a6.686,6.686,0,0,1,6.667,6.667V27.167a6.686,6.686,0,0,1-6.667,6.667H13.833a6.686,6.686,0,0,1-6.667-6.667V13.833a6.686,6.686,0,0,1,6.667-6.667H27.167m0-2.667H13.833A9.361,9.361,0,0,0,4.5,13.833V27.167A9.361,9.361,0,0,0,13.833,36.5H27.167A9.361,9.361,0,0,0,36.5,27.167V13.833A9.361,9.361,0,0,0,27.167,4.5Z" fill="#294658"/>
    <path id="Path_2923" data-name="Path 2923" d="M25.625,13a2,2,0,1,1,2-2A2,2,0,0,1,25.625,13Z" transform="translate(3.542 0.833)" fill="#294658"/>
    <path id="Path_2924" data-name="Path 2924" d="M19.25,13.917a5.333,5.333,0,1,1-5.333,5.333,5.338,5.338,0,0,1,5.333-5.333m0-2.667a8,8,0,1,0,8,8,8,8,0,0,0-8-8Z" transform="translate(1.25 1.25)" fill="#294658"/>
  </g>
</svg>
