<svg xmlns="http://www.w3.org/2000/svg" width="32" height="32" viewBox="0 0 32 32">
  <path id="Icon_ionic-logo-facebook" data-name="Icon ionic-logo-facebook" d="M34.733,4.5H6.267A1.768,1.768,0,0,0,4.5,6.267V34.733A1.768,1.768,0,0,0,6.267,36.5H20.5V23.833H16.675V19.167H20.5v-3.45c0-4.133,2.867-6.383,6.558-6.383,1.767,0,3.667.133,4.108.192v4.317H28.225c-2.008,0-2.392.95-2.392,2.35v2.975h4.783l-.625,4.667H25.833V36.5h8.9A1.768,1.768,0,0,0,36.5,34.733V6.267A1.768,1.768,0,0,0,34.733,4.5Z" transform="translate(-4.5 -4.5)" fill="#294658"/>
</svg>
