<svg xmlns="http://www.w3.org/2000/svg" width="170" height="140" viewBox="0 0 170 140">
  <g id="img_createtask" transform="translate(0 0.01)">
    <rect id="Rectangle_671" data-name="Rectangle 671" width="170" height="139.982" transform="translate(0 0)" fill="#fff" opacity="0"/>
    <g id="Group_734" data-name="Group 734" transform="translate(10.328 -0.01)">
      <g id="Group_733" data-name="Group 733" transform="translate(0 2.17)">
        <g id="Path_719" data-name="Path 719" transform="translate(131.301 95.034)">
          <path id="Path_2364" data-name="Path 2364" d="M150.54,117.227c2.56-2.94,14.64-17.418,6.06-19.807-6.45-1.79-7.17,8.069-6.95,14.688-1-4.459-3-9.669-6.55-7.369-5.08,3.31,4.43,10.639,6.91,12.438a1.89,1.89,0,0,0,.07.57l.28-.32.22.16S150.57,117.457,150.54,117.227Z" transform="translate(-141.629 -97.206)" fill="#e6e6e6"/>
        </g>
        <g id="Path_720" data-name="Path 720" transform="translate(0 100.181)">
          <path id="Path_2365" data-name="Path 2365" d="M20.57,125.267c2.94-3.37,16.77-19.937,6.94-22.667-7.38-2.06-8.2,9.239-8,16.808-1.18-5.1-3.47-11.069-7.5-8.429-5.81,3.79,5.07,12.178,7.92,14.238a2.454,2.454,0,0,0,.07.65l.33-.36.25.17A1.276,1.276,0,0,0,20.57,125.267Z" transform="translate(-10.328 -102.353)" fill="#e6e6e6"/>
        </g>
        <g id="Path_721" data-name="Path 721" transform="translate(41.602 9.839)">
          <path id="Path_2366" data-name="Path 2366" d="M52.93,12a1,1,0,0,0-1,1V116.477a1,1,0,0,0,1,1h82.71a1,1,0,0,0,1-1V13a1,1,0,0,0-1-1Z" transform="translate(-51.93 -12)" fill="#e6e6e6"/>
        </g>
        <g id="Path_722" data-name="Path 722" transform="translate(54.302 52.163)">
          <path id="Path_2367" data-name="Path 2367" d="M122.5,57.23H66.08a1.45,1.45,0,1,1,0-2.9H122.5a1.45,1.45,0,1,1,0,2.9Z" transform="translate(-64.63 -54.33)" fill="#fff"/>
        </g>
        <g id="Path_723" data-name="Path 723" transform="translate(74.222 25.127)">
          <path id="Path_2368" data-name="Path 2368" d="M123,30.19H85.55c-.53,0-1-.65-1-1.45s.42-1.45,1-1.45H123c.53,0,1,.65,1,1.45S123.51,30.19,123,30.19Z" transform="translate(-84.55 -27.29)" fill="#fff"/>
        </g>
        <g id="Path_724" data-name="Path 724" transform="translate(74.222 33.446)">
          <path id="Path_2369" data-name="Path 2369" d="M123,38.51H85.55c-.53,0-1-.65-1-1.45s.42-1.45,1-1.45H123c.53,0,1,.65,1,1.45S123.51,38.51,123,38.51Z" transform="translate(-84.55 -35.61)" fill="#fff"/>
        </g>
        <g id="Path_725" data-name="Path 725" transform="translate(54.302 61.542)">
          <path id="Path_2370" data-name="Path 2370" d="M122.5,66.61H66.08a1.45,1.45,0,1,1,0-2.9H122.5a1.45,1.45,0,1,1,0,2.9Z" transform="translate(-64.63 -63.71)" fill="#fff"/>
        </g>
        <g id="Path_726" data-name="Path 726" transform="translate(54.302 70.931)">
          <path id="Path_2371" data-name="Path 2371" d="M122.5,76H66.08a1.45,1.45,0,1,1,0-2.9H122.5a1.45,1.45,0,1,1,0,2.9Z" transform="translate(-64.63 -73.1)" fill="#fff"/>
        </g>
        <g id="Path_727" data-name="Path 727" transform="translate(54.413 80.3)">
          <path id="Path_2372" data-name="Path 2372" d="M122.5,85.38H66.08a1.46,1.46,0,0,1,0-2.91H122.5a1.46,1.46,0,0,1,0,2.91Z" transform="translate(-64.741 -82.47)" fill="#fff"/>
        </g>
        <g id="Path_728" data-name="Path 728" transform="translate(54.302 89.689)">
          <path id="Path_2373" data-name="Path 2373" d="M122.5,94.76H66.08a1.45,1.45,0,1,1,0-2.9H122.5a1.45,1.45,0,1,1,0,2.9Z" transform="translate(-64.63 -91.86)" fill="#fff"/>
        </g>
        <g id="Path_729" data-name="Path 729" transform="translate(54.302 99.067)">
          <path id="Path_2374" data-name="Path 2374" d="M122.5,104.14H66.08a1.45,1.45,0,1,1,0-2.9H122.5a1.45,1.45,0,1,1,0,2.9Z" transform="translate(-64.63 -101.24)" fill="#fff"/>
        </g>
        <g id="Ellipse_119" data-name="Ellipse 119" transform="translate(54.312 23.187)">
          <ellipse id="Ellipse_331" data-name="Ellipse 331" cx="7.58" cy="7.639" rx="7.58" ry="7.639" transform="translate(0 0)" fill="#fff"/>
        </g>
        <g id="Path_731" data-name="Path 731" transform="translate(44.702 51.03)">
          <path id="Path_2375" data-name="Path 2375" d="M66.48,59.8l-11.31,6-.14-5a33.073,33.073,0,0,0,10.45-3.46l1.18-2.94A2,2,0,0,1,70,53.88h0a2,2,0,0,1-.18,2.72Z" transform="translate(-55.03 -53.197)" fill="#fde3e3"/>
        </g>
        <g id="Path_732" data-name="Path 732" transform="translate(28.464 85.006)">
          <path id="Path_2376" data-name="Path 2376" d="M38.86,94.769h0A2.3,2.3,0,0,1,39.14,93l2.49-3.84a4.31,4.31,0,0,1,5.63-1.49h0a3.649,3.649,0,0,0,.36,4.719A22.6,22.6,0,0,0,42.26,96a2.2,2.2,0,0,1-3.07-.57h0a2.07,2.07,0,0,1-.33-.66Z" transform="translate(-38.792 -87.176)" fill="#2f2e41"/>
        </g>
        <g id="Path_733" data-name="Path 733" transform="translate(35.842 70.761)">
          <path id="Path_2377" data-name="Path 2377" d="M67,89.748h0a4.27,4.27,0,0,1-3.62,2.09L46.88,92l-.71-4.179,7.29-2.16L47.31,80.9,54,72.93,66.25,84.409A4.309,4.309,0,0,1,67,89.748Z" transform="translate(-46.17 -72.93)" fill="#2f2e41"/>
        </g>
        <g id="Path_734" data-name="Path 734" transform="translate(26.614 59.183)">
          <path id="Path_2378" data-name="Path 2378" d="M44.3,118.343H40.44c-3.47-24-7-47.994,3.43-56.993l12.31,2L54.61,73.928l-6.87,7.939Z" transform="translate(-36.942 -61.35)" fill="#2f2e41"/>
        </g>
        <g id="Path_735" data-name="Path 735" transform="translate(29.409 114.726)">
          <path id="Path_2379" data-name="Path 2379" d="M47.32,125.719h0a2.2,2.2,0,0,1-1.8-.28l-3.81-2.5a4.409,4.409,0,0,1-1.49-5.679h0a3.58,3.58,0,0,0,4.69-.36,22.547,22.547,0,0,0,3.66,5.4,2.26,2.26,0,0,1-.59,3.12A2.32,2.32,0,0,1,47.32,125.719Z" transform="translate(-39.737 -116.9)" fill="#2f2e41"/>
        </g>
        <g id="Path_736" data-name="Path 736" transform="translate(29.777 25.297)">
          <path id="Path_2380" data-name="Path 2380" d="M61.17,44.718H42.8c-3.39-4.839-3.79-9.459,0-13.788,0-1.91,2.46-3.47,5.48-3.47h0c2.37,0,4.47,1,5.21,2.39Z" transform="translate(-40.105 -27.46)" fill="#2f2e41"/>
        </g>
        <g id="Path_737" data-name="Path 737" transform="translate(35.982 33.256)">
          <path id="Path_2381" data-name="Path 2381" d="M53.46,45.369l-7.15-1.73A12.607,12.607,0,0,0,47,35.56l4.86-.14a38.111,38.111,0,0,0,1.6,9.949Z" transform="translate(-46.31 -35.42)" fill="#fde3e3"/>
        </g>
        <g id="Path_738" data-name="Path 738" transform="translate(31.698 39.595)">
          <path id="Path_2382" data-name="Path 2382" d="M55.43,67.737c-5.21,3.59-8.89.13-11.7-5.2.39-3.27-.24-7.169-1.41-11.409A7.779,7.779,0,0,1,47,41.76h0l6.15,2.6c5.23,4.289,6.26,8.939,4.3,13.848Z" transform="translate(-42.026 -41.76)" fill="#294658"/>
        </g>
        <g id="Path_739" data-name="Path 739" transform="translate(17.294 40.895)">
          <path id="Path_2383" data-name="Path 2383" d="M40.44,49l-5.72,3,10.16,6.049,1.41,3.52a1.88,1.88,0,0,1-1,2.43H45.2a1.85,1.85,0,0,1-2.35-1.14h0a1.71,1.71,0,0,1-.1-.5l-.14-2.45-12.92-4.3a3,3,0,0,1-1.89-1.85h0a3.079,3.079,0,0,1,1.13-3.55L39.3,43.06Z" transform="translate(-27.622 -43.06)" fill="#fde3e3"/>
        </g>
        <g id="Path_740" data-name="Path 740" transform="translate(28.112 39.365)">
          <path id="Path_2384" data-name="Path 2384" d="M46.16,49.549c-2.38-1-4.55.09-7.29,1l-.43-7.639c2.72-1.46,5.31-1.86,7.73-.72Z" transform="translate(-38.44 -41.53)" fill="#294658"/>
        </g>
        <g id="Path_741" data-name="Path 741" transform="translate(32.042 25.663)">
          <path id="Path_2385" data-name="Path 2385" d="M60.83,44.718h-4C54.26,40,54.37,31.75,49,33.6c-3.48-2.09-1.48,6.089-2.35,11.119H43.08a30.882,30.882,0,0,1,.16-13.858,1.85,1.85,0,0,1,.67-1.36,3.41,3.41,0,0,1,.57-.43,6.081,6.081,0,0,1,3.9-1.24,10.611,10.611,0,0,1,3,.41l.37.12c.17.06.33.12.48.19A3.38,3.38,0,0,1,54,29.94C57.39,34.069,59.14,39.269,60.83,44.718Z" transform="translate(-42.371 -27.826)" fill="#2f2e41"/>
        </g>
        <g id="Ellipse_120" data-name="Ellipse 120" transform="translate(34.122 27.836)">
          <ellipse id="Ellipse_332" data-name="Ellipse 332" cx="4.57" cy="4.599" rx="4.57" ry="4.599" transform="translate(0 0)" fill="#fde3e3"/>
        </g>
        <g id="Path_742" data-name="Path 742" transform="translate(34.062 26.748)">
          <path id="Path_2386" data-name="Path 2386" d="M53.65,32.82c-1.37-1.89-4.95.37-9.26,2v-4.5c3.54-1.57,5.61-2,8-.4Z" transform="translate(-44.39 -28.911)" fill="#2f2e41"/>
        </g>
        <g id="Ellipse_121" data-name="Ellipse 121" transform="translate(112.582)">
          <ellipse id="Ellipse_333" data-name="Ellipse 333" cx="11.07" cy="11.149" rx="11.07" ry="11.149" fill="#294658"/>
        </g>
        <g id="Path_743" data-name="Path 743" transform="translate(118.302 5.769)">
          <path id="Path_2387" data-name="Path 2387" d="M129.37,12.569a.74.74,0,1,0,0,1.48h3.88V18a.73.73,0,0,0,1.46,0V14h3.88a.72.72,0,0,0,.71-.76.74.74,0,0,0-.71-.71h-3.88V8.66a.73.73,0,0,0-1.46,0v3.91Z" transform="translate(-128.63 -7.93)" fill="#fff"/>
        </g>
      </g>
      <path id="Path_2388" data-name="Path 2388" d="M36.07,23a2,2,0,0,0-1.73-1.06l-6.67-.12h0a1.993,1.993,0,0,0-1.97,2.31L27,32.319a2,2,0,0,0,3.63.78L36,25A2,2,0,0,0,36.07,23Z" transform="translate(-10.328 0.008)" fill="#fac4c0"/>
      <path id="Path_2389" data-name="Path 2389" d="M31.34,15,29.1,1.66A2.013,2.013,0,0,0,25.85.44L16.53,8a1.99,1.99,0,0,0,.36,3.33l11.59,5.789a2,2,0,0,0,.89.21A1.94,1.94,0,0,0,30.55,17,2,2,0,0,0,31.34,15Z" transform="translate(-10.328 0.01)" fill="#649bb0"/>
      <path id="Path_2390" data-name="Path 2390" d="M157.39,125.24a2,2,0,0,0-1.16-1.31l-3.71-1.51a2,2,0,0,0-2.34,3l2.44,3.2a2,2,0,0,0,1.59.79h0a2,2,0,0,0,1.59-.8l1.27-1.7A2,2,0,0,0,157.39,125.24Z" transform="translate(-10.328 -0.005)" fill="#294658"/>
      <path id="Path_2391" data-name="Path 2391" d="M147.92,137.548l-3.59-15a2,2,0,0,0-3.62-.59L132.49,135.1a2,2,0,0,0,1.37,3l11.81,1.9a1.63,1.63,0,0,0,.31,0,2,2,0,0,0,1.94-2.45Z" transform="translate(-10.328 -0.005)" fill="#ecda6c"/>
    </g>
  </g>
</svg>
