<svg id="Component_121_251" data-name="Component 121 – 251" xmlns="http://www.w3.org/2000/svg" width="20" height="20" viewBox="0 0 20 20">
  <g id="ic_member_pending-small">
    <circle id="Ellipse_457" data-name="Ellipse 457" cx="10" cy="10" r="10" fill="rgba(0,0,0,0.25)"/>
    <path id="Icon_ionic-ios-hourglass" data-name="Icon ionic-ios-hourglass" d="M15.35,14.7H15.2c-.187,0-.345-.026-.365-.216v0c-.419-3.958-2.879-4.034-2.879-4.966s2.462-1.008,2.879-4.966v0c.02-.189.178-.216.365-.216h.147a.414.414,0,0,0,.414-.387.406.406,0,0,0-.4-.428H6.179a.414.414,0,0,0-.414.387.406.406,0,0,0,.4.428h.158c.187,0,.345.026.365.216v0C7.11,8.508,9.569,8.584,9.569,9.516S7.107,10.523,6.69,14.482v0c-.02.189-.178.216-.365.216H6.179a.414.414,0,0,0-.414.387.406.406,0,0,0,.4.428h9.194a.4.4,0,0,0,.4-.428A.414.414,0,0,0,15.35,14.7ZM8.1,13.7c.825-2.324,2.287-2.042,2.287-2.959V9.125c0-.565-1.057-.958-1.718-1.876a.228.228,0,0,1,.187-.361h3.819a.227.227,0,0,1,.193.355c-.649.92-1.727,1.317-1.727,1.882v1.619c0,.909,1.405.661,2.293,2.959.08.207.02.466-.2.466H8.3C8.078,14.17,8.026,13.914,8.1,13.7Z" transform="translate(-0.764 0.484)" fill="#fff"/>
  </g>
</svg>
