<svg id="img_reg3" xmlns="http://www.w3.org/2000/svg" width="157.333" height="120" viewBox="0 0 157.333 120">
  <rect id="Rectangle_691" data-name="Rectangle 691" width="157.306" height="120" fill="#fff" opacity="0"/>
  <g id="Group_804" data-name="Group 804" transform="translate(0 0.027)">
    <g id="Rectangle_229" data-name="Rectangle 229" transform="translate(83.808 55.387)">
      <rect id="Rectangle_692" data-name="Rectangle 692" width="58.554" height="1.714" fill="#e6e6e6"/>
    </g>
    <g id="Rectangle_230" data-name="Rectangle 230" transform="translate(88.649 41.03)">
      <rect id="Rectangle_693" data-name="Rectangle 693" width="14.83" height="14.821" fill="#e6e6e6"/>
    </g>
    <g id="Rectangle_231" data-name="Rectangle 231" transform="translate(91.616 43.994)">
      <rect id="Rectangle_694" data-name="Rectangle 694" width="8.902" height="8.893" fill="#ccc"/>
    </g>
    <g id="Rectangle_232" data-name="Rectangle 232" transform="translate(121.905 41.03)">
      <rect id="Rectangle_695" data-name="Rectangle 695" width="3.747" height="14.821" fill="#e6e6e6"/>
    </g>
    <g id="Rectangle_233" data-name="Rectangle 233" transform="translate(121.905 43.373)">
      <rect id="Rectangle_696" data-name="Rectangle 696" width="3.747" height="1.714" fill="#ccc"/>
    </g>
    <g id="Rectangle_234" data-name="Rectangle 234" transform="translate(121.905 50.866)">
      <rect id="Rectangle_697" data-name="Rectangle 697" width="3.747" height="1.714" fill="#ccc"/>
    </g>
    <g id="Rectangle_235" data-name="Rectangle 235" transform="translate(116.127 41.03)">
      <rect id="Rectangle_698" data-name="Rectangle 698" width="3.747" height="14.821" fill="#e6e6e6"/>
    </g>
    <g id="Rectangle_236" data-name="Rectangle 236" transform="translate(116.127 43.373)">
      <rect id="Rectangle_699" data-name="Rectangle 699" width="3.747" height="1.714" fill="#ccc"/>
    </g>
    <g id="Rectangle_237" data-name="Rectangle 237" transform="translate(116.127 50.866)">
      <rect id="Rectangle_700" data-name="Rectangle 700" width="3.747" height="1.714" fill="#ccc"/>
    </g>
    <g id="Rectangle_238" data-name="Rectangle 238" transform="translate(125.525 40.971)">
      <rect id="Rectangle_701" data-name="Rectangle 701" width="3.752" height="14.826" transform="translate(0 1.665) rotate(-26.34)" fill="#e6e6e6"/>
    </g>
    <g id="Rectangle_239" data-name="Rectangle 239" transform="translate(126.557 43.066)">
      <rect id="Rectangle_702" data-name="Rectangle 702" width="3.747" height="1.716" transform="translate(0 1.662) rotate(-26.34)" fill="#ccc"/>
    </g>
    <g id="Rectangle_240" data-name="Rectangle 240" transform="translate(129.888 49.781)">
      <rect id="Rectangle_703" data-name="Rectangle 703" width="3.747" height="1.716" transform="translate(0 1.662) rotate(-26.34)" fill="#ccc"/>
    </g>
    <g id="Path_675" data-name="Path 675" transform="translate(90.415 46.98)">
      <path id="Path_2491" data-name="Path 2491" d="M130.225,65.81l1.888,3.271,1.881,3.293H126.45l1.888-3.264Z" transform="translate(-126.45 -65.81)" fill="#e6e6e6"/>
    </g>
    <g id="Path_676" data-name="Path 676" transform="translate(93.668 47.609)">
      <path id="Path_2492" data-name="Path 2492" d="M134.8,66.69l1.916,3.264,1.888,3.264H131l1.888-3.264Z" transform="translate(-131 -66.69)" fill="#e6e6e6"/>
    </g>
    <g id="Ellipse_112" data-name="Ellipse 112" transform="translate(97.701 44.466)">
      <ellipse id="Ellipse_345" data-name="Ellipse 345" cx="1.094" cy="1.093" rx="1.094" ry="1.093" fill="#e6e6e6"/>
    </g>
    <g id="Rectangle_241" data-name="Rectangle 241" transform="translate(83.808 31.83)">
      <rect id="Rectangle_704" data-name="Rectangle 704" width="58.554" height="1.714" fill="#e6e6e6"/>
    </g>
    <g id="Rectangle_242" data-name="Rectangle 242" transform="translate(122.684 17.473)">
      <rect id="Rectangle_705" data-name="Rectangle 705" width="14.83" height="14.821" fill="#e6e6e6"/>
    </g>
    <g id="Rectangle_243" data-name="Rectangle 243" transform="translate(125.652 20.437)">
      <rect id="Rectangle_706" data-name="Rectangle 706" width="8.902" height="8.893" fill="#ccc"/>
    </g>
    <g id="Rectangle_244" data-name="Rectangle 244" transform="translate(100.511 17.473)">
      <rect id="Rectangle_707" data-name="Rectangle 707" width="3.747" height="14.821" fill="#e6e6e6"/>
    </g>
    <g id="Rectangle_245" data-name="Rectangle 245" transform="translate(100.511 19.809)">
      <rect id="Rectangle_708" data-name="Rectangle 708" width="3.747" height="1.714" fill="#ccc"/>
    </g>
    <g id="Rectangle_246" data-name="Rectangle 246" transform="translate(100.511 27.301)">
      <rect id="Rectangle_709" data-name="Rectangle 709" width="3.747" height="1.714" fill="#ccc"/>
    </g>
    <g id="Rectangle_247" data-name="Rectangle 247" transform="translate(106.289 17.473)">
      <rect id="Rectangle_710" data-name="Rectangle 710" width="3.747" height="14.821" fill="#e6e6e6"/>
    </g>
    <g id="Rectangle_248" data-name="Rectangle 248" transform="translate(106.289 19.809)">
      <rect id="Rectangle_711" data-name="Rectangle 711" width="3.747" height="1.714" fill="#ccc"/>
    </g>
    <g id="Rectangle_249" data-name="Rectangle 249" transform="translate(106.289 27.301)">
      <rect id="Rectangle_712" data-name="Rectangle 712" width="3.747" height="1.714" fill="#ccc"/>
    </g>
    <g id="Rectangle_250" data-name="Rectangle 250" transform="translate(90.706 17.406)">
      <rect id="Rectangle_713" data-name="Rectangle 713" width="14.826" height="3.752" transform="translate(0 13.287) rotate(-63.66)" fill="#e6e6e6"/>
    </g>
    <g id="Rectangle_251" data-name="Rectangle 251" transform="translate(95.483 19.51)">
      <rect id="Rectangle_714" data-name="Rectangle 714" width="1.716" height="3.747" transform="translate(0 1.538) rotate(-63.66)" fill="#ccc"/>
    </g>
    <g id="Rectangle_252" data-name="Rectangle 252" transform="translate(92.165 26.223)">
      <rect id="Rectangle_715" data-name="Rectangle 715" width="1.716" height="3.747" transform="translate(0 1.538) rotate(-63.66)" fill="#ccc"/>
    </g>
    <g id="Path_677" data-name="Path 677" transform="translate(128.204 23.423)">
      <path id="Path_2493" data-name="Path 2493" d="M183.068,32.83l-1.881,3.264L179.3,39.38h7.551l-1.888-3.264Z" transform="translate(-179.3 -32.83)" fill="#e6e6e6"/>
    </g>
    <g id="Path_678" data-name="Path 678" transform="translate(124.929 24.044)">
      <path id="Path_2494" data-name="Path 2494" d="M178.5,33.7l-1.888,3.264-1.888,3.271h7.551l-1.888-3.271Z" transform="translate(-174.72 -33.7)" fill="#e6e6e6"/>
    </g>
    <g id="Ellipse_113" data-name="Ellipse 113" transform="translate(126.274 20.901)">
      <ellipse id="Ellipse_346" data-name="Ellipse 346" cx="1.094" cy="1.093" rx="1.094" ry="1.093" fill="#e6e6e6"/>
    </g>
    <g id="Rectangle_253" data-name="Rectangle 253" transform="translate(83.808 78.951)">
      <rect id="Rectangle_716" data-name="Rectangle 716" width="58.554" height="1.714" fill="#e6e6e6"/>
    </g>
    <g id="Rectangle_254" data-name="Rectangle 254" transform="translate(122.684 64.594)">
      <rect id="Rectangle_717" data-name="Rectangle 717" width="14.83" height="14.821" fill="#e6e6e6"/>
    </g>
    <g id="Rectangle_255" data-name="Rectangle 255" transform="translate(125.652 67.559)">
      <rect id="Rectangle_718" data-name="Rectangle 718" width="8.902" height="8.893" fill="#ccc"/>
    </g>
    <g id="Rectangle_256" data-name="Rectangle 256" transform="translate(100.511 64.594)">
      <rect id="Rectangle_719" data-name="Rectangle 719" width="3.747" height="14.821" fill="#e6e6e6"/>
    </g>
    <g id="Rectangle_257" data-name="Rectangle 257" transform="translate(100.511 66.937)">
      <rect id="Rectangle_720" data-name="Rectangle 720" width="3.747" height="1.714" fill="#ccc"/>
    </g>
    <g id="Rectangle_258" data-name="Rectangle 258" transform="translate(100.511 74.423)">
      <rect id="Rectangle_721" data-name="Rectangle 721" width="3.747" height="1.714" fill="#ccc"/>
    </g>
    <g id="Rectangle_259" data-name="Rectangle 259" transform="translate(106.289 64.594)">
      <rect id="Rectangle_722" data-name="Rectangle 722" width="3.747" height="14.821" fill="#e6e6e6"/>
    </g>
    <g id="Rectangle_260" data-name="Rectangle 260" transform="translate(106.289 66.937)">
      <rect id="Rectangle_723" data-name="Rectangle 723" width="3.747" height="1.714" fill="#ccc"/>
    </g>
    <g id="Rectangle_261" data-name="Rectangle 261" transform="translate(106.289 74.423)">
      <rect id="Rectangle_724" data-name="Rectangle 724" width="3.747" height="1.714" fill="#ccc"/>
    </g>
    <g id="Rectangle_262" data-name="Rectangle 262" transform="translate(90.707 64.528)">
      <rect id="Rectangle_725" data-name="Rectangle 725" width="14.826" height="3.752" transform="translate(0 13.287) rotate(-63.66)" fill="#e6e6e6"/>
    </g>
    <g id="Rectangle_263" data-name="Rectangle 263" transform="translate(95.483 66.632)">
      <rect id="Rectangle_726" data-name="Rectangle 726" width="1.716" height="3.747" transform="translate(0 1.538) rotate(-63.66)" fill="#ccc"/>
    </g>
    <g id="Rectangle_264" data-name="Rectangle 264" transform="translate(92.159 73.345)">
      <rect id="Rectangle_727" data-name="Rectangle 727" width="1.716" height="3.747" transform="translate(0 1.538) rotate(-63.66)" fill="#ccc"/>
    </g>
    <g id="Path_679" data-name="Path 679" transform="translate(128.204 70.544)">
      <path id="Path_2495" data-name="Path 2495" d="M183.068,98.8l-1.881,3.264-1.888,3.264h7.551l-1.888-3.264Z" transform="translate(-179.3 -98.8)" fill="#e6e6e6"/>
    </g>
    <g id="Path_680" data-name="Path 680" transform="translate(124.929 71.166)">
      <path id="Path_2496" data-name="Path 2496" d="M178.5,99.67l-1.888,3.271-1.888,3.264h7.551l-1.888-3.264Z" transform="translate(-174.72 -99.67)" fill="#e6e6e6"/>
    </g>
    <g id="Ellipse_114" data-name="Ellipse 114" transform="translate(126.274 68.023)">
      <ellipse id="Ellipse_347" data-name="Ellipse 347" cx="1.094" cy="1.093" rx="1.094" ry="1.093" fill="#e6e6e6"/>
    </g>
    <g id="Ellipse_115" data-name="Ellipse 115" transform="translate(0 110.187)">
      <ellipse id="Ellipse_348" data-name="Ellipse 348" cx="68.971" cy="4.893" rx="68.971" ry="4.893" fill="#e6e6e6"/>
    </g>
    <g id="Path_681" data-name="Path 681" transform="translate(86.39 102.951)">
      <path id="Path_2497" data-name="Path 2497" d="M157.286,159.049c-11.247-2-23.546-1.664-36.466,0,5.878-4.957,10.954-9.914,5.077-14.879,11.44,2.364,13.071,2.143,25.834,0C148.792,149.12,154.326,154.049,157.286,159.049Z" transform="translate(-120.82 -144.17)" fill="#eedf82"/>
    </g>
    <g id="Path_682" data-name="Path 682" transform="translate(85.803 102.951)" opacity="0.06" style="isolation: isolate">
      <path id="Path_2498" data-name="Path 2498" d="M156.466,159.049c-11.247-2-23.546-1.664-36.466,0,5.878-4.957,10.954-9.914,5.07-14.879,11.44,2.364,13.078,2.143,25.841,0C147.986,149.12,153.52,154.049,156.466,159.049Z" transform="translate(-120 -144.17)" fill="#bcb066"/>
    </g>
    <g id="Path_683" data-name="Path 683" transform="translate(89.171 103.809)">
      <path id="Path_2499" data-name="Path 2499" d="M155.664,157.249c-9.553-1.593-20.021-1.329-30.954,0,5.005-3.957,9.3-7.914,4.29-11.879,9.739,1.886,11.1,1.693,21.944,0C148.435,149.341,153.139,153.306,155.664,157.249Z" transform="translate(-124.71 -145.37)" fill="#eedf82"/>
    </g>
    <g id="Ellipse_116" data-name="Ellipse 116" transform="translate(111.387 99.151)">
      <ellipse id="Ellipse_349" data-name="Ellipse 349" cx="5.091" cy="5.086" rx="5.091" ry="5.086" fill="#2f2f2f"/>
    </g>
    <g id="Path_684" data-name="Path 684" transform="translate(87.691 98.309)">
      <path id="Path_2500" data-name="Path 2500" d="M128.317,137.7l3.525.586,1.766,5.093-5.091,3.1-5.878-8.807Z" transform="translate(-122.64 -137.67)" fill="#a0616a"/>
    </g>
    <g id="Ellipse_117" data-name="Ellipse 117" transform="translate(95.127 89.723)">
      <ellipse id="Ellipse_350" data-name="Ellipse 350" cx="8.23" cy="8.221" rx="8.23" ry="8.221" fill="#a0616a"/>
    </g>
    <g id="Path_685" data-name="Path 685" transform="translate(27.809 67.98)">
      <path id="Path_2501" data-name="Path 2501" d="M69,95.21s-19.985,2.143-23.517,1.771A45.41,45.41,0,0,1,40.4,96.2s-2.352,3.129-1.18,4.5a8.371,8.371,0,0,0,2.352,1.957,7.315,7.315,0,0,1,3.725,0c1.566.593,17.439,3.136,20.185.786S69,95.21,69,95.21Z" transform="translate(-38.892 -95.21)" fill="#2f2f2f"/>
    </g>
    <g id="Path_686" data-name="Path 686" transform="translate(29.845 75.226)">
      <path id="Path_2502" data-name="Path 2502" d="M71.17,141.78s-13.128-3.721-15.48-20.171v-1.564a50.7,50.7,0,0,1-3.525,5.479c-1.08,1.079-4.905,10.771-4.7,11.75a2.355,2.355,0,0,1,0,1.371l-5.72-.586v-1.764s3.039-9.107,3.232-11.257,7.544-17.143,7.544-17.143,2.746-5.714,7.443,0,5.1,9.593,5.1,9.593l6.078,11.75Z" transform="translate(-41.74 -105.354)" fill="#2f2f2f"/>
    </g>
    <g id="Path_687" data-name="Path 687" transform="translate(18.898 64.325)">
      <path id="Path_2503" data-name="Path 2503" d="M37.413,94.141,31.142,92s-5.878-4.286-4.5,0,7.644,13.707,9.4,12.729,3.89-3.414,3.411-3.764A5.822,5.822,0,0,1,37.413,94.141Z" transform="translate(-26.429 -90.093)" fill="#2f2e41"/>
    </g>
    <g id="Path_688" data-name="Path 688" transform="translate(21.836 105.016)">
      <path id="Path_2504" data-name="Path 2504" d="M39.342,147.06l-5.062,2.464s-6.121.943-2.7,2.707,12.828,3.65,13.3,2,.279-4.379-.215-4.286A4.939,4.939,0,0,1,39.342,147.06Z" transform="translate(-30.539 -147.06)" fill="#2f2e41"/>
    </g>
    <g id="Path_689" data-name="Path 689" transform="translate(55.98 93.459)">
      <path id="Path_2505" data-name="Path 2505" d="M79.034,136.151S76.5,147.116,80.8,149.466s34.486,2.743,36.838-1.564,1.18-4.286,1.18-4.286l-6.271-7.05,5.091-.393a1.815,1.815,0,0,0-1.766-1.764c-1.766-.2-7.25-2.143-11.948-.786s-7.451-2.743-7.451-2.743Z" transform="translate(-78.29 -130.88)" fill="#496271"/>
    </g>
    <g id="Path_690" data-name="Path 690" transform="translate(50.052 63.501)">
      <path id="Path_2506" data-name="Path 2506" d="M73.339,89.9,70,108.111l22.924-2.743L97.035,88.94Z" transform="translate(-70 -88.94)" fill="#3f3d56"/>
    </g>
    <g id="Path_691" data-name="Path 691" transform="translate(51.339 64.166)">
      <path id="Path_2507" data-name="Path 2507" d="M74.539,90.849,71.8,107.106l20.879-2.45L96.7,89.87Z" transform="translate(-71.8 -89.87)" fill="#fff"/>
    </g>
    <g id="Path_692" data-name="Path 692" transform="translate(49.659 82.673)">
      <path id="Path_2508" data-name="Path 2508" d="M70.637,115.973l-.794-.193-.393.779,6.271,17.429.586-.229.193-1.143Z" transform="translate(-69.45 -115.78)" fill="#b3b3b3"/>
    </g>
    <g id="Path_693" data-name="Path 693" transform="translate(50.052 79.937)">
      <path id="Path_2509" data-name="Path 2509" d="M70,114.486,76.285,132.7l23.7-3.521-7.05-17.229Z" transform="translate(-70 -111.95)" fill="#d0cde1"/>
    </g>
    <g id="Path_694" data-name="Path 694" transform="translate(53.198 79.93)">
      <path id="Path_2510" data-name="Path 2510" d="M74.4,113.9v.979l17.439-1.957-.193-.979Z" transform="translate(-74.4 -111.94)" fill="#3f3d56"/>
    </g>
    <g id="Path_695" data-name="Path 695" transform="translate(53.627 82.116)">
      <path id="Path_2511" data-name="Path 2511" d="M75,116.729l2.739,7.636,17.833-2.143L92.4,115Z" transform="translate(-75 -115)" fill="#2f2f2f"/>
    </g>
    <g id="Path_696" data-name="Path 696" transform="translate(68.018 86.569)">
      <path id="Path_2512" data-name="Path 2512" d="M103.037,129.281l-.586-1.564s-4.512-7.857-6.857-6.271,4.9,9.207,4.9,9.207h2.352Z" transform="translate(-95.126 -121.234)" fill="#a0616a"/>
    </g>
    <g id="Path_697" data-name="Path 697" transform="translate(60.003 86.572)">
      <path id="Path_2513" data-name="Path 2513" d="M84.949,130.454l-.586-2.35s-1.566-7.243,1.173-6.85,3.532,7.243,3.532,7.243l-.2,1.571Z" transform="translate(-83.917 -121.238)" fill="#a0616a"/>
    </g>
    <g id="Path_698" data-name="Path 698" transform="translate(60.24 94.555)">
      <path id="Path_2514" data-name="Path 2514" d="M89.748,132.669s-5.1-.779-5.291.393-1.173,18.8,3.725,19.386,29.195,3.136,26.649-2.936-6.435-5.286-6.435-5.286L91.743,145.99Z" transform="translate(-84.248 -132.415)" fill="#496271"/>
    </g>
    <g id="Path_699" data-name="Path 699" transform="translate(72.497 93.437)">
      <path id="Path_2515" data-name="Path 2515" d="M110.013,134.479l-5.191-3.629-3.432,2.643,4.29,4.7Z" transform="translate(-101.39 -130.85)" fill="#496271"/>
    </g>
    <g id="Path_700" data-name="Path 700" transform="translate(67.213 100.587)" opacity="0.2" style="isolation: isolate">
      <path id="Path_2516" data-name="Path 2516" d="M94,140.86l.779,7.443,13.521-.786-11.755-.193Z" transform="translate(-94 -140.86)"/>
    </g>
    <g id="Ellipse_118" data-name="Ellipse 118" transform="translate(97.63 89.644)">
      <ellipse id="Ellipse_351" data-name="Ellipse 351" cx="9.796" cy="9.793" rx="9.796" ry="9.793" fill="#2f2f2f"/>
    </g>
    <g id="Path_701" data-name="Path 701" transform="translate(57.016 65.923)">
      <path id="Path_2517" data-name="Path 2517" d="M79.74,97.23,91.9,96.809l1.18-4.479-12.542.379Z" transform="translate(-79.74 -92.33)" fill="#2f2f2f"/>
    </g>
    <g id="Path_702" data-name="Path 702" transform="translate(53.884 71.994)">
      <path id="Path_2518" data-name="Path 2518" d="M75.36,102.2l18.419-.586.193-.786-18.419.65Z" transform="translate(-75.36 -100.83)" fill="#e6e6e6"/>
    </g>
    <g id="Path_703" data-name="Path 703" transform="translate(53.491 73.959)">
      <path id="Path_2519" data-name="Path 2519" d="M74.81,104.951l18.419-.593.193-.779L75,104.223Z" transform="translate(-74.81 -103.58)" fill="#e6e6e6"/>
    </g>
    <g id="Path_704" data-name="Path 704" transform="translate(53.298 75.523)">
      <path id="Path_2520" data-name="Path 2520" d="M74.54,107.141l18.419-.586.193-.786-18.419.65Z" transform="translate(-74.54 -105.77)" fill="#e6e6e6"/>
    </g>
    <path id="Path_2521" data-name="Path 2521" d="M110.329,37.389a1.43,1.43,0,0,0-1.223-.757l-4.033-.071a1.429,1.429,0,0,0-1.43,1.636l.794,4.921a1.429,1.429,0,0,0,1.094,1.15,1.081,1.081,0,0,0,.3,0A1.43,1.43,0,0,0,107,43.639l3.239-4.85A1.427,1.427,0,0,0,110.329,37.389Z" transform="translate(-29.531 -10.473)" fill="#fac4c0"/>
    <path id="Path_2522" data-name="Path 2522" d="M105.11,27.486l-1.351-8.007a1.43,1.43,0,0,0-2.224-.864l-5.656,4.536a1.407,1.407,0,0,0,.257,2.364l7,3.471a1.376,1.376,0,0,0,1.973-1.5Z" transform="translate(-27.172 -5.271)" fill="#649bb0"/>
    <path id="Path_2523" data-name="Path 2523" d="M217.3,76.4l-1.573-7.386A1.431,1.431,0,0,0,213,68.861l-2.41,7.186a1.429,1.429,0,0,0,1.266,1.857l3.983.207h.072A1.429,1.429,0,0,0,217.3,76.4Z" transform="translate(-59.994 -19.438)" fill="#294658"/>
    <g id="Path_705" data-name="Path 705" transform="translate(12.789 93.872)">
      <path id="Path_2524" data-name="Path 2524" d="M20.778,138.138h-.043a.343.343,0,0,1-.279-.214l-2.545-5.979a.357.357,0,0,1,.458-.464l5.384,2.143a.357.357,0,0,1,.207.236.328.328,0,0,1-.057.3l-2.86,3.807a.35.35,0,0,1-.265.171ZM18.9,132.424l1.966,4.629,2.2-2.943Z" transform="translate(-17.886 -131.459)" fill="#294658"/>
    </g>
    <path id="Path_2525" data-name="Path 2525" d="M205.18,10.089,203.035,1.1a1.431,1.431,0,0,0-2.567-.429L195.5,8.525a1.428,1.428,0,0,0,.972,2.143l7.15,1.129h.222a1.429,1.429,0,0,0,1.373-1.743Z" transform="translate(-55.653 -0.038)" fill="#ecda6c"/>
  </g>
</svg>
