<svg xmlns="http://www.w3.org/2000/svg" xmlns:xlink="http://www.w3.org/1999/xlink" width="1002" height="1048" viewBox="0 0 1002 1048">
  <defs>
    <clipPath id="clip-path">
      <rect id="Shape" width="1002" height="1048" fill="#fff"/>
    </clipPath>
  </defs>
  <g id="Mask_Group_1" data-name="Mask Group 1" clip-path="url(#clip-path)">
    <g id="Group_3938" data-name="Group 3938" transform="translate(-34.315 92.044)">
      <rect id="Rectangle_291" data-name="Rectangle 291" width="29.066" height="105.255" transform="translate(840.387 684.009)" fill="#f2f2f2"/>
      <path id="Path_861" data-name="Path 861" d="M910.836,267.033l-70.694-87.981-141.9,1.357-86.082,87.712,1.74,1.17h-.622V451.732H910.646V269.29Z" transform="translate(-22.188 502.43)" fill="#f2f2f2"/>
      <path id="Path_862" data-name="Path 862" d="M845.471,179.238,757.154,287.555V451.73H915.9V266.95Z" transform="translate(-27.442 502.43)" fill="#e6e6e6"/>
      <path id="Path_863" data-name="Path 863" d="M1006.918,315.965,874.031,306.7,955.482,48.954Z" transform="translate(-31.679 501.362)" fill="#649aae" stroke="#649aae" stroke-linecap="round" stroke-linejoin="round" stroke-width="4"/>
      <rect id="Rectangle_292" data-name="Rectangle 292" width="32.42" height="29.977" transform="translate(793.433 863.37)" fill="#3f3d56"/>
      <rect id="Rectangle_293" data-name="Rectangle 293" width="32.42" height="29.502" transform="translate(793.433 811.483)" fill="#3f3d56"/>
      <rect id="Rectangle_294" data-name="Rectangle 294" width="32.42" height="29.977" transform="translate(793.433 863.37)" fill="#fff"/>
      <rect id="Rectangle_295" data-name="Rectangle 295" width="32.42" height="29.502" transform="translate(793.433 811.483)" fill="#fff"/>
      <rect id="Rectangle_296" data-name="Rectangle 296" width="32.42" height="29.977" transform="translate(649.356 855.415)" fill="#fff"/>
      <rect id="Rectangle_297" data-name="Rectangle 297" width="32.42" height="29.502" transform="translate(649.356 803.528)" fill="#fff"/>
      <rect id="Rectangle_298" data-name="Rectangle 298" width="29.066" height="105.255" transform="translate(611.012 684.009)" fill="#f2f2f2"/>
      <path id="Path_864" data-name="Path 864" d="M672.835,267.033l-70.694-87.981-141.9,1.357-86.082,87.712,1.739,1.17h-.621V451.732H672.646V269.29Z" transform="translate(-13.561 502.43)" fill="#f2f2f2"/>
      <path id="Path_865" data-name="Path 865" d="M607.471,179.238,519.154,287.555V451.73H677.9V266.95Z" transform="translate(-18.816 502.43)" fill="#e6e6e6"/>
      <rect id="Rectangle_299" data-name="Rectangle 299" width="32.42" height="29.977" transform="translate(564.059 863.37)" fill="#3f3d56"/>
      <rect id="Rectangle_300" data-name="Rectangle 300" width="32.42" height="29.502" transform="translate(564.059 811.483)" fill="#3f3d56"/>
      <rect id="Rectangle_301" data-name="Rectangle 301" width="32.42" height="29.977" transform="translate(564.059 863.37)" fill="#fff"/>
      <rect id="Rectangle_302" data-name="Rectangle 302" width="32.42" height="29.502" transform="translate(564.059 811.483)" fill="#fff"/>
      <rect id="Rectangle_303" data-name="Rectangle 303" width="32.42" height="29.977" transform="translate(419.982 855.415)" fill="#fff"/>
      <rect id="Rectangle_304" data-name="Rectangle 304" width="32.42" height="29.502" transform="translate(419.982 803.528)" fill="#fff"/>
      <rect id="Rectangle_305" data-name="Rectangle 305" width="38.84" height="140.646" transform="translate(366.375 593.171)" fill="#f2f2f2"/>
      <path id="Path_866" data-name="Path 866" d="M432.059,205.675,337.594,88.112,147.976,89.925,32.951,207.13l2.324,1.563h-.83V452.478H431.8V208.692Z" transform="translate(-1.195 501.683)" fill="#f2f2f2"/>
      <path id="Path_867" data-name="Path 867" d="M344.715,88.36,226.7,233.1V452.476H438.827V205.565Z" transform="translate(-8.217 501.685)" fill="#e6e6e6"/>
      <rect id="Rectangle_306" data-name="Rectangle 306" width="43.321" height="40.057" transform="translate(303.634 832.843)" fill="#3f3d56"/>
      <rect id="Rectangle_307" data-name="Rectangle 307" width="43.321" height="39.422" transform="translate(303.634 763.509)" fill="#3f3d56"/>
      <rect id="Rectangle_308" data-name="Rectangle 308" width="43.321" height="40.057" transform="translate(303.634 832.843)" fill="#fff"/>
      <rect id="Rectangle_309" data-name="Rectangle 309" width="43.321" height="39.422" transform="translate(303.634 763.509)" fill="#fff"/>
      <rect id="Rectangle_310" data-name="Rectangle 310" width="43.321" height="40.057" transform="translate(111.112 822.214)" fill="#fff"/>
      <rect id="Rectangle_311" data-name="Rectangle 311" width="43.321" height="39.422" transform="translate(111.112 752.878)" fill="#fff"/>
      <rect id="Rectangle_312" data-name="Rectangle 312" width="890" height="2" transform="translate(34.314 953.957)" fill="#3f3d56"/>
      <path id="Path_868" data-name="Path 868" d="M936.71,452.9c17.263-128.025.174-255.584,0-256.857l-1.719.36c.174,1.27,17.212,128.486,0,256.143Z" transform="translate(-33.888 502.568)" fill="#3f3d56"/>
      <path id="Path_869" data-name="Path 869" d="M918.572,238.945l.462-2.045,21.911,27.755-.462,2.044Z" transform="translate(-33.293 502.905)" fill="#3f3d56"/>
      <path id="Path_870" data-name="Path 870" d="M943.559,278.13l31.876-32.876.672,2.42L944.232,280.55Z" transform="translate(-34.199 502.972)" fill="#3f3d56"/>
      <path id="Path_874" data-name="Path 874" d="M749.031,437.068a12.969,12.969,0,0,0-6.717,1.885,14,14,0,0,0-20.393,1.072,15.5,15.5,0,0,0-3.73,10.149h44.284A13.751,13.751,0,0,0,749.031,437.068Z" transform="translate(-26.03 504.528)" fill="#284758" stroke="#284758" stroke-linecap="round" stroke-linejoin="round" stroke-width="1"/>
      <path id="Path_875" data-name="Path 875" d="M282.031,437.068a12.969,12.969,0,0,0-6.717,1.885,14,14,0,0,0-20.393,1.072,15.5,15.5,0,0,0-3.73,10.149h44.284A13.75,13.75,0,0,0,282.031,437.068Z" transform="translate(-9.104 504.528)" fill="#284758" stroke="#284758" stroke-linecap="round" stroke-linejoin="round" stroke-width="1"/>
      <path id="Path_876" data-name="Path 876" d="M521.031,437.068a12.97,12.97,0,0,0-6.717,1.885,14,14,0,0,0-20.393,1.072,15.5,15.5,0,0,0-3.73,10.149h44.284A13.751,13.751,0,0,0,521.031,437.068Z" transform="translate(-17.767 504.528)" fill="#284758" stroke="#284758" stroke-linecap="round" stroke-linejoin="round" stroke-width="1"/>
      <path id="Path_877" data-name="Path 877" d="M466.954,404.228H339.191v4.311h19.925V449.5h4.121V408.539h77.608V449.5h4.122V408.539h21.986Z" transform="translate(-12.294 504.277)" fill="#284758" stroke="#284758" stroke-linecap="round" stroke-linejoin="round" stroke-width="1"/>
      <rect id="Rectangle_313" data-name="Rectangle 313" width="127.763" height="4.311" transform="translate(327.149 895.605)" fill="#284758" stroke="#284758" stroke-linecap="round" stroke-linejoin="round" stroke-width="1"/>
      <rect id="Rectangle_314" data-name="Rectangle 314" width="127.763" height="4.311" transform="translate(327.149 884.826)" fill="#284758" stroke="#284758" stroke-linecap="round" stroke-linejoin="round" stroke-width="1"/>
      <rect id="Rectangle_315" data-name="Rectangle 315" width="127.763" height="4.311" transform="translate(327.149 874.048)" fill="#284758" stroke="#284758" stroke-linecap="round" stroke-linejoin="round" stroke-width="1"/>
      <path id="Path_878" data-name="Path 878" d="M673.954,404.228H546.191v4.311h19.926V449.5h4.121V408.539h77.608V449.5h4.122V408.539h21.986Z" transform="translate(-19.796 504.277)" fill="#284758" stroke="#284758" stroke-linecap="round" stroke-linejoin="round" stroke-width="1"/>
      <rect id="Rectangle_316" data-name="Rectangle 316" width="127.763" height="4.311" transform="translate(526.646 895.605)" fill="#284758" stroke="#284758" stroke-linecap="round" stroke-linejoin="round" stroke-width="1"/>
      <rect id="Rectangle_317" data-name="Rectangle 317" width="127.763" height="4.311" transform="translate(526.646 884.826)" fill="#284758" stroke="#284758" stroke-linecap="round" stroke-linejoin="round" stroke-width="1"/>
      <rect id="Rectangle_318" data-name="Rectangle 318" width="127.763" height="4.311" transform="translate(526.646 874.048)" fill="#284758" stroke="#284758" stroke-linecap="round" stroke-linejoin="round" stroke-width="1"/>
      <path id="Path_879" data-name="Path 879" d="M111.29,291.228,221.2,13.709l106.123,277.52Z" transform="translate(-4.034 501.072)" fill="#facfcb" stroke="#facfcb" stroke-linecap="round" stroke-linejoin="round" stroke-width="6"/>
      <path id="Path_880" data-name="Path 880" d="M689.706,291.228,799.619,13.709l106.124,277.52Z" transform="translate(-24.998 501.072)" fill="#ebd96c" stroke="#ebd96c" stroke-linecap="round" stroke-linejoin="round" stroke-width="2"/>
      <path id="Path_881" data-name="Path 881" d="M115.16,316.529,0,324.724,81.451,66.981Z" transform="translate(0 501.509)" fill="#649aae" stroke="#649aae" stroke-linecap="round" stroke-linejoin="round" stroke-width="4"/>
      <path id="Path_882" data-name="Path 882" d="M151.767,280.928l53.419,104.59-124.868.736Z" transform="translate(-2.911 503.264)" fill="#ebd96c" stroke="#ebd96c" stroke-linecap="round" stroke-linejoin="round" stroke-width="2"/>
      <path id="Path_883" data-name="Path 883" d="M874.318,312.861l37.965,78.5-92.616,2.717Z" transform="translate(-29.71 503.526)" fill="#facfcb" stroke="#facfcb" stroke-linecap="round" stroke-linejoin="round" stroke-width="6"/>
      <path id="Path_884" data-name="Path 884" d="M230.318,452.364c-26.15-174.595-.264-348.552,0-350.289l1.9.359c-.264,1.733-26.094,175.349,0,349.576Z" transform="translate(-7.924 501.797)" fill="#284758" stroke="#284758" stroke-linecap="round" stroke-linejoin="round" stroke-width="1"/>
      <path id="Path_885" data-name="Path 885" d="M222.006,213.817l59.142-35.2.911,1.9-59.142,35.2Z" transform="translate(-8.047 502.426)" fill="#284758" stroke="#284758" stroke-linecap="round" stroke-linejoin="round" stroke-width="1"/>
      <path id="Path_886" data-name="Path 886" d="M157.241,198l.911-1.895,59.134,35.22-.911,1.895Z" transform="translate(-5.7 502.57)" fill="#284758" stroke="#284758" stroke-linecap="round" stroke-linejoin="round" stroke-width="1"/>
      <path id="Path_887" data-name="Path 887" d="M154.37,450.809c-11.232-70.5-.113-140.743,0-141.444l2.185.387c-.113.7-11.168,70.573,0,140.677Z" transform="translate(-5.414 503.497)" fill="#284758" stroke="#284758" stroke-linecap="round" stroke-linejoin="bevel" stroke-width="1"/>
      <path id="Path_3412" data-name="Path 3412" d="M0,0,29.055-.552l-.043,2.3L-.043,2.3Z" transform="translate(145.699 857.642) rotate(-28.142)" fill="#284758" stroke="#284758" stroke-linecap="round" stroke-width="1"/>
      <path id="Path_3413" data-name="Path 3413" d="M0,0,2.3-.043,1.744,29.014l-2.3.043Z" transform="matrix(0.472, -0.882, 0.882, 0.472, 118.933, 852.605)" fill="#284758" stroke="#284758" stroke-linecap="round" stroke-width="1"/>
      <path id="Path_888" data-name="Path 888" d="M72.5,452.527c-16.773-105.28-.169-210.175,0-211.223l1.67.3c-.17,1.044-16.725,105.659,0,210.636Z" transform="translate(-2.356 502.94)" fill="#284758" stroke="#284758" stroke-linecap="round" stroke-linejoin="bevel" stroke-width="1"/>
      <path id="Path_889" data-name="Path 889" d="M71.115,264.413l24.8-31.494.523,2.32-24.8,31.494Z" transform="translate(-2.577 502.872)" fill="#284758" stroke="#284758" stroke-linecap="round" stroke-linejoin="bevel" stroke-width="1"/>
      <path id="Path_890" data-name="Path 890" d="M43.07,252.735l.523-2.044,24.8,27.769-.523,2.044Z" transform="translate(-1.561 503.017)" fill="#284758" stroke="#284758" stroke-linecap="round" stroke-linejoin="bevel" stroke-width="1"/>
      <path id="Path_891" data-name="Path 891" d="M801.23,451.262c12.258-161.83.123-323.069,0-324.678l-.893.333c.123,1.606,12.231,162.529,0,324.019Z" transform="translate(-29.008 502)" fill="#3f3d56" stroke="#3f3d56" stroke-miterlimit="10" stroke-width="1"/>
      <path id="Path_3414" data-name="Path 3414" d="M0,0,56.761-1.078,56.73.6-.031,1.676Z" transform="translate(776.627 730.971) rotate(-28.157)" fill="#3f3d56"/>
      <path id="Path_892" data-name="Path 892" d="M748.664,207.6l.854-2.045,55.462,37.981-.854,2.045Z" transform="translate(-27.135 502.647)" fill="#3f3d56"/>
      <path id="Path_893" data-name="Path 893" d="M875.2,451.576c9.615-58.562.1-116.912,0-117.494l-1.87.322c.1.579,9.559,58.623,0,116.857Z" transform="translate(-31.654 503.701)" fill="#3f3d56"/>
      <path id="Path_3415" data-name="Path 3415" d="M0,0,2.3-.043,1.744,29.012l-2.3.043Z" transform="matrix(0.472, -0.882, 0.882, 0.472, 821.433, 867.677)" fill="#3f3d56"/>
      <path id="Path_894" data-name="Path 894" d="M877.5,381.894l17.721-12.137.731,1.748-17.721,12.137Z" transform="translate(-31.805 503.995)" fill="#3f3d56"/>
      <path id="Path_871" data-name="Path 871" d="M589.106,101.527l8.872-7.423c-6.892-.8-9.724,3.136-10.883,6.249-5.385-2.339-11.247.727-11.247.727l17.751,6.742A14.008,14.008,0,0,0,589.106,101.527Z" transform="translate(-45.911 465.833)" fill="#284758" stroke="#284758" stroke-linecap="round" stroke-linejoin="round" stroke-width="1"/>
      <path id="Path_872" data-name="Path 872" d="M364.105,36.527l8.872-7.423c-6.892-.8-9.724,3.137-10.883,6.249-5.384-2.339-11.247.727-11.247.727L368.6,42.821A14.009,14.009,0,0,0,364.105,36.527Z" transform="translate(-35.902 448.807)" fill="#284758" stroke="#284758" stroke-linecap="round" stroke-linejoin="round" stroke-width="1"/>
      <path id="Path_873" data-name="Path 873" d="M731.106,7.527,739.978.1c-6.892-.8-9.724,3.137-10.883,6.249-5.385-2.339-11.247.727-11.247.727L735.6,13.821A14.008,14.008,0,0,0,731.106,7.527Z" transform="translate(30.555 461.183)" fill="#284758" stroke="#284758" stroke-linecap="round" stroke-linejoin="round" stroke-width="1"/>
      <path id="Path_3399" data-name="Path 3399" d="M71.025,275.91c1.518-30.855,25.913-55.384,55.785-55.384,1.7,0,3.374.093,5.033.248,20.6-37.073,66.026-49.657,101.464-28.108a76.012,76.012,0,0,1,26.833,28.045c1.4-.11,2.809-.184,4.236-.184,29.872,0,54.266,24.529,55.784,55.384" transform="translate(-56.15 -132.638)" fill="#fff"/>
      <path id="Path_3400" data-name="Path 3400" d="M71.025,239.293c.925-18.807,15.794-33.758,34-33.758,1.035,0,2.057.056,3.068.151,12.555-22.6,40.244-30.267,61.845-17.133A46.331,46.331,0,0,1,186.3,205.648c.853-.067,1.712-.112,2.582-.112,18.207,0,33.077,14.951,34,33.758" transform="translate(95.022 145.811)" fill="#fff"/>
      <path id="Path_3401" data-name="Path 3401" d="M71.025,239.293c.925-18.807,15.794-33.758,34-33.758,1.035,0,2.057.056,3.068.151,12.555-22.6,40.244-30.267,61.845-17.133A46.331,46.331,0,0,1,186.3,205.648c.853-.067,1.712-.112,2.582-.112,18.207,0,33.077,14.951,34,33.758" transform="translate(741.443 145.811)" fill="#fff"/>
      <path id="Path_782" data-name="Path 782" d="M746.975,115.568c.835-16.691,14.015-29.777,29.992-29.777.913,0,1.814.05,2.707.133,11.075-19.932,35.5-26.7,54.551-15.112A40.876,40.876,0,0,1,848.651,85.89c.752-.059,1.51-.1,2.277-.1,15.977,0,29.157,13.085,29.991,29.777" transform="translate(-32.867 112.554)" fill="#fff"/>
      <path id="Path_786" data-name="Path 786" d="M0,75.01C1.13,52.426,18.963,34.721,40.581,34.721c1.235,0,2.454.067,3.662.18,14.985-26.969,48.03-36.124,73.81-20.448a55.306,55.306,0,0,1,19.521,20.4c1.018-.08,2.043-.134,3.081-.134,21.618,0,39.451,17.706,40.581,40.289" transform="translate(576.969 -6.794)" fill="#fff"/>
      <path id="Path_3397" data-name="Path 3397" d="M0,46.28C.654,33.208,10.977,22.959,23.49,22.959c.715,0,1.421.039,2.12.1,8.674-15.611,27.8-20.91,42.725-11.836a32.014,32.014,0,0,1,11.3,11.809c.589-.046,1.183-.077,1.783-.077,12.513,0,22.836,10.249,23.49,23.321" transform="translate(498.137 42.279)" fill="#fff"/>
      <path id="Path_3402" data-name="Path 3402" d="M71.025,206.3c.391-7.951,6.677-14.272,14.375-14.272.437,0,.869.024,1.3.064a18.67,18.67,0,0,1,26.146-7.243,19.587,19.587,0,0,1,6.915,7.227c.361-.028.724-.048,1.092-.048,7.7,0,13.984,6.321,14.375,14.272" transform="translate(416.841 113.794)" fill="#fff"/>
    </g>
  </g>
</svg>
