<svg xmlns="http://www.w3.org/2000/svg" width="43.109" height="20.477" viewBox="0 0 43.109 20.477">
  <g id="Group_702" data-name="Group 702" transform="translate(-66 -260)">
    <g id="Group_696" data-name="Group 696" transform="translate(66 260)">
      <path id="Path_360" data-name="Path 360" d="M20.476,10.238a10.211,10.211,0,0,1-.744,3.838l0,.008h0a10.193,10.193,0,0,1-1.3,2.291q-.153.2-.316.4l-.12.142q-.311.361-.655.692-.08.077-.162.153l-.038.035a10.231,10.231,0,0,1-.838.688q-.293.217-.6.412l-.136.085q-.119.073-.24.142-.158.091-.32.176l-.131.068c-.064.033-.129.065-.194.1l-.034.016-.128.061a10.144,10.144,0,0,1-1.741.618l-.01,0-.118.029-.089.021-.011,0c-.061.014-.122.028-.183.04l-.1.022-.063.012-.079.015-.044.008-.1.018-.17.028-.123.018-.146.019-.04.005-.052.006-.1.012-.054.006-.1.01-.134.012-.164.012-.106.006c-.09,0-.181.008-.271.011l-.136,0h-.137a10.269,10.269,0,0,1-1.377-.092q-.5-.067-.988-.182l-.039-.009-.1-.024-.086-.022a10.156,10.156,0,0,1-2.139-.824l-.01-.005-.058-.031-.128-.068q-.361-.2-.7-.425-.088-.058-.174-.117l-.055-.038-.057-.04-.149-.108q-.307-.225-.6-.473a10.291,10.291,0,0,1-1.792-1.995q-.266-.387-.5-.8a10.239,10.239,0,1,1,19.183-4.986Z" transform="translate(0)" fill="#e4e4e4"/>
      <path id="Path_361" data-name="Path 361" d="M392.35,215.444l.1-.024.086-.022c0-.06,0-.127.006-.2.018-.562.06-1.467.159-2.558q.008-.088.016-.177c.035-.37.077-.758.127-1.161,0-.013,0-.026,0-.04.04-.327.086-.662.138-1q.054-.358.117-.725l.009-.051c.012-.071.025-.141.037-.212q.053-.3.113-.594c.14-.7.306-1.4.5-2.083a16.686,16.686,0,0,1,.743-2.078,10.267,10.267,0,0,1,.81-1.509l.014-.021a5.792,5.792,0,0,1,1.373-1.49l-.108-.147a5.949,5.949,0,0,0-1.37,1.457l-.006.009a9.919,9.919,0,0,0-.815,1.462,15.976,15.976,0,0,0-.778,2.1q-.3,1-.535,2.168-.083.411-.159.843l-.025.148v0c-.013.076-.025.151-.038.228q-.047.289-.089.574-.064.439-.117.863-.017.14-.033.278-.023.194-.043.384-.029.264-.052.516l0,.046-.007.08C392.4,213.834,392.362,214.906,392.35,215.444Z" transform="translate(-380.465 -195.251)" opacity="0.2" style="isolation: isolate"/>
      <path id="Path_362" data-name="Path 362" d="M469.01,472.856l.01-.005.186-.1c.02-.242.047-.507.083-.787.008-.058.015-.116.023-.175l.013-.1c.036-.246.078-.5.129-.755a6.223,6.223,0,0,1,1.121-2.761c.031-.035.062-.069.094-.1a2.051,2.051,0,0,1,.261-.229l-.108-.147a2.322,2.322,0,0,0-.357.327q-.057.063-.111.131a6.452,6.452,0,0,0-1.057,2.607c-.053.253-.1.5-.136.75-.01.064-.019.128-.028.191C469.075,472.123,469.036,472.516,469.01,472.856Z" transform="translate(-454.803 -453.533)" opacity="0.2" style="isolation: isolate"/>
      <circle id="Ellipse_41" data-name="Ellipse 41" cx="0.911" cy="0.911" r="0.911" transform="translate(16.347 4.419)" opacity="0.2" style="isolation: isolate"/>
      <circle id="Ellipse_42" data-name="Ellipse 42" cx="0.911" cy="0.911" r="0.911" transform="translate(16.053 12.265)" opacity="0.2" style="isolation: isolate"/>
      <path id="Path_363" data-name="Path 363" d="M411.329,166.627a4.049,4.049,0,0,1-.233,2.078,3.69,3.69,0,0,1-.7-3.949A4.049,4.049,0,0,1,411.329,166.627Z" transform="translate(-397.689 -159.765)" opacity="0.2" style="isolation: isolate"/>
      <path id="Path_364" data-name="Path 364" d="M483.531,269.776a4.068,4.068,0,0,1-2.085.136,3.712,3.712,0,0,1,3.766-1.377A4.069,4.069,0,0,1,483.531,269.776Z" transform="translate(-466.862 -260.326)" opacity="0.2" style="isolation: isolate"/>
      <path id="Path_365" data-name="Path 365" d="M509.285,511.614a.764.764,0,1,1,1.177-.873A2.838,2.838,0,0,1,509.285,511.614Z" transform="translate(-492.44 -495.216)" opacity="0.2" style="isolation: isolate"/>
      <path id="Path_366" data-name="Path 366" d="M439.96,536.27l.037.019C439.993,536.328,439.985,536.353,439.96,536.27Z" transform="translate(-426.633 -520.026)" fill="#2f2e41"/>
      <path id="Path_367" data-name="Path 367" d="M441.192,534.443s0,.009,0,.013l-.013-.007s0-.008,0-.013C441.184,534.384,441.181,534.321,441.192,534.443Z" transform="translate(-427.816 -518.186)" fill="#2f2e41"/>
      <circle id="Ellipse_43" data-name="Ellipse 43" cx="4.974" cy="4.974" r="4.974" transform="translate(4.467 4.86)" fill="#353535"/>
      <circle id="Ellipse_44" data-name="Ellipse 44" cx="3.012" cy="3.012" r="3.012" transform="translate(6.838 8.58)" fill="#fff9f5"/>
      <path id="Path_368" data-name="Path 368" d="M150.452,444.736h0l-.7.168-1.459.35-.2.048-2.218.532-.188.045-5.382,1.292a10.086,10.086,0,0,1-1.065-.479l-.01-.005-.058-.031-.128-.068q-.361-.2-.7-.425l-.174-.117-.055-.038-.057-.04-.149-.108a4.9,4.9,0,0,1,3.013-1.927,1.689,1.689,0,0,0,1.128-1.883,4.445,4.445,0,0,0-.044-.52,5.07,5.07,0,0,0-.181-.81l3.012.1.311.716a1.622,1.622,0,0,0-.008.237,1.43,1.43,0,0,0,.834,1.212c.058.032.118.062.178.089a4.719,4.719,0,0,0,1.6.356,3.078,3.078,0,0,1,.79.015q.1.014.185.035a2.668,2.668,0,0,1,.973.435,2.772,2.772,0,0,1,.315.261A2.507,2.507,0,0,1,150.452,444.736Z" transform="translate(-133.723 -427.37)" fill="#fff9f5"/>
      <path id="Path_369" data-name="Path 369" d="M482,567.278l-.038.035a10.238,10.238,0,0,1-.838.688q-.293.217-.6.412l-.136.085q-.119.073-.24.142-.158.091-.32.176l-.131.068c-.064.033-.129.065-.194.1l-.034.016-.128-.106,1.5-1.839.3-.37a.842.842,0,0,1,.4.2,3.96,3.96,0,0,1,.433.374Z" transform="translate(-464.82 -549.515)" fill="#fff9f5"/>
      <path id="Path_370" data-name="Path 370" d="M191.436,554.409a.349.349,0,0,1-.017.056,10.262,10.262,0,0,1-.838.688,3.572,3.572,0,0,1-.781.186s.023.114.043.311q-.119.073-.24.142-.158.091-.32.176l-.131.068c-.064.033-.129.065-.194.1l-.034.016-.128.061a10.124,10.124,0,0,1-1.741.618l-.01,0-.118.029-.089.021-.011,0c-.061.014-.122.028-.183.04l-.1.021-.063.012-.079.015-.044.008-.1.018-.17.028-.123.018-.146.019-.04.005-.052.006-.1.012-.054.006-.1.01-.134.011-.164.012-.106.006c-.09,0-.181.008-.271.011l-.136,0h-.137a10.263,10.263,0,0,1-1.377-.092q-.5-.067-.988-.182l-.039-.009-.1-.024-.086-.022a10.162,10.162,0,0,1-2.139-.824l-.01-.005-.058-.031c1.663-.387,4.29-1,6.57-1.522l.191-.044c.842-.193,1.631-.373,2.3-.524l.2-.045c.717-.161,1.274-.283,1.576-.345q.122-.028.247-.043l.63.977Z" transform="translate(-174.276 -536.666)" fill="#353535"/>
      <circle id="Ellipse_45" data-name="Ellipse 45" cx="1.482" cy="1.482" r="1.482" transform="translate(3.409 4.754)" fill="#353535"/>
      <circle id="Ellipse_46" data-name="Ellipse 46" cx="1.482" cy="1.482" r="1.482" transform="translate(12.51 4.33)" fill="#353535"/>
      <path id="Path_371" data-name="Path 371" d="M399.273,123.477A1.481,1.481,0,0,1,400.6,122a1.482,1.482,0,1,0,0,2.946A1.481,1.481,0,0,1,399.273,123.477Z" transform="translate(-386.869 -118.3)" fill="#353535"/>
      <path id="Path_372" data-name="Path 372" d="M85.933,182.1a1.482,1.482,0,0,1-.086-1.978,1.482,1.482,0,1,0,2.062,2.1A1.482,1.482,0,0,1,85.933,182.1Z" transform="translate(-82.698 -174.664)" fill="#353535"/>
      <path id="Path_373" data-name="Path 373" d="M210.044,247.777c-1.753,0-3.175.829-3.175,1.852a1.506,1.506,0,0,0,.757,1.2l.611-.443-.166.694c.069.032.139.063.213.091l.913-1.065v1.309a5.322,5.322,0,0,0,.847.067c1.753,0,3.175-.829,3.175-1.852S211.8,247.777,210.044,247.777Z" transform="translate(-200.603 -240.272)" fill="#353535"/>
      <path id="Path_374" data-name="Path 374" d="M412.57,191.876s-.23,1.058,1.208,1.482Z" transform="translate(-400.06 -186.064)" fill="#353535"/>
      <path id="Path_375" data-name="Path 375" d="M172.989,198.235s.529,1.183-1.058,1.712Z" transform="translate(-166.723 -192.23)" fill="#353535"/>
      <ellipse id="Ellipse_47" data-name="Ellipse 47" cx="0.251" cy="0.602" rx="0.251" ry="0.602" transform="matrix(0.963, -0.27, 0.27, 0.963, 6.484, 11.683)" fill="#fff9f5"/>
      <ellipse id="Ellipse_48" data-name="Ellipse 48" cx="0.602" cy="0.251" rx="0.602" ry="0.251" transform="translate(12.626 12.279) rotate(-86.476)" fill="#fff9f5"/>
    </g>
    <g id="Group_697" data-name="Group 697" transform="translate(76.777 260)">
      <path id="Path_360-2" data-name="Path 360" d="M20.476,10.238a10.211,10.211,0,0,1-.744,3.838l0,.008h0a10.193,10.193,0,0,1-1.3,2.291q-.153.2-.316.4l-.12.142q-.311.361-.655.692-.08.077-.162.153l-.038.035a10.231,10.231,0,0,1-.838.688q-.293.217-.6.412l-.136.085q-.119.073-.24.142-.158.091-.32.176l-.131.068c-.064.033-.129.065-.194.1l-.034.016-.128.061a10.144,10.144,0,0,1-1.741.618l-.01,0-.118.029-.089.021-.011,0c-.061.014-.122.028-.183.04l-.1.022-.063.012-.079.015-.044.008-.1.018-.17.028-.123.018-.146.019-.04.005-.052.006-.1.012-.054.006-.1.01-.134.012-.164.012-.106.006c-.09,0-.181.008-.271.011l-.136,0h-.137a10.269,10.269,0,0,1-1.377-.092q-.5-.067-.988-.182l-.039-.009-.1-.024-.086-.022a10.156,10.156,0,0,1-2.139-.824l-.01-.005-.058-.031-.128-.068q-.361-.2-.7-.425-.088-.058-.174-.117l-.055-.038-.057-.04-.149-.108q-.307-.225-.6-.473a10.291,10.291,0,0,1-1.792-1.995q-.266-.387-.5-.8a10.239,10.239,0,1,1,19.183-4.986Z" transform="translate(0)" fill="#a7c2cc"/>
      <path id="Path_361-2" data-name="Path 361" d="M392.35,215.444l.1-.024.086-.022c0-.06,0-.127.006-.2.018-.562.06-1.467.159-2.558q.008-.088.016-.177c.035-.37.077-.758.127-1.161,0-.013,0-.026,0-.04.04-.327.086-.662.138-1q.054-.358.117-.725l.009-.051c.012-.071.025-.141.037-.212q.053-.3.113-.594c.14-.7.306-1.4.5-2.083a16.686,16.686,0,0,1,.743-2.078,10.267,10.267,0,0,1,.81-1.509l.014-.021a5.792,5.792,0,0,1,1.373-1.49l-.108-.147a5.949,5.949,0,0,0-1.37,1.457l-.006.009a9.919,9.919,0,0,0-.815,1.462,15.976,15.976,0,0,0-.778,2.1q-.3,1-.535,2.168-.083.411-.159.843l-.025.148v0c-.013.076-.025.151-.038.228q-.047.289-.089.574-.064.439-.117.863-.017.14-.033.278-.023.194-.043.384-.029.264-.052.516l0,.046-.007.08C392.4,213.834,392.362,214.906,392.35,215.444Z" transform="translate(-380.465 -195.251)" opacity="0.2" style="isolation: isolate"/>
      <path id="Path_362-2" data-name="Path 362" d="M469.01,472.856l.01-.005.186-.1c.02-.242.047-.507.083-.787.008-.058.015-.116.023-.175l.013-.1c.036-.246.078-.5.129-.755a6.223,6.223,0,0,1,1.121-2.761c.031-.035.062-.069.094-.1a2.051,2.051,0,0,1,.261-.229l-.108-.147a2.322,2.322,0,0,0-.357.327q-.057.063-.111.131a6.452,6.452,0,0,0-1.057,2.607c-.053.253-.1.5-.136.75-.01.064-.019.128-.028.191C469.075,472.123,469.036,472.516,469.01,472.856Z" transform="translate(-454.803 -453.533)" opacity="0.2" style="isolation: isolate"/>
      <circle id="Ellipse_41-2" data-name="Ellipse 41" cx="0.911" cy="0.911" r="0.911" transform="translate(16.347 4.419)" opacity="0.2" style="isolation: isolate"/>
      <circle id="Ellipse_42-2" data-name="Ellipse 42" cx="0.911" cy="0.911" r="0.911" transform="translate(16.053 12.265)" opacity="0.2" style="isolation: isolate"/>
      <path id="Path_363-2" data-name="Path 363" d="M411.329,166.627a4.049,4.049,0,0,1-.233,2.078,3.69,3.69,0,0,1-.7-3.949A4.049,4.049,0,0,1,411.329,166.627Z" transform="translate(-397.689 -159.765)" opacity="0.2" style="isolation: isolate"/>
      <path id="Path_364-2" data-name="Path 364" d="M483.531,269.776a4.068,4.068,0,0,1-2.085.136,3.712,3.712,0,0,1,3.766-1.377A4.069,4.069,0,0,1,483.531,269.776Z" transform="translate(-466.862 -260.326)" opacity="0.2" style="isolation: isolate"/>
      <path id="Path_365-2" data-name="Path 365" d="M509.285,511.614a.764.764,0,1,1,1.177-.873A2.838,2.838,0,0,1,509.285,511.614Z" transform="translate(-492.44 -495.216)" opacity="0.2" style="isolation: isolate"/>
      <path id="Path_366-2" data-name="Path 366" d="M439.96,536.27l.037.019C439.993,536.328,439.985,536.353,439.96,536.27Z" transform="translate(-426.633 -520.026)" fill="#2f2e41"/>
      <path id="Path_367-2" data-name="Path 367" d="M441.192,534.443s0,.009,0,.013l-.013-.007s0-.008,0-.013C441.184,534.384,441.181,534.321,441.192,534.443Z" transform="translate(-427.816 -518.186)" fill="#2f2e41"/>
      <circle id="Ellipse_43-2" data-name="Ellipse 43" cx="4.974" cy="4.974" r="4.974" transform="translate(4.467 4.86)" fill="#353535"/>
      <circle id="Ellipse_44-2" data-name="Ellipse 44" cx="3.012" cy="3.012" r="3.012" transform="translate(6.838 8.58)" fill="#fff9f5"/>
      <path id="Path_368-2" data-name="Path 368" d="M150.452,444.736h0l-.7.168-1.459.35-.2.048-2.218.532-.188.045-5.382,1.292a10.086,10.086,0,0,1-1.065-.479l-.01-.005-.058-.031-.128-.068q-.361-.2-.7-.425l-.174-.117-.055-.038-.057-.04-.149-.108a4.9,4.9,0,0,1,3.013-1.927,1.689,1.689,0,0,0,1.128-1.883,4.445,4.445,0,0,0-.044-.52,5.07,5.07,0,0,0-.181-.81l3.012.1.311.716a1.622,1.622,0,0,0-.008.237,1.43,1.43,0,0,0,.834,1.212c.058.032.118.062.178.089a4.719,4.719,0,0,0,1.6.356,3.078,3.078,0,0,1,.79.015q.1.014.185.035a2.668,2.668,0,0,1,.973.435,2.772,2.772,0,0,1,.315.261A2.507,2.507,0,0,1,150.452,444.736Z" transform="translate(-133.723 -427.37)" fill="#fff9f5"/>
      <path id="Path_369-2" data-name="Path 369" d="M482,567.278l-.038.035a10.238,10.238,0,0,1-.838.688q-.293.217-.6.412l-.136.085q-.119.073-.24.142-.158.091-.32.176l-.131.068c-.064.033-.129.065-.194.1l-.034.016-.128-.106,1.5-1.839.3-.37a.842.842,0,0,1,.4.2,3.96,3.96,0,0,1,.433.374Z" transform="translate(-464.82 -549.515)" fill="#fff9f5"/>
      <path id="Path_370-2" data-name="Path 370" d="M191.436,554.409a.349.349,0,0,1-.017.056,10.262,10.262,0,0,1-.838.688,3.572,3.572,0,0,1-.781.186s.023.114.043.311q-.119.073-.24.142-.158.091-.32.176l-.131.068c-.064.033-.129.065-.194.1l-.034.016-.128.061a10.124,10.124,0,0,1-1.741.618l-.01,0-.118.029-.089.021-.011,0c-.061.014-.122.028-.183.04l-.1.021-.063.012-.079.015-.044.008-.1.018-.17.028-.123.018-.146.019-.04.005-.052.006-.1.012-.054.006-.1.01-.134.011-.164.012-.106.006c-.09,0-.181.008-.271.011l-.136,0h-.137a10.263,10.263,0,0,1-1.377-.092q-.5-.067-.988-.182l-.039-.009-.1-.024-.086-.022a10.162,10.162,0,0,1-2.139-.824l-.01-.005-.058-.031c1.663-.387,4.29-1,6.57-1.522l.191-.044c.842-.193,1.631-.373,2.3-.524l.2-.045c.717-.161,1.274-.283,1.576-.345q.122-.028.247-.043l.63.977Z" transform="translate(-174.276 -536.666)" fill="#353535"/>
      <circle id="Ellipse_45-2" data-name="Ellipse 45" cx="1.482" cy="1.482" r="1.482" transform="translate(3.409 4.754)" fill="#353535"/>
      <circle id="Ellipse_46-2" data-name="Ellipse 46" cx="1.482" cy="1.482" r="1.482" transform="translate(12.51 4.33)" fill="#353535"/>
      <path id="Path_371-2" data-name="Path 371" d="M399.273,123.477A1.481,1.481,0,0,1,400.6,122a1.482,1.482,0,1,0,0,2.946A1.481,1.481,0,0,1,399.273,123.477Z" transform="translate(-386.869 -118.3)" fill="#353535"/>
      <path id="Path_372-2" data-name="Path 372" d="M85.933,182.1a1.482,1.482,0,0,1-.086-1.978,1.482,1.482,0,1,0,2.062,2.1A1.482,1.482,0,0,1,85.933,182.1Z" transform="translate(-82.698 -174.664)" fill="#353535"/>
      <path id="Path_373-2" data-name="Path 373" d="M210.044,247.777c-1.753,0-3.175.829-3.175,1.852a1.506,1.506,0,0,0,.757,1.2l.611-.443-.166.694c.069.032.139.063.213.091l.913-1.065v1.309a5.322,5.322,0,0,0,.847.067c1.753,0,3.175-.829,3.175-1.852S211.8,247.777,210.044,247.777Z" transform="translate(-200.603 -240.272)" fill="#353535"/>
      <path id="Path_374-2" data-name="Path 374" d="M412.57,191.876s-.23,1.058,1.208,1.482Z" transform="translate(-400.06 -186.064)" fill="#353535"/>
      <path id="Path_375-2" data-name="Path 375" d="M172.989,198.235s.529,1.183-1.058,1.712Z" transform="translate(-166.723 -192.23)" fill="#353535"/>
      <ellipse id="Ellipse_47-2" data-name="Ellipse 47" cx="0.251" cy="0.602" rx="0.251" ry="0.602" transform="matrix(0.963, -0.27, 0.27, 0.963, 6.484, 11.683)" fill="#fff9f5"/>
      <ellipse id="Ellipse_48-2" data-name="Ellipse 48" cx="0.602" cy="0.251" rx="0.602" ry="0.251" transform="translate(12.626 12.279) rotate(-86.476)" fill="#fff9f5"/>
    </g>
    <g id="Group_698" data-name="Group 698" transform="translate(88.632 260)">
      <path id="Path_360-3" data-name="Path 360" d="M20.476,10.238a10.211,10.211,0,0,1-.744,3.838l0,.008h0a10.193,10.193,0,0,1-1.3,2.291q-.153.2-.316.4l-.12.142q-.311.361-.655.692-.08.077-.162.153l-.038.035a10.231,10.231,0,0,1-.838.688q-.293.217-.6.412l-.136.085q-.119.073-.24.142-.158.091-.32.176l-.131.068c-.064.033-.129.065-.194.1l-.034.016-.128.061a10.144,10.144,0,0,1-1.741.618l-.01,0-.118.029-.089.021-.011,0c-.061.014-.122.028-.183.04l-.1.022-.063.012-.079.015-.044.008-.1.018-.17.028-.123.018-.146.019-.04.005-.052.006-.1.012-.054.006-.1.01-.134.012-.164.012-.106.006c-.09,0-.181.008-.271.011l-.136,0h-.137a10.269,10.269,0,0,1-1.377-.092q-.5-.067-.988-.182l-.039-.009-.1-.024-.086-.022a10.156,10.156,0,0,1-2.139-.824l-.01-.005-.058-.031-.128-.068q-.361-.2-.7-.425-.088-.058-.174-.117l-.055-.038-.057-.04-.149-.108q-.307-.225-.6-.473a10.291,10.291,0,0,1-1.792-1.995q-.266-.387-.5-.8a10.239,10.239,0,1,1,19.183-4.986Z" transform="translate(0)" fill="#f5e897"/>
      <path id="Path_361-3" data-name="Path 361" d="M392.35,215.444l.1-.024.086-.022c0-.06,0-.127.006-.2.018-.562.06-1.467.159-2.558q.008-.088.016-.177c.035-.37.077-.758.127-1.161,0-.013,0-.026,0-.04.04-.327.086-.662.138-1q.054-.358.117-.725l.009-.051c.012-.071.025-.141.037-.212q.053-.3.113-.594c.14-.7.306-1.4.5-2.083a16.686,16.686,0,0,1,.743-2.078,10.267,10.267,0,0,1,.81-1.509l.014-.021a5.792,5.792,0,0,1,1.373-1.49l-.108-.147a5.949,5.949,0,0,0-1.37,1.457l-.006.009a9.919,9.919,0,0,0-.815,1.462,15.976,15.976,0,0,0-.778,2.1q-.3,1-.535,2.168-.083.411-.159.843l-.025.148v0c-.013.076-.025.151-.038.228q-.047.289-.089.574-.064.439-.117.863-.017.14-.033.278-.023.194-.043.384-.029.264-.052.516l0,.046-.007.08C392.4,213.834,392.362,214.906,392.35,215.444Z" transform="translate(-380.465 -195.251)" opacity="0.2" style="isolation: isolate"/>
      <path id="Path_362-3" data-name="Path 362" d="M469.01,472.856l.01-.005.186-.1c.02-.242.047-.507.083-.787.008-.058.015-.116.023-.175l.013-.1c.036-.246.078-.5.129-.755a6.223,6.223,0,0,1,1.121-2.761c.031-.035.062-.069.094-.1a2.051,2.051,0,0,1,.261-.229l-.108-.147a2.322,2.322,0,0,0-.357.327q-.057.063-.111.131a6.452,6.452,0,0,0-1.057,2.607c-.053.253-.1.5-.136.75-.01.064-.019.128-.028.191C469.075,472.123,469.036,472.516,469.01,472.856Z" transform="translate(-454.803 -453.533)" opacity="0.2" style="isolation: isolate"/>
      <circle id="Ellipse_41-3" data-name="Ellipse 41" cx="0.911" cy="0.911" r="0.911" transform="translate(16.347 4.419)" opacity="0.2" style="isolation: isolate"/>
      <circle id="Ellipse_42-3" data-name="Ellipse 42" cx="0.911" cy="0.911" r="0.911" transform="translate(16.053 12.265)" opacity="0.2" style="isolation: isolate"/>
      <path id="Path_363-3" data-name="Path 363" d="M411.329,166.627a4.049,4.049,0,0,1-.233,2.078,3.69,3.69,0,0,1-.7-3.949A4.049,4.049,0,0,1,411.329,166.627Z" transform="translate(-397.689 -159.765)" opacity="0.2" style="isolation: isolate"/>
      <path id="Path_364-3" data-name="Path 364" d="M483.531,269.776a4.068,4.068,0,0,1-2.085.136,3.712,3.712,0,0,1,3.766-1.377A4.069,4.069,0,0,1,483.531,269.776Z" transform="translate(-466.862 -260.326)" opacity="0.2" style="isolation: isolate"/>
      <path id="Path_365-3" data-name="Path 365" d="M509.285,511.614a.764.764,0,1,1,1.177-.873A2.838,2.838,0,0,1,509.285,511.614Z" transform="translate(-492.44 -495.216)" opacity="0.2" style="isolation: isolate"/>
      <path id="Path_366-3" data-name="Path 366" d="M439.96,536.27l.037.019C439.993,536.328,439.985,536.353,439.96,536.27Z" transform="translate(-426.633 -520.026)" fill="#2f2e41"/>
      <path id="Path_367-3" data-name="Path 367" d="M441.192,534.443s0,.009,0,.013l-.013-.007s0-.008,0-.013C441.184,534.384,441.181,534.321,441.192,534.443Z" transform="translate(-427.816 -518.186)" fill="#2f2e41"/>
      <circle id="Ellipse_43-3" data-name="Ellipse 43" cx="4.974" cy="4.974" r="4.974" transform="translate(4.467 4.86)" fill="#353535"/>
      <circle id="Ellipse_44-3" data-name="Ellipse 44" cx="3.012" cy="3.012" r="3.012" transform="translate(6.838 8.58)" fill="#fff9f5"/>
      <path id="Path_368-3" data-name="Path 368" d="M150.452,444.736h0l-.7.168-1.459.35-.2.048-2.218.532-.188.045-5.382,1.292a10.086,10.086,0,0,1-1.065-.479l-.01-.005-.058-.031-.128-.068q-.361-.2-.7-.425l-.174-.117-.055-.038-.057-.04-.149-.108a4.9,4.9,0,0,1,3.013-1.927,1.689,1.689,0,0,0,1.128-1.883,4.445,4.445,0,0,0-.044-.52,5.07,5.07,0,0,0-.181-.81l3.012.1.311.716a1.622,1.622,0,0,0-.008.237,1.43,1.43,0,0,0,.834,1.212c.058.032.118.062.178.089a4.719,4.719,0,0,0,1.6.356,3.078,3.078,0,0,1,.79.015q.1.014.185.035a2.668,2.668,0,0,1,.973.435,2.772,2.772,0,0,1,.315.261A2.507,2.507,0,0,1,150.452,444.736Z" transform="translate(-133.723 -427.37)" fill="#fff9f5"/>
      <path id="Path_369-3" data-name="Path 369" d="M482,567.278l-.038.035a10.238,10.238,0,0,1-.838.688q-.293.217-.6.412l-.136.085q-.119.073-.24.142-.158.091-.32.176l-.131.068c-.064.033-.129.065-.194.1l-.034.016-.128-.106,1.5-1.839.3-.37a.842.842,0,0,1,.4.2,3.96,3.96,0,0,1,.433.374Z" transform="translate(-464.82 -549.515)" fill="#fff9f5"/>
      <path id="Path_370-3" data-name="Path 370" d="M191.436,554.409a.349.349,0,0,1-.017.056,10.262,10.262,0,0,1-.838.688,3.572,3.572,0,0,1-.781.186s.023.114.043.311q-.119.073-.24.142-.158.091-.32.176l-.131.068c-.064.033-.129.065-.194.1l-.034.016-.128.061a10.124,10.124,0,0,1-1.741.618l-.01,0-.118.029-.089.021-.011,0c-.061.014-.122.028-.183.04l-.1.021-.063.012-.079.015-.044.008-.1.018-.17.028-.123.018-.146.019-.04.005-.052.006-.1.012-.054.006-.1.01-.134.011-.164.012-.106.006c-.09,0-.181.008-.271.011l-.136,0h-.137a10.263,10.263,0,0,1-1.377-.092q-.5-.067-.988-.182l-.039-.009-.1-.024-.086-.022a10.162,10.162,0,0,1-2.139-.824l-.01-.005-.058-.031c1.663-.387,4.29-1,6.57-1.522l.191-.044c.842-.193,1.631-.373,2.3-.524l.2-.045c.717-.161,1.274-.283,1.576-.345q.122-.028.247-.043l.63.977Z" transform="translate(-174.276 -536.666)" fill="#353535"/>
      <circle id="Ellipse_45-3" data-name="Ellipse 45" cx="1.482" cy="1.482" r="1.482" transform="translate(3.409 4.754)" fill="#353535"/>
      <circle id="Ellipse_46-3" data-name="Ellipse 46" cx="1.482" cy="1.482" r="1.482" transform="translate(12.51 4.33)" fill="#353535"/>
      <path id="Path_371-3" data-name="Path 371" d="M399.273,123.477A1.481,1.481,0,0,1,400.6,122a1.482,1.482,0,1,0,0,2.946A1.481,1.481,0,0,1,399.273,123.477Z" transform="translate(-386.869 -118.3)" fill="#353535"/>
      <path id="Path_372-3" data-name="Path 372" d="M85.933,182.1a1.482,1.482,0,0,1-.086-1.978,1.482,1.482,0,1,0,2.062,2.1A1.482,1.482,0,0,1,85.933,182.1Z" transform="translate(-82.698 -174.664)" fill="#353535"/>
      <path id="Path_373-3" data-name="Path 373" d="M210.044,247.777c-1.753,0-3.175.829-3.175,1.852a1.506,1.506,0,0,0,.757,1.2l.611-.443-.166.694c.069.032.139.063.213.091l.913-1.065v1.309a5.322,5.322,0,0,0,.847.067c1.753,0,3.175-.829,3.175-1.852S211.8,247.777,210.044,247.777Z" transform="translate(-200.603 -240.272)" fill="#353535"/>
      <path id="Path_374-3" data-name="Path 374" d="M412.57,191.876s-.23,1.058,1.208,1.482Z" transform="translate(-400.06 -186.064)" fill="#353535"/>
      <path id="Path_375-3" data-name="Path 375" d="M172.989,198.235s.529,1.183-1.058,1.712Z" transform="translate(-166.723 -192.23)" fill="#353535"/>
      <ellipse id="Ellipse_47-3" data-name="Ellipse 47" cx="0.251" cy="0.602" rx="0.251" ry="0.602" transform="matrix(0.963, -0.27, 0.27, 0.963, 6.484, 11.683)" fill="#fff9f5"/>
      <ellipse id="Ellipse_48-3" data-name="Ellipse 48" cx="0.602" cy="0.251" rx="0.602" ry="0.251" transform="translate(12.626 12.279) rotate(-86.476)" fill="#fff9f5"/>
    </g>
  </g>
</svg>
