<svg xmlns="http://www.w3.org/2000/svg" width="22.832" height="28.346" viewBox="0 0 22.832 28.346">
  <g id="Group_824" data-name="Group 824" transform="translate(-169.519 -319.311)">
    <path id="Path_910" data-name="Path 910" d="M173.759,343.772h13.556a1.616,1.616,0,0,0,1.577-1.652V321.465a1.616,1.616,0,0,0-1.577-1.652H171.6c-2.01-.026-1.486.446-1.577,1.652v17.024a1.709,1.709,0,0,0,.239.875l2.162,3.63A1.563,1.563,0,0,0,173.759,343.772Z" transform="translate(-0.001)" fill="none" stroke="#fff" stroke-linecap="round" stroke-miterlimit="10" stroke-width="1"/>
    <line id="Line_78" data-name="Line 78" x2="12.301" transform="translate(173.474 325.184)" fill="none" stroke="#fff" stroke-linecap="round" stroke-linejoin="round" stroke-width="1"/>
    <line id="Line_79" data-name="Line 79" x2="12.301" transform="translate(173.474 328.591)" fill="none" stroke="#fff" stroke-linecap="round" stroke-linejoin="round" stroke-width="1"/>
    <line id="Line_80" data-name="Line 80" x2="11.066" transform="translate(173.432 331.859)" fill="none" stroke="#fff" stroke-linecap="round" stroke-linejoin="round" stroke-width="1"/>
    <g id="Group_823" data-name="Group 823" transform="translate(182.46 333.763)">
      <g id="Group_822" data-name="Group 822" transform="translate(0 0)">
        <path id="Path_911" data-name="Path 911" d="M194.424,346.962l6.379,9.5a1.213,1.213,0,0,1-.309,1.668h0a1.169,1.169,0,0,1-1.641-.314l-6.379-9.5Z" transform="translate(-191.708 -344.943)" fill="#294658" stroke="#fff" stroke-linecap="round" stroke-linejoin="round" stroke-width="1"/>
        <path id="Path_912" data-name="Path 912" d="M193.8,345.487l-1.887,1.309-.741-3.267Z" transform="translate(-191.17 -343.53)" fill="#294658" stroke="#fff" stroke-linecap="round" stroke-linejoin="round" stroke-width="1"/>
      </g>
      <line id="Line_81" data-name="Line 81" y1="1.378" x2="1.933" transform="translate(6.431 10.427)" fill="#fbf9fa" stroke="#fff" stroke-linecap="round" stroke-linejoin="round" stroke-width="1"/>
      <path id="Path_913" data-name="Path 913" d="M191.584,344.827l.6-.393-.911-.463Z" transform="translate(-191.212 -343.712)" fill="#294658" stroke="#fff" stroke-linecap="round" stroke-linejoin="round" stroke-width="1"/>
    </g>
    <path id="Path_914" data-name="Path 914" d="M170.017,353.877" transform="translate(0 -14.028)" fill="#1a1818" stroke="#fff" stroke-linecap="round" stroke-linejoin="round" stroke-width="1"/>
    <path id="Path_915" data-name="Path 915" d="M170.359,352.078H175.6l-2.318,4.847" transform="translate(-0.141 -13.287)" fill="none" stroke="#fff" stroke-linecap="round" stroke-linejoin="round" stroke-width="1"/>
  </g>
</svg>
