<svg xmlns="http://www.w3.org/2000/svg" width="46" height="46" viewBox="0 0 46 46">
  <g id="Group_889" data-name="Group 889" transform="translate(-39 -515)">
    <g id="Group_750" data-name="Group 750" transform="translate(39 515)">
      <rect id="Rectangle_125" data-name="Rectangle 125" width="46" height="46" rx="8" fill="#284558"/>
      <path id="Icon_metro-file-pdf" data-name="Icon metro-file-pdf" d="M21.065,6.905a2.954,2.954,0,0,1,.609.965,2.93,2.93,0,0,1,.254,1.117V23.612a1.214,1.214,0,0,1-1.219,1.219H3.647a1.214,1.214,0,0,1-1.219-1.219V3.3A1.214,1.214,0,0,1,3.647,2.081H15.022a2.931,2.931,0,0,1,1.117.254,2.954,2.954,0,0,1,.965.609Zm-5.637-3.1V8.581H20.2a1.387,1.387,0,0,0-.279-.521L15.948,4.087a1.387,1.387,0,0,0-.521-.279Zm4.875,19.4v-13H15.022A1.214,1.214,0,0,1,13.8,8.987V3.706H4.053v19.5H20.3Zm-6.525-7.528a9.659,9.659,0,0,0,1.066.711,12.6,12.6,0,0,1,1.485-.089q1.866,0,2.247.622a.614.614,0,0,1,.025.66.037.037,0,0,1-.013.025l-.025.025v.013q-.076.482-.9.482a5.237,5.237,0,0,1-1.46-.254,9.257,9.257,0,0,1-1.65-.673,22.86,22.86,0,0,0-4.977,1.054Q7.633,21.581,6.5,21.581a.738.738,0,0,1-.355-.089l-.3-.152q-.013-.013-.076-.063a.525.525,0,0,1-.076-.457A2.757,2.757,0,0,1,6.4,19.658a6.135,6.135,0,0,1,1.676-1.225.185.185,0,0,1,.292.076.073.073,0,0,1,.025.051q.66-1.079,1.358-2.5a19.376,19.376,0,0,0,1.32-3.326,10.262,10.262,0,0,1-.387-2.025,4.936,4.936,0,0,1,.083-1.619q.14-.508.533-.508h.279a.535.535,0,0,1,.444.19,1.014,1.014,0,0,1,.114.863.275.275,0,0,1-.051.1.33.33,0,0,1,.013.1v.381a16.624,16.624,0,0,1-.178,2.437,6.423,6.423,0,0,0,1.854,3.021ZM6.465,20.9A5.606,5.606,0,0,0,8.2,18.89a7.237,7.237,0,0,0-1.111,1.066A4.22,4.22,0,0,0,6.465,20.9Zm5.053-11.68a3.775,3.775,0,0,0-.025,1.676q.013-.089.089-.559,0-.038.089-.546a.286.286,0,0,1,.051-.1.037.037,0,0,1-.013-.025.026.026,0,0,0-.006-.019.026.026,0,0,1-.006-.019.731.731,0,0,0-.165-.457.037.037,0,0,1-.013.025v.025ZM9.943,17.607a18.621,18.621,0,0,1,3.605-1.028,1.916,1.916,0,0,1-.165-.121,2.273,2.273,0,0,1-.2-.171,6.725,6.725,0,0,1-1.612-2.234,16.965,16.965,0,0,1-1.054,2.5q-.381.711-.571,1.054Zm8.2-.2a3.038,3.038,0,0,0-1.777-.3,4.8,4.8,0,0,0,1.574.355,1.231,1.231,0,0,0,.229-.013q0-.013-.025-.038Z" transform="translate(10.369 9.294)" fill="#fff"/>
    </g>
  </g>
</svg>
