<svg xmlns="http://www.w3.org/2000/svg" viewBox="0 0 30 48" width="30" height="48">
	<style>
		tspan { white-space:pre }
		.shp0 { fill: #294658 } 
	</style>
	<g id="Group_657">
		<path id="Path_378" class="shp0" d="M29.12 4.49C29.65 4.05 29.98 3.42 30.04 2.73C30.1 2.04 29.88 1.36 29.42 0.84C28.97 0.32 28.33 0 27.64 -0.04C26.95 -0.08 26.28 0.16 25.77 0.62L0.97 22.07C0.71 22.28 0.51 22.55 0.36 22.85C0.2 23.15 0.11 23.48 0.09 23.82C0.07 24.15 0.11 24.49 0.21 24.81C0.32 25.12 0.49 25.42 0.71 25.67L0.99 25.95L25.77 47.38C26.28 47.84 26.95 48.07 27.64 48.02C28.32 47.98 28.96 47.66 29.41 47.15C29.86 46.63 30.08 45.95 30.03 45.26C29.97 44.58 29.64 43.95 29.12 43.51L6.55 24L29.12 4.49Z" />
	</g>
</svg>