<svg xmlns="http://www.w3.org/2000/svg" width="19.999" height="20" viewBox="0 0 19.999 20">
  <path id="Path_3031" data-name="Path 3031" d="M156.8-631.793l-1.489,1.489a9.99,9.99,0,0,0-6.8-2.7,10.011,10.011,0,0,0-10,10,10.011,10.011,0,0,0,10,10,10.043,10.043,0,0,0,9.6-7.222,1,1,0,0,0-.683-1.238,1,1,0,0,0-1.238.682,8.035,8.035,0,0,1-7.68,5.778,8.009,8.009,0,0,1-8-8,8.009,8.009,0,0,1,8-8,7.985,7.985,0,0,1,5.391,2.108l-1.684,1.685a1,1,0,0,0,.707,1.707h4.585a1,1,0,0,0,1-1v-4.586A1,1,0,0,0,156.8-631.793Z" transform="translate(-138.506 633)" fill="#294658"/>
</svg>
