<svg id="ic_menu_share" xmlns="http://www.w3.org/2000/svg" width="24" height="24" viewBox="0 0 24 24">
  <rect id="Rectangle_1322" data-name="Rectangle 1322" width="24" height="24" fill="none"/>
  <path id="Path_3020" data-name="Path 3020" d="M-33.66,3.448a4.283,4.283,0,0,0-3.1,1.338L-42.958,1.27a4.264,4.264,0,0,0,.2-1.222,4.252,4.252,0,0,0-.2-1.226L-36.768-4.7A4.28,4.28,0,0,0-33.66-3.352a4.306,4.306,0,0,0,4.3-4.3,4.306,4.306,0,0,0-4.3-4.3,4.3,4.3,0,0,0-4.3,4.3,4.255,4.255,0,0,0,.2,1.22l-6.193,3.52a4.278,4.278,0,0,0-3.1-1.34,4.3,4.3,0,0,0-4.3,4.3,4.3,4.3,0,0,0,4.3,4.3,4.28,4.28,0,0,0,3.107-1.343l6.194,3.516a4.225,4.225,0,0,0-.2,1.227,4.3,4.3,0,0,0,4.3,4.3,4.306,4.306,0,0,0,4.3-4.3A4.306,4.306,0,0,0-33.66,3.448Zm0-13.4a2.3,2.3,0,0,1,2.3,2.3,2.3,2.3,0,0,1-2.3,2.3,2.3,2.3,0,0,1-2.3-2.3A2.3,2.3,0,0,1-33.66-9.952Zm-13.4,12.3a2.3,2.3,0,0,1-2.3-2.3,2.3,2.3,0,0,1,2.3-2.3,2.3,2.3,0,0,1,2.3,2.3A2.3,2.3,0,0,1-47.06,2.348Zm13.4,7.7a2.3,2.3,0,0,1-2.3-2.3,2.277,2.277,0,0,1,.323-1.157l.008-.01,0-.011A2.294,2.294,0,0,1-33.66,5.448a2.3,2.3,0,0,1,2.3,2.3A2.3,2.3,0,0,1-33.66,10.048Z" transform="translate(52.359 11.952)" fill="#294658"/>
</svg>
