<svg id="ic_sort_desc" xmlns="http://www.w3.org/2000/svg" width="16" height="16" viewBox="0 0 16 16">
  <rect id="Rectangle_1337" data-name="Rectangle 1337" width="16" height="16" fill="none"/>
  <path id="Path_3035" data-name="Path 3035" d="M27.561-942.845l-5,5a1,1,0,0,1-1.415,0l-5-5a1,1,0,0,1,0-1.414,1,1,0,0,1,1.415,0l3.293,3.293v-11.586a1,1,0,0,1,1-1,1,1,0,0,1,1,1v11.586l3.292-3.293a1,1,0,0,1,.708-.293,1,1,0,0,1,.707.293A1,1,0,0,1,27.561-942.845Z" transform="translate(-13.854 953.552)" fill="#294658"/>
</svg>
