<svg xmlns="http://www.w3.org/2000/svg" xmlns:xlink="http://www.w3.org/1999/xlink" width="615.5" height="401.225" viewBox="0 0 615.5 401.225">
  <defs>
    <linearGradient id="linear-gradient" x1="-6.514" y1="-9.414" x2="-6.489" y2="-9.414" gradientUnits="objectBoundingBox">
      <stop offset="0" stop-color="#6d6e6e" stop-opacity="0.251"/>
      <stop offset="0.54" stop-color="#6d6e6e" stop-opacity="0.122"/>
      <stop offset="1" stop-color="#6d6e6e" stop-opacity="0.102"/>
    </linearGradient>
  </defs>
  <g id="Group_2500" data-name="Group 2500" transform="translate(-653 -477)">
    <ellipse id="Ellipse_442" data-name="Ellipse 442" cx="291.592" cy="28.009" rx="291.592" ry="28.009" transform="translate(653.438 822.207)" fill="#f5f5f5" style="isolation: isolate"/>
    <g id="Group_2498" data-name="Group 2498" transform="translate(653 477)">
      <path id="Path_621" data-name="Path 621" d="M321.855,65.38c-35.5-1.258-69.343-12.669-101.622-25.143S155.94,13.9,121.274,7.283c-22.295-4.244-47.8-4.862-65.756,7.047C38.226,25.806,32.635,45.567,29.636,63.92c-2.26,13.791-3.577,28.334,2.606,41.262,4.305,8.973,11.924,16.516,17.21,25.1,18.369,29.91,5.386,66.792-14.519,95.994-9.325,13.705-20.164,26.781-27.369,41.368S-2.972,298.938,3.33,313.816c6.244,14.755,21.129,25.81,37.275,33.61,32.758,15.832,71.36,20.346,108.991,22.91,83.322,5.68,167.081,3.218,250.621.759a738.9,738.9,0,0,0,92.387-6.6c16.892-2.647,34.324-6.846,46.587-16.974a38.753,38.753,0,0,0,8.99-50.762c-17.487-27.055-65.852-33.77-78.1-62.8-6.729-15.976.185-33.774,9.968-48.6,20.985-31.787,56.158-59.68,58.025-96.021,1.275-24.938-15.62-49.951-41.779-61.752-27.4-12.375-65.4-10.823-85.609,9.67C389.806,58.315,353.2,66.429,321.855,65.38Z" transform="translate(0 10.888)" fill="#fff" opacity="0.259" style="isolation: isolate"/>
      <g id="Group_2232" data-name="Group 2232" transform="translate(273.557)">
        <g id="Group_2229" data-name="Group 2229" transform="translate(234.155)">
          <path id="Path_3026" data-name="Path 3026" d="M252.316,45.533a5.172,5.172,0,0,0,.089,1.193,14.757,14.757,0,0,1,.742,4.305,4.968,4.968,0,0,1-.978,2.281c-.8,1.132-1.922,2.13-2.667,3.317a17.762,17.762,0,0,0-1.867,6.035,12.625,12.625,0,0,1-1.481,4.185,18.237,18.237,0,0,1-3.843,3.85c-.267.222-.578.5-.752.67s-.352.332-.533.5a5.9,5.9,0,0,0-1.87,6.254c.034.072.068.14.106.205a1.838,1.838,0,0,1-.25.147c-1.252.6-2.828-.366-3.857-1.392-1.648-1.645-3.074-3.553-4.575-5.358a19.891,19.891,0,0,0-5.892-5.221,16.033,16.033,0,0,0-2.725-1.094c-1.4-.441-2.838-.766-4.233-1.21a35.475,35.475,0,0,1-5.563-2.312,86.859,86.859,0,0,1-8.959-5.516l-.448-.291a15.461,15.461,0,0,1-2.667-2.113c-.14-.154-.287-.311-.417-.475-.7-.889-1.152-1.942-1.8-2.865a9.244,9.244,0,0,0-2.52-2.4,36.144,36.144,0,0,0-9.749-3.56h-.038a37.983,37.983,0,0,1-15.637-9.287l-.133-.133L150.878,81.061l-2.4-.988L181.537,0l2.4.988-.8,2.028a2.839,2.839,0,0,1,.373.212l.386.267.123.1.267.195.123.1.267.219.1.079.318.287h0c.342.311.67.629.992.954l.817.838.161.168.267.267.154.154.393.386.027.027.243.233.154.14.2.178.191.171.3.267.092.079.421.339a11.959,11.959,0,0,0,1.782,1.142c2.459,1.258,5.068,2.325,7.468,3.659a21.334,21.334,0,0,1,3.7,2.561,28.956,28.956,0,0,0,4.767,4.117l.2.109c3.252,1.655,7.085.667,10.785.588.547,0,1.094,0,1.638.041a20.857,20.857,0,0,1,8.4,2.9c1.867,1.026,3.693,2.2,5.529,3.252,1.156.667,2.318,1.385,3.488,2.127a80.388,80.388,0,0,0,9.072,5.228,18.391,18.391,0,0,0,9.906,1.9c.294,2.329-1.6,4.213-2.852,6.268A6.294,6.294,0,0,0,252.316,45.533Z" transform="translate(-148.478)" fill="url(#linear-gradient)"/>
          <path id="Rectangle_1319" data-name="Rectangle 1319" d="M148.741,78.96,181.251.195l2.361.971L151.1,79.93Z" transform="translate(-147.841 0.471)" fill="#cccfdb"/>
          <path id="Path_3027" data-name="Path 3027" d="M236.307,50.623a4.949,4.949,0,0,0,.964-2.223,15.337,15.337,0,0,0-.732-4.233A5.157,5.157,0,0,1,236.451,43,6.213,6.213,0,0,1,237.5,40.07c1.238-2.024,3.091-3.874,2.8-6.165a18.45,18.45,0,0,1-9.742-1.864,77.887,77.887,0,0,1-8.911-5.139c-1.149-.725-2.291-1.433-3.43-2.086-1.805-1.036-3.6-2.182-5.433-3.194a20.509,20.509,0,0,0-8.272-2.852c-.533-.041-1.067-.041-1.6-.041-3.635.075-7.4,1.05-10.6-.578l-.2-.1A28.324,28.324,0,0,1,187.423,14a20.913,20.913,0,0,0-3.631-2.517c-2.359-1.33-4.921-2.359-7.338-3.6a11.637,11.637,0,0,1-1.781-1.122,17.64,17.64,0,0,1-1.57-1.375c-.612-.595-1.19-1.214-1.785-1.812a17.226,17.226,0,0,0-2.52-2.182c-3.043-2.076-4.032,4.849-4.77,7.851l-.1.373c-.171.615-.349,1.217-.533,1.829q-.836,2.744-1.846,5.41-.39,1.051-.817,2.082a86.63,86.63,0,0,1-4.4,9.226q-.533.985-1.111,1.956a2.524,2.524,0,0,0-.533,1.778,2.493,2.493,0,0,0,.773,1.132,37.367,37.367,0,0,0,15.374,9.13h.038a36.3,36.3,0,0,1,9.585,3.478A9.214,9.214,0,0,1,182.933,48c.646.91,1.1,1.932,1.785,2.821.123.161.267.315.4.465a15.111,15.111,0,0,0,2.63,2.076l.421.284a85.366,85.366,0,0,0,8.8,5.42,34.516,34.516,0,0,0,5.478,2.274c1.375.431,2.79.749,4.158,1.193a15.885,15.885,0,0,1,2.667,1.063,19.534,19.534,0,0,1,5.8,5.139c1.474,1.771,2.879,3.649,4.5,5.269,1.012,1.009,2.558,1.959,3.789,1.371a2.235,2.235,0,0,0,.246-.147,1.55,1.55,0,0,1-.1-.2,5.793,5.793,0,0,1,1.826-6.148,7,7,0,0,1,.513-.5c.239-.212.489-.441.739-.657a17.88,17.88,0,0,0,3.778-3.789,12.409,12.409,0,0,0,1.457-4.11,17.265,17.265,0,0,1,1.85-5.933C234.444,52.753,235.521,51.762,236.307,50.623Z" transform="translate(-133.474 2.447)" fill="#fff" opacity="0.806" style="isolation: isolate"/>
          <path id="Path_3028" data-name="Path 3028" d="M162.178,1.394c-3.043-2.079-4.031,4.845-4.767,7.831l8.162,3.437,2.489-5.9C165.888,5.09,164.394,2.9,162.178,1.394Z" transform="translate(-126.865 2.446)" fill="#171923"/>
          <path id="Path_3029" data-name="Path 3029" d="M168.358,6.593a20.754,20.754,0,0,0-3.635-2.517l-2.164,5.133,9.417,3.96,1.067-2.52A28.321,28.321,0,0,1,168.358,6.593Z" transform="translate(-114.41 9.862)" fill="#171923"/>
          <path id="Path_3030" data-name="Path 3030" d="M172.112,6.235c-.533-.041-1.067-.041-1.6-.041l-2.441,5.782,9.414,3.949,2.889-6.849A20.261,20.261,0,0,0,172.112,6.235Z" transform="translate(-101.076 14.986)" fill="#171923"/>
          <path id="Path_3031" data-name="Path 3031" d="M175.914,8.58l-2.335,5.533L183,18.069l1.833-4.35A72.855,72.855,0,0,1,175.914,8.58Z" transform="translate(-87.748 20.759)" fill="#171923"/>
          <path id="Rectangle_1320" data-name="Rectangle 1320" d="M158.643,13.813l3.965-9.4,9.422,3.957-3.965,9.4Z" transform="translate(-123.884 10.669)" fill="#171923"/>
          <path id="Rectangle_1321" data-name="Rectangle 1321" d="M164.154,16.127l3.965-9.4,9.422,3.957-3.965,9.4Z" transform="translate(-110.551 16.267)" fill="#171923"/>
          <path id="Rectangle_1322" data-name="Rectangle 1322" d="M169.664,18.442l3.965-9.4L183.051,13l-3.965,9.4Z" transform="translate(-97.219 21.869)" fill="#171923"/>
          <path id="Path_3032" data-name="Path 3032" d="M186.865,17.967a6.2,6.2,0,0,1,1.046-2.927l-8.767-3.683-3.97,9.4,9.421,3.96,2.359-5.591A5.288,5.288,0,0,1,186.865,17.967Z" transform="translate(-83.888 27.478)" fill="#171923"/>
          <path id="Path_3033" data-name="Path 3033" d="M159.565,6.245a87.3,87.3,0,0,1-4.4,9.226l7.923,3.324,3.967-9.4Z" transform="translate(-132.302 15.109)" fill="#171923"/>
          <path id="Rectangle_1323" data-name="Rectangle 1323" d="M160.238,17.72l3.965-9.4,9.422,3.957-3.965,9.4Z" transform="translate(-120.024 20.123)" fill="#171923"/>
          <path id="Rectangle_1324" data-name="Rectangle 1324" d="M165.75,20.034l3.965-9.4,9.422,3.957-3.965,9.4Z" transform="translate(-106.689 25.722)" fill="#171923"/>
          <path id="Rectangle_1325" data-name="Rectangle 1325" d="M171.26,22.351l3.965-9.4,9.422,3.957-3.965,9.4Z" transform="translate(-93.357 31.327)" fill="#171923"/>
          <path id="Path_3034" data-name="Path 3034" d="M159.4,9.916l-2.7,6.411a37.268,37.268,0,0,0,9.287,4.278l2.838-6.729Z" transform="translate(-128.605 23.991)" fill="#171923"/>
          <path id="Path_3035" data-name="Path 3035" d="M164.858,12.23l-2.636,6.264a9.161,9.161,0,0,1,2.476,2.366c.646.906,1.1,1.929,1.781,2.818.127.161.267.315.407.465l3.437,1.446,3.967-9.4Z" transform="translate(-115.225 29.59)" fill="#171923"/>
          <path id="Rectangle_1326" data-name="Rectangle 1326" d="M167.344,23.942l3.965-9.4,9.422,3.957-3.965,9.4Z" transform="translate(-102.833 35.176)" fill="#171923"/>
          <path id="Path_3036" data-name="Path 3036" d="M176.824,16.86l-3.967,9.4,9.027,3.792c.239-.209.486-.438.739-.653l3.618-8.583Z" transform="translate(-89.494 40.792)" fill="#171923"/>
          <path id="Path_3037" data-name="Path 3037" d="M180.251,19.411c.739-1.156,1.833-2.144,2.619-3.255l-2.134-.889-3.97,9.4,1.617.677A17.216,17.216,0,0,1,180.251,19.411Z" transform="translate(-80.034 36.938)" fill="#171923"/>
          <path id="Path_3038" data-name="Path 3038" d="M164.866,16.137l-.39.923a85.643,85.643,0,0,0,8.805,5.42l1-2.4Z" transform="translate(-109.772 39.043)" fill="#171923"/>
        </g>
        <path id="Path_382" data-name="Path 382" d="M114.418,102.8a14.3,14.3,0,0,0,5.15,10.607,8.285,8.285,0,0,0,11-.862,12.358,12.358,0,0,0,1.829-3.967c2.11-6.654,3.6-13.938,1.3-20.53-5.218-.339-11.267-2.787-15.186,1.515A17.929,17.929,0,0,0,114.418,102.8Z" transform="translate(3.066 210.622)" fill="#1a1b27"/>
        <path id="Path_383" data-name="Path 383" d="M140.393,93.072a128.176,128.176,0,0,0-1.747,17.634c.041,2.284.3,4.544.3,6.842a33.635,33.635,0,0,1-4.555,16.954,5.656,5.656,0,0,1-1.245,1.6,4,4,0,0,1-4.35.147,8.558,8.558,0,0,1-3.095-3.351c-3.772-6.442-3.884-14.276-5.375-21.587-1.142-5.587-3.149-11.007-3.884-16.663-.472-3.642-.4-7.355-1.149-10.949-.226-1.087-.865-2.718-1.289-4.319a6.516,6.516,0,0,1-.2-3.8c.8-1.973,3.443-1.207,5.156-1.084a118.982,118.982,0,0,0,18.14-.044,1.559,1.559,0,0,1,2.024.869,1.734,1.734,0,0,1,.068.215,24.351,24.351,0,0,1,1.1,4.042A44.76,44.76,0,0,1,140.393,93.072Z" transform="translate(1.311 179.632)" fill="#fcdede"/>
        <g id="Group_659" data-name="Group 659" transform="translate(114.926 253.876)" opacity="0.1">
          <path id="Path_384" data-name="Path 384" d="M127.573,74.323a4.763,4.763,0,0,0-.937,0c-2.9.233-5.8.349-8.692.366Q122.76,74.7,127.573,74.323Z" transform="translate(-103.124 -74.111)" fill="#030504"/>
          <path id="Path_385" data-name="Path 385" d="M129.8,136.243a8.549,8.549,0,0,1-3.091-3.351c-3.772-6.442-3.885-14.276-5.375-21.584-1.146-5.591-3.149-11.011-3.884-16.666-.472-3.642-.4-7.352-1.152-10.946-.226-1.087-.865-2.718-1.282-4.319a6.489,6.489,0,0,1-.2-3.8,2.152,2.152,0,0,1,2.024-1.313c-1.279-.089-2.527.065-3.04,1.313a6.489,6.489,0,0,0,.205,3.8c.421,1.6,1.067,3.231,1.286,4.319.749,3.594.677,7.307,1.149,10.946.721,5.663,2.725,11.079,3.881,16.666,1.494,7.307,1.6,15.152,5.375,21.584a8.535,8.535,0,0,0,3.095,3.351,4.5,4.5,0,0,0,2.653.53A4.626,4.626,0,0,1,129.8,136.243Z" transform="translate(-113.61 -74.245)" fill="#030504"/>
        </g>
        <path id="Path_386" data-name="Path 386" d="M140.784,131.081a33.968,33.968,0,0,0-2.527,14.642c.5,20.2-7.595,62.627-7.595,62.627h-7.082s-1.012-46.969,0-51.008-.5-18.181-2.024-37.884a100.993,100.993,0,0,1,3.584-33.74c.568-2.021.961-3.129.961-3.129S137.748,65.421,144.32,73.5a20.072,20.072,0,0,1,2.6,10.46C147.825,99.766,143.113,126.43,140.784,131.081Z" transform="translate(20.058 172.6)" fill="#fcdede"/>
        <path id="Path_387" data-name="Path 387" d="M141.409,83.963a19.983,19.983,0,0,0-2.6-10.463,5.216,5.216,0,0,0-4.972-2.1,5.4,5.4,0,0,1,3.454,2.1,20.085,20.085,0,0,1,2.6,10.463c.9,15.794-3.82,42.466-6.138,47.123a33.959,33.959,0,0,0-2.527,14.642c.5,20.2-7.595,62.624-7.595,62.624h1.518s8.1-42.422,7.591-62.624a34.013,34.013,0,0,1,2.53-14.642C137.6,126.419,142.315,99.751,141.409,83.963Z" transform="translate(25.571 172.611)" fill="#030504" opacity="0.1" style="isolation: isolate"/>
        <path id="Path_388" data-name="Path 388" d="M122.163,114.826a6.6,6.6,0,0,0-1.446,1.573c-.9,1.71.38,3.751,1.758,5.109s3.033,2.814,3.033,4.746a4.724,4.724,0,0,1-2.5,3.727c-.7.445-1.6,1.009-1.45,1.846a1.747,1.747,0,0,0,.267.6A7.841,7.841,0,0,0,127,135.558a23.544,23.544,0,0,0,6.2.051,1.282,1.282,0,0,0,.851-.3,1.142,1.142,0,0,0,.226-.7,9.064,9.064,0,0,1,.506-3.166c.656-1.316,2.171-1.99,3.036-3.17a7.038,7.038,0,0,0,.6-5.83,24.024,24.024,0,0,0-6.644-12.122C127.849,106.913,124.779,112.364,122.163,114.826Z" transform="translate(17.787 264.284)" fill="#1a1b27"/>
        <path id="Path_389" data-name="Path 389" d="M235.3,54.167a13.047,13.047,0,0,0-.8-14.3,24.474,24.474,0,0,0-12.3-8.518,34.706,34.706,0,0,0-20.182-1.354,99.385,99.385,0,0,0-14.977,6.442,64.548,64.548,0,0,1-27.978,5.557c-10.686-.3-22.408-3.03-31.353,2.8C111.3,55.439,118.594,84.426,103.07,96.3c-4.182,3.2-9.455,4.606-14.112,7.068S79.89,110.143,80,115.406a13.984,13.984,0,0,0,2.527,7.071,32.812,32.812,0,0,0,27.6,14.8,35.162,35.162,0,0,0,27.81-14.789,21.631,21.631,0,0,1,5.245-6.193c4.551-2.982,10.556-.9,15.989-.451a25.92,25.92,0,0,0,26.614-19.966c1.012-5.057.838-11.141,4.931-14.331,3.307-2.571,7.957-2.021,12.142-2.455a24.864,24.864,0,0,0,17.877-11.78c1.908-2.852,2.134-6.258,4.729-8.518C228.266,56.321,232.612,58.144,235.3,54.167Z" transform="translate(-80 70.376)" fill="#171923"/>
        <g id="Group_660" data-name="Group 660" transform="translate(27.826 99.46)" opacity="0.1">
          <path id="Path_390" data-name="Path 390" d="M111.2,34.49a64.128,64.128,0,0,0,13.24-1.009c-1.193.038-2.418.038-3.628,0-8.384-.229-17.4-1.959-25.222.123C100.755,33.659,106.093,34.35,111.2,34.49Z" transform="translate(-70.103 -20.612)" fill="#030504"/>
          <path id="Path_391" data-name="Path 391" d="M113.356,56.057a21.685,21.685,0,0,0-5.245,6.193A35.544,35.544,0,0,1,88.138,75.992c.595.024,1.193.038,1.788.034a35.149,35.149,0,0,0,27.81-14.786,21.685,21.685,0,0,1,5.245-6.193l.393-.243A14.216,14.216,0,0,0,113.356,56.057Z" transform="translate(-88.138 32.162)" fill="#030504"/>
          <path id="Path_392" data-name="Path 392" d="M152.027,39.862a24.587,24.587,0,0,0-12.3-8.521,34.733,34.733,0,0,0-20.182-1.351c-.15.038-.3.082-.445.123a38.869,38.869,0,0,1,11.014,2.24,24.573,24.573,0,0,1,12.3,8.521,13.059,13.059,0,0,1,.8,14.3c-2.688,3.994-7.02,2.171-9.855,4.63-2.6,2.247-2.821,5.663-4.729,8.521a26.008,26.008,0,0,1-14.758,11.212c2.134-.267,4.377-.222,6.5-.445A24.843,24.843,0,0,0,138.25,67.321c1.908-2.859,2.134-6.261,4.729-8.521,2.842-2.455,7.167-.639,9.855-4.63A13.02,13.02,0,0,0,152.027,39.862Z" transform="translate(-25.874 -29.087)" fill="#030504"/>
          <path id="Path_393" data-name="Path 393" d="M137.465,44.041c-4.165.434-8.8-.109-12.142,2.455-4.1,3.2-3.884,9.243-4.934,14.331a25.944,25.944,0,0,1-17.559,18.916l.595.055a25.918,25.918,0,0,0,26.614-19.966c1.016-5.057.838-11.141,4.934-14.331a9.137,9.137,0,0,1,3.142-1.515A5.149,5.149,0,0,0,137.465,44.041Z" transform="translate(-52.594 6.961)" fill="#030504"/>
        </g>
        <path id="Path_394" data-name="Path 394" d="M279.8,57.591S267.651,81.835,263.6,90.927s-40.992,22.715-46.053,23.249a6.52,6.52,0,0,0-3.611,1.737,19.922,19.922,0,0,0-4.479,6.856,155.813,155.813,0,0,1-.506,36.359c-.051.438-.092.879-.137,1.3-2.206,21.625,2.4,26.726,2.4,26.726s-49.083,18.687-47.571-5.557a109.54,109.54,0,0,0-.068-17.88,74.8,74.8,0,0,0-2.9-14.071c-1.2-4.175-2.63-8.785-4.117-15.032a65.481,65.481,0,0,0-2.811-9.164c-.034-.092-.072-.181-.1-.267-2.53-6.258-5.068-8.3-6.507-8.942a21.875,21.875,0,0,1-3.884-2.182A204.42,204.42,0,0,1,119.6,94.224c-12.142-12.118-24.288-40.91-24.288-40.91s-3.543-16.663,4.555-30.3,4.555,26.767,4.555,26.767,14.669,19.7,18.212,28.792a15.207,15.207,0,0,0,7.089,8.309,84.381,84.381,0,0,1,11.2,6.989,66.164,66.164,0,0,0,7.533,4.91,64.8,64.8,0,0,0,18.082,7.348,16.616,16.616,0,0,0,2.667.226,2.757,2.757,0,0,0,2.229-1.009c1.518-1.788,1.494-5.622,1.132-8.788a44.154,44.154,0,0,0-.828-4.862s16.448-10.354,15.941,2.274a14.026,14.026,0,0,0,.386,4.151,7.187,7.187,0,0,0,4.9,5.362,12.145,12.145,0,0,0,6.073.2,5.929,5.929,0,0,0,1.8-.609A122.59,122.59,0,0,1,222.1,97.007c4.555-.5,27.328-11.623,27.328-11.623l24.784-34.345s-.506-20.2,9.605-28.282S279.8,57.591,279.8,57.591Z" transform="translate(-44.817 48.87)" fill="#fcdede"/>
        <g id="Group_661" data-name="Group 661" transform="translate(49.728 72.773)" opacity="0.1">
          <path id="Path_395" data-name="Path 395" d="M128.377,75.671a99.871,99.871,0,0,0-.581,12.218c.051-2.66.226-5.71.581-9.191.041-.424.085-.865.137-1.3a197.866,197.866,0,0,0,1.265-23.427,202.32,202.32,0,0,1-1.265,20.4C128.486,74.806,128.418,75.247,128.377,75.671Z" transform="translate(-14.113 57.8)" fill="#030504"/>
          <path id="Path_396" data-name="Path 396" d="M117.636,41.009a5.814,5.814,0,0,0-.51.318,42.862,42.862,0,0,1,.971,6.558A30.9,30.9,0,0,0,117.636,41.009Z" transform="translate(-39.905 26.446)" fill="#030504"/>
          <path id="Path_397" data-name="Path 397" d="M97.652,39.006c.246-3.536.619-9.872.547-15.5-.089,7.536-.759,15.223-.759,15.223Z" transform="translate(-87.534 -15.894)" fill="#030504"/>
          <path id="Path_398" data-name="Path 398" d="M114.814,67.22a3.18,3.18,0,0,1-.038.6c-1.515,24.24,47.575,5.557,47.575,5.557a8.263,8.263,0,0,1-1.282-2.568C153.693,73.419,116.52,85.641,114.814,67.22Z" transform="translate(-45.673 89.862)" fill="#030504"/>
          <path id="Path_399" data-name="Path 399" d="M198.49,51.934S186.348,76.174,182.3,85.267s-41,22.729-46.053,23.249a6.519,6.519,0,0,0-3.614,1.737,19.908,19.908,0,0,0-4.479,6.853s.123.824.267,2.4a18.771,18.771,0,0,1,4.213-6.21,6.519,6.519,0,0,1,3.614-1.737c5.071-.5,42-14.143,46.053-23.245S198.49,54.974,198.49,54.974s8.562-25.926,7.619-33.692C205.326,31.215,198.49,51.934,198.49,51.934Z" transform="translate(-13.236 -21.282)" fill="#030504"/>
          <path id="Path_400" data-name="Path 400" d="M163.585,144.609a75.131,75.131,0,0,0-2.907-14.071c-1.193-4.172-2.63-8.785-4.117-15.028a65.386,65.386,0,0,0-2.811-9.168c-.034-.092-.072-.181-.1-.267-2.527-6.258-5.068-8.292-6.5-8.938a21.846,21.846,0,0,1-3.881-2.182,204.19,204.19,0,0,1-23.649-19.84C107.468,63,95.322,34.205,95.322,34.205a45.5,45.5,0,0,1-.749-7.365,48.673,48.673,0,0,0,.749,10.381s12.142,28.792,24.292,40.91a203.848,203.848,0,0,0,23.649,19.84,21.954,21.954,0,0,0,3.919,2.182c1.443.653,3.967,2.684,6.5,8.938.031.089.068.178.1.267a65.467,65.467,0,0,1,2.8,9.168c1.494,6.258,2.917,10.843,4.114,15.028a74.857,74.857,0,0,1,2.907,14.071c.212,2.11.342,4.4.373,6.993A87.343,87.343,0,0,0,163.585,144.609Z" transform="translate(-94.543 -7.835)" fill="#030504"/>
        </g>
        <path id="Path_401" data-name="Path 401" d="M171.939,79.8a29.767,29.767,0,0,0-2.024,3.977,23.93,23.93,0,0,0-.9,6.675,53.3,53.3,0,0,1-1.44,9.352,10.312,10.312,0,0,1-.5,1.658,4.511,4.511,0,0,1-.6,1.012,4.365,4.365,0,0,1-.94.851,11.222,11.222,0,0,1-1.713.934c-7.044,3.276-14.728,6.182-22.408,5.057a32.765,32.765,0,0,1-9.338-3.132c-2.783-1.347-5.933-2.951-8.8-1.826h0a4.552,4.552,0,0,1-1.412.438,1.565,1.565,0,0,1-.284-.024c-.951-.181-.951-3.385-1.166-4.329-.831-3.625-.957-6.555-1.457-9.718a31.869,31.869,0,0,0-1.217-5.136A60.5,60.5,0,0,1,115.1,66.557c0-.318-2.274,0-3.04-.027-.195,0-.3-.031-.253-.1a1.039,1.039,0,0,1,.154-.171,2.336,2.336,0,0,1,.9-.451l.6-.174a20.507,20.507,0,0,0,8.918-3.46,11.894,11.894,0,0,0,2.934-9.205,54.776,54.776,0,0,1-.468-5.8,16.616,16.616,0,0,0,2.667.226,2.761,2.761,0,0,0,2.226-1.009,39.873,39.873,0,0,1,2.188,5.057,34.891,34.891,0,0,0,2.777,6.244,10.6,10.6,0,0,0,9.472,4.842,8.8,8.8,0,0,0,7.834-6.818c.581-3.194-.773-7.824-.739-11.158a12.182,12.182,0,0,0,6.073.2,5.057,5.057,0,0,1,.215.629c1.139,3.9,2.667,8.374,6.48,9.756,2.469.9,5.375.226,7.67,1.515a5.44,5.44,0,0,1,.506.339,5.6,5.6,0,0,1,1.334,1.419A11.374,11.374,0,0,1,175.17,63.5,28.183,28.183,0,0,1,171.939,79.8Z" transform="translate(-3.061 107.81)" fill="#1a1b27"/>
        <path id="Path_402" data-name="Path 402" d="M133.449,50.355a17.276,17.276,0,0,1-15.5-1.559,44.9,44.9,0,0,0-.831-4.866s16.448-10.354,15.941,2.274A14.024,14.024,0,0,0,133.449,50.355Z" transform="translate(9.811 96.619)" fill="#030504" opacity="0.1" style="isolation: isolate"/>
        <ellipse id="Ellipse_58" data-name="Ellipse 58" cx="17.207" cy="17.171" rx="17.207" ry="17.171" transform="translate(119.844 112.772)" fill="#fcdede"/>
        <path id="Path_409" data-name="Path 409" d="M127.183,58.423c-.506-3.149-1.282-7.119,1.354-8.925a5.642,5.642,0,0,1,3.136-.8c5.471-.055,10.7,3.748,16.065,2.64a9.031,9.031,0,0,0,3.539-16.1,18.181,18.181,0,0,0-7.359-2.66c-6.781-1.4-13.869-2.787-20.571-1.009s-12.823,7.766-12.286,14.642a20.671,20.671,0,0,0,3.69,9.089c1.334,2.127,6.538,12.119,9.068,12.272C127.368,67.779,127.532,60.485,127.183,58.423Z" transform="translate(-4.932 74.361)" fill="#171923"/>
        <path id="Path_410" data-name="Path 410" d="M163.873,66.507s-34.919,8.583-46.559,0c0,0-5.068,19.7-3.543,29.8,0,0,24.788,1.515,27.328,3.03,0,0,.5-4.038,3.036-2.017,0,0,8.6-10.1,24.292-1.012C168.428,96.3,171.464,72.566,163.873,66.507Z" transform="translate(1.015 160.91)" fill="#1a1b27"/>
        <path id="Path_411" data-name="Path 411" d="M144.064,32.548a9.5,9.5,0,0,0-1.122-.7,9.012,9.012,0,0,1-4.951,14.779c-5.375,1.115-10.593-2.684-16.065-2.636a5.593,5.593,0,0,0-3.132.8c-2.643,1.788-1.867,5.772-1.361,8.925.332,2.059.2,9.356-3.358,9.154h-.062c.978,1.19,1.888,1.99,2.6,2.021,3.543.195,3.69-7.071,3.351-9.157-.5-3.149-1.279-7.119,1.361-8.925a5.639,5.639,0,0,1,3.136-.8c5.471-.055,10.7,3.748,16.061,2.636a9.028,9.028,0,0,0,3.543-16.092Z" transform="translate(2.294 77.045)" fill="#030504" opacity="0.1" style="isolation: isolate"/>
      </g>
      <path id="Path_3025" data-name="Path 3025" d="M385.577,62.564S413.8,32.815,492.123,64.626s122.994,6.36,122.994,6.36l.383,30.4s-87.086,17.675-120.7,0-84.877-29.93-101.633-2.565ZM368.64,105.944S317.7,135.1,154.46,103.851C9.472,76.092,1.169,94.3,1.169,94.3L0,67.639s78.822-17.419,148.886,0,169.006,29.554,203.939,2.568Z" transform="translate(0 120.81)" fill="#cd4843"/>
      <g id="Group_2247" data-name="Group 2247" transform="translate(20.518 273.554)">
        <g id="Group_662" data-name="Group 662" transform="translate(0 37.344)" opacity="0.1">
          <path id="Path_412" data-name="Path 412" d="M67.108,122.559s-26.935-51.483-55.494-23.1a10.2,10.2,0,0,0-5.57,10.207s2.424-1.576,4.613,3.987a28.024,28.024,0,0,0,2.992,5.546,12.379,12.379,0,0,0,6.449,4.825h0s13.661,10.19,37.928.828a22.823,22.823,0,0,0,8.063-.2l-8.313-6.028a16.764,16.764,0,0,1-9.81,7.8s9.834-7.307,8.638-8.737c-.243-.294-4.534-2.989-4.534-2.989s-6.747,11.749-16.047,12.967c0,0,12.782-6.993,14.4-14.03l-6.716-3.662s-6.565,12.8-17.084,14.646c0,0,13.138-7.82,15.569-15.336l-7.041-2.623S28.513,119,19.759,120.5c0,0,14.341-10.7,13.75-14.31a34.209,34.209,0,0,0-8.569-1.635s-4.972,8.75-10.091,9.075c0,0,8.877-8.241,8.227-9.438a35.783,35.783,0,0,0-13.931,2.5,26.324,26.324,0,0,1,13.886-4.073,15.258,15.258,0,0,0-7.677-4.733s4.972-2.476,9.906,4.784a32.564,32.564,0,0,1,8.1,1.234,36.455,36.455,0,0,0-8.521-11.151s6.692.988,10.4,11.783l7.123,2.469a52.447,52.447,0,0,0-8.562-13.975s6.685,2.151,10.3,14.765l6.606,3.5a63.914,63.914,0,0,0-6.976-14.177s5.81,3.464,8.839,15.278l4.158,2.9s-2.578-6.955-3.484-8.9-.5-2.353-.5-2.353a26.333,26.333,0,0,1,5.758,12.426A56.4,56.4,0,0,0,67.108,122.559Z" transform="translate(-6 -90.921)" fill="#1c3746"/>
        </g>
        <g id="Group_663" data-name="Group 663" transform="translate(43.329)" opacity="0.1">
          <path id="Path_413" data-name="Path 413" d="M48.716,128.492S59.771,81.273,27.9,80.524a7.286,7.286,0,0,0-8.668,2.616s2.274.561.646,5.211a24.689,24.689,0,0,0-1.125,5.156,11.7,11.7,0,0,0,1.262,6.822h0s2.739,14.471,22.114,23.919c0,0,3.737,4.78,4.9,4.866l-1.754-8.761a12.677,12.677,0,0,1-9.94-1.443s9.68,1.73,9.725.13c0-.321-1.118-4.568-1.118-4.568s-10.19,2.8-16.331-2.158c0,0,11.281,3.734,15.931.551L41.5,106.56S30.853,110.1,23.662,104.7c0,0,11.889,3.491,17.316.5l-2.79-5.909S27.748,102.522,21.775,98c0,0,14.139,2.5,15.688,0a31.722,31.722,0,0,0-4.291-6.227s-7.533,2.13-10.792-.862c0,0,9.622.588,9.848-.523a31.542,31.542,0,0,0-9.585-7.1,22.551,22.551,0,0,1,10.378,6.152A14.516,14.516,0,0,0,30.956,81.9s4.261,1.634,3.372,8.983A31.222,31.222,0,0,1,38.5,96.609,32.244,32.244,0,0,0,39.3,84.73s3.443,4.722,0,13.414l2.924,5.864a44.979,44.979,0,0,0,2.233-13.6s2.838,5.382-1.634,15.128l2.076,6.155a54.252,54.252,0,0,0,3.293-12.714,21.593,21.593,0,0,1-2.78,14.533l.954,4.3s2.13-5.731,2.585-7.434.944-1.7.944-1.7A22.288,22.288,0,0,1,46.781,119.6,54.814,54.814,0,0,0,48.716,128.492Z" transform="translate(-18.672 -80)" fill="#1c3746"/>
        </g>
      </g>
      <g id="Group_2231" data-name="Group 2231" transform="translate(136.778 249.619)">
        <ellipse id="Ellipse_50" data-name="Ellipse 50" cx="51.292" cy="9.79" rx="51.292" ry="9.79" transform="translate(0 103.52)" fill="#1d1e2c"/>
        <path id="Path_3040" data-name="Path 3040" d="M95.8,75.174l-.181,2.411a49.876,49.876,0,0,1-5.307,17.231A49.138,49.138,0,0,1,63.9,118.522q-1.718.672-3.563,1.255L58.965,115.5a50.639,50.639,0,0,0,9.9-4.295A43.614,43.614,0,0,0,86.2,92.945a48.932,48.932,0,0,0,4.548-13.281H74.069v-4.49Z" transform="translate(5.885 -67.74)" fill="#f0d154"/>
        <path id="Path_3041" data-name="Path 3041" d="M61.211,118.521a49.145,49.145,0,0,0,26.415-23.7,49.8,49.8,0,0,0,5.307-17.231l.181-2.411h1.86l-.181,2.411a49.725,49.725,0,0,1-5.3,17.231,49.15,49.15,0,0,1-26.412,23.7q-1.718.672-3.566,1.258l-.178-.561Q60.293,118.875,61.211,118.521Z" transform="translate(6.778 -67.735)" fill="#b89e43"/>
        <path id="Path_3042" data-name="Path 3042" d="M77.366,115.5l-1.371,4.278q-1.847-.585-3.566-1.258a49.137,49.137,0,0,1-26.412-23.7,49.8,49.8,0,0,1-5.307-17.231l-.181-2.411H62.252v4.49H45.568a48.775,48.775,0,0,0,4.565,13.281,43.586,43.586,0,0,0,17.33,18.26A50.58,50.58,0,0,0,77.366,115.5Z" transform="translate(-38.723 -67.738)" fill="#f0d154"/>
        <path id="Path_3043" data-name="Path 3043" d="M74.271,118.521a49.15,49.15,0,0,1-26.412-23.7,49.8,49.8,0,0,1-5.307-17.231l-.181-2.411H40.507l.181,2.411A49.8,49.8,0,0,0,46,94.817a49.15,49.15,0,0,0,26.412,23.7q1.718.672,3.566,1.258l.181-.561Q75.2,118.875,74.271,118.521Z" transform="translate(-38.773 -67.735)" fill="#b89e43"/>
        <path id="Path_3044" data-name="Path 3044" d="M97.985,121.1v24.2H47.794V121.1l1.6-2.11c16.263-5.731,19.556-20.674,20.216-26.583a23.689,23.689,0,0,0,.168-2.462h6.2a23.689,23.689,0,0,0,.168,2.462c.67,5.912,3.963,20.859,20.216,26.583Z" transform="translate(-21.143 -31.99)" fill="#f0d154"/>
        <rect id="Rectangle_1327" data-name="Rectangle 1327" width="50.188" height="3.037" transform="translate(26.652 89.107)" fill="#b89e43"/>
        <path id="Path_3045" data-name="Path 3045" d="M52.049,118.989c16.266-5.728,19.559-20.671,20.216-26.579a23.693,23.693,0,0,0,.168-2.462h-2.66a23.685,23.685,0,0,1-.164,2.462c-.67,5.912-3.963,20.859-20.216,26.579l-1.6,2.113v24.2h2.66v-24.2Z" transform="translate(-21.14 -31.995)" fill="#b89e43"/>
        <path id="Path_3046" data-name="Path 3046" d="M58.309,90.009l-1.375,4.278q-1.841-.585-3.563-1.258a47.492,47.492,0,0,1-4.965-7.318A50.593,50.593,0,0,0,58.309,90.009Z" transform="translate(-19.662 -42.246)" fill="#f0d154"/>
        <path id="Path_3047" data-name="Path 3047" d="M58.965,90.007a50.845,50.845,0,0,0,9.9-4.295A47.658,47.658,0,0,1,63.9,93.03q-1.718.672-3.563,1.255Z" transform="translate(5.885 -42.244)" fill="#f0d154"/>
        <path id="Path_3048" data-name="Path 3048" d="M67.884,75.174q-.159,2.272-.4,4.49h-4.1v-4.49Z" transform="translate(16.576 -67.74)" fill="#f0d154"/>
        <path id="Path_3049" data-name="Path 3049" d="M60.717,92.41a17.391,17.391,0,0,1-6.541,0,23.684,23.684,0,0,0,.168-2.462H60.55A23.685,23.685,0,0,0,60.717,92.41Z" transform="translate(-5.702 -31.995)" fill="#f0d154"/>
        <path id="Path_3050" data-name="Path 3050" d="M45.72,73c.116,33.281,14.485,60.2,32.191,60.2S109.982,106.278,110.1,73Z" transform="translate(-26.161 -73)" fill="#f0d154"/>
        <path id="Path_3051" data-name="Path 3051" d="M51.442,73H45.721c.116,33.281,14.481,60.2,32.191,60.2a17.035,17.035,0,0,0,2.859-.239C64.395,130.245,51.548,104.473,51.442,73Z" transform="translate(-26.158 -73)" fill="#b89e43"/>
        <rect id="Rectangle_1328" data-name="Rectangle 1328" width="34.137" height="8.713" transform="translate(34.677 98.372)" fill="#b89e43"/>
        <path id="Path_3052" data-name="Path 3052" d="M51.738,102.958H84.277v-1.19H50.141v8.713h1.6Z" transform="translate(-15.464 -3.397)" fill="#f0d154"/>
        <g id="Group_2230" data-name="Group 2230" transform="translate(45.834 13.028)">
          <path id="Path_3053" data-name="Path 3053" d="M58.164,80.664H53.4l2.281-3.854h6.63v27.311H58.164Z" transform="translate(-53.404 -76.81)" fill="#fff"/>
        </g>
      </g>
    </g>
  </g>
</svg>
