<svg id="ic_menu_delete" xmlns="http://www.w3.org/2000/svg" width="24" height="24" viewBox="0 0 24 24">
  <rect id="Rectangle_1324" data-name="Rectangle 1324" width="24" height="24" transform="translate(0 0)" fill="none"/>
  <g id="Group_2243" data-name="Group 2243" transform="translate(-147.842 35.013)">
    <path id="Path_3022" data-name="Path 3022" d="M169.841-30.613h-4.5v-1.2a3.2,3.2,0,0,0-3.2-3.2h-4.6a3.2,3.2,0,0,0-3.2,3.2v1.2h-4.5a1,1,0,0,0-1,1,1,1,0,0,0,1,1h1.2v14.4a3.2,3.2,0,0,0,3.2,3.2h11.2a3.2,3.2,0,0,0,3.2-3.2v-14.4h1.2a1,1,0,0,0,1-1A1,1,0,0,0,169.841-30.613Zm-13.5-1.2a1.2,1.2,0,0,1,1.2-1.2h4.6a1.2,1.2,0,0,1,1.2,1.2v1.2h-7Zm10.3,17.6a1.2,1.2,0,0,1-1.2,1.2h-11.2a1.2,1.2,0,0,1-1.2-1.2v-14.4h13.6Z" fill="#294658"/>
    <path id="Path_3023" data-name="Path 3023" d="M157.54-25.113a1,1,0,0,0-1,1v6.6a1,1,0,0,0,1,1,1,1,0,0,0,1-1v-6.6A1,1,0,0,0,157.54-25.113Z" fill="#294658"/>
    <path id="Path_3024" data-name="Path 3024" d="M162.141-25.113a1,1,0,0,0-1,1v6.6a1,1,0,0,0,1,1,1,1,0,0,0,1-1v-6.6A1,1,0,0,0,162.141-25.113Z" fill="#294658"/>
  </g>
</svg>
