<svg xmlns="http://www.w3.org/2000/svg" width="20.891" height="24.508" viewBox="0 0 20.891 24.508">
  <path id="Path_2964" data-name="Path 2964" d="M-700.245-312.128a.452.452,0,0,1-.452.452h-12.658a.452.452,0,0,1-.452-.452.452.452,0,0,1,.452-.452H-700.7A.452.452,0,0,1-700.245-312.128Zm-13.11-7.685h7.233a.452.452,0,0,0,.452-.452.452.452,0,0,0-.452-.452h-7.233a.452.452,0,0,0-.452.452A.452.452,0,0,0-713.355-319.813Zm-.452,3.617a.452.452,0,0,0,.452.452H-700.7a.452.452,0,0,0,.452-.452.452.452,0,0,0-.452-.452h-12.658A.452.452,0,0,0-713.807-316.2Zm16.7-4.069v17.179a1.808,1.808,0,0,1-1.808,1.808h-16.275A1.808,1.808,0,0,1-717-303.087v-19.891a1.808,1.808,0,0,1,1.808-1.808h13.562Zm-.9.452h-4.069v-4.069h-13.11a.9.9,0,0,0-.9.9v19.891a.906.906,0,0,0,.9.9h16.275a.906.906,0,0,0,.9-.9Z" transform="translate(717.5 325.286)" fill="none" stroke="#294557" stroke-linejoin="round" stroke-width="1"/>
</svg>
