<svg xmlns="http://www.w3.org/2000/svg" width="17.5" height="20" viewBox="0 0 17.5 20">
  <path id="Icon_metro-attachment" data-name="Icon metro-attachment" d="M15.914,8.316,14.646,7.048,8.3,13.39A2.691,2.691,0,1,0,12.108,17.2l7.613-7.611a4.485,4.485,0,0,0-6.343-6.342L5.384,11.234l-.017.017A6.256,6.256,0,0,0,14.215,20.1l.016-.017h0l5.456-5.455-1.269-1.268-5.456,5.454-.017.016a4.461,4.461,0,0,1-6.31-6.308l.017-.017h0L14.646,4.51a2.691,2.691,0,0,1,3.806,3.805l-7.613,7.611A.9.9,0,1,1,9.57,14.659l6.344-6.343Z" transform="translate(-3.535 -1.928)" fill="#FFFFFF"/>
</svg>
