<svg id="Group_773" data-name="Group 773" xmlns="http://www.w3.org/2000/svg" width="38.087" height="38.087" viewBox="0 0 38.087 38.087">
  <path id="Path_360" data-name="Path 360" d="M38.087,19.043A18.993,18.993,0,0,1,36.7,26.182L36.7,26.2h0a18.959,18.959,0,0,1-2.411,4.262q-.285.38-.588.745c-.074.089-.149.177-.224.265q-.579.672-1.218,1.287-.149.144-.3.284l-.071.065a19.03,19.03,0,0,1-1.558,1.279q-.545.4-1.119.766-.126.08-.254.158-.221.135-.447.264-.294.169-.6.327c-.081.043-.163.085-.245.127-.119.061-.239.121-.361.179l-.063.03c-.079.038-.159.075-.239.113A18.867,18.867,0,0,1,23.769,37.5l-.018,0-.219.054-.165.039-.021.005c-.113.026-.226.052-.341.075l-.193.04-.117.023-.146.028-.082.015-.185.033c-.1.018-.211.035-.316.051l-.229.034-.271.036-.074.01-.1.012-.195.022-.1.011-.193.019-.249.021-.3.021-.2.011c-.168.009-.336.015-.5.02l-.253.005h0l-.253,0a19.1,19.1,0,0,1-2.561-.171q-.934-.125-1.838-.339l-.072-.017-.181-.045-.16-.042a18.891,18.891,0,0,1-3.978-1.532l-.019-.01-.109-.057-.237-.127q-.672-.369-1.309-.79-.164-.107-.325-.218l-.1-.071-.106-.074q-.139-.1-.277-.2-.57-.419-1.107-.879A19.142,19.142,0,0,1,3.329,29.8q-.494-.72-.923-1.486a19.045,19.045,0,1,1,35.681-9.273Z" transform="translate(0 0)" fill="#a7c2cc"/>
  <path id="Path_361" data-name="Path 361" d="M392.35,227.565l.181-.044.16-.042c0-.112.007-.236.011-.369.033-1.046.112-2.729.3-4.757q.015-.163.031-.328c.066-.687.143-1.41.235-2.16,0-.025.006-.049.009-.074.075-.607.16-1.231.256-1.867q.1-.667.217-1.348l.017-.1c.023-.131.046-.262.069-.394q.1-.55.21-1.1c.26-1.3.569-2.6.938-3.875a31.033,31.033,0,0,1,1.382-3.866,19.09,19.09,0,0,1,1.506-2.807l.025-.038a10.771,10.771,0,0,1,2.554-2.771l-.2-.274a11.063,11.063,0,0,0-2.549,2.71l-.011.016a18.449,18.449,0,0,0-1.517,2.719,29.7,29.7,0,0,0-1.447,3.908q-.554,1.861-.995,4.032-.155.765-.3,1.567l-.047.274s0,0,0,0c-.024.141-.047.282-.071.424q-.088.538-.166,1.068-.12.816-.217,1.6-.032.26-.062.517-.042.362-.08.714-.053.49-.1.96l-.008.086-.013.148C392.444,224.571,392.372,226.563,392.35,227.565Z" transform="translate(-370.244 -190.006)" opacity="0.2" style="isolation: isolate"/>
  <path id="Path_362" data-name="Path 362" d="M469.01,477.29l.019-.01c.116-.06.231-.122.346-.185.038-.45.088-.944.155-1.463.014-.107.028-.216.044-.325.008-.059.016-.118.025-.178.066-.457.145-.93.24-1.4a11.575,11.575,0,0,1,2.085-5.136c.057-.066.115-.129.175-.19a3.817,3.817,0,0,1,.485-.425l-.2-.273a4.333,4.333,0,0,0-.665.608q-.106.118-.206.245a12,12,0,0,0-1.966,4.849c-.1.47-.182.939-.254,1.4q-.027.179-.052.355C469.131,475.927,469.059,476.658,469.01,477.29Z" transform="translate(-442.585 -441.349)" opacity="0.2" style="isolation: isolate"/>
  <ellipse id="Ellipse_41" data-name="Ellipse 41" cx="1.695" cy="1.695" rx="1.695" ry="1.695" transform="translate(30.405 8.22)" opacity="0.2" style="isolation: isolate"/>
  <ellipse id="Ellipse_42" data-name="Ellipse 42" cx="1.695" cy="1.695" rx="1.695" ry="1.695" transform="translate(29.859 22.813)" opacity="0.2" style="isolation: isolate"/>
  <path id="Path_363" data-name="Path 363" d="M412.376,168.236a7.531,7.531,0,0,1-.434,3.865,6.863,6.863,0,0,1-1.3-7.345A7.53,7.53,0,0,1,412.376,168.236Z" transform="translate(-387.006 -155.473)" opacity="0.2" style="isolation: isolate"/>
  <path id="Path_364" data-name="Path 364" d="M485.324,270.909a7.568,7.568,0,0,1-3.878.253,6.9,6.9,0,0,1,7.006-2.562A7.568,7.568,0,0,1,485.324,270.909Z" transform="translate(-454.32 -253.332)" opacity="0.2" style="isolation: isolate"/>
  <path id="Path_365" data-name="Path 365" d="M510.542,512.412a5.278,5.278,0,0,1-2.721.172,4.81,4.81,0,0,1,4.91-1.8A5.278,5.278,0,0,1,510.542,512.412Z" transform="translate(-479.21 -481.912)" opacity="0.2" style="isolation: isolate"/>
  <path id="Path_366" data-name="Path 366" d="M439.96,536.27l.069.035C440.022,536.379,440.006,536.424,439.96,536.27Z" transform="translate(-415.172 -506.056)" fill="#2f2e41"/>
  <path id="Path_367" data-name="Path 367" d="M441.2,534.5c0,.008,0,.016,0,.024l-.024-.012c0-.007,0-.015,0-.023C441.188,534.393,441.181,534.277,441.2,534.5Z" transform="translate(-416.323 -504.265)" fill="#2f2e41"/>
  <ellipse id="Ellipse_43" data-name="Ellipse 43" cx="9.252" cy="9.252" rx="9.252" ry="9.252" transform="translate(8.309 9.039)" fill="#353535"/>
  <ellipse id="Ellipse_44" data-name="Ellipse 44" cx="5.603" cy="5.603" rx="5.603" ry="5.603" transform="translate(12.72 15.96)" fill="#fff9f5"/>
  <path id="Path_368" data-name="Path 368" d="M161.246,448.19l-.007,0-1.3.313-2.713.651-.37.089-4.126.99-.35.084-10.011,2.4a18.754,18.754,0,0,1-1.98-.892l-.019-.01-.109-.057-.237-.127q-.672-.369-1.309-.79-.164-.107-.325-.218l-.1-.071-.106-.074q-.139-.1-.277-.2c.973-1.767,3.288-2.942,5.6-3.585,1.748-.485,2.132-2.082,2.1-3.5a8.283,8.283,0,0,0-.082-.968,9.44,9.44,0,0,0-.336-1.507l5.6.187.578,1.332a3.017,3.017,0,0,0-.015.441,2.659,2.659,0,0,0,1.551,2.255c.108.059.219.114.332.166a8.779,8.779,0,0,0,2.971.663,5.717,5.717,0,0,1,1.47.028q.177.027.345.065a4.965,4.965,0,0,1,1.809.81,5.15,5.15,0,0,1,.587.486A4.656,4.656,0,0,1,161.246,448.19Z" transform="translate(-130.13 -415.889)" fill="#fff9f5"/>
  <path id="Path_369" data-name="Path 369" d="M484.29,567.792l-.071.065a19.044,19.044,0,0,1-1.558,1.279q-.545.4-1.119.766-.126.08-.254.158-.221.135-.447.264-.294.169-.6.327c-.081.044-.163.085-.245.127-.12.062-.239.121-.361.179l-.063.03-.238-.2,2.8-3.421.563-.688a1.566,1.566,0,0,1,.74.375,7.374,7.374,0,0,1,.805.7Z" transform="translate(-452.333 -534.752)" fill="#fff9f5"/>
  <path id="Path_370" data-name="Path 370" d="M201.511,555.25a.641.641,0,0,1-.032.1,19.092,19.092,0,0,1-1.558,1.279,6.649,6.649,0,0,1-1.453.345s.042.212.081.578q-.221.135-.447.264-.294.169-.6.327c-.081.044-.163.085-.245.127-.119.062-.239.121-.361.179l-.063.03c-.079.038-.159.076-.239.113a18.848,18.848,0,0,1-3.237,1.149l-.018,0-.219.054-.165.039-.021.005c-.113.026-.226.052-.341.075l-.193.04-.117.023-.146.028-.082.015-.185.033c-.1.018-.211.036-.316.051l-.229.034-.271.036-.074.01-.1.012-.195.022-.1.011-.193.019-.249.021-.3.022-.2.011c-.168.009-.336.015-.5.02l-.253.005h0l-.253,0a19.082,19.082,0,0,1-2.561-.171q-.934-.125-1.838-.339l-.072-.017-.181-.045-.16-.042a18.892,18.892,0,0,1-3.978-1.532l-.019-.01-.109-.058c3.093-.72,7.98-1.857,12.221-2.831l.354-.081c1.566-.359,3.033-.694,4.275-.974l.377-.085c1.334-.3,2.369-.527,2.931-.641a4.611,4.611,0,0,1,.459-.081l1.172,1.817Z" transform="translate(-169.594 -522.249)" fill="#353535"/>
  <ellipse id="Ellipse_45" data-name="Ellipse 45" cx="2.756" cy="2.756" rx="2.756" ry="2.756" transform="translate(6.341 8.842)" fill="#353535"/>
  <ellipse id="Ellipse_46" data-name="Ellipse 46" cx="2.756" cy="2.756" rx="2.756" ry="2.756" transform="translate(23.269 8.055)" fill="#353535"/>
  <path id="Path_371" data-name="Path 371" d="M399.548,124.752a2.756,2.756,0,0,1,2.461-2.74,2.756,2.756,0,1,0,0,5.479A2.756,2.756,0,0,1,399.548,124.752Z" transform="translate(-376.476 -115.122)" fill="#353535"/>
  <path id="Path_372" data-name="Path 372" d="M86.494,183.8a2.756,2.756,0,0,1-.16-3.679,2.756,2.756,0,1,0,3.835,3.914A2.756,2.756,0,0,1,86.494,183.8Z" transform="translate(-80.476 -169.972)" fill="#353535"/>
  <path id="Path_373" data-name="Path 373" d="M212.774,247.777c-3.261,0-5.905,1.542-5.905,3.445a2.8,2.8,0,0,0,1.409,2.23l1.137-.824-.309,1.29c.128.059.259.117.4.17l1.7-1.981v2.434a9.9,9.9,0,0,0,1.575.125c3.261,0,5.905-1.542,5.905-3.445S216.036,247.777,212.774,247.777Z" transform="translate(-195.214 -233.817)" fill="#353535"/>
  <path id="Path_374" data-name="Path 374" d="M412.582,191.876s-.428,1.968,2.247,2.756Z" transform="translate(-389.312 -181.065)" fill="#353535"/>
  <path id="Path_375" data-name="Path 375" d="M173.9,198.235s.984,2.2-1.968,3.185Z" transform="translate(-162.244 -187.066)" fill="#353535"/>
  <ellipse id="Ellipse_47" data-name="Ellipse 47" cx="0.467" cy="1.121" rx="0.467" ry="1.121" transform="matrix(0.963, -0.27, 0.27, 0.963, 12.061, 21.73)" fill="#fff9f5"/>
  <ellipse id="Ellipse_48" data-name="Ellipse 48" cx="1.121" cy="0.467" rx="1.121" ry="0.467" transform="translate(23.484 22.839) rotate(-86.476)" fill="#fff9f5"/>
</svg>
