<svg id="Group_736" data-name="Group 736" xmlns="http://www.w3.org/2000/svg" width="35.371" height="35.371" viewBox="0 0 35.371 35.371">
  <path id="Path_360" data-name="Path 360" d="M35.371,17.686a17.638,17.638,0,0,1-1.285,6.629l-.006.014h0a17.607,17.607,0,0,1-2.239,3.958q-.264.353-.546.692c-.069.083-.138.165-.208.246q-.538.624-1.131,1.2-.138.133-.279.264l-.066.061a17.672,17.672,0,0,1-1.447,1.188q-.506.374-1.039.711-.117.075-.235.147-.206.126-.415.245-.273.157-.553.3c-.075.04-.151.079-.227.118-.111.057-.222.112-.335.166l-.058.028c-.073.036-.148.07-.222.1a17.522,17.522,0,0,1-3.007,1.067l-.017,0-.2.05-.153.036-.019,0c-.105.025-.21.048-.317.07l-.179.037-.109.021-.136.026-.076.014-.172.031c-.1.017-.2.033-.294.048l-.213.031-.252.033-.069.009-.089.011-.181.02-.094.01-.179.017-.231.02-.283.02-.183.01c-.156.008-.312.014-.469.018l-.235,0h0l-.235,0a17.738,17.738,0,0,1-2.378-.159Q14.44,35.1,13.6,34.9l-.067-.016-.168-.041-.149-.039a17.544,17.544,0,0,1-3.694-1.423L9.5,33.369l-.1-.053-.22-.118q-.624-.343-1.216-.734-.152-.1-.3-.2L7.571,32.2l-.1-.069q-.13-.092-.257-.186-.53-.389-1.028-.817a17.777,17.777,0,0,1-3.1-3.446q-.459-.669-.857-1.38a17.687,17.687,0,1,1,33.137-8.612Z" transform="translate(0 0)" fill="#e4e4e4"/>
  <path id="Path_361" data-name="Path 361" d="M392.35,225.7l.168-.041.149-.039c0-.1.006-.219.01-.343.031-.971.1-2.535.275-4.418q.014-.152.028-.305c.061-.638.133-1.31.219-2.006,0-.023.006-.046.008-.069.07-.564.149-1.143.237-1.734q.093-.619.2-1.252l.016-.088c.021-.122.042-.243.064-.366q.092-.511.2-1.026c.241-1.206.529-2.418.871-3.6a28.808,28.808,0,0,1,1.284-3.59,17.727,17.727,0,0,1,1.4-2.607l.024-.036a10,10,0,0,1,2.372-2.574l-.186-.254a10.275,10.275,0,0,0-2.367,2.517l-.01.015a17.137,17.137,0,0,0-1.409,2.525,27.585,27.585,0,0,0-1.344,3.63q-.515,1.728-.924,3.745-.144.71-.274,1.456l-.044.255s0,0,0,0c-.022.131-.044.262-.066.394q-.082.5-.154.992-.111.758-.2,1.49-.03.242-.058.48-.039.336-.074.663-.05.455-.091.891l-.008.08-.013.138C392.437,222.915,392.371,224.766,392.35,225.7Z" transform="translate(-371.821 -190.814)" opacity="0.2" style="isolation: isolate"/>
  <path id="Path_362" data-name="Path 362" d="M469.01,476.606l.018-.009c.108-.056.215-.113.321-.172.035-.418.082-.877.144-1.359.013-.1.026-.2.041-.3.007-.054.015-.109.023-.165.062-.425.135-.863.223-1.3a10.75,10.75,0,0,1,1.936-4.77c.053-.061.107-.12.163-.177a3.542,3.542,0,0,1,.45-.395l-.186-.254a4.026,4.026,0,0,0-.617.565q-.1.109-.191.227a11.146,11.146,0,0,0-1.826,4.5c-.092.436-.169.872-.236,1.3q-.025.167-.048.33C469.122,475.34,469.055,476.019,469.01,476.606Z" transform="translate(-444.469 -443.228)" opacity="0.2" style="isolation: isolate"/>
  <ellipse id="Ellipse_41" data-name="Ellipse 41" cx="1.574" cy="1.574" rx="1.574" ry="1.574" transform="translate(28.237 7.634)" opacity="0.2" style="isolation: isolate"/>
  <ellipse id="Ellipse_42" data-name="Ellipse 42" cx="1.574" cy="1.574" rx="1.574" ry="1.574" transform="translate(27.73 21.186)" opacity="0.2" style="isolation: isolate"/>
  <path id="Path_363" data-name="Path 363" d="M412.214,167.988a6.994,6.994,0,0,1-.4,3.589,6.374,6.374,0,0,1-1.209-6.821A6.994,6.994,0,0,1,412.214,167.988Z" transform="translate(-388.653 -156.135)" opacity="0.2" style="isolation: isolate"/>
  <path id="Path_364" data-name="Path 364" d="M485.048,270.734a7.028,7.028,0,0,1-3.6.235,6.412,6.412,0,0,1,6.506-2.379A7.028,7.028,0,0,1,485.048,270.734Z" transform="translate(-456.255 -254.411)" opacity="0.2" style="isolation: isolate"/>
  <path id="Path_365" data-name="Path 365" d="M510.348,512.289a4.9,4.9,0,0,1-2.526.16,4.467,4.467,0,0,1,4.56-1.667A4.9,4.9,0,0,1,510.348,512.289Z" transform="translate(-481.25 -483.964)" opacity="0.2" style="isolation: isolate"/>
  <path id="Path_366" data-name="Path 366" d="M439.96,536.27l.064.033C440.017,536.371,440,536.413,439.96,536.27Z" transform="translate(-416.939 -508.21)" fill="#2f2e41"/>
  <path id="Path_367" data-name="Path 367" d="M441.2,534.494c0,.007,0,.015,0,.023l-.023-.012c0-.007,0-.014,0-.021C441.187,534.392,441.181,534.284,441.2,534.494Z" transform="translate(-418.095 -506.412)" fill="#2f2e41"/>
  <ellipse id="Ellipse_43" data-name="Ellipse 43" cx="8.592" cy="8.592" rx="8.592" ry="8.592" transform="translate(7.717 8.394)" fill="#353535"/>
  <ellipse id="Ellipse_44" data-name="Ellipse 44" cx="5.203" cy="5.203" rx="5.203" ry="5.203" transform="translate(11.813 14.822)" fill="#fff9f5"/>
  <path id="Path_368" data-name="Path 368" d="M159.582,447.658h-.006l-1.21.29-2.52.6-.344.083-3.832.919-.325.078-9.3,2.231a17.431,17.431,0,0,1-1.839-.828l-.018-.009-.1-.053-.22-.118q-.624-.343-1.216-.734-.152-.1-.3-.2l-.095-.066-.1-.069q-.129-.092-.257-.186c.9-1.641,3.054-2.732,5.2-3.329,1.623-.451,1.98-1.933,1.949-3.252a7.7,7.7,0,0,0-.076-.9,8.766,8.766,0,0,0-.312-1.4l5.2.174.537,1.237a2.8,2.8,0,0,0-.014.409,2.47,2.47,0,0,0,1.44,2.094c.1.055.2.106.308.154a8.152,8.152,0,0,0,2.759.615,5.31,5.31,0,0,1,1.365.026q.165.025.32.06a4.61,4.61,0,0,1,1.68.752,4.785,4.785,0,0,1,.545.452A4.324,4.324,0,0,1,159.582,447.658Z" transform="translate(-130.684 -417.66)" fill="#fff9f5"/>
  <path id="Path_369" data-name="Path 369" d="M483.937,567.713l-.066.061a17.688,17.688,0,0,1-1.447,1.188q-.506.374-1.039.711-.117.075-.235.146-.206.126-.415.245-.273.157-.553.3c-.075.04-.151.079-.227.118-.111.057-.222.112-.335.166l-.058.028-.221-.184,2.6-3.177.523-.639a1.454,1.454,0,0,1,.688.349,6.836,6.836,0,0,1,.748.646Z" transform="translate(-454.259 -537.029)" fill="#fff9f5"/>
  <path id="Path_370" data-name="Path 370" d="M199.958,555.12a.592.592,0,0,1-.029.1,17.72,17.72,0,0,1-1.447,1.188,6.173,6.173,0,0,1-1.349.321s.039.2.075.537q-.206.125-.415.245-.273.157-.553.3c-.075.04-.151.079-.227.118-.111.057-.222.112-.335.166l-.058.028c-.073.036-.148.07-.222.1a17.518,17.518,0,0,1-3.007,1.067l-.017,0-.2.05-.153.036-.019,0c-.105.025-.21.048-.317.07l-.179.037-.109.021-.136.026-.076.013-.172.031c-.1.017-.2.033-.294.048l-.213.031-.252.034-.069.009-.089.011-.181.02-.094.01-.179.017-.231.02-.283.02-.183.01c-.156.009-.312.014-.469.018l-.235,0H188a17.729,17.729,0,0,1-2.378-.159q-.867-.116-1.707-.315l-.067-.016-.169-.041-.149-.039a17.546,17.546,0,0,1-3.694-1.423l-.018-.009-.1-.053c2.872-.669,7.411-1.725,11.349-2.629l.329-.075c1.455-.334,2.817-.644,3.97-.9l.351-.079c1.238-.278,2.2-.49,2.722-.6a4.28,4.28,0,0,1,.426-.075l1.089,1.688Z" transform="translate(-170.316 -524.472)" fill="#353535"/>
  <ellipse id="Ellipse_45" data-name="Ellipse 45" cx="2.559" cy="2.559" rx="2.559" ry="2.559" transform="translate(5.888 8.212)" fill="#353535"/>
  <ellipse id="Ellipse_46" data-name="Ellipse 46" cx="2.559" cy="2.559" rx="2.559" ry="2.559" transform="translate(21.61 7.48)" fill="#353535"/>
  <path id="Path_371" data-name="Path 371" d="M399.506,124.555a2.559,2.559,0,0,1,2.285-2.544,2.559,2.559,0,1,0,0,5.088A2.559,2.559,0,0,1,399.506,124.555Z" transform="translate(-378.078 -115.612)" fill="#353535"/>
  <path id="Path_372" data-name="Path 372" d="M86.407,183.537a2.559,2.559,0,0,1-.148-3.417,2.559,2.559,0,1,0,3.561,3.635A2.559,2.559,0,0,1,86.407,183.537Z" transform="translate(-80.819 -170.695)" fill="#353535"/>
  <path id="Path_373" data-name="Path 373" d="M212.353,247.777c-3.029,0-5.484,1.432-5.484,3.2a2.6,2.6,0,0,0,1.308,2.071l1.056-.765-.287,1.2c.119.055.241.109.368.158l1.577-1.84v2.261a9.2,9.2,0,0,0,1.463.116c3.029,0,5.484-1.432,5.484-3.2S215.382,247.777,212.353,247.777Z" transform="translate(-196.045 -234.812)" fill="#353535"/>
  <path id="Path_374" data-name="Path 374" d="M412.58,191.876s-.4,1.828,2.086,2.559Z" transform="translate(-390.97 -181.836)" fill="#353535"/>
  <path id="Path_375" data-name="Path 375" d="M173.759,198.235s.914,2.044-1.828,2.958Z" transform="translate(-162.935 -187.863)" fill="#353535"/>
  <ellipse id="Ellipse_47" data-name="Ellipse 47" cx="0.434" cy="1.041" rx="0.434" ry="1.041" transform="matrix(0.963, -0.27, 0.27, 0.963, 11.201, 20.181)" fill="#fff9f5"/>
  <ellipse id="Ellipse_48" data-name="Ellipse 48" cx="1.041" cy="0.434" rx="1.041" ry="0.434" transform="translate(21.809 21.211) rotate(-86.476)" fill="#fff9f5"/>
</svg>
