<svg xmlns="http://www.w3.org/2000/svg" width="48" height="48" viewBox="0 0 48 48">
  <g id="Group_2039" data-name="Group 2039" transform="translate(-27 -346)">
    <path id="Path_2983" data-name="Path 2983" d="M48,24a23.935,23.935,0,0,1-1.743,9l-.008.018h0a23.894,23.894,0,0,1-3.038,5.371q-.359.479-.741.939c-.093.112-.187.224-.282.334q-.73.847-1.535,1.622-.187.181-.379.358l-.089.082a23.98,23.98,0,0,1-1.963,1.612q-.687.508-1.41.965-.159.1-.32.2-.279.17-.563.333-.371.213-.751.413c-.1.055-.205.107-.308.16-.151.077-.3.152-.454.225l-.079.038c-.1.048-.2.1-.3.142a23.778,23.778,0,0,1-4.08,1.448l-.023.006-.276.068-.208.049-.026.006c-.143.033-.285.065-.43.094l-.243.05-.148.029-.185.036-.1.018-.234.042c-.132.023-.266.045-.4.065l-.289.043c-.114.016-.227.031-.342.045l-.094.012-.121.015-.246.028-.127.013-.243.023-.314.027c-.128.01-.255.019-.383.027l-.248.014c-.212.011-.423.019-.636.025L24.321,48h0L24,48a24.07,24.07,0,0,1-3.227-.216q-1.177-.158-2.316-.427l-.091-.022c-.077-.018-.153-.037-.229-.056l-.2-.053A23.807,23.807,0,0,1,12.922,45.3l-.024-.013-.137-.072q-.15-.079-.3-.16-.847-.465-1.65-1-.207-.135-.409-.275l-.129-.089-.133-.094q-.176-.125-.349-.252-.719-.528-1.4-1.108A24.123,24.123,0,0,1,4.2,37.56q-.623-.907-1.163-1.873A24,24,0,1,1,48,24Z" transform="translate(27 346)" fill="#e25348"/>
    <g id="Group_1993" data-name="Group 1993" transform="translate(39 358)">
      <path id="Path_2857" data-name="Path 2857" d="M422.849-328.24a7.2,7.2,0,0,0-5.6-7.016,1.773,1.773,0,0,0,.2-.806,1.8,1.8,0,0,0-1.8-1.8,1.8,1.8,0,0,0-1.8,1.8,1.775,1.775,0,0,0,.2.808,7.2,7.2,0,0,0-5.594,7.015v7.2l-2.4,2.4v1.2h7.516a2.374,2.374,0,0,0-.32,1.177,2.4,2.4,0,0,0,2.4,2.4,2.4,2.4,0,0,0,2.4-2.4,2.375,2.375,0,0,0-.32-1.177h7.525v-1.2l-2.4-2.4Z" transform="translate(-403.644 337.863)" fill="#fff"/>
      <path id="Path_2858" data-name="Path 2858" d="M422.617-328.313h2.4a11.98,11.98,0,0,0-4.285-9.187l-1.544,1.837A9.585,9.585,0,0,1,422.617-328.313Z" transform="translate(-401.017 337.936)" fill="#fff"/>
      <path id="Path_2859" data-name="Path 2859" d="M409.879-335.667l-1.544-1.837a11.983,11.983,0,0,0-4.29,9.192h2.4A9.586,9.586,0,0,1,409.879-335.667Z" transform="translate(-404.045 337.935)" fill="#fff"/>
    </g>
  </g>
</svg>
