<svg xmlns="http://www.w3.org/2000/svg" width="55.955" height="55.955" viewBox="0 0 55.955 55.955">
  <g id="Group_1960" data-name="Group 1960" transform="translate(0)">
    <g id="Group_697" data-name="Group 697" transform="translate(18.652)">
      <path id="Path_360" data-name="Path 360" d="M37.3,18.652a18.6,18.6,0,0,1-1.355,6.992l-.006.014h0a18.569,18.569,0,0,1-2.361,4.174q-.279.372-.576.73c-.072.087-.146.174-.219.259q-.567.658-1.193,1.261-.146.141-.295.278l-.07.064A18.636,18.636,0,0,1,29.7,33.676q-.534.395-1.1.75-.123.079-.248.155-.217.132-.438.259-.288.166-.583.321c-.079.042-.159.083-.239.124-.117.06-.235.118-.353.175l-.061.029c-.077.038-.156.074-.234.11a18.48,18.48,0,0,1-3.171,1.125l-.018,0-.215.053-.162.038-.02,0c-.111.026-.222.051-.334.073l-.189.039-.115.023-.143.028L22,37l-.182.033c-.1.018-.206.035-.31.05l-.225.033-.265.035-.073.009-.094.012-.191.022-.1.01-.189.018-.244.021-.3.021-.193.011c-.164.009-.329.015-.494.019l-.248,0h0l-.248,0a18.706,18.706,0,0,1-2.508-.168q-.915-.123-1.8-.332l-.071-.017-.178-.044-.157-.041a18.5,18.5,0,0,1-3.9-1.5l-.019-.01-.107-.056-.232-.125q-.658-.362-1.282-.774-.161-.105-.318-.214l-.1-.07-.1-.073q-.137-.1-.271-.2-.559-.411-1.084-.861A18.747,18.747,0,0,1,3.26,29.19q-.484-.705-.9-1.456A18.653,18.653,0,1,1,37.3,18.652Z" transform="translate(0)" fill="#a7c2cc"/>
      <path id="Path_361" data-name="Path 361" d="M392.35,227.025l.178-.044.157-.041c0-.11.007-.231.01-.361.033-1.024.109-2.673.29-4.66l.03-.322c.065-.673.14-1.381.231-2.115,0-.024.006-.048.009-.072.073-.595.157-1.206.25-1.828q.1-.653.213-1.32l.017-.093c.022-.129.045-.257.068-.386q.1-.539.206-1.082c.254-1.271.557-2.551.919-3.795a30.421,30.421,0,0,1,1.354-3.786,18.706,18.706,0,0,1,1.475-2.75l.025-.038a10.551,10.551,0,0,1,2.5-2.714l-.2-.268a10.836,10.836,0,0,0-2.5,2.654l-.011.016a18.08,18.08,0,0,0-1.486,2.663,29.1,29.1,0,0,0-1.417,3.828q-.543,1.823-.974,3.949-.151.749-.289,1.535c-.016.089-.031.179-.046.269,0,0,0,0,0,0-.024.138-.046.276-.07.416q-.086.527-.162,1.046-.118.8-.212,1.572-.031.255-.061.506-.041.354-.078.7-.052.48-.1.94l-.008.084-.013.145C392.442,224.093,392.372,226.044,392.35,227.025Z" transform="translate(-370.699 -190.239)" opacity="0.2" style="isolation: isolate"/>
      <path id="Path_362" data-name="Path 362" d="M469.01,477.092l.019-.01q.171-.089.339-.181c.037-.44.086-.924.152-1.433.014-.1.028-.211.043-.318.008-.057.016-.115.024-.174.065-.448.142-.91.235-1.375a11.336,11.336,0,0,1,2.042-5.03c.056-.065.112-.126.172-.187a3.746,3.746,0,0,1,.475-.417l-.2-.268a4.243,4.243,0,0,0-.651.6q-.1.115-.2.239a11.755,11.755,0,0,0-1.925,4.75c-.1.46-.179.92-.248,1.367q-.027.176-.051.348C469.129,475.758,469.057,476.474,469.01,477.092Z" transform="translate(-443.129 -441.891)" opacity="0.2" style="isolation: isolate"/>
      <ellipse id="Ellipse_41" data-name="Ellipse 41" cx="1.66" cy="1.66" rx="1.66" ry="1.66" transform="translate(29.779 8.051)" opacity="0.2" style="isolation: isolate"/>
      <ellipse id="Ellipse_42" data-name="Ellipse 42" cx="1.66" cy="1.66" rx="1.66" ry="1.66" transform="translate(29.244 22.343)" opacity="0.2" style="isolation: isolate"/>
      <path id="Path_363" data-name="Path 363" d="M412.329,168.164a7.376,7.376,0,0,1-.425,3.785,6.721,6.721,0,0,1-1.275-7.193A7.376,7.376,0,0,1,412.329,168.164Z" transform="translate(-387.481 -155.664)" opacity="0.2" style="isolation: isolate"/>
      <path id="Path_364" data-name="Path 364" d="M485.244,270.859a7.412,7.412,0,0,1-3.8.248,6.762,6.762,0,0,1,6.861-2.509A7.411,7.411,0,0,1,485.244,270.859Z" transform="translate(-454.879 -253.644)" opacity="0.2" style="isolation: isolate"/>
      <path id="Path_365" data-name="Path 365" d="M510.486,512.376a5.17,5.17,0,0,1-2.664.169,4.711,4.711,0,0,1,4.809-1.759A5.17,5.17,0,0,1,510.486,512.376Z" transform="translate(-479.799 -482.504)" opacity="0.2" style="isolation: isolate"/>
      <path id="Path_366" data-name="Path 366" d="M439.96,536.27l.067.035C440.021,536.377,440,536.421,439.96,536.27Z" transform="translate(-415.682 -506.678)" fill="#2f2e41"/>
      <path id="Path_367" data-name="Path 367" d="M441.2,534.5c0,.008,0,.016,0,.024l-.024-.012c0-.007,0-.015,0-.023C441.188,534.393,441.181,534.279,441.2,534.5Z" transform="translate(-416.835 -504.885)" fill="#2f2e41"/>
      <ellipse id="Ellipse_43" data-name="Ellipse 43" cx="9.061" cy="9.061" rx="9.061" ry="9.061" transform="translate(8.138 8.853)" fill="#353535"/>
      <ellipse id="Ellipse_44" data-name="Ellipse 44" cx="5.488" cy="5.488" rx="5.488" ry="5.488" transform="translate(12.458 15.631)" fill="#fff9f5"/>
      <path id="Path_368" data-name="Path 368" d="M160.766,448.037h-.007l-1.276.306-2.658.638-.363.087-4.042.97-.343.083-9.805,2.353a18.375,18.375,0,0,1-1.94-.874l-.019-.01-.106-.056-.232-.125q-.658-.362-1.282-.774-.161-.105-.318-.214l-.1-.069-.1-.073q-.137-.1-.271-.2c.952-1.731,3.22-2.882,5.488-3.511,1.712-.476,2.088-2.039,2.056-3.43a8.121,8.121,0,0,0-.081-.948,9.242,9.242,0,0,0-.329-1.476l5.488.183.566,1.3a2.944,2.944,0,0,0-.015.432,2.6,2.6,0,0,0,1.519,2.208c.106.058.215.112.325.162a8.6,8.6,0,0,0,2.91.649,5.6,5.6,0,0,1,1.44.027q.174.026.338.063a4.862,4.862,0,0,1,1.772.793,5.039,5.039,0,0,1,.574.476A4.559,4.559,0,0,1,160.766,448.037Z" transform="translate(-130.29 -416.4)" fill="#fff9f5"/>
      <path id="Path_369" data-name="Path 369" d="M484.188,567.769l-.07.064a18.6,18.6,0,0,1-1.526,1.253q-.534.395-1.1.75-.123.079-.248.154-.217.133-.437.259-.288.166-.583.321c-.079.043-.159.083-.239.124-.117.06-.234.118-.353.175l-.061.029-.233-.194,2.741-3.351.551-.674a1.534,1.534,0,0,1,.725.368,7.21,7.21,0,0,1,.789.681Z" transform="translate(-452.889 -535.409)" fill="#fff9f5"/>
      <path id="Path_370" data-name="Path 370" d="M201.063,555.213a.626.626,0,0,1-.031.1,18.667,18.667,0,0,1-1.526,1.253,6.512,6.512,0,0,1-1.423.338s.041.208.079.566q-.217.132-.438.259-.288.165-.583.32c-.079.043-.159.083-.239.124-.117.06-.235.118-.353.175l-.061.029c-.077.038-.156.074-.234.11a18.468,18.468,0,0,1-3.171,1.125l-.018,0-.215.053-.162.038-.02.005c-.111.026-.222.051-.334.073l-.189.039-.115.023-.144.028-.08.014-.182.033c-.1.018-.206.035-.31.05l-.225.033-.265.035-.073.009-.094.012-.191.021-.1.011-.189.018-.244.021-.3.021-.193.011c-.164.009-.329.015-.494.019l-.248.005h0l-.248,0a18.682,18.682,0,0,1-2.508-.168q-.915-.122-1.8-.332l-.071-.017-.178-.044-.157-.041a18.506,18.506,0,0,1-3.9-1.5l-.019-.01-.107-.056c3.029-.706,7.815-1.819,11.969-2.772l.347-.079c1.534-.352,2.971-.68,4.187-.954l.37-.083c1.306-.293,2.32-.516,2.871-.628q.222-.051.449-.079l1.148,1.78Z" transform="translate(-169.803 -522.891)" fill="#353535"/>
      <ellipse id="Ellipse_45" data-name="Ellipse 45" cx="2.699" cy="2.699" rx="2.699" ry="2.699" transform="translate(6.21 8.66)" fill="#353535"/>
      <ellipse id="Ellipse_46" data-name="Ellipse 46" cx="2.699" cy="2.699" rx="2.699" ry="2.699" transform="translate(22.791 7.889)" fill="#353535"/>
      <path id="Path_371" data-name="Path 371" d="M399.536,124.695a2.7,2.7,0,0,1,2.41-2.683,2.7,2.7,0,1,0,0,5.366A2.7,2.7,0,0,1,399.536,124.695Z" transform="translate(-376.938 -115.264)" fill="#353535"/>
      <path id="Path_372" data-name="Path 372" d="M86.469,183.723a2.7,2.7,0,0,1-.157-3.6,2.7,2.7,0,1,0,3.756,3.833A2.7,2.7,0,0,1,86.469,183.723Z" transform="translate(-80.575 -170.181)" fill="#353535"/>
      <path id="Path_373" data-name="Path 373" d="M212.653,247.777c-3.194,0-5.784,1.51-5.784,3.374a2.744,2.744,0,0,0,1.38,2.184l1.113-.807-.3,1.264c.126.058.254.115.388.167l1.663-1.941V254.4a9.694,9.694,0,0,0,1.542.122c3.194,0,5.784-1.511,5.784-3.374S215.847,247.777,212.653,247.777Z" transform="translate(-195.454 -234.104)" fill="#353535"/>
      <path id="Path_374" data-name="Path 374" d="M412.581,191.876s-.419,1.928,2.2,2.7Z" transform="translate(-389.791 -181.288)" fill="#353535"/>
      <path id="Path_375" data-name="Path 375" d="M173.859,198.235s.964,2.155-1.928,3.119Z" transform="translate(-162.443 -187.296)" fill="#353535"/>
      <ellipse id="Ellipse_47" data-name="Ellipse 47" cx="0.457" cy="1.098" rx="0.457" ry="1.098" transform="matrix(0.963, -0.27, 0.27, 0.963, 11.813, 21.283)" fill="#fff9f5"/>
      <ellipse id="Ellipse_48" data-name="Ellipse 48" cx="1.098" cy="0.457" rx="1.098" ry="0.457" transform="translate(23 22.369) rotate(-86.476)" fill="#fff9f5"/>
    </g>
    <g id="Group_698" data-name="Group 698" transform="translate(0 18.652)">
      <path id="Path_360-2" data-name="Path 360" d="M37.3,18.652a18.6,18.6,0,0,1-1.355,6.992l-.006.014h0a18.569,18.569,0,0,1-2.361,4.174q-.279.372-.576.73c-.072.087-.146.174-.219.259q-.567.658-1.193,1.261-.146.141-.295.278l-.07.064A18.636,18.636,0,0,1,29.7,33.676q-.534.395-1.1.75-.123.079-.248.155-.217.132-.438.259-.288.166-.583.321c-.079.042-.159.083-.239.124-.117.06-.235.118-.353.175l-.061.029c-.077.038-.156.074-.234.11a18.48,18.48,0,0,1-3.171,1.125l-.018,0-.215.053-.162.038-.02,0c-.111.026-.222.051-.334.073l-.189.039-.115.023-.143.028L22,37l-.182.033c-.1.018-.206.035-.31.05l-.225.033-.265.035-.073.009-.094.012-.191.022-.1.01-.189.018-.244.021-.3.021-.193.011c-.164.009-.329.015-.494.019l-.248,0h0l-.248,0a18.706,18.706,0,0,1-2.508-.168q-.915-.123-1.8-.332l-.071-.017-.178-.044-.157-.041a18.5,18.5,0,0,1-3.9-1.5l-.019-.01-.107-.056-.232-.125q-.658-.362-1.282-.774-.161-.105-.318-.214l-.1-.07-.1-.073q-.137-.1-.271-.2-.559-.411-1.084-.861A18.747,18.747,0,0,1,3.26,29.19q-.484-.705-.9-1.456A18.653,18.653,0,1,1,37.3,18.652Z" transform="translate(0)" fill="#f5e897"/>
      <path id="Path_361-2" data-name="Path 361" d="M392.35,227.025l.178-.044.157-.041c0-.11.007-.231.01-.361.033-1.024.109-2.673.29-4.66l.03-.322c.065-.673.14-1.381.231-2.115,0-.024.006-.048.009-.072.073-.595.157-1.206.25-1.828q.1-.653.213-1.32l.017-.093c.022-.129.045-.257.068-.386q.1-.539.206-1.082c.254-1.271.557-2.551.919-3.795a30.421,30.421,0,0,1,1.354-3.786,18.706,18.706,0,0,1,1.475-2.75l.025-.038a10.551,10.551,0,0,1,2.5-2.714l-.2-.268a10.836,10.836,0,0,0-2.5,2.654l-.011.016a18.08,18.08,0,0,0-1.486,2.663,29.1,29.1,0,0,0-1.417,3.828q-.543,1.823-.974,3.949-.151.749-.289,1.535c-.016.089-.031.179-.046.269,0,0,0,0,0,0-.024.138-.046.276-.07.416q-.086.527-.162,1.046-.118.8-.212,1.572-.031.255-.061.506-.041.354-.078.7-.052.48-.1.94l-.008.084-.013.145C392.442,224.093,392.372,226.044,392.35,227.025Z" transform="translate(-370.699 -190.239)" opacity="0.2" style="isolation: isolate"/>
      <path id="Path_362-2" data-name="Path 362" d="M469.01,477.092l.019-.01q.171-.089.339-.181c.037-.44.086-.924.152-1.433.014-.1.028-.211.043-.318.008-.057.016-.115.024-.174.065-.448.142-.91.235-1.375a11.336,11.336,0,0,1,2.042-5.03c.056-.065.112-.126.172-.187a3.746,3.746,0,0,1,.475-.417l-.2-.268a4.243,4.243,0,0,0-.651.6q-.1.115-.2.239a11.755,11.755,0,0,0-1.925,4.75c-.1.46-.179.92-.248,1.367q-.027.176-.051.348C469.129,475.758,469.057,476.474,469.01,477.092Z" transform="translate(-443.129 -441.891)" opacity="0.2" style="isolation: isolate"/>
      <ellipse id="Ellipse_41-2" data-name="Ellipse 41" cx="1.66" cy="1.66" rx="1.66" ry="1.66" transform="translate(29.779 8.051)" opacity="0.2" style="isolation: isolate"/>
      <ellipse id="Ellipse_42-2" data-name="Ellipse 42" cx="1.66" cy="1.66" rx="1.66" ry="1.66" transform="translate(29.244 22.343)" opacity="0.2" style="isolation: isolate"/>
      <path id="Path_363-2" data-name="Path 363" d="M412.329,168.164a7.376,7.376,0,0,1-.425,3.785,6.721,6.721,0,0,1-1.275-7.193A7.376,7.376,0,0,1,412.329,168.164Z" transform="translate(-387.481 -155.664)" opacity="0.2" style="isolation: isolate"/>
      <path id="Path_364-2" data-name="Path 364" d="M485.244,270.859a7.412,7.412,0,0,1-3.8.248,6.762,6.762,0,0,1,6.861-2.509A7.411,7.411,0,0,1,485.244,270.859Z" transform="translate(-454.879 -253.644)" opacity="0.2" style="isolation: isolate"/>
      <path id="Path_365-2" data-name="Path 365" d="M510.486,512.376a5.17,5.17,0,0,1-2.664.169,4.711,4.711,0,0,1,4.809-1.759A5.17,5.17,0,0,1,510.486,512.376Z" transform="translate(-479.799 -482.504)" opacity="0.2" style="isolation: isolate"/>
      <path id="Path_366-2" data-name="Path 366" d="M439.96,536.27l.067.035C440.021,536.377,440,536.421,439.96,536.27Z" transform="translate(-415.682 -506.678)" fill="#2f2e41"/>
      <path id="Path_367-2" data-name="Path 367" d="M441.2,534.5c0,.008,0,.016,0,.024l-.024-.012c0-.007,0-.015,0-.023C441.188,534.393,441.181,534.279,441.2,534.5Z" transform="translate(-416.835 -504.885)" fill="#2f2e41"/>
      <ellipse id="Ellipse_43-2" data-name="Ellipse 43" cx="9.061" cy="9.061" rx="9.061" ry="9.061" transform="translate(8.138 8.853)" fill="#353535"/>
      <ellipse id="Ellipse_44-2" data-name="Ellipse 44" cx="5.488" cy="5.488" rx="5.488" ry="5.488" transform="translate(12.458 15.631)" fill="#fff9f5"/>
      <path id="Path_368-2" data-name="Path 368" d="M160.766,448.037h-.007l-1.276.306-2.658.638-.363.087-4.042.97-.343.083-9.805,2.353a18.375,18.375,0,0,1-1.94-.874l-.019-.01-.106-.056-.232-.125q-.658-.362-1.282-.774-.161-.105-.318-.214l-.1-.069-.1-.073q-.137-.1-.271-.2c.952-1.731,3.22-2.882,5.488-3.511,1.712-.476,2.088-2.039,2.056-3.43a8.121,8.121,0,0,0-.081-.948,9.242,9.242,0,0,0-.329-1.476l5.488.183.566,1.3a2.944,2.944,0,0,0-.015.432,2.6,2.6,0,0,0,1.519,2.208c.106.058.215.112.325.162a8.6,8.6,0,0,0,2.91.649,5.6,5.6,0,0,1,1.44.027q.174.026.338.063a4.862,4.862,0,0,1,1.772.793,5.039,5.039,0,0,1,.574.476A4.559,4.559,0,0,1,160.766,448.037Z" transform="translate(-130.29 -416.4)" fill="#fff9f5"/>
      <path id="Path_369-2" data-name="Path 369" d="M484.188,567.769l-.07.064a18.6,18.6,0,0,1-1.526,1.253q-.534.395-1.1.75-.123.079-.248.154-.217.133-.437.259-.288.166-.583.321c-.079.043-.159.083-.239.124-.117.06-.234.118-.353.175l-.061.029-.233-.194,2.741-3.351.551-.674a1.534,1.534,0,0,1,.725.368,7.21,7.21,0,0,1,.789.681Z" transform="translate(-452.889 -535.409)" fill="#fff9f5"/>
      <path id="Path_370-2" data-name="Path 370" d="M201.063,555.213a.626.626,0,0,1-.031.1,18.667,18.667,0,0,1-1.526,1.253,6.512,6.512,0,0,1-1.423.338s.041.208.079.566q-.217.132-.438.259-.288.165-.583.32c-.079.043-.159.083-.239.124-.117.06-.235.118-.353.175l-.061.029c-.077.038-.156.074-.234.11a18.468,18.468,0,0,1-3.171,1.125l-.018,0-.215.053-.162.038-.02.005c-.111.026-.222.051-.334.073l-.189.039-.115.023-.144.028-.08.014-.182.033c-.1.018-.206.035-.31.05l-.225.033-.265.035-.073.009-.094.012-.191.021-.1.011-.189.018-.244.021-.3.021-.193.011c-.164.009-.329.015-.494.019l-.248.005h0l-.248,0a18.682,18.682,0,0,1-2.508-.168q-.915-.122-1.8-.332l-.071-.017-.178-.044-.157-.041a18.506,18.506,0,0,1-3.9-1.5l-.019-.01-.107-.056c3.029-.706,7.815-1.819,11.969-2.772l.347-.079c1.534-.352,2.971-.68,4.187-.954l.37-.083c1.306-.293,2.32-.516,2.871-.628q.222-.051.449-.079l1.148,1.78Z" transform="translate(-169.803 -522.891)" fill="#353535"/>
      <ellipse id="Ellipse_45-2" data-name="Ellipse 45" cx="2.699" cy="2.699" rx="2.699" ry="2.699" transform="translate(6.21 8.66)" fill="#353535"/>
      <ellipse id="Ellipse_46-2" data-name="Ellipse 46" cx="2.699" cy="2.699" rx="2.699" ry="2.699" transform="translate(22.791 7.889)" fill="#353535"/>
      <path id="Path_371-2" data-name="Path 371" d="M399.536,124.695a2.7,2.7,0,0,1,2.41-2.683,2.7,2.7,0,1,0,0,5.366A2.7,2.7,0,0,1,399.536,124.695Z" transform="translate(-376.938 -115.264)" fill="#353535"/>
      <path id="Path_372-2" data-name="Path 372" d="M86.469,183.723a2.7,2.7,0,0,1-.157-3.6,2.7,2.7,0,1,0,3.756,3.833A2.7,2.7,0,0,1,86.469,183.723Z" transform="translate(-80.575 -170.181)" fill="#353535"/>
      <path id="Path_373-2" data-name="Path 373" d="M212.653,247.777c-3.194,0-5.784,1.51-5.784,3.374a2.744,2.744,0,0,0,1.38,2.184l1.113-.807-.3,1.264c.126.058.254.115.388.167l1.663-1.941V254.4a9.694,9.694,0,0,0,1.542.122c3.194,0,5.784-1.511,5.784-3.374S215.847,247.777,212.653,247.777Z" transform="translate(-195.454 -234.104)" fill="#353535"/>
      <path id="Path_374-2" data-name="Path 374" d="M412.581,191.876s-.419,1.928,2.2,2.7Z" transform="translate(-389.791 -181.288)" fill="#353535"/>
      <path id="Path_375-2" data-name="Path 375" d="M173.859,198.235s.964,2.155-1.928,3.119Z" transform="translate(-162.443 -187.296)" fill="#353535"/>
      <ellipse id="Ellipse_47-2" data-name="Ellipse 47" cx="0.457" cy="1.098" rx="0.457" ry="1.098" transform="matrix(0.963, -0.27, 0.27, 0.963, 11.813, 21.283)" fill="#fff9f5"/>
      <ellipse id="Ellipse_48-2" data-name="Ellipse 48" cx="1.098" cy="0.457" rx="1.098" ry="0.457" transform="translate(23 22.369) rotate(-86.476)" fill="#fff9f5"/>
    </g>
  </g>
</svg>
