<svg id="ic_menu_edit" xmlns="http://www.w3.org/2000/svg" width="29" height="29" viewBox="0 0 29 29">
  <path id="Path_3021" data-name="Path 3021" d="M291.537-641.642H270.86a2.69,2.69,0,0,1-2.684-2.69v-20.7a2.69,2.69,0,0,1,2.684-2.689h7.385a1.209,1.209,0,0,1,1.208,1.21,1.209,1.209,0,0,1-1.208,1.21H270.86a.268.268,0,0,0-.267.269v20.7a.269.269,0,0,0,.267.27h20.677a.269.269,0,0,0,.267-.27v-7.394a1.21,1.21,0,0,1,1.208-1.21,1.209,1.209,0,0,1,1.208,1.21v7.394A2.69,2.69,0,0,1,291.537-641.642Zm-12.906-9.046,5.221-1.047a1.193,1.193,0,0,0,.617-.33l11.486-11.5a4.15,4.15,0,0,0,1.22-2.948,4.15,4.15,0,0,0-1.22-2.948,4.26,4.26,0,0,0-5.885,0l-11.488,11.5a1.213,1.213,0,0,0-.33.618l-1.045,5.229a1.21,1.21,0,0,0,.331,1.093,1.2,1.2,0,0,0,.854.354A1.207,1.207,0,0,0,278.631-650.688Zm4.984-2.233h0Zm8.165-14.83a1.782,1.782,0,0,1,2.467,0,1.737,1.737,0,0,1,.512,1.235,1.74,1.74,0,0,1-.512,1.237l-11.228,11.244-3.086.617.617-3.088Z" transform="translate(-268.176 670.642)" fill="#294658"/>
</svg>
