<svg xmlns="http://www.w3.org/2000/svg" width="35.234" height="30.405" viewBox="0 0 35.234 30.405">
  <g id="Group_828" data-name="Group 828" transform="translate(0.996 1)">
    <path id="Path_922" data-name="Path 922" d="M425.023,356.336" transform="translate(-399.145 -328.605)" fill="#fcfdfe" stroke="#294658" stroke-linecap="round" stroke-linejoin="round" stroke-width="2"/>
    <path id="Path_923" data-name="Path 923" d="M425.875,334.414A12.886,12.886,0,0,1,412.991,347.4H405.03l-1.545.059a1.186,1.186,0,0,0-.248.036l-10.094,2.542L392.678,338h0c-.09-1.222,0-2.29,0-3.485a12.886,12.886,0,0,1,12.884-12.884h7.1A13.1,13.1,0,0,1,425.875,334.414Z" transform="translate(-392.638 -321.632)" fill="#fcfdfe" stroke="#294658" stroke-linecap="round" stroke-linejoin="round" stroke-width="2"/>
    <circle id="Ellipse_166" data-name="Ellipse 166" cx="1.861" cy="1.861" r="1.861" transform="translate(8.443 12.462)" fill="none" stroke="#294658" stroke-miterlimit="10" stroke-width="2"/>
    <circle id="Ellipse_167" data-name="Ellipse 167" cx="1.861" cy="1.861" r="1.861" transform="translate(15.065 12.462)" fill="none" stroke="#294658" stroke-miterlimit="10" stroke-width="2"/>
    <circle id="Ellipse_168" data-name="Ellipse 168" cx="1.861" cy="1.861" r="1.861" transform="translate(21.686 12.462)" fill="none" stroke="#294658" stroke-miterlimit="10" stroke-width="2"/>
  </g>
</svg>
