<svg xmlns="http://www.w3.org/2000/svg" width="23.333" height="30" viewBox="0 0 23.333 30">
  <g id="Group_2533" data-name="Group 2533" transform="translate(21322 16048)">
    <g id="Icon_feather-bookmark" data-name="Icon feather-bookmark" transform="translate(-21329.5 -16052.5)" fill="none" stroke-linecap="round" stroke-linejoin="round">
      <path d="M30.833,34.5,19.167,26.167,7.5,34.5V7.833A3.333,3.333,0,0,1,10.833,4.5H27.5a3.333,3.333,0,0,1,3.333,3.333Z" stroke="none"/>
      <path d="M 28.83333778381348 30.61361694335938 L 28.83333778381348 7.833330154418945 C 28.83333778381348 7.098130226135254 28.23520851135254 6.5 27.49999809265137 6.5 L 10.83333778381348 6.5 C 10.09812831878662 6.5 9.499998092651367 7.098130226135254 9.499998092651367 7.833330154418945 L 9.499998092651367 30.61361694335938 L 18.00418853759766 24.53919982910156 C 18.35188865661621 24.29084587097168 18.75927734375 24.16666793823242 19.16666793823242 24.16666793823242 C 19.57405853271484 24.16666793823242 19.98144721984863 24.29084587097168 20.32914733886719 24.53919982910156 L 28.83333778381348 30.61361694335938 M 30.83333778381348 34.5 L 19.16666793823242 26.16666984558105 L 7.499998092651367 34.5 L 7.499998092651367 7.833330154418945 C 7.499998092651367 5.992380142211914 8.992387771606445 4.5 10.83333778381348 4.5 L 27.49999809265137 4.5 C 29.3409481048584 4.5 30.83333778381348 5.992390155792236 30.83333778381348 7.833330154418945 L 30.83333778381348 34.5 Z" stroke="none" fill="#a7c2cc"/>
    </g>
  </g>
</svg>
