<svg xmlns="http://www.w3.org/2000/svg" width="32.292" height="32.292" viewBox="0 0 32.292 32.292">
  <g id="Group_1204" data-name="Group 1204" transform="translate(-404.045 337.863)">
    <path id="Path_2857" data-name="Path 2857" d="M428.653-324.916a9.685,9.685,0,0,0-7.54-9.44,2.385,2.385,0,0,0,.268-1.085,2.423,2.423,0,0,0-2.422-2.422,2.422,2.422,0,0,0-2.422,2.422,2.387,2.387,0,0,0,.268,1.087,9.686,9.686,0,0,0-7.527,9.439v9.687L406.049-312v1.615h10.112a3.194,3.194,0,0,0-.431,1.584,3.228,3.228,0,0,0,3.229,3.229,3.229,3.229,0,0,0,3.229-3.229,3.194,3.194,0,0,0-.431-1.584h10.125V-312l-3.229-3.229Z" transform="translate(1.232 0)" fill="#294658"/>
    <path id="Path_2858" data-name="Path 2858" d="M423.8-325.139h3.229a16.12,16.12,0,0,0-5.766-12.361l-2.078,2.472A12.9,12.9,0,0,1,423.8-325.139Z" transform="translate(9.306 0.223)" fill="#294658"/>
    <path id="Path_2859" data-name="Path 2859" d="M411.9-335.032l-2.078-2.472a16.123,16.123,0,0,0-5.772,12.368h3.229A12.9,12.9,0,0,1,411.9-335.032Z" transform="translate(0 0.221)" fill="#294658"/>
  </g>
</svg>
